<svg width="8" height="8" viewBox="0 0 8 8" fill="none" xmlns="http://www.w3.org/2000/svg">
<mask id="mask0_3296_4087" style="mask-type:alpha" maskUnits="userSpaceOnUse" x="0" y="0" width="8" height="8">
<rect x="0.5" y="0.5" width="7" height="7" fill="#D9D9D9" stroke="#3DCFB6"/>
</mask>
<g mask="url(#mask0_3296_4087)">
<path d="M5.47718 5.48499C5.06645 5.89571 4.58019 6.09687 3.98906 6.09687C3.39793 6.09687 2.91167 5.89571 2.50095 5.48499C2.09023 5.07427 1.88906 4.588 1.88906 3.99687C1.88906 3.40575 2.09023 2.91948 2.50095 2.50876C2.91167 2.09804 3.39793 1.89687 3.98906 1.89687C4.58019 1.89687 5.06645 2.09804 5.47718 2.50876C5.8879 2.91948 6.08906 3.40575 6.08906 3.99687C6.08906 4.588 5.8879 5.07427 5.47718 5.48499Z" fill="#3DCFB6" stroke="#3DCFB6"/>
</g>
</svg>
