<svg width="830" height="463" viewBox="0 0 830 463" fill="none" xmlns="http://www.w3.org/2000/svg">
<g filter="url(#filter0_d_603_30)">
<path d="M567.37 16.6633V11.6633H562.37H471.168H466.168V16.6633V439.196V444.196H471.168H562.37H567.37V439.196V324.234L603.528 283.563L695.692 441.713L697.139 444.196H700.012H808H816.882L812.275 436.602L670.915 203.616L809.753 19.6756L815.8 11.6633H805.762H693.858H691.254L689.761 13.796L594.083 150.481L594.056 150.519L594.03 150.558L567.37 190.21V16.6633Z" fill="black"/>
<path d="M567.37 16.6633V11.6633H562.37H471.168H466.168V16.6633V439.196V444.196H471.168H562.37H567.37V439.196V324.234L603.528 283.563L695.692 441.713L697.139 444.196H700.012H808H816.882L812.275 436.602L670.915 203.616L809.753 19.6756L815.8 11.6633H805.762H693.858H691.254L689.761 13.796L594.083 150.481L594.056 150.519L594.03 150.558L567.37 190.21V16.6633Z" fill="#3DCFB6"/>
<path d="M567.37 16.6633V11.6633H562.37H471.168H466.168V16.6633V439.196V444.196H471.168H562.37H567.37V439.196V324.234L603.528 283.563L695.692 441.713L697.139 444.196H700.012H808H816.882L812.275 436.602L670.915 203.616L809.753 19.6756L815.8 11.6633H805.762H693.858H691.254L689.761 13.796L594.083 150.481L594.056 150.519L594.03 150.558L567.37 190.21V16.6633Z" stroke="black" stroke-width="10"/>
<path d="M232.798 310.272L232.807 310.297L232.816 310.323C234.631 315.286 235.59 321.073 235.59 327.759C235.59 335.428 233.753 342.283 230.127 348.437C226.619 354.392 221.118 359.277 213.294 362.987C205.795 366.438 195.591 368.32 182.399 368.32C170.972 368.32 160.748 367.191 151.692 364.981C142.812 362.813 135.399 359.246 129.334 354.361C123.523 349.531 118.961 343.185 115.699 335.179C112.458 327.031 110.745 316.869 110.745 304.543V299.543H105.745H14.543H9.54297V304.543C9.54297 329.572 14.4288 351.503 24.401 370.163L24.4159 370.191L24.4313 370.219C34.4842 388.468 47.8539 403.551 64.5187 415.41L64.5298 415.418L64.5409 415.426C81.2508 427.181 99.8613 435.931 120.338 441.688L120.36 441.694L120.381 441.7C140.761 447.232 161.438 450 182.399 450C205.347 450 226.242 447.345 245.041 441.972C263.834 436.601 280.092 428.7 293.719 418.199L293.728 418.192C307.555 407.485 318.133 394.502 325.385 379.265C332.848 363.974 336.512 346.573 336.512 327.178C336.512 309.015 333.434 292.571 327.167 277.933C321.103 263.334 312.022 250.293 299.992 238.821C288.024 227.408 273.346 217.279 256.031 208.396C238.964 199.545 219.407 191.516 197.386 184.292L197.347 184.279L197.307 184.266C184.951 180.441 174.037 176.441 164.546 172.276C155.092 168.127 147.204 163.84 140.829 159.439C134.729 154.91 130.186 150.239 127.05 145.472C124.208 140.688 122.775 135.418 122.775 129.552C122.775 121.984 124.745 115.081 128.704 108.736C132.772 102.508 138.776 97.4891 146.978 93.7667L147 93.7565L147.022 93.7462C155.319 89.8822 165.833 87.8292 178.762 87.8292C191.984 87.8292 202.562 90.2414 210.762 94.7547L210.781 94.765L210.799 94.7751C219.283 99.3514 225.423 105.591 229.408 113.516L229.437 113.573L229.468 113.63C233.685 121.504 235.869 130.73 235.869 141.45V146.45H240.869H331.512H336.512V141.45C336.512 114.678 329.952 90.9818 316.691 70.5446C303.472 49.978 285.023 34.0995 261.506 22.8974C238.143 11.486 211.171 5.85938 180.721 5.85938C157.932 5.85938 136.931 8.71465 117.756 14.4803C98.6076 20.0445 81.8297 28.2247 67.4953 39.0715C53.1318 49.7466 41.9082 62.689 33.8993 77.8863C25.838 93.1829 21.8524 110.247 21.8524 128.971C21.8524 148.204 25.6219 165.276 33.331 180.039L33.3431 180.062L33.3554 180.086C41.1446 194.629 51.7467 207.327 65.1056 218.172C78.3029 228.886 93.2772 238.277 110.004 246.361L110.035 246.376L110.067 246.391C126.84 254.211 144.449 261.243 162.891 267.49L162.918 267.499L162.946 267.508C178.852 272.688 191.547 277.722 201.114 282.591L201.149 282.608L201.184 282.626C210.846 287.353 218.049 291.955 222.989 296.372C227.883 300.749 231.073 305.391 232.798 310.272Z" fill="black"/>
<path d="M232.798 310.272L232.807 310.297L232.816 310.323C234.631 315.286 235.59 321.073 235.59 327.759C235.59 335.428 233.753 342.283 230.127 348.437C226.619 354.392 221.118 359.277 213.294 362.987C205.795 366.438 195.591 368.32 182.399 368.32C170.972 368.32 160.748 367.191 151.692 364.981C142.812 362.813 135.399 359.246 129.334 354.361C123.523 349.531 118.961 343.185 115.699 335.179C112.458 327.031 110.745 316.869 110.745 304.543V299.543H105.745H14.543H9.54297V304.543C9.54297 329.572 14.4288 351.503 24.401 370.163L24.4159 370.191L24.4313 370.219C34.4842 388.468 47.8539 403.551 64.5187 415.41L64.5298 415.418L64.5409 415.426C81.2508 427.181 99.8613 435.931 120.338 441.688L120.36 441.694L120.381 441.7C140.761 447.232 161.438 450 182.399 450C205.347 450 226.242 447.345 245.041 441.972C263.834 436.601 280.092 428.7 293.719 418.199L293.728 418.192C307.555 407.485 318.133 394.502 325.385 379.265C332.848 363.974 336.512 346.573 336.512 327.178C336.512 309.015 333.434 292.571 327.167 277.933C321.103 263.334 312.022 250.293 299.992 238.821C288.024 227.408 273.346 217.279 256.031 208.396C238.964 199.545 219.407 191.516 197.386 184.292L197.347 184.279L197.307 184.266C184.951 180.441 174.037 176.441 164.546 172.276C155.092 168.127 147.204 163.84 140.829 159.439C134.729 154.91 130.186 150.239 127.05 145.472C124.208 140.688 122.775 135.418 122.775 129.552C122.775 121.984 124.745 115.081 128.704 108.736C132.772 102.508 138.776 97.4891 146.978 93.7667L147 93.7565L147.022 93.7462C155.319 89.8822 165.833 87.8292 178.762 87.8292C191.984 87.8292 202.562 90.2414 210.762 94.7547L210.781 94.765L210.799 94.7751C219.283 99.3514 225.423 105.591 229.408 113.516L229.437 113.573L229.468 113.63C233.685 121.504 235.869 130.73 235.869 141.45V146.45H240.869H331.512H336.512V141.45C336.512 114.678 329.952 90.9818 316.691 70.5446C303.472 49.978 285.023 34.0995 261.506 22.8974C238.143 11.486 211.171 5.85938 180.721 5.85938C157.932 5.85938 136.931 8.71465 117.756 14.4803C98.6076 20.0445 81.8297 28.2247 67.4953 39.0715C53.1318 49.7466 41.9082 62.689 33.8993 77.8863C25.838 93.1829 21.8524 110.247 21.8524 128.971C21.8524 148.204 25.6219 165.276 33.331 180.039L33.3431 180.062L33.3554 180.086C41.1446 194.629 51.7467 207.327 65.1056 218.172C78.3029 228.886 93.2772 238.277 110.004 246.361L110.035 246.376L110.067 246.391C126.84 254.211 144.449 261.243 162.891 267.49L162.918 267.499L162.946 267.508C178.852 272.688 191.547 277.722 201.114 282.591L201.149 282.608L201.184 282.626C210.846 287.353 218.049 291.955 222.989 296.372C227.883 300.749 231.073 305.391 232.798 310.272Z" fill="#3DCFB6"/>
<path d="M232.798 310.272L232.807 310.297L232.816 310.323C234.631 315.286 235.59 321.073 235.59 327.759C235.59 335.428 233.753 342.283 230.127 348.437C226.619 354.392 221.118 359.277 213.294 362.987C205.795 366.438 195.591 368.32 182.399 368.32C170.972 368.32 160.748 367.191 151.692 364.981C142.812 362.813 135.399 359.246 129.334 354.361C123.523 349.531 118.961 343.185 115.699 335.179C112.458 327.031 110.745 316.869 110.745 304.543V299.543H105.745H14.543H9.54297V304.543C9.54297 329.572 14.4288 351.503 24.401 370.163L24.4159 370.191L24.4313 370.219C34.4842 388.468 47.8539 403.551 64.5187 415.41L64.5298 415.418L64.5409 415.426C81.2508 427.181 99.8613 435.931 120.338 441.688L120.36 441.694L120.381 441.7C140.761 447.232 161.438 450 182.399 450C205.347 450 226.242 447.345 245.041 441.972C263.834 436.601 280.092 428.7 293.719 418.199L293.728 418.192C307.555 407.485 318.133 394.502 325.385 379.265C332.848 363.974 336.512 346.573 336.512 327.178C336.512 309.015 333.434 292.571 327.167 277.933C321.103 263.334 312.022 250.293 299.992 238.821C288.024 227.408 273.346 217.279 256.031 208.396C238.964 199.545 219.407 191.516 197.386 184.292L197.347 184.279L197.307 184.266C184.951 180.441 174.037 176.441 164.546 172.276C155.092 168.127 147.204 163.84 140.829 159.439C134.729 154.91 130.186 150.239 127.05 145.472C124.208 140.688 122.775 135.418 122.775 129.552C122.775 121.984 124.745 115.081 128.704 108.736C132.772 102.508 138.776 97.4891 146.978 93.7667L147 93.7565L147.022 93.7462C155.319 89.8822 165.833 87.8292 178.762 87.8292C191.984 87.8292 202.562 90.2414 210.762 94.7547L210.781 94.765L210.799 94.7751C219.283 99.3514 225.423 105.591 229.408 113.516L229.437 113.573L229.468 113.63C233.685 121.504 235.869 130.73 235.869 141.45V146.45H240.869H331.512H336.512V141.45C336.512 114.678 329.952 90.9818 316.691 70.5446C303.472 49.978 285.023 34.0995 261.506 22.8974C238.143 11.486 211.171 5.85938 180.721 5.85938C157.932 5.85938 136.931 8.71465 117.756 14.4803C98.6076 20.0445 81.8297 28.2247 67.4953 39.0715C53.1318 49.7466 41.9082 62.689 33.8993 77.8863C25.838 93.1829 21.8524 110.247 21.8524 128.971C21.8524 148.204 25.6219 165.276 33.331 180.039L33.3431 180.062L33.3554 180.086C41.1446 194.629 51.7467 207.327 65.1056 218.172C78.3029 228.886 93.2772 238.277 110.004 246.361L110.035 246.376L110.067 246.391C126.84 254.211 144.449 261.243 162.891 267.49L162.918 267.499L162.946 267.508C178.852 272.688 191.547 277.722 201.114 282.591L201.149 282.608L201.184 282.626C210.846 287.353 218.049 291.955 222.989 296.372C227.883 300.749 231.073 305.391 232.798 310.272Z" stroke="black" stroke-width="10"/>
</g>
<defs>
<filter id="filter0_d_603_30" x="0.542969" y="0.859375" width="829.296" height="462.141" filterUnits="userSpaceOnUse" color-interpolation-filters="sRGB">
<feFlood flood-opacity="0" result="BackgroundImageFix"/>
<feColorMatrix in="SourceAlpha" type="matrix" values="0 0 0 0 0 0 0 0 0 0 0 0 0 0 0 0 0 0 127 0" result="hardAlpha"/>
<feOffset dy="4"/>
<feGaussianBlur stdDeviation="2"/>
<feComposite in2="hardAlpha" operator="out"/>
<feColorMatrix type="matrix" values="0 0 0 0 0 0 0 0 0 0 0 0 0 0 0 0 0 0 0.25 0"/>
<feBlend mode="normal" in2="BackgroundImageFix" result="effect1_dropShadow_603_30"/>
<feBlend mode="normal" in="SourceGraphic" in2="effect1_dropShadow_603_30" result="shape"/>
</filter>
</defs>
</svg>
