<svg width="176" height="105" viewBox="0 0 176 105" fill="none" xmlns="http://www.w3.org/2000/svg">
<g filter="url(#filter0_d_13_93)">
<path d="M162.331 70.3233L162.202 68.603L162.167 68.1406H161.703H154.836H154.336V68.6406V94V94.5H154.836H162.148H162.648V94V77.7452C162.826 77.3683 163.051 77.0477 163.319 76.7785C163.711 76.4013 164.204 76.1106 164.811 75.9129L164.811 75.913L164.818 75.9108C165.441 75.6984 166.196 75.5859 167.094 75.5859C167.433 75.5859 167.846 75.6081 168.336 75.6541L168.344 75.6548L168.352 75.6553C168.844 75.6861 169.235 75.724 169.527 75.7679L170.092 75.8525L170.101 75.282L170.219 68.4617L170.225 68.1015L169.885 67.9816C169.574 67.8719 169.208 67.7954 168.794 67.7457C168.385 67.6966 167.982 67.6719 167.586 67.6719C166.345 67.6719 165.221 67.975 164.229 68.5908C163.509 69.0371 162.878 69.6167 162.331 70.3233Z" fill="#3DCFB6" stroke="black"/>
<path d="M161.446 71.8765L161.573 73.5603L162.383 72.0788C162.46 71.9383 162.539 71.8015 162.621 71.6683L162.623 71.6654C162.814 71.3509 163.017 71.0613 163.233 70.7962C163.684 70.2407 164.192 69.7902 164.756 69.4404C165.576 68.9312 166.515 68.6719 167.586 68.6719C167.94 68.6719 168.303 68.694 168.675 68.7386C168.877 68.7629 169.056 68.7932 169.212 68.8286L169.111 74.7114C168.964 74.6972 168.807 74.6842 168.639 74.6722C168.568 74.6672 168.496 74.6624 168.422 74.6577C167.915 74.6104 167.472 74.5859 167.094 74.5859C166.118 74.5859 165.249 74.7075 164.498 74.9631C163.859 75.1716 163.298 75.4749 162.824 75.8782C162.755 75.9375 162.687 75.9988 162.621 76.0622L162.621 76.0621L162.615 76.0683C162.229 76.4543 161.922 76.9117 161.691 77.4347L161.648 77.5312V77.6366V93.5H155.336V69.1406H161.239L161.446 71.8765ZM163.129 67.603L163.094 67.1406H162.631H153.836H153.336V67.6406V95V95.5H153.836H163.148H163.648V95V77.9873C163.758 77.7942 163.883 77.631 164.02 77.4918C164.29 77.2347 164.644 77.0189 165.121 76.8638L165.121 76.8638L165.124 76.8627L165.137 76.8584L165.137 76.8584L165.14 76.8573C165.634 76.6889 166.276 76.5859 167.094 76.5859C167.392 76.5859 167.773 76.6056 168.243 76.6497L168.258 76.6512L168.266 76.6519L168.274 76.6524L168.289 76.6533C168.768 76.6832 169.127 76.719 169.379 76.7568L170.508 76.9261L171.072 77.0108L171.082 76.4403L171.231 67.7585L171.237 67.3983L170.897 67.2784L170.218 67.0386C169.817 66.8971 169.373 66.8081 168.913 66.7529C168.466 66.6992 168.024 66.6719 167.586 66.6719C166.175 66.6719 164.865 67.0189 163.701 67.7412C163.518 67.855 163.34 67.9761 163.167 68.1043L163.129 67.603Z" fill="#3DCFB6" stroke="black"/>
<path d="M130.873 91.2054L130.873 91.2055L130.878 91.2104C132.04 92.3884 133.451 93.3078 135.103 93.9717C136.765 94.6399 138.635 94.9688 140.703 94.9688C142.388 94.9688 143.912 94.7442 145.269 94.2863C146.607 93.835 147.765 93.2501 148.736 92.5258L148.737 92.525C149.707 91.7982 150.475 91.0341 151.029 90.2286L151.249 89.9086L150.994 89.6162L147.572 85.7022L147.179 85.253L146.806 85.7181C146.088 86.6116 145.247 87.2619 144.281 87.6805C143.297 88.0912 142.262 88.2969 141.172 88.2969C140.293 88.2969 139.528 88.1433 138.868 87.8482C138.196 87.5477 137.629 87.1359 137.162 86.6125C136.697 86.091 136.339 85.4578 136.092 84.704C136.028 84.5067 135.972 84.3033 135.924 84.0938H151.25H151.75V83.5938V80.5938C151.75 78.6592 151.486 76.9015 150.951 75.3263C150.432 73.7381 149.666 72.3719 148.647 71.2374C147.626 70.0854 146.376 69.2066 144.903 68.601C143.426 67.9777 141.757 67.6719 139.906 67.6719C137.928 67.6719 136.148 68.0096 134.575 68.6973C133.009 69.3665 131.681 70.3244 130.599 71.5706L130.599 71.571C129.537 72.7964 128.732 74.238 128.182 75.8888C127.632 77.5394 127.359 79.3357 127.359 81.2734V82.1641C127.359 83.9099 127.659 85.5577 128.261 87.1033C128.862 88.6484 129.734 90.017 130.873 91.2054ZM143.578 78.3828H135.962C136.112 77.5567 136.343 76.849 136.647 76.2532C136.97 75.6363 137.389 75.1752 137.9 74.8524C138.395 74.5398 139.038 74.3672 139.859 74.3672C140.732 74.3672 141.408 74.5419 141.918 74.8555L141.924 74.8594L141.93 74.8631C142.463 75.1696 142.862 75.6062 143.133 76.1874L143.132 76.1875L143.137 76.196C143.426 76.7877 143.578 77.4913 143.578 78.3203V78.3828Z" fill="#3DCFB6" stroke="black"/>
<path d="M130.152 91.8976L130.154 91.9001L130.164 91.9101L130.166 91.9126C131.432 93.1965 132.962 94.189 134.73 94.8996C136.529 95.623 138.529 95.9688 140.703 95.9688C142.475 95.9688 144.11 95.7326 145.589 95.2338C147.008 94.7551 148.264 94.1254 149.334 93.3274L149.335 93.3266L149.337 93.325C150.37 92.5508 151.223 91.7116 151.853 90.7951L152.293 90.1551L152.513 89.8351L152.258 89.5427L148.368 85.0938H152.25H152.75V84.5938V80.5938C152.75 78.5713 152.475 76.7042 151.9 75.0101C151.343 73.3079 150.512 71.8189 149.393 70.5718C148.268 69.3033 146.892 68.3386 145.288 67.6778C143.669 66.9955 141.866 66.6719 139.906 66.6719C137.815 66.6719 135.896 67.0288 134.178 67.7794C132.48 68.5056 131.028 69.5512 129.844 70.9149L129.844 70.9153L129.843 70.916C129.843 70.9161 129.843 70.9161 129.843 70.9161C128.688 72.2487 127.821 73.8078 127.233 75.5725C126.645 77.3371 126.359 79.2416 126.359 81.2734V82.1641C126.359 84.0266 126.679 85.7982 127.329 87.4663C127.978 89.1328 128.92 90.6135 130.152 91.8976ZM137.331 85.0938H146.024C145.403 85.8669 144.692 86.4111 143.889 86.7603C143.032 87.1173 142.13 87.2969 141.172 87.2969C140.411 87.2969 139.789 87.1642 139.276 86.9352C138.728 86.6901 138.278 86.3608 137.909 85.9469C137.689 85.7009 137.495 85.4185 137.331 85.0938ZM146.864 87.1352C146.978 87.0255 147.089 86.9118 147.198 86.794L149.977 89.973C149.518 90.562 148.908 91.1467 148.138 91.7244C147.266 92.375 146.206 92.915 144.95 93.3387C143.713 93.7558 142.3 93.9688 140.703 93.9688C138.74 93.9688 137.001 93.6569 135.476 93.0439C133.941 92.4271 132.65 91.5816 131.593 90.5108C130.546 89.4186 129.747 88.163 129.192 86.7404C128.638 85.3173 128.359 83.7932 128.359 82.1641V81.2734C128.359 79.4299 128.618 77.7418 129.131 76.205C129.643 74.6684 130.385 73.3445 131.354 72.2263C132.334 71.0981 133.537 70.2281 134.97 69.6161L134.97 69.6161L134.974 69.6143C136.401 68.9901 138.042 68.6719 139.906 68.6719C141.648 68.6719 143.182 68.9595 144.516 69.5231L144.516 69.5231L144.521 69.5249C145.859 70.0753 146.983 70.8675 147.899 71.9018L147.902 71.9045C148.819 72.9253 149.52 74.1671 150.001 75.6396L150.001 75.6396L150.003 75.6454C150.498 77.1008 150.75 78.7482 150.75 80.5938V83.0938H135.321H134.74L134.827 83.6679C134.881 84.0342 134.958 84.3887 135.055 84.7309C135.082 84.8265 135.111 84.9211 135.142 85.0147C135.427 85.886 135.85 86.6434 136.416 87.2781C136.98 87.911 137.664 88.4054 138.46 88.7612C139.268 89.1224 140.176 89.2969 141.172 89.2969C142.393 89.2969 143.56 89.0655 144.669 88.602L144.669 88.602L144.675 88.5995C145.485 88.2492 146.215 87.76 146.864 87.1352ZM134.881 78.8137L134.801 79.3828H135.376H144.078H144.578V78.8828V78.3203C144.578 78.1612 144.573 78.0046 144.563 77.8508C144.514 77.0854 144.342 76.3863 144.037 75.7613C143.684 75.0032 143.148 74.4113 142.435 73.9999C141.727 73.5663 140.858 73.3672 139.859 73.3672C138.899 73.3672 138.058 73.5696 137.366 74.0069C136.69 74.4338 136.156 75.0346 135.76 75.7918L135.76 75.7918L135.758 75.7957C135.458 76.3823 135.228 77.0431 135.065 77.7739C135.027 77.947 134.992 78.124 134.961 78.305C134.931 78.4724 134.905 78.6419 134.881 78.8137ZM142.23 76.6178L142.23 76.6178L142.234 76.6263L142.238 76.6348C142.238 76.6348 142.238 76.6348 142.238 76.6348C142.345 76.8528 142.43 77.1004 142.489 77.3828H137.251C137.337 77.1384 137.432 76.9155 137.535 76.7127C137.785 76.2375 138.088 75.9165 138.434 75.6979C138.731 75.51 139.177 75.3672 139.859 75.3672C140.603 75.3672 141.083 75.5162 141.394 75.7072C141.394 75.7072 141.394 75.7072 141.394 75.7072L141.406 75.715L141.413 75.7189L141.419 75.7226L141.432 75.73C141.781 75.9308 142.04 76.2094 142.226 76.6092L142.226 76.6092L142.23 76.6178Z" fill="#3DCFB6" stroke="black"/>
<path d="M109.422 94V76.169C109.449 76.1255 109.476 76.0827 109.504 76.0404C109.85 75.514 110.289 75.1108 110.823 74.823L110.823 74.8231L110.832 74.8183C111.351 74.5255 111.996 74.3672 112.789 74.3672C113.556 74.3672 114.174 74.4782 114.659 74.6803L114.659 74.6803L114.664 74.6821C115.126 74.8695 115.475 75.1895 115.719 75.6659C115.964 76.1422 116.109 76.8707 116.109 77.8984V94V94.5H116.609H123.969H124.469V94V77.9219C124.469 76.0786 124.279 74.5029 123.885 73.2067C123.493 71.9024 122.914 70.8286 122.13 70.0095C121.372 69.185 120.459 68.5857 119.399 68.2155C118.355 67.8508 117.213 67.6719 115.977 67.6719C114.442 67.6719 113.026 67.9661 111.736 68.5616L111.734 68.5627C110.76 69.0177 109.89 69.6316 109.123 70.4012L108.975 68.5996L108.937 68.1406H108.477H101.586H101.086V68.6406V94V94.5H101.586H108.922H109.422V94Z" fill="#3DCFB6" stroke="black"/>
<path d="M125.469 95.5H124.969H115.609H115.109V95V77.8984C115.109 76.9401 114.97 76.3951 114.83 76.1227C114.69 75.8499 114.518 75.7022 114.288 75.6089L114.476 75.1455L114.288 75.6089L114.279 75.6052L114.275 75.6034L114.275 75.6034C113.945 75.466 113.466 75.3672 112.789 75.3672C112.13 75.3672 111.662 75.4983 111.323 75.6893C111.323 75.6893 111.323 75.6893 111.323 75.6893L111.314 75.6941L111.306 75.6989L111.306 75.6989L111.297 75.7035C110.953 75.8888 110.664 76.139 110.422 76.4705V95V95.5H109.922H100.586H100.086V95V67.6406V67.1406H100.586H109.398H109.858L109.896 67.5996L109.963 68.417C110.39 68.1305 110.839 67.8769 111.31 67.6568M125.469 95.5L111.31 67.6568M125.469 95.5V95M125.469 95.5V95M111.31 67.6568L111.314 67.6547M111.31 67.6568L111.314 67.6547M125.469 95V77.9219C125.469 76.0177 125.273 74.3378 124.842 72.9184C124.418 71.5046 123.773 70.2829 122.86 69.3253C121.991 68.383 120.941 67.6946 119.729 67.2714C118.565 66.865 117.309 66.6719 115.977 66.6719C114.311 66.6719 112.751 66.9919 111.317 67.6537L111.314 67.6547M125.469 95L111.314 67.6547M108.489 75.7806L108.422 75.8969V76.0313V93.5H102.086V69.1406H108.016L108.223 71.6526L108.328 72.9295L109.115 71.919C109.149 71.876 109.183 71.8335 109.217 71.7913C109.46 71.491 109.717 71.2127 109.986 70.9559C110.633 70.3383 111.356 69.8433 112.156 69.4691C113.303 68.94 114.574 68.6719 115.977 68.6719C117.116 68.6719 118.145 68.8367 119.07 69.1595C119.976 69.4762 120.75 69.985 121.397 70.6898L121.397 70.6898L121.405 70.6975C122.056 71.3776 122.569 72.3021 122.927 73.4952L122.928 73.4969C123.284 74.6694 123.469 76.1403 123.469 77.9219V93.5H117.109V77.8984C117.109 76.8012 116.958 75.8891 116.609 75.2091C116.26 74.53 115.735 74.0378 115.042 73.7563C114.402 73.4902 113.646 73.3672 112.789 73.3672C111.865 73.3672 111.043 73.5519 110.345 73.9449C110.08 74.0877 109.833 74.2535 109.604 74.4423C109.244 74.7388 108.932 75.0892 108.668 75.4908C108.606 75.5852 108.546 75.6818 108.489 75.7806Z" fill="#3DCFB6" stroke="black"/>
<path d="M89.7547 86.0113L89.7545 86.0114L89.763 86.0216C89.9854 86.2908 90.0938 86.5921 90.0938 86.9453C90.0938 87.3431 89.9846 87.684 89.7689 87.9852C89.5526 88.2719 89.2274 88.5182 88.7627 88.7095C88.3104 88.8958 87.7161 89 86.9609 89C86.2152 89 85.5575 88.8907 84.9815 88.6807C84.4275 88.4636 83.982 88.1298 83.6345 87.6767C83.3195 87.2465 83.1297 86.6649 83.1012 85.8956L83.0834 85.4141H82.6016H75.7344H75.2344V85.9141C75.2344 87.3953 75.6818 88.8303 76.5537 90.2121L76.5537 90.2121L76.5575 90.218C77.4571 91.6008 78.7791 92.7325 80.4963 93.6235C82.2409 94.5287 84.348 94.9688 86.7969 94.9688C88.507 94.9688 90.0557 94.769 91.438 94.3625C92.8128 93.9581 94.0083 93.3877 95.0156 92.6446C96.0208 91.903 96.7993 91.0286 97.3381 90.0193C97.8954 89.005 98.1719 87.8911 98.1719 86.6875C98.1719 84.8816 97.7026 83.3747 96.7182 82.2167C95.7829 81.0984 94.5399 80.2341 93.0085 79.6149C91.5214 79.0073 89.8807 78.538 88.0887 78.2047C87.2752 78.0357 86.5931 77.8609 86.0389 77.6812C85.5098 77.5047 85.0951 77.3128 84.7838 77.1115C84.4907 76.8968 84.2898 76.6843 84.1616 76.4795C84.0506 76.263 83.9922 76.0202 83.9922 75.7422C83.9922 75.3198 84.0987 74.9684 84.3004 74.6695C84.5249 74.3597 84.8342 74.1099 85.2449 73.9244L85.2449 73.9245L85.2513 73.9215C85.6735 73.7236 86.1769 73.6172 86.7734 73.6172C87.5677 73.6172 88.156 73.7505 88.5731 73.978L88.573 73.9781L88.5835 73.9835C89.013 74.2048 89.3174 74.5074 89.5166 74.8934C89.7233 75.2938 89.8359 75.7824 89.8359 76.375V76.875H90.3359H97.6484H98.1484V76.375C98.1484 74.684 97.6823 73.1681 96.7447 71.8449C95.8082 70.5076 94.4789 69.4849 92.7827 68.7669C91.0813 68.0311 89.0815 67.6719 86.7969 67.6719C85.1293 67.6719 83.6219 67.8883 82.2811 68.3298L82.2794 68.3303C80.9644 68.7687 79.8299 69.3742 78.885 70.1533L78.885 70.1533L78.8817 70.1561C77.9575 70.9317 77.2405 71.8296 76.7388 72.8497L76.7388 72.8496L76.7359 72.8556C76.2507 73.8763 76.0078 74.9575 76.0078 76.0938C76.0078 77.2584 76.2496 78.3167 76.7452 79.2566L76.7452 79.2566L76.747 79.26C77.2359 80.1703 77.9166 80.9579 78.7811 81.6229L78.7811 81.6229L78.7859 81.6266C79.6386 82.2661 80.6314 82.8098 81.7596 83.2611L81.7596 83.2611L81.7654 83.2634C82.8859 83.6956 84.0909 84.0464 85.3792 84.317C86.7112 84.6113 87.7181 84.9009 88.4142 85.1823L88.4175 85.1837C89.1398 85.4696 89.5557 85.757 89.7547 86.0113Z" fill="#3DCFB6" stroke="black"/>
<mask id="path-8-outside-1_13_93" maskUnits="userSpaceOnUse" x="73.7344" y="66.1719" width="26" height="31" fill="black">
<rect fill="white" x="73.7344" y="66.1719" width="26" height="31"/>
<path fill-rule="evenodd" clip-rule="evenodd" d="M89.3691 86.3298L89.3609 86.3194C89.2442 86.1703 88.9281 85.9235 88.2335 85.6486L88.2268 85.6459C87.5689 85.38 86.5939 85.0975 85.2737 84.8057C83.9627 84.5303 82.7327 84.1724 81.5854 83.7299L81.5739 83.7254C80.4113 83.2604 79.3788 82.6962 78.4859 82.0266L78.4762 82.0192C77.5597 81.3143 76.8311 80.4734 76.3065 79.4966L76.3029 79.4899C75.7649 78.4694 75.5078 77.3293 75.5078 76.0938C75.5078 74.8838 75.767 73.7292 76.2844 72.641L76.2901 72.629C76.8247 71.5419 77.5869 70.59 78.5603 69.7731L78.5669 69.7675C79.5659 68.9437 80.7569 68.3108 82.1213 67.856L82.1247 67.8548C83.5251 67.3937 85.0867 67.1719 86.7969 67.1719C89.1317 67.1719 91.2015 67.5387 92.9793 68.3072C94.7469 69.0557 96.1556 70.1324 97.1535 71.5569C98.1537 72.9691 98.6484 74.5868 98.6484 76.375V77.375H89.3359V76.375C89.3359 75.8461 89.2356 75.4392 89.0723 75.1227C88.9239 74.8352 88.6979 74.6049 88.3545 74.428L88.344 74.4226L88.3336 74.417C88.0151 74.2432 87.5183 74.1172 86.7734 74.1172C86.2366 74.1172 85.808 74.2127 85.4635 74.3742L85.4507 74.3802C85.1143 74.5321 84.8782 74.7268 84.7102 74.956C84.5722 75.1635 84.4922 75.4137 84.4922 75.7422C84.4922 75.9374 84.5306 76.0956 84.597 76.2322C84.6838 76.3649 84.8297 76.5237 85.0674 76.6995C85.3318 76.8684 85.7007 77.0412 86.1953 77.2063C86.7255 77.3781 87.3867 77.548 88.1853 77.7141C90.0038 78.0527 91.6758 78.5304 93.1968 79.1517C94.791 79.7964 96.1049 80.7046 97.1004 81.8944C98.1785 83.1634 98.6719 84.7943 98.6719 86.6875C98.6719 87.9698 98.3767 89.1661 97.7778 90.2574C97.2001 91.3384 96.3698 92.2669 95.3124 93.0469C94.2509 93.83 93.0007 94.424 91.579 94.8422C90.1426 95.2647 88.5452 95.4688 86.7969 95.4688C84.2897 95.4688 82.0989 95.0184 80.266 94.0673C78.4879 93.1447 77.0939 91.9594 76.1383 90.4907L76.1308 90.479C75.2152 89.0279 74.7344 87.5015 74.7344 85.9141V84.9141H83.5652L83.6009 85.8771C83.6266 86.5712 83.795 87.0472 84.0347 87.3768C84.3235 87.7518 84.6912 88.0288 85.1584 88.213C85.6699 88.3986 86.2666 88.5 86.9609 88.5C87.6743 88.5 88.1989 88.401 88.5724 88.2472C88.9696 88.0837 89.2143 87.888 89.3661 87.6889C89.5161 87.4774 89.5938 87.2405 89.5938 86.9453C89.5938 86.7076 89.5254 86.5191 89.3775 86.34L89.3691 86.3298ZM90.1719 88.2812C89.8906 88.6562 89.4844 88.9531 88.9531 89.1719C88.4219 89.3906 87.7578 89.5 86.9609 89.5C86.1641 89.5 85.4453 89.3828 84.8047 89.1484C84.1641 88.8984 83.6406 88.5078 83.2344 87.9766C82.8438 87.4453 82.6328 86.7578 82.6016 85.9141H75.7344C75.7344 86.2493 75.759 86.5826 75.8082 86.9141C75.9609 87.9424 76.3503 88.9528 76.9766 89.9453C77.8203 91.2422 79.0703 92.3203 80.7266 93.1797C82.3828 94.0391 84.4062 94.4688 86.7969 94.4688C88.4688 94.4688 89.9688 94.2734 91.2969 93.8828C92.625 93.4922 93.7656 92.9453 94.7188 92.2422C95.6719 91.5391 96.3984 90.7188 96.8984 89.7812C97.4141 88.8438 97.6719 87.8125 97.6719 86.6875C97.6719 84.9688 97.2266 83.5859 96.3359 82.5391C95.4609 81.4922 94.2891 80.6719 92.8203 80.0781C91.3672 79.4844 89.7578 79.0234 87.9922 78.6953C87.1641 78.5234 86.4609 78.3438 85.8828 78.1562C85.3203 77.9688 84.8594 77.7578 84.5 77.5234C84.1562 77.2734 83.8984 77.0078 83.7266 76.7266C83.5703 76.4297 83.4922 76.1016 83.4922 75.7422C83.4922 75.2266 83.625 74.7734 83.8906 74.3828C84.1719 73.9922 84.5547 73.6875 85.0391 73.4688C85.5391 73.2344 86.1172 73.1172 86.7734 73.1172C87.6172 73.1172 88.2969 73.2578 88.8125 73.5391C89.3281 73.8047 89.7109 74.1797 89.9609 74.6641C90.2109 75.1484 90.3359 75.7188 90.3359 76.375H97.6484C97.6484 76.0334 97.6283 75.7001 97.5881 75.375C97.4408 74.1834 97.0234 73.1026 96.3359 72.1328C95.4609 70.8828 94.2109 69.9141 92.5859 69.2266C90.9609 68.5234 89.0312 68.1719 86.7969 68.1719C85.1719 68.1719 83.7188 68.3828 82.4375 68.8047C81.1719 69.2266 80.0938 69.8047 79.2031 70.5391C78.3281 71.2734 77.6562 72.1172 77.1875 73.0703C76.7344 74.0234 76.5078 75.0312 76.5078 76.0938C76.5078 77.1875 76.7344 78.1641 77.1875 79.0234C77.6406 79.8672 78.2734 80.6016 79.0859 81.2266C79.8984 81.8359 80.8516 82.3594 81.9453 82.7969C83.0391 83.2188 84.2188 83.5625 85.4844 83.8281C86.8281 84.125 87.8672 84.4219 88.6016 84.7188C89.3516 85.0156 89.8672 85.3438 90.1484 85.7031C90.4453 86.0625 90.5938 86.4766 90.5938 86.9453C90.5938 87.4453 90.4531 87.8906 90.1719 88.2812Z"/>
</mask>
<path fill-rule="evenodd" clip-rule="evenodd" d="M89.3691 86.3298L89.3609 86.3194C89.2442 86.1703 88.9281 85.9235 88.2335 85.6486L88.2268 85.6459C87.5689 85.38 86.5939 85.0975 85.2737 84.8057C83.9627 84.5303 82.7327 84.1724 81.5854 83.7299L81.5739 83.7254C80.4113 83.2604 79.3788 82.6962 78.4859 82.0266L78.4762 82.0192C77.5597 81.3143 76.8311 80.4734 76.3065 79.4966L76.3029 79.4899C75.7649 78.4694 75.5078 77.3293 75.5078 76.0938C75.5078 74.8838 75.767 73.7292 76.2844 72.641L76.2901 72.629C76.8247 71.5419 77.5869 70.59 78.5603 69.7731L78.5669 69.7675C79.5659 68.9437 80.7569 68.3108 82.1213 67.856L82.1247 67.8548C83.5251 67.3937 85.0867 67.1719 86.7969 67.1719C89.1317 67.1719 91.2015 67.5387 92.9793 68.3072C94.7469 69.0557 96.1556 70.1324 97.1535 71.5569C98.1537 72.9691 98.6484 74.5868 98.6484 76.375V77.375H89.3359V76.375C89.3359 75.8461 89.2356 75.4392 89.0723 75.1227C88.9239 74.8352 88.6979 74.6049 88.3545 74.428L88.344 74.4226L88.3336 74.417C88.0151 74.2432 87.5183 74.1172 86.7734 74.1172C86.2366 74.1172 85.808 74.2127 85.4635 74.3742L85.4507 74.3802C85.1143 74.5321 84.8782 74.7268 84.7102 74.956C84.5722 75.1635 84.4922 75.4137 84.4922 75.7422C84.4922 75.9374 84.5306 76.0956 84.597 76.2322C84.6838 76.3649 84.8297 76.5237 85.0674 76.6995C85.3318 76.8684 85.7007 77.0412 86.1953 77.2063C86.7255 77.3781 87.3867 77.548 88.1853 77.7141C90.0038 78.0527 91.6758 78.5304 93.1968 79.1517C94.791 79.7964 96.1049 80.7046 97.1004 81.8944C98.1785 83.1634 98.6719 84.7943 98.6719 86.6875C98.6719 87.9698 98.3767 89.1661 97.7778 90.2574C97.2001 91.3384 96.3698 92.2669 95.3124 93.0469C94.2509 93.83 93.0007 94.424 91.579 94.8422C90.1426 95.2647 88.5452 95.4688 86.7969 95.4688C84.2897 95.4688 82.0989 95.0184 80.266 94.0673C78.4879 93.1447 77.0939 91.9594 76.1383 90.4907L76.1308 90.479C75.2152 89.0279 74.7344 87.5015 74.7344 85.9141V84.9141H83.5652L83.6009 85.8771C83.6266 86.5712 83.795 87.0472 84.0347 87.3768C84.3235 87.7518 84.6912 88.0288 85.1584 88.213C85.6699 88.3986 86.2666 88.5 86.9609 88.5C87.6743 88.5 88.1989 88.401 88.5724 88.2472C88.9696 88.0837 89.2143 87.888 89.3661 87.6889C89.5161 87.4774 89.5938 87.2405 89.5938 86.9453C89.5938 86.7076 89.5254 86.5191 89.3775 86.34L89.3691 86.3298ZM90.1719 88.2812C89.8906 88.6562 89.4844 88.9531 88.9531 89.1719C88.4219 89.3906 87.7578 89.5 86.9609 89.5C86.1641 89.5 85.4453 89.3828 84.8047 89.1484C84.1641 88.8984 83.6406 88.5078 83.2344 87.9766C82.8438 87.4453 82.6328 86.7578 82.6016 85.9141H75.7344C75.7344 86.2493 75.759 86.5826 75.8082 86.9141C75.9609 87.9424 76.3503 88.9528 76.9766 89.9453C77.8203 91.2422 79.0703 92.3203 80.7266 93.1797C82.3828 94.0391 84.4062 94.4688 86.7969 94.4688C88.4688 94.4688 89.9688 94.2734 91.2969 93.8828C92.625 93.4922 93.7656 92.9453 94.7188 92.2422C95.6719 91.5391 96.3984 90.7188 96.8984 89.7812C97.4141 88.8438 97.6719 87.8125 97.6719 86.6875C97.6719 84.9688 97.2266 83.5859 96.3359 82.5391C95.4609 81.4922 94.2891 80.6719 92.8203 80.0781C91.3672 79.4844 89.7578 79.0234 87.9922 78.6953C87.1641 78.5234 86.4609 78.3438 85.8828 78.1562C85.3203 77.9688 84.8594 77.7578 84.5 77.5234C84.1562 77.2734 83.8984 77.0078 83.7266 76.7266C83.5703 76.4297 83.4922 76.1016 83.4922 75.7422C83.4922 75.2266 83.625 74.7734 83.8906 74.3828C84.1719 73.9922 84.5547 73.6875 85.0391 73.4688C85.5391 73.2344 86.1172 73.1172 86.7734 73.1172C87.6172 73.1172 88.2969 73.2578 88.8125 73.5391C89.3281 73.8047 89.7109 74.1797 89.9609 74.6641C90.2109 75.1484 90.3359 75.7188 90.3359 76.375H97.6484C97.6484 76.0334 97.6283 75.7001 97.5881 75.375C97.4408 74.1834 97.0234 73.1026 96.3359 72.1328C95.4609 70.8828 94.2109 69.9141 92.5859 69.2266C90.9609 68.5234 89.0312 68.1719 86.7969 68.1719C85.1719 68.1719 83.7188 68.3828 82.4375 68.8047C81.1719 69.2266 80.0938 69.8047 79.2031 70.5391C78.3281 71.2734 77.6562 72.1172 77.1875 73.0703C76.7344 74.0234 76.5078 75.0312 76.5078 76.0938C76.5078 77.1875 76.7344 78.1641 77.1875 79.0234C77.6406 79.8672 78.2734 80.6016 79.0859 81.2266C79.8984 81.8359 80.8516 82.3594 81.9453 82.7969C83.0391 83.2188 84.2188 83.5625 85.4844 83.8281C86.8281 84.125 87.8672 84.4219 88.6016 84.7188C89.3516 85.0156 89.8672 85.3438 90.1484 85.7031C90.4453 86.0625 90.5938 86.4766 90.5938 86.9453C90.5938 87.4453 90.4531 87.8906 90.1719 88.2812Z" fill="#3DCFB6"/>
<path fill-rule="evenodd" clip-rule="evenodd" d="M89.3691 86.3298L89.3609 86.3194C89.2442 86.1703 88.9281 85.9235 88.2335 85.6486L88.2268 85.6459C87.5689 85.38 86.5939 85.0975 85.2737 84.8057C83.9627 84.5303 82.7327 84.1724 81.5854 83.7299L81.5739 83.7254C80.4113 83.2604 79.3788 82.6962 78.4859 82.0266L78.4762 82.0192C77.5597 81.3143 76.8311 80.4734 76.3065 79.4966L76.3029 79.4899C75.7649 78.4694 75.5078 77.3293 75.5078 76.0938C75.5078 74.8838 75.767 73.7292 76.2844 72.641L76.2901 72.629C76.8247 71.5419 77.5869 70.59 78.5603 69.7731L78.5669 69.7675C79.5659 68.9437 80.7569 68.3108 82.1213 67.856L82.1247 67.8548C83.5251 67.3937 85.0867 67.1719 86.7969 67.1719C89.1317 67.1719 91.2015 67.5387 92.9793 68.3072C94.7469 69.0557 96.1556 70.1324 97.1535 71.5569C98.1537 72.9691 98.6484 74.5868 98.6484 76.375V77.375H89.3359V76.375C89.3359 75.8461 89.2356 75.4392 89.0723 75.1227C88.9239 74.8352 88.6979 74.6049 88.3545 74.428L88.344 74.4226L88.3336 74.417C88.0151 74.2432 87.5183 74.1172 86.7734 74.1172C86.2366 74.1172 85.808 74.2127 85.4635 74.3742L85.4507 74.3802C85.1143 74.5321 84.8782 74.7268 84.7102 74.956C84.5722 75.1635 84.4922 75.4137 84.4922 75.7422C84.4922 75.9374 84.5306 76.0956 84.597 76.2322C84.6838 76.3649 84.8297 76.5237 85.0674 76.6995C85.3318 76.8684 85.7007 77.0412 86.1953 77.2063C86.7255 77.3781 87.3867 77.548 88.1853 77.7141C90.0038 78.0527 91.6758 78.5304 93.1968 79.1517C94.791 79.7964 96.1049 80.7046 97.1004 81.8944C98.1785 83.1634 98.6719 84.7943 98.6719 86.6875C98.6719 87.9698 98.3767 89.1661 97.7778 90.2574C97.2001 91.3384 96.3698 92.2669 95.3124 93.0469C94.2509 93.83 93.0007 94.424 91.579 94.8422C90.1426 95.2647 88.5452 95.4688 86.7969 95.4688C84.2897 95.4688 82.0989 95.0184 80.266 94.0673C78.4879 93.1447 77.0939 91.9594 76.1383 90.4907L76.1308 90.479C75.2152 89.0279 74.7344 87.5015 74.7344 85.9141V84.9141H83.5652L83.6009 85.8771C83.6266 86.5712 83.795 87.0472 84.0347 87.3768C84.3235 87.7518 84.6912 88.0288 85.1584 88.213C85.6699 88.3986 86.2666 88.5 86.9609 88.5C87.6743 88.5 88.1989 88.401 88.5724 88.2472C88.9696 88.0837 89.2143 87.888 89.3661 87.6889C89.5161 87.4774 89.5938 87.2405 89.5938 86.9453C89.5938 86.7076 89.5254 86.5191 89.3775 86.34L89.3691 86.3298ZM90.1719 88.2812C89.8906 88.6562 89.4844 88.9531 88.9531 89.1719C88.4219 89.3906 87.7578 89.5 86.9609 89.5C86.1641 89.5 85.4453 89.3828 84.8047 89.1484C84.1641 88.8984 83.6406 88.5078 83.2344 87.9766C82.8438 87.4453 82.6328 86.7578 82.6016 85.9141H75.7344C75.7344 86.2493 75.759 86.5826 75.8082 86.9141C75.9609 87.9424 76.3503 88.9528 76.9766 89.9453C77.8203 91.2422 79.0703 92.3203 80.7266 93.1797C82.3828 94.0391 84.4062 94.4688 86.7969 94.4688C88.4688 94.4688 89.9688 94.2734 91.2969 93.8828C92.625 93.4922 93.7656 92.9453 94.7188 92.2422C95.6719 91.5391 96.3984 90.7188 96.8984 89.7812C97.4141 88.8438 97.6719 87.8125 97.6719 86.6875C97.6719 84.9688 97.2266 83.5859 96.3359 82.5391C95.4609 81.4922 94.2891 80.6719 92.8203 80.0781C91.3672 79.4844 89.7578 79.0234 87.9922 78.6953C87.1641 78.5234 86.4609 78.3438 85.8828 78.1562C85.3203 77.9688 84.8594 77.7578 84.5 77.5234C84.1562 77.2734 83.8984 77.0078 83.7266 76.7266C83.5703 76.4297 83.4922 76.1016 83.4922 75.7422C83.4922 75.2266 83.625 74.7734 83.8906 74.3828C84.1719 73.9922 84.5547 73.6875 85.0391 73.4688C85.5391 73.2344 86.1172 73.1172 86.7734 73.1172C87.6172 73.1172 88.2969 73.2578 88.8125 73.5391C89.3281 73.8047 89.7109 74.1797 89.9609 74.6641C90.2109 75.1484 90.3359 75.7188 90.3359 76.375H97.6484C97.6484 76.0334 97.6283 75.7001 97.5881 75.375C97.4408 74.1834 97.0234 73.1026 96.3359 72.1328C95.4609 70.8828 94.2109 69.9141 92.5859 69.2266C90.9609 68.5234 89.0312 68.1719 86.7969 68.1719C85.1719 68.1719 83.7188 68.3828 82.4375 68.8047C81.1719 69.2266 80.0938 69.8047 79.2031 70.5391C78.3281 71.2734 77.6562 72.1172 77.1875 73.0703C76.7344 74.0234 76.5078 75.0312 76.5078 76.0938C76.5078 77.1875 76.7344 78.1641 77.1875 79.0234C77.6406 79.8672 78.2734 80.6016 79.0859 81.2266C79.8984 81.8359 80.8516 82.3594 81.9453 82.7969C83.0391 83.2188 84.2188 83.5625 85.4844 83.8281C86.8281 84.125 87.8672 84.4219 88.6016 84.7188C89.3516 85.0156 89.8672 85.3438 90.1484 85.7031C90.4453 86.0625 90.5938 86.4766 90.5938 86.9453C90.5938 87.4453 90.4531 87.8906 90.1719 88.2812Z" stroke="black" stroke-width="2" mask="url(#path-8-outside-1_13_93)"/>
<path d="M53.1547 91.2054L53.1547 91.2055L53.1596 91.2104C54.3212 92.3884 55.732 93.3078 57.3838 93.9717C59.0462 94.6399 60.9158 94.9688 62.9844 94.9688C64.6689 94.9688 66.193 94.7442 67.5504 94.2863C68.888 93.835 70.0464 93.2501 71.0177 92.5258L71.0187 92.525C71.9878 91.7982 72.7567 91.0341 73.3105 90.2286L73.5305 89.9086L73.2749 89.6162L69.853 85.7022L69.4603 85.253L69.0868 85.7181C68.369 86.6116 67.5278 87.2619 66.5621 87.6805C65.5784 88.0912 64.5434 88.2969 63.4531 88.2969C62.5744 88.2969 61.8097 88.1433 61.1493 87.8482C60.4769 87.5477 59.9103 87.1359 59.4435 86.6125C58.9783 86.091 58.6201 85.4578 58.3737 84.704C58.3092 84.5067 58.2529 84.3033 58.2049 84.0938H73.5312H74.0312V83.5938V80.5938C74.0312 78.6592 73.7676 76.9015 73.2322 75.3263C72.7132 73.7381 71.9468 72.3719 70.9278 71.2374C69.9071 70.0854 68.6568 69.2066 67.1845 68.601C65.7073 67.9777 64.0386 67.6719 62.1875 67.6719C60.2093 67.6719 58.429 68.0096 56.8563 68.6973C55.2902 69.3665 53.9626 70.3244 52.8803 71.5706L52.88 71.571C51.8179 72.7964 51.0134 74.238 50.4632 75.8888C49.9129 77.5394 49.6406 79.3357 49.6406 81.2734V82.1641C49.6406 83.9099 49.9399 85.5577 50.5419 87.1033C51.1437 88.6484 52.0151 90.017 53.1547 91.2054ZM65.8594 78.3828H58.2435C58.3935 77.5567 58.6239 76.849 58.9285 76.2532C59.2513 75.6363 59.67 75.1752 60.1811 74.8524C60.676 74.5398 61.3194 74.3672 62.1406 74.3672C63.0137 74.3672 63.6892 74.5419 64.1989 74.8555L64.2052 74.8594L64.2117 74.8631C64.7447 75.1696 65.1435 75.6062 65.4138 76.1874L65.4137 76.1875L65.4179 76.196C65.7069 76.7877 65.8594 77.4913 65.8594 78.3203V78.3828Z" fill="#3DCFB6" stroke="black"/>
<path d="M52.4329 91.8976L52.4354 91.9001L52.4451 91.9101L52.4476 91.9126C53.7137 93.1965 55.243 94.189 57.0109 94.8996C58.8105 95.623 60.8098 95.9688 62.9844 95.9688C64.7566 95.9688 66.3915 95.7326 67.8701 95.2338C69.2891 94.7551 70.5455 94.1254 71.6155 93.3274L71.6166 93.3266L71.6187 93.325C72.651 92.5508 73.5044 91.7116 74.1345 90.7951L74.5745 90.1551L74.7945 89.8351L74.5389 89.5427L70.6494 85.0938H74.5312H75.0312V84.5938V80.5938C75.0312 78.5713 74.756 76.7042 74.1809 75.0101C73.6239 73.3079 72.7936 71.8189 71.6741 70.5718C70.5495 69.3033 69.1737 68.3386 67.569 67.6778C65.9501 66.9955 64.1471 66.6719 62.1875 66.6719C60.0967 66.6719 58.1776 67.0288 56.4595 67.7794C54.7613 68.5056 53.3095 69.5512 52.1253 70.9149L52.1249 70.9153L52.1243 70.916C52.1243 70.9161 52.1242 70.9161 52.1242 70.9161C50.9693 72.2487 50.1027 73.8078 49.5145 75.5725C48.9263 77.3371 48.6406 79.2416 48.6406 81.2734V82.1641C48.6406 84.0266 48.9604 85.7982 49.6101 87.4663C50.2592 89.1328 51.2016 90.6135 52.4329 91.8976ZM59.612 85.0938H68.3056C67.6841 85.8669 66.9734 86.4111 66.1706 86.7603C65.3131 87.1173 64.4114 87.2969 63.4531 87.2969C62.6919 87.2969 62.0698 87.1642 61.5572 86.9352C61.0088 86.6901 60.5589 86.3608 60.1898 85.9469C59.9703 85.7009 59.7767 85.4185 59.612 85.0938ZM69.1451 87.1352C69.2591 87.0255 69.3705 86.9118 69.4793 86.794L72.2585 89.973C71.7997 90.562 71.1897 91.1467 70.4196 91.7244C69.5471 92.375 68.4869 92.915 67.2308 93.3387C65.9945 93.7558 64.5811 93.9688 62.9844 93.9688C61.0217 93.9688 59.2819 93.6569 57.7568 93.0439C56.2223 92.4271 54.9308 91.5816 53.8741 90.5108C52.8274 89.4186 52.0278 88.163 51.4737 86.7404C50.9194 85.3173 50.6406 83.7932 50.6406 82.1641V81.2734C50.6406 79.4299 50.8996 77.7418 51.4118 76.205C51.924 74.6684 52.6663 73.3445 53.6353 72.2263C54.6151 71.0981 55.818 70.2281 57.2511 69.6161L57.2511 69.6161L57.2551 69.6143C58.6819 68.9901 60.3228 68.6719 62.1875 68.6719C63.9292 68.6719 65.4629 68.9595 66.7977 69.5231L66.7977 69.5231L66.8021 69.5249C68.1407 70.0753 69.2643 70.8675 70.1804 71.9018L70.1828 71.9045C71.1 72.9253 71.8017 74.1671 72.2825 75.6396L72.2825 75.6396L72.2845 75.6454C72.7796 77.1008 73.0312 78.7482 73.0312 80.5938V83.0938H57.6022H57.0217L57.1078 83.6679C57.1627 84.0342 57.2388 84.3887 57.3364 84.7309C57.3636 84.8265 57.3926 84.9211 57.4232 85.0147C57.708 85.886 58.1311 86.6434 58.6972 87.2781C59.2616 87.911 59.945 88.4054 60.7413 88.7612C61.5497 89.1224 62.4569 89.2969 63.4531 89.2969C64.6743 89.2969 65.8415 89.0655 66.9506 88.602L66.9506 88.602L66.9564 88.5995C67.7658 88.2492 68.4958 87.76 69.1451 87.1352ZM57.1618 78.8137L57.0823 79.3828H57.657H66.3594H66.8594V78.8828V78.3203C66.8594 78.1612 66.8545 78.0046 66.8446 77.8508C66.7954 77.0854 66.623 76.3863 66.3185 75.7613C65.9649 75.0032 65.429 74.4113 64.7166 73.9999C64.0087 73.5663 63.1396 73.3672 62.1406 73.3672C61.1806 73.3672 60.3396 73.5696 59.6471 74.0069C58.9712 74.4338 58.4371 75.0346 58.0413 75.7918L58.0412 75.7918L58.0393 75.7957C57.7391 76.3823 57.5095 77.0431 57.3465 77.7739C57.3079 77.947 57.273 78.124 57.2418 78.305C57.2124 78.4724 57.1858 78.6419 57.1618 78.8137ZM64.5111 76.6178L64.511 76.6178L64.5152 76.6263L64.5193 76.6348C64.5193 76.6348 64.5193 76.6348 64.5193 76.6348C64.6258 76.8528 64.7114 77.1004 64.7701 77.3828H59.5322C59.618 77.1384 59.7133 76.9155 59.8167 76.7127C60.0661 76.2375 60.369 75.9165 60.7151 75.6979C61.0126 75.51 61.4583 75.3672 62.1406 75.3672C62.8846 75.3672 63.3644 75.5162 63.6748 75.7072C63.6748 75.7072 63.6748 75.7072 63.6748 75.7072L63.6875 75.715L63.6938 75.7189L63.7003 75.7226L63.7132 75.73C64.0623 75.9308 64.3212 76.2094 64.5071 76.6092L64.5071 76.6092L64.5111 76.6178Z" fill="#3DCFB6" stroke="black"/>
<path d="M46.2578 68.6406V68.1406H45.7578H38.4219H37.9219V68.6406V94V94.5H38.4219H45.7578H46.2578V94V68.6406ZM45.3414 65.0521L45.3419 65.0517C46.2152 64.2675 46.6562 63.2641 46.6562 62.0781C46.6562 60.8806 46.218 59.8752 45.3417 59.1043C44.4824 58.3186 43.3703 57.9453 42.0547 57.9453C40.7381 57.9453 39.6254 58.3192 38.7658 59.1061C37.9049 59.8783 37.4766 60.8833 37.4766 62.0781C37.4766 63.2606 37.907 64.263 38.7637 65.0483L38.7637 65.0483L38.7679 65.0521C39.6281 65.8226 40.74 66.1875 42.0547 66.1875C43.3694 66.1875 44.4813 65.8226 45.3414 65.0521Z" fill="#3DCFB6" stroke="black"/>
<path d="M47.2578 67.6406V67.1406H46.7578H42.8995C44.0716 67.0067 45.134 66.5805 46.0087 65.7969L46.0092 65.7965L46.01 65.7958C46.01 65.7957 46.01 65.7957 46.0101 65.7957C47.0987 64.8181 47.6562 63.5423 47.6562 62.0781C47.6562 60.6107 47.1072 59.3291 46.0094 58.3598C44.9315 57.3778 43.5643 56.9453 42.0547 56.9453C40.5424 56.9453 39.1731 57.3794 38.0943 58.365C37.0115 59.3382 36.4766 60.6189 36.4766 62.0781C36.4766 63.5316 37.0179 64.8046 38.0879 65.7855L38.0879 65.7855L38.0922 65.7893L38.1007 65.7969L38.4343 65.4245L38.1007 65.7969C38.9753 66.5805 40.0378 67.0067 41.2098 67.1406H37.4219H36.9219V67.6406V95V95.5H37.4219H46.7578H47.2578V95V67.6406ZM44.67 59.8451L44.6699 59.8452L44.678 59.8524C45.3303 60.4248 45.6562 61.1525 45.6562 62.0781C45.6562 62.9858 45.3317 63.7167 44.6739 64.3075C44.0341 64.8806 43.1774 65.1875 42.0547 65.1875C40.9331 65.1875 40.077 64.8812 39.4373 64.3092C38.7954 63.7198 38.4766 62.9885 38.4766 62.0781C38.4766 61.1489 38.7975 60.4202 39.4352 59.849L39.4352 59.849L39.4394 59.8451C40.0796 59.2583 40.9349 58.9453 42.0547 58.9453C43.1745 58.9453 44.0298 59.2583 44.67 59.8451ZM45.2578 69.1406V93.5H38.9219V69.1406H45.2578Z" fill="#3DCFB6" stroke="black"/>
<path d="M15.9531 59.875V59.375H15.4531H7.8125H7.3125V59.875V94V94.5H7.8125H15.4531H15.9531V94V84.7571L18.8885 81.5741L26.5565 94.2587L26.7024 94.5H26.9844H36.0312H36.9367L36.4544 93.7337L24.6517 74.9805L36.2374 60.1832L36.8703 59.375H35.8438H26.4688H26.2139L26.0642 59.5812L18.0485 70.6203L18.0485 70.6202L18.043 70.628L15.9531 73.6245V59.875Z" fill="#3DCFB6" stroke="black"/>
<path d="M16.9531 58.875V58.375H16.4531H6.8125H6.3125V58.875V95V95.5H6.8125H16.4531H16.9531V95V85.1478L18.7213 83.2305L25.9925 95.2587L26.1384 95.5H26.4204H37.8422H38.7477L38.2654 94.7337L25.8727 75.0431L38.2905 59.1832L38.9233 58.375H37.8968H25.959H25.7042L25.5545 58.5812L17.2338 70.0404L17.2337 70.0404L17.2282 70.0482L16.9531 70.4426V58.875ZM15.0856 84.2228L14.9531 84.3664V84.5617V93.5H8.3125V60.375H14.9531V75.2154V76.8064L15.8632 75.5015L18.8605 71.204L26.7236 60.375H34.8172L23.6475 74.6409L23.4307 74.9178L23.618 75.2155L35.1258 93.5H27.2664L19.4 80.4873L19.0558 79.9178L18.6046 80.407L15.0856 84.2228Z" fill="#3DCFB6" stroke="black"/>
<path d="M126.438 38V20.169C126.464 20.1255 126.491 20.0827 126.519 20.0404C126.866 19.514 127.304 19.1108 127.839 18.823L127.839 18.8231L127.847 18.8183C128.366 18.5255 129.012 18.3672 129.805 18.3672C130.572 18.3672 131.19 18.4782 131.675 18.6803L131.675 18.6803L131.679 18.6821C132.141 18.8695 132.49 19.1895 132.735 19.6659C132.979 20.1422 133.125 20.8707 133.125 21.8984V38V38.5H133.625H140.984H141.484V38V21.9219C141.484 20.0786 141.294 18.5029 140.9 17.2067C140.509 15.9024 139.93 14.8286 139.146 14.0095C138.388 13.185 137.475 12.5857 136.415 12.2155C135.371 11.8508 134.228 11.6719 132.992 11.6719C131.458 11.6719 130.042 11.9661 128.751 12.5616L128.749 12.5627C127.776 13.0177 126.906 13.6316 126.139 14.4012L125.991 12.5996L125.953 12.1406H125.492H118.602H118.102V12.6406V38V38.5H118.602H125.938H126.438V38Z" fill="#3DCFB6" stroke="black"/>
<path d="M142.484 39.5H141.984H132.625H132.125V39V21.8984C132.125 20.9401 131.985 20.3951 131.845 20.1227C131.705 19.8499 131.534 19.7022 131.304 19.6089L131.491 19.1455L131.304 19.6089L131.295 19.6052L131.29 19.6034L131.29 19.6034C130.96 19.466 130.482 19.3672 129.805 19.3672C129.145 19.3672 128.677 19.4983 128.339 19.6893C128.339 19.6893 128.339 19.6893 128.339 19.6893L128.33 19.6941L128.321 19.6989L128.321 19.6989L128.313 19.7035C127.969 19.8888 127.679 20.139 127.438 20.4705V39V39.5H126.938H117.602H117.102V39V11.6406V11.1406H117.602H126.413H126.874L126.912 11.5996L126.979 12.417C127.406 12.1305 127.855 11.8769 128.326 11.6568M142.484 39.5L128.326 11.6568M142.484 39.5V39M142.484 39.5V39M128.326 11.6568L128.33 11.6547M128.326 11.6568L128.33 11.6547M142.484 39V21.9219C142.484 20.0177 142.289 18.3378 141.858 16.9184C141.434 15.5046 140.789 14.2829 139.875 13.3253C139.007 12.383 137.957 11.6946 136.745 11.2714C135.581 10.865 134.325 10.6719 132.992 10.6719C131.327 10.6719 129.766 10.9919 128.332 11.6537L128.33 11.6547M142.484 39L128.33 11.6547M125.505 19.7806L125.438 19.8969V20.0313V37.5H119.102V13.1406H125.032L125.238 15.6526L125.343 16.9295L126.131 15.919C126.164 15.876 126.198 15.8335 126.232 15.7913C126.476 15.491 126.732 15.2127 127.001 14.9559C127.649 14.3383 128.372 13.8433 129.172 13.4691C130.318 12.94 131.589 12.6719 132.992 12.6719C134.131 12.6719 135.161 12.8367 136.085 13.1595C136.992 13.4762 137.766 13.985 138.413 14.6898L138.413 14.6898L138.42 14.6975C139.072 15.3776 139.585 16.3021 139.943 17.4952L139.943 17.4969C140.3 18.6694 140.484 20.1403 140.484 21.9219V37.5H134.125V21.8984C134.125 20.8012 133.974 19.8891 133.624 19.2091C133.276 18.53 132.75 18.0378 132.057 17.7563C131.418 17.4902 130.661 17.3672 129.805 17.3672C128.881 17.3672 128.059 17.5519 127.36 17.9449C127.096 18.0877 126.849 18.2535 126.619 18.4423C126.26 18.7388 125.948 19.0892 125.684 19.4908C125.622 19.5852 125.562 19.6818 125.505 19.7806Z" fill="#3DCFB6" stroke="black"/>
<path d="M114.598 30.8719L114.599 30.8705C115.149 29.2357 115.422 27.4703 115.422 25.5781V25.0859C115.422 23.179 115.149 21.4132 114.599 19.793C114.048 18.156 113.234 16.7289 112.154 15.5188C111.071 14.3046 109.737 13.3645 108.158 12.6969C106.584 12.0089 104.781 11.6719 102.758 11.6719C100.765 11.6719 98.9764 12.0094 97.4032 12.6973C95.8402 13.3651 94.5138 14.3053 93.4315 15.5188C92.3522 16.7289 91.5385 18.1559 90.9873 19.7929C90.4365 21.4131 90.1641 23.179 90.1641 25.0859V25.5781C90.1641 27.4703 90.4368 29.2357 90.9871 30.8705L90.9876 30.8719C91.5388 32.4931 92.3521 33.9187 93.4293 35.1428L93.4315 35.1453C94.5151 36.3602 95.8508 37.3007 97.4303 37.9684C99.0175 38.6392 100.812 38.9688 102.805 38.9688C104.812 38.9688 106.608 38.6395 108.181 37.9676C109.745 37.2997 111.072 36.3592 112.154 35.1453L112.157 35.1428C113.234 33.9187 114.047 32.4931 114.598 30.8719ZM106.838 28.2943L106.837 28.2942L106.836 28.3027C106.688 29.1311 106.439 29.8407 106.097 30.4394C105.762 31.0257 105.329 31.4776 104.797 31.8061C104.282 32.1082 103.627 32.2734 102.805 32.2734C101.984 32.2734 101.319 32.1089 100.787 31.8046C100.256 31.4763 99.8233 31.0248 99.4888 30.4394C99.1457 29.839 98.8891 29.1277 98.7258 28.2985C98.5759 27.457 98.5 26.5506 98.5 25.5781V25.0859C98.5 24.1292 98.5758 23.2387 98.7257 22.4133C98.889 21.5833 99.1461 20.8621 99.4913 20.2437C99.8279 19.6406 100.262 19.1824 100.793 18.8555C101.308 18.5388 101.955 18.3672 102.758 18.3672C103.596 18.3672 104.257 18.5404 104.769 18.8555L104.769 18.8555L104.774 18.8584C105.32 19.1859 105.76 19.6437 106.095 20.2437C106.439 20.8602 106.688 21.5795 106.836 22.4082L106.836 22.4082L106.838 22.4184C107.003 23.2418 107.086 24.1305 107.086 25.0859V25.5781C107.086 26.5496 107.002 27.4546 106.838 28.2943Z" fill="#3DCFB6" stroke="black"/>
<path d="M115.545 31.1938L115.546 31.1923L115.547 31.1895C116.135 29.4416 116.422 27.5673 116.422 25.5781V25.0859C116.422 23.0837 116.136 21.2081 115.546 19.4724C114.955 17.7178 114.076 16.171 112.901 14.8531C111.714 13.5231 110.257 12.4997 108.554 11.7783C106.832 11.0266 104.889 10.6719 102.758 10.6719C100.653 10.6719 98.726 11.0282 97.0064 11.7794C95.3173 12.5017 93.8694 13.5254 92.6852 14.8531C91.5098 16.171 90.631 17.7178 90.04 19.4725C89.4502 21.2082 89.1641 23.0837 89.1641 25.0859V25.5781C89.1641 27.5673 89.4509 29.4416 90.0393 31.1895L90.0398 31.1909L90.0408 31.1937L90.0408 31.1938C90.5772 32.7715 91.3494 34.1875 92.3613 35.4289L92.3521 35.4374L92.6808 35.8059L92.6852 35.8109L93.0584 35.4781L92.6852 35.8109C93.8735 37.1432 95.3337 38.1678 97.041 38.8895C98.7712 39.6208 100.702 39.9688 102.805 39.9688C104.921 39.9688 106.854 39.6215 108.574 38.8873C110.097 38.2365 111.425 37.3406 112.54 36.1976L112.551 36.2085L112.903 35.8084L112.907 35.8034C114.076 34.4748 114.954 32.9325 115.545 31.1938ZM113.651 20.1126L113.652 20.1141C114.163 21.6186 114.422 23.2745 114.422 25.0859V25.5781C114.422 27.3732 114.163 29.0295 113.651 30.5508C113.14 32.0537 112.392 33.3618 111.407 34.4809C110.427 35.5789 109.224 36.4349 107.788 37.048C106.361 37.6574 104.703 37.9688 102.805 37.9688C100.922 37.9688 99.2638 37.6577 97.8197 37.0473C96.3685 36.4339 95.1577 35.5779 94.179 34.481C93.1944 33.3618 92.4457 32.0536 91.9346 30.5507C91.4225 29.0294 91.1641 27.3731 91.1641 25.5781V25.0859C91.1641 23.2745 91.4228 21.6186 91.9343 20.1141L91.9348 20.1126C92.4462 18.5936 93.1948 17.2866 94.1778 16.1844C95.1576 15.0858 96.3618 14.2294 97.7979 13.6161L97.798 13.6161L97.802 13.6143C99.2283 12.9903 100.877 12.6719 102.758 12.6719C104.671 12.6719 106.335 12.9907 107.761 13.6143L107.761 13.6144L107.766 13.6168C109.218 14.2304 110.429 15.0868 111.408 16.1844C112.391 17.2866 113.14 18.5936 113.651 20.1126ZM105.856 28.1015L105.856 28.1016L105.855 28.11L105.855 28.11L105.853 28.1183L105.852 28.1268L105.851 28.1269C105.72 28.862 105.505 29.4597 105.229 29.9433C104.974 30.3892 104.659 30.714 104.281 30.9491C103.956 31.1378 103.488 31.2734 102.805 31.2734C102.128 31.2734 101.646 31.14 101.298 30.9448C100.923 30.7099 100.61 30.3865 100.357 29.9433C100.078 29.4541 99.8547 28.8515 99.7087 28.1141C99.5713 27.3396 99.5 26.4954 99.5 25.5781V25.0859C99.5 24.1846 99.5712 23.3568 99.7083 22.5991C99.8545 21.8595 100.079 21.2428 100.364 20.731C100.624 20.2657 100.943 19.9377 101.317 19.7072C101.643 19.5069 102.099 19.3672 102.758 19.3672C103.431 19.3672 103.889 19.5002 104.206 19.6835L104.25 19.7102L104.26 19.7159C104.26 19.7159 104.26 19.7159 104.26 19.7159C104.647 19.9485 104.967 20.2749 105.221 20.731C105.504 21.2369 105.72 21.848 105.851 22.584L105.851 22.5841L105.853 22.5942L105.853 22.5943L105.855 22.6044L105.857 22.6145C105.857 22.6145 105.857 22.6145 105.857 22.6145C106.008 23.366 106.086 24.1885 106.086 25.0859V25.5781C106.086 26.4926 106.007 27.3324 105.856 28.1015ZM105.309 32.6651L105.309 32.6651L105.317 32.6602C106.001 32.2388 106.551 31.6603 106.965 30.9356C107.373 30.2228 107.655 29.4026 107.82 28.4827C107.998 27.5736 108.086 26.605 108.086 25.5781V25.0859C108.086 24.0745 107.998 23.1212 107.819 22.2274C107.655 21.3081 107.373 20.4822 106.968 19.7563C106.553 19.0134 105.994 18.4247 105.291 18.0024C104.585 17.5685 103.731 17.3672 102.758 17.3672C101.811 17.3672 100.973 17.5706 100.269 18.0039C99.5816 18.427 99.0315 19.0156 98.6181 19.7563C98.2137 20.4808 97.9242 21.3053 97.7438 22.2239L97.7437 22.2239L97.7424 22.2309C97.5802 23.1232 97.5 24.0753 97.5 25.0859V25.5781C97.5 26.604 97.5801 27.5712 97.7422 28.4785L97.7421 28.4785L97.7438 28.487C97.9243 29.406 98.2143 30.2246 98.6206 30.9356C99.0347 31.6603 99.5844 32.2388 100.269 32.6602L100.276 32.6641L100.282 32.6678C100.999 33.08 101.847 33.2734 102.805 33.2734C103.762 33.2734 104.605 33.0802 105.309 32.6651Z" fill="#3DCFB6" stroke="black"/>
<path d="M58.0703 20.3146V38V38.5H57.5703H50.2578H49.7578V38V12.6406V12.1406H50.2578H57.125H57.5849L57.6233 12.5989L57.7711 14.3653C58.4669 13.6628 59.2634 13.0866 60.1592 12.6387L60.1615 12.6376C61.4754 11.9889 62.9752 11.6719 64.6484 11.6719C65.8233 11.6719 66.9057 11.8512 67.89 12.2177C68.8853 12.5726 69.7412 13.14 70.4514 13.9165C70.7819 14.2631 71.0749 14.6551 71.3314 15.0905C72.1549 14.0552 73.1576 13.237 74.3366 12.6399L74.3389 12.6387C75.6386 11.9889 77.1317 11.6719 78.8047 11.6719C80.04 11.6719 81.1753 11.8506 82.2051 12.2159C83.2656 12.5864 84.1783 13.1861 84.9367 14.0113C85.7172 14.8435 86.3041 15.922 86.7115 17.2254M58.0703 20.3146L86.2344 17.375M58.0703 20.3146C58.1249 20.2231 58.1817 20.1343 58.2408 20.048C58.6057 19.5146 59.0486 19.1086 59.57 18.8204L59.57 18.8204L59.5738 18.8183C60.0997 18.5216 60.7086 18.3672 61.4141 18.3672C62.0839 18.3672 62.6313 18.4693 63.0703 18.6556C63.4511 18.8171 63.7581 19.1199 63.9811 19.6182L63.9844 19.6256L63.9879 19.6328C64.2198 20.1095 64.3594 20.8708 64.3594 21.9688V38V38.5H64.8594H72.1719H72.6719V38V21.0781C72.6719 20.8728 72.6689 20.6709 72.6629 20.4723M58.0703 20.3146L72.6629 20.4723M86.7115 17.2254C86.7115 17.2256 86.7116 17.2257 86.7116 17.2259L86.2344 17.375M86.7115 17.2254C86.7113 17.225 86.7112 17.2246 86.7111 17.2241L86.2344 17.375M86.7115 17.2254C87.122 18.5232 87.3203 20.0927 87.3203 21.9219V38V38.5H86.8203H79.4609H78.9609V38V21.9219C78.9609 20.8408 78.8217 20.0867 78.5894 19.6094L78.5846 19.5994L78.5847 19.5994C78.3635 19.1179 78.0572 18.819 77.6719 18.6556L77.6668 18.6534L77.6668 18.6534C77.2454 18.469 76.7157 18.3672 76.0625 18.3672C75.3525 18.3672 74.7609 18.5157 74.2702 18.7942L74.2612 18.7993L74.2612 18.7992C73.755 19.0729 73.3288 19.4562 72.981 19.9571L72.9772 19.9625L72.9772 19.9625C72.8635 20.1217 72.7586 20.2915 72.6629 20.4723M86.2344 17.375C86.625 18.6094 86.8203 20.125 86.8203 21.9219V37.5V38H86.3203H79.9609H79.4609V37.5V21.9219C79.4609 20.8125 79.3203 19.9688 79.0391 19.3906C78.7734 18.8125 78.3828 18.4141 77.8672 18.1953C77.3672 17.9766 76.7656 17.8672 76.0625 17.8672C75.2812 17.8672 74.6016 18.0312 74.0234 18.3594C73.4677 18.6597 72.9987 19.0756 72.6162 19.607C72.6189 19.6409 72.6215 19.675 72.624 19.7092C72.624 19.7095 72.6241 19.7099 72.6241 19.7103C72.6422 19.9585 72.6551 20.2125 72.6629 20.4723" fill="#3DCFB6" stroke="black"/>
<path d="M57.1349 19.9344L57.0703 20.0488V20.1801V37.5H50.7578V13.1406H56.6651L56.8733 15.6276L56.9815 16.9213L57.769 15.8891C58.0372 15.5377 58.3258 15.2142 58.6347 14.9184C59.2162 14.3617 59.8725 13.9003 60.6053 13.5337C61.7599 12.964 63.1034 12.6719 64.6484 12.6719C65.7222 12.6719 66.6855 12.8358 67.5441 13.156L67.544 13.156L67.5511 13.1586C68.3963 13.4594 69.116 13.937 69.7167 14.5949L69.7166 14.595L69.7244 14.6032C69.9339 14.8225 70.1281 15.0667 70.3067 15.3367C70.4878 15.6107 70.6531 15.9116 70.8019 16.2403L71.1696 17.053L71.671 16.3152C71.7574 16.1879 71.8465 16.0634 71.9384 15.9416L71.9404 15.9388C72.0606 15.777 72.1852 15.621 72.3141 15.4708C73.0078 14.6624 73.8311 14.017 74.7873 13.5325C75.9249 12.964 77.2595 12.6719 78.8047 12.6719C79.9439 12.6719 80.9644 12.8367 81.8719 13.1587L81.8742 13.1595C82.781 13.4762 83.5548 13.985 84.202 14.6898L84.202 14.6898L84.2058 14.6938C84.8617 15.3925 85.3836 16.3288 85.7571 17.5241L85.7577 17.5259C86.1282 18.6966 86.3203 20.1579 86.3203 21.9219V37.5H79.9609V21.9219C79.9609 20.7869 79.8197 19.8554 79.4911 19.1769C79.1814 18.5055 78.7082 18.0098 78.0651 17.7361C77.4871 17.4838 76.8144 17.3672 76.0625 17.3672C75.2119 17.3672 74.4457 17.5459 73.7811 17.922C73.3865 18.1359 73.0302 18.4023 72.7135 18.7203C72.5127 18.922 72.3288 19.1434 72.1615 19.3839C71.9936 19.6193 71.8436 19.8705 71.7111 20.137L71.6545 20.2509L71.6592 20.378C71.6676 20.6057 71.6719 20.839 71.6719 21.0781V37.5H65.3594V21.9688C65.3594 20.8208 65.2187 19.8817 64.8907 19.2026C64.5823 18.5172 64.1091 18.01 63.4609 17.735C62.8687 17.4838 62.1817 17.3672 61.4141 17.3672C60.5578 17.3672 59.7767 17.5562 59.0844 17.9463C58.7806 18.1143 58.4985 18.3136 58.2387 18.5439C57.9314 18.8163 57.6571 19.1301 57.4155 19.4833C57.3161 19.6284 57.2226 19.7788 57.1349 19.9344ZM73.1719 39.5H73.6719V39V21.0781C73.6719 20.9602 73.6709 20.8431 73.6691 20.7269C73.7084 20.6635 73.749 20.6025 73.791 20.5438L73.791 20.5438L73.7948 20.5383L73.8024 20.5275C74.0646 20.1498 74.3743 19.8748 74.7367 19.6789L74.7458 19.674L74.7458 19.6741L74.7549 19.669L74.7638 19.6639C74.7639 19.6639 74.7639 19.6639 74.7639 19.6639C75.0796 19.4847 75.4952 19.3672 76.0625 19.3672C76.6158 19.3672 77.0017 19.454 77.2659 19.5696L77.2659 19.5696L77.2711 19.5718L77.2814 19.5762L77.4749 19.12L77.2814 19.5762C77.4065 19.6293 77.544 19.7295 77.676 20.0168C77.676 20.0169 77.676 20.0169 77.676 20.0169L77.6806 20.0269L77.6805 20.0269L77.6854 20.0369L77.6902 20.0468C77.8243 20.3225 77.9609 20.8973 77.9609 21.9219V39V39.5H78.4609H87.8203H88.3203V39V21.9219C88.3203 20.0275 88.1157 18.3497 87.6653 16.925C87.2243 15.5151 86.5733 14.2958 85.6696 13.331C84.8007 12.3867 83.7503 11.6969 82.5374 11.2727C81.3856 10.8645 80.1358 10.6719 78.8047 10.6719C77.0044 10.6719 75.3533 11.0135 73.8917 11.7443L73.8893 11.7455L73.8847 11.7478C73.8847 11.7478 73.8847 11.7478 73.8847 11.7478C72.969 12.2116 72.1472 12.7972 71.4233 13.5009C71.3451 13.4098 71.2648 13.3208 71.1823 13.2339C70.3642 12.3419 69.3745 11.6865 68.2324 11.2781C67.1235 10.8663 65.923 10.6719 64.6484 10.6719C62.8476 10.6719 61.1919 11.0137 59.7188 11.7409L59.7165 11.742L59.712 11.7443C59.3281 11.9362 58.9603 12.1497 58.6088 12.3844L58.5431 11.5989L58.5047 11.1406H58.0448H49.2578H48.7578V11.6406V39V39.5H49.2578H58.5703H59.0703V39V20.6065C59.3517 20.1971 59.6789 19.9028 60.0537 19.6957L60.0537 19.6957L60.0575 19.6936L60.0651 19.6893L60.0651 19.6893C60.4243 19.4867 60.8604 19.3672 61.4141 19.3672C61.9861 19.3672 62.3939 19.4549 62.6798 19.5762C62.7915 19.6236 62.9311 19.7199 63.0683 20.0266L63.0748 20.0413L63.0781 20.0486L63.0816 20.0558L63.0886 20.0703C63.0886 20.0703 63.0887 20.0703 63.0887 20.0703C63.2218 20.3439 63.3594 20.9247 63.3594 21.9688V39V39.5H63.8594H73.1719Z" fill="#3DCFB6" stroke="black"/>
<path d="M45.4609 12.6406V12.1406H44.9609H37.625H37.125V12.6406V38V38.5H37.625H44.9609H45.4609V38V12.6406ZM44.5446 9.05211L44.545 9.05171C45.4183 8.26751 45.8594 7.26412 45.8594 6.07812C45.8594 4.88061 45.4211 3.87523 44.5448 3.10433C43.6855 2.31864 42.5735 1.94531 41.2578 1.94531C39.9412 1.94531 38.8285 2.31919 37.9689 3.10605C37.108 3.87829 36.6797 4.88334 36.6797 6.07812C36.6797 7.26055 37.1102 8.26299 37.9668 9.04826L37.9668 9.04829L37.9711 9.0521C38.8312 9.82263 39.9431 10.1875 41.2578 10.1875C42.5725 10.1875 43.6844 9.82263 44.5446 9.05211Z" fill="#3DCFB6" stroke="black"/>
<path d="M46.4609 11.6406V11.1406H45.9609H42.1027C43.2747 11.0067 44.3372 10.5805 45.2118 9.79694L45.2123 9.79649L45.2131 9.79576C45.2131 9.79574 45.2132 9.79572 45.2132 9.7957C46.3019 8.81809 46.8594 7.5423 46.8594 6.07812C46.8594 4.61069 46.3103 3.32911 45.2125 2.35984C44.1346 1.37784 42.7674 0.945312 41.2578 0.945312C39.7455 0.945312 38.3762 1.37939 37.2974 2.36503C36.2146 3.33818 35.6797 4.61889 35.6797 6.07812C35.6797 7.53156 36.221 8.80459 37.2911 9.78547L37.291 9.78549L37.2953 9.7893L37.3038 9.79694L37.6374 9.42452L37.3038 9.79694C38.1785 10.5805 39.2409 11.0067 40.413 11.1406H36.625H36.125V11.6406V39V39.5H36.625H45.9609H46.4609V39V11.6406ZM43.8731 3.84514L43.873 3.84523L43.8811 3.85238C44.5334 4.42476 44.8594 5.15249 44.8594 6.07812C44.8594 6.9858 44.5349 7.71673 43.877 8.30751C43.2372 8.88058 42.3805 9.1875 41.2578 9.1875C40.1362 9.1875 39.2801 8.88118 38.6404 8.30918C37.9985 7.71978 37.6797 6.98845 37.6797 6.07812C37.6797 5.14889 38.0006 4.42024 38.6383 3.84898L38.6383 3.849L38.6425 3.84514C39.2827 3.25833 40.138 2.94531 41.2578 2.94531C42.3776 2.94531 43.2329 3.25833 43.8731 3.84514ZM44.4609 13.1406V37.5H38.125V13.1406H44.4609Z" fill="#3DCFB6" stroke="black"/>
<path d="M24.7806 27.6253L24.7805 27.6253L24.7825 27.6305C24.9292 28.0172 25.0078 28.4711 25.0078 29C25.0078 29.5996 24.8592 30.1337 24.5655 30.6143C24.2837 31.0754 23.8382 31.4601 23.1931 31.755C22.5773 32.0282 21.733 32.1797 20.6328 32.1797C19.6795 32.1797 18.8281 32.0888 18.0755 31.9117C17.3395 31.7386 16.7289 31.4545 16.2315 31.0684C15.7571 30.688 15.3846 30.1888 15.1176 29.5573C14.8529 28.9156 14.7109 28.11 14.7109 27.125V26.625H14.2109H6.57031H6.07031V27.125C6.07031 29.1618 6.48291 30.9517 7.32832 32.4768L7.32829 32.4768L7.3315 32.4824C8.18121 33.9694 9.31092 35.1976 10.7171 36.1623L10.7194 36.1638C12.127 37.1184 13.6937 37.8283 15.4161 38.2951L15.4203 38.2962C17.1333 38.7445 18.8711 38.9688 20.6328 38.9688C22.5601 38.9688 24.3166 38.7538 25.8984 38.318C27.4796 37.8824 28.8504 37.2407 30.0013 36.3857L30.0022 36.3851C31.1702 35.5132 32.0665 34.4538 32.6816 33.208C33.3151 31.9566 33.625 30.5342 33.625 28.9531C33.625 27.4732 33.3648 26.1298 32.8331 24.9324C32.3189 23.7391 31.5496 22.6753 30.5337 21.7413C29.5239 20.813 28.2875 19.9909 26.8319 19.271C25.398 18.5541 23.756 17.9044 21.9086 17.3201L21.9086 17.3201L21.9008 17.3178C20.8676 17.0093 19.9557 16.6872 19.1636 16.352C18.3751 16.0184 17.7191 15.6746 17.1903 15.3228C16.6863 14.9619 16.3149 14.5927 16.0601 14.2199C15.8329 13.8504 15.7188 13.4449 15.7188 12.9922C15.7188 12.4031 15.8773 11.866 16.1982 11.3698C16.5272 10.8846 17.0158 10.4885 17.6926 10.1925L17.6926 10.1925L17.697 10.1905C18.3802 9.88374 19.2509 9.71875 20.3281 9.71875C21.4289 9.71875 22.3032 9.91249 22.9766 10.2698L22.9766 10.2698L22.9803 10.2717C23.6788 10.635 24.1786 11.127 24.502 11.7469L24.5019 11.747L24.5082 11.7584C24.8519 12.377 25.0312 13.1037 25.0312 13.9531V14.4531H25.5312H33.125H33.625V13.9531C33.625 11.7708 33.0698 9.83575 31.9467 8.16709C30.8284 6.49006 29.2698 5.19846 27.289 4.28882C25.3204 3.36194 23.0506 2.90625 20.4922 2.90625C18.578 2.90625 16.8123 3.13744 15.1989 3.60508C13.5882 4.05631 12.1744 4.72033 10.9649 5.60259C9.75245 6.47133 8.80243 7.52653 8.12378 8.76798C7.43947 10.0198 7.10156 11.4159 7.10156 12.9453C7.10156 14.5141 7.42067 15.9112 8.07598 17.121L8.07595 17.121L8.07855 17.1256C8.73804 18.3127 9.63481 19.3474 10.7622 20.2297C11.8733 21.0993 13.133 21.8607 14.5388 22.5157L14.5388 22.5158L14.545 22.5186C15.9528 23.1512 17.4304 23.7201 18.9776 24.2253L18.9776 24.2253L18.983 24.227C20.3138 24.6448 21.3736 25.0502 22.1704 25.4411L22.1704 25.4411L22.1773 25.4444C22.9838 25.8248 23.5801 26.1929 23.986 26.5428C24.3875 26.8888 24.6433 27.2509 24.7806 27.6253Z" fill="#3DCFB6" stroke="black"/>
<mask id="path-24-outside-2_13_93" maskUnits="userSpaceOnUse" x="4.57031" y="1.40625" width="31" height="40" fill="black">
<rect fill="white" x="4.57031" y="1.40625" width="31" height="40"/>
<path fill-rule="evenodd" clip-rule="evenodd" d="M24.3111 27.7974C24.2084 27.5173 24.0093 27.223 23.6596 26.9215C23.3009 26.6123 22.7488 26.2668 21.964 25.8966L21.9571 25.8934L21.9502 25.89C21.1846 25.5144 20.151 25.1178 18.8333 24.7041L18.8224 24.7007C17.2592 24.1902 15.7649 23.615 14.3401 22.9746L14.3276 22.969C12.891 22.2997 11.5981 21.5188 10.454 20.6234C9.27743 19.7026 8.33545 18.6176 7.64147 17.3685L7.63628 17.3591C6.93504 16.0645 6.60156 14.5829 6.60156 12.9453C6.60156 11.3397 6.95706 9.85984 7.68505 8.52814C8.40172 7.21716 9.4033 6.10677 10.6719 5.19742C11.9347 4.27664 13.4029 3.58921 15.0618 3.12422C16.7262 2.64207 18.5387 2.40625 20.4922 2.40625C23.1091 2.40625 25.4533 2.87232 27.4998 3.83542C29.555 4.77968 31.1879 6.12842 32.362 7.8886C33.5459 9.64787 34.125 11.682 34.125 13.9531V14.9531H24.5312V13.9531C24.5312 13.1761 24.3678 12.5353 24.0712 12.0013L24.0648 11.9898L24.0587 11.9782C23.7868 11.457 23.3654 11.0356 22.7496 10.7153L22.7422 10.7115C22.1611 10.4031 21.3734 10.2188 20.3281 10.2188C19.2988 10.2188 18.5027 10.3769 17.9018 10.6466L17.893 10.6506C17.2898 10.9145 16.8825 11.2534 16.615 11.6459C16.3484 12.0601 16.2188 12.5015 16.2188 12.9922C16.2188 13.3506 16.3064 13.6619 16.4799 13.9479C16.6931 14.2568 17.0145 14.581 17.4744 14.9113C17.9697 15.2399 18.5941 15.5682 19.3584 15.8915C20.1302 16.2181 21.0243 16.5343 22.0438 16.8387L22.0516 16.841L22.0593 16.8434C23.9262 17.4338 25.593 18.0927 27.0546 18.8233C28.5438 19.5599 29.8214 20.4072 30.8721 21.3732C31.9352 22.3506 32.7471 23.4705 33.2912 24.732C33.8545 26.0018 34.125 27.415 34.125 28.9531C34.125 30.5996 33.8021 32.1007 33.1288 33.4316C32.4768 34.7513 31.528 35.8701 30.3013 36.7857L30.2994 36.7871C29.0914 37.6845 27.6623 38.3506 26.0312 38.8C24.3989 39.2497 22.5967 39.4688 20.6328 39.4688C18.8282 39.4688 17.0478 39.2389 15.2937 38.7799L15.2853 38.7777C13.5125 38.2972 11.8946 37.5649 10.4387 36.5776L10.4343 36.5746C8.96559 35.567 7.78429 34.2826 6.89738 32.7305L6.89095 32.7193C5.99699 31.1066 5.57031 29.2299 5.57031 27.125V26.125H15.2109V27.125C15.2109 28.0637 15.3465 28.7999 15.579 29.3647C15.816 29.9244 16.1391 30.3526 16.5413 30.6758C16.9736 31.0107 17.5152 31.2662 18.19 31.425C18.8985 31.5917 19.7106 31.6797 20.6328 31.6797C21.6921 31.6797 22.4589 31.5331 22.9877 31.2992C23.559 31.0375 23.9189 30.7135 24.1389 30.3535C24.3825 29.955 24.5078 29.5118 24.5078 29C24.5078 28.5202 24.4365 28.1281 24.315 27.8078L24.3111 27.7974ZM23.3984 32.2109C22.6953 32.5234 21.7734 32.6797 20.6328 32.6797C19.6484 32.6797 18.7578 32.5859 17.9609 32.3984C17.1641 32.2109 16.4844 31.8984 15.9219 31.4609C15.375 31.0234 14.9531 30.4531 14.6562 29.75C14.3594 29.0312 14.2109 28.1562 14.2109 27.125H6.57031C6.57031 27.4663 6.58229 27.7997 6.60624 28.125C6.72044 29.6763 7.1069 31.0461 7.76562 32.2344C8.57812 33.6562 9.65625 34.8281 11 35.75C12.3594 36.6719 13.875 37.3594 15.5469 37.8125C17.2188 38.25 18.9141 38.4688 20.6328 38.4688C22.5234 38.4688 24.2344 38.2578 25.7656 37.8359C27.2969 37.4141 28.6094 36.7969 29.7031 35.9844C30.8125 35.1562 31.6562 34.1562 32.2344 32.9844C32.8281 31.8125 33.125 30.4688 33.125 28.9531C33.125 27.5312 32.875 26.2578 32.375 25.1328C31.8906 24.0078 31.1641 23 30.1953 22.1094C29.2266 21.2188 28.0312 20.4219 26.6094 19.7188C25.2031 19.0156 23.5859 18.375 21.7578 17.7969C20.7109 17.4844 19.7812 17.1562 18.9688 16.8125C18.1562 16.4688 17.4688 16.1094 16.9062 15.7344C16.3594 15.3438 15.9375 14.9297 15.6406 14.4922C15.3594 14.0391 15.2188 13.5391 15.2188 12.9922C15.2188 12.3047 15.4062 11.6719 15.7812 11.0938C16.1719 10.5156 16.7422 10.0625 17.4922 9.73438C18.2578 9.39062 19.2031 9.21875 20.3281 9.21875C21.4844 9.21875 22.4453 9.42188 23.2109 9.82812C23.9922 10.2344 24.5703 10.7969 24.9453 11.5156C25.3359 12.2188 25.5312 13.0312 25.5312 13.9531H33.125C33.125 13.613 33.111 13.2797 33.0829 12.9531C32.9384 11.2697 32.4211 9.76707 31.5312 8.44531C30.4688 6.85156 28.9844 5.61719 27.0781 4.74219C25.1875 3.85156 22.9922 3.40625 20.4922 3.40625C18.6172 3.40625 16.8984 3.63281 15.3359 4.08594C13.7734 4.52344 12.4141 5.16406 11.2578 6.00781C10.1016 6.83594 9.20312 7.83594 8.5625 9.00781C7.92188 10.1797 7.60156 11.4922 7.60156 12.9453C7.60156 14.4453 7.90625 15.7578 8.51562 16.8828C9.14062 18.0078 9.99219 18.9922 11.0703 19.8359C12.1484 20.6797 13.375 21.4219 14.75 22.0625C16.1406 22.6875 17.6016 23.25 19.1328 23.75C20.4766 24.1719 21.5625 24.5859 22.3906 24.9922C23.2188 25.3828 23.8594 25.7734 24.3125 26.1641C24.7656 26.5547 25.0781 26.9844 25.25 27.4531C25.4219 27.9062 25.5078 28.4219 25.5078 29C25.5078 29.6875 25.3359 30.3125 24.9922 30.875C24.6484 31.4375 24.1172 31.8828 23.3984 32.2109Z"/>
</mask>
<path fill-rule="evenodd" clip-rule="evenodd" d="M24.3111 27.7974C24.2084 27.5173 24.0093 27.223 23.6596 26.9215C23.3009 26.6123 22.7488 26.2668 21.964 25.8966L21.9571 25.8934L21.9502 25.89C21.1846 25.5144 20.151 25.1178 18.8333 24.7041L18.8224 24.7007C17.2592 24.1902 15.7649 23.615 14.3401 22.9746L14.3276 22.969C12.891 22.2997 11.5981 21.5188 10.454 20.6234C9.27743 19.7026 8.33545 18.6176 7.64147 17.3685L7.63628 17.3591C6.93504 16.0645 6.60156 14.5829 6.60156 12.9453C6.60156 11.3397 6.95706 9.85984 7.68505 8.52814C8.40172 7.21716 9.4033 6.10677 10.6719 5.19742C11.9347 4.27664 13.4029 3.58921 15.0618 3.12422C16.7262 2.64207 18.5387 2.40625 20.4922 2.40625C23.1091 2.40625 25.4533 2.87232 27.4998 3.83542C29.555 4.77968 31.1879 6.12842 32.362 7.8886C33.5459 9.64787 34.125 11.682 34.125 13.9531V14.9531H24.5312V13.9531C24.5312 13.1761 24.3678 12.5353 24.0712 12.0013L24.0648 11.9898L24.0587 11.9782C23.7868 11.457 23.3654 11.0356 22.7496 10.7153L22.7422 10.7115C22.1611 10.4031 21.3734 10.2188 20.3281 10.2188C19.2988 10.2188 18.5027 10.3769 17.9018 10.6466L17.893 10.6506C17.2898 10.9145 16.8825 11.2534 16.615 11.6459C16.3484 12.0601 16.2188 12.5015 16.2188 12.9922C16.2188 13.3506 16.3064 13.6619 16.4799 13.9479C16.6931 14.2568 17.0145 14.581 17.4744 14.9113C17.9697 15.2399 18.5941 15.5682 19.3584 15.8915C20.1302 16.2181 21.0243 16.5343 22.0438 16.8387L22.0516 16.841L22.0593 16.8434C23.9262 17.4338 25.593 18.0927 27.0546 18.8233C28.5438 19.5599 29.8214 20.4072 30.8721 21.3732C31.9352 22.3506 32.7471 23.4705 33.2912 24.732C33.8545 26.0018 34.125 27.415 34.125 28.9531C34.125 30.5996 33.8021 32.1007 33.1288 33.4316C32.4768 34.7513 31.528 35.8701 30.3013 36.7857L30.2994 36.7871C29.0914 37.6845 27.6623 38.3506 26.0312 38.8C24.3989 39.2497 22.5967 39.4688 20.6328 39.4688C18.8282 39.4688 17.0478 39.2389 15.2937 38.7799L15.2853 38.7777C13.5125 38.2972 11.8946 37.5649 10.4387 36.5776L10.4343 36.5746C8.96559 35.567 7.78429 34.2826 6.89738 32.7305L6.89095 32.7193C5.99699 31.1066 5.57031 29.2299 5.57031 27.125V26.125H15.2109V27.125C15.2109 28.0637 15.3465 28.7999 15.579 29.3647C15.816 29.9244 16.1391 30.3526 16.5413 30.6758C16.9736 31.0107 17.5152 31.2662 18.19 31.425C18.8985 31.5917 19.7106 31.6797 20.6328 31.6797C21.6921 31.6797 22.4589 31.5331 22.9877 31.2992C23.559 31.0375 23.9189 30.7135 24.1389 30.3535C24.3825 29.955 24.5078 29.5118 24.5078 29C24.5078 28.5202 24.4365 28.1281 24.315 27.8078L24.3111 27.7974ZM23.3984 32.2109C22.6953 32.5234 21.7734 32.6797 20.6328 32.6797C19.6484 32.6797 18.7578 32.5859 17.9609 32.3984C17.1641 32.2109 16.4844 31.8984 15.9219 31.4609C15.375 31.0234 14.9531 30.4531 14.6562 29.75C14.3594 29.0312 14.2109 28.1562 14.2109 27.125H6.57031C6.57031 27.4663 6.58229 27.7997 6.60624 28.125C6.72044 29.6763 7.1069 31.0461 7.76562 32.2344C8.57812 33.6562 9.65625 34.8281 11 35.75C12.3594 36.6719 13.875 37.3594 15.5469 37.8125C17.2188 38.25 18.9141 38.4688 20.6328 38.4688C22.5234 38.4688 24.2344 38.2578 25.7656 37.8359C27.2969 37.4141 28.6094 36.7969 29.7031 35.9844C30.8125 35.1562 31.6562 34.1562 32.2344 32.9844C32.8281 31.8125 33.125 30.4688 33.125 28.9531C33.125 27.5312 32.875 26.2578 32.375 25.1328C31.8906 24.0078 31.1641 23 30.1953 22.1094C29.2266 21.2188 28.0312 20.4219 26.6094 19.7188C25.2031 19.0156 23.5859 18.375 21.7578 17.7969C20.7109 17.4844 19.7812 17.1562 18.9688 16.8125C18.1562 16.4688 17.4688 16.1094 16.9062 15.7344C16.3594 15.3438 15.9375 14.9297 15.6406 14.4922C15.3594 14.0391 15.2188 13.5391 15.2188 12.9922C15.2188 12.3047 15.4062 11.6719 15.7812 11.0938C16.1719 10.5156 16.7422 10.0625 17.4922 9.73438C18.2578 9.39062 19.2031 9.21875 20.3281 9.21875C21.4844 9.21875 22.4453 9.42188 23.2109 9.82812C23.9922 10.2344 24.5703 10.7969 24.9453 11.5156C25.3359 12.2188 25.5312 13.0312 25.5312 13.9531H33.125C33.125 13.613 33.111 13.2797 33.0829 12.9531C32.9384 11.2697 32.4211 9.76707 31.5312 8.44531C30.4688 6.85156 28.9844 5.61719 27.0781 4.74219C25.1875 3.85156 22.9922 3.40625 20.4922 3.40625C18.6172 3.40625 16.8984 3.63281 15.3359 4.08594C13.7734 4.52344 12.4141 5.16406 11.2578 6.00781C10.1016 6.83594 9.20312 7.83594 8.5625 9.00781C7.92188 10.1797 7.60156 11.4922 7.60156 12.9453C7.60156 14.4453 7.90625 15.7578 8.51562 16.8828C9.14062 18.0078 9.99219 18.9922 11.0703 19.8359C12.1484 20.6797 13.375 21.4219 14.75 22.0625C16.1406 22.6875 17.6016 23.25 19.1328 23.75C20.4766 24.1719 21.5625 24.5859 22.3906 24.9922C23.2188 25.3828 23.8594 25.7734 24.3125 26.1641C24.7656 26.5547 25.0781 26.9844 25.25 27.4531C25.4219 27.9062 25.5078 28.4219 25.5078 29C25.5078 29.6875 25.3359 30.3125 24.9922 30.875C24.6484 31.4375 24.1172 31.8828 23.3984 32.2109Z" fill="#3DCFB6"/>
<path fill-rule="evenodd" clip-rule="evenodd" d="M24.3111 27.7974C24.2084 27.5173 24.0093 27.223 23.6596 26.9215C23.3009 26.6123 22.7488 26.2668 21.964 25.8966L21.9571 25.8934L21.9502 25.89C21.1846 25.5144 20.151 25.1178 18.8333 24.7041L18.8224 24.7007C17.2592 24.1902 15.7649 23.615 14.3401 22.9746L14.3276 22.969C12.891 22.2997 11.5981 21.5188 10.454 20.6234C9.27743 19.7026 8.33545 18.6176 7.64147 17.3685L7.63628 17.3591C6.93504 16.0645 6.60156 14.5829 6.60156 12.9453C6.60156 11.3397 6.95706 9.85984 7.68505 8.52814C8.40172 7.21716 9.4033 6.10677 10.6719 5.19742C11.9347 4.27664 13.4029 3.58921 15.0618 3.12422C16.7262 2.64207 18.5387 2.40625 20.4922 2.40625C23.1091 2.40625 25.4533 2.87232 27.4998 3.83542C29.555 4.77968 31.1879 6.12842 32.362 7.8886C33.5459 9.64787 34.125 11.682 34.125 13.9531V14.9531H24.5312V13.9531C24.5312 13.1761 24.3678 12.5353 24.0712 12.0013L24.0648 11.9898L24.0587 11.9782C23.7868 11.457 23.3654 11.0356 22.7496 10.7153L22.7422 10.7115C22.1611 10.4031 21.3734 10.2188 20.3281 10.2188C19.2988 10.2188 18.5027 10.3769 17.9018 10.6466L17.893 10.6506C17.2898 10.9145 16.8825 11.2534 16.615 11.6459C16.3484 12.0601 16.2188 12.5015 16.2188 12.9922C16.2188 13.3506 16.3064 13.6619 16.4799 13.9479C16.6931 14.2568 17.0145 14.581 17.4744 14.9113C17.9697 15.2399 18.5941 15.5682 19.3584 15.8915C20.1302 16.2181 21.0243 16.5343 22.0438 16.8387L22.0516 16.841L22.0593 16.8434C23.9262 17.4338 25.593 18.0927 27.0546 18.8233C28.5438 19.5599 29.8214 20.4072 30.8721 21.3732C31.9352 22.3506 32.7471 23.4705 33.2912 24.732C33.8545 26.0018 34.125 27.415 34.125 28.9531C34.125 30.5996 33.8021 32.1007 33.1288 33.4316C32.4768 34.7513 31.528 35.8701 30.3013 36.7857L30.2994 36.7871C29.0914 37.6845 27.6623 38.3506 26.0312 38.8C24.3989 39.2497 22.5967 39.4688 20.6328 39.4688C18.8282 39.4688 17.0478 39.2389 15.2937 38.7799L15.2853 38.7777C13.5125 38.2972 11.8946 37.5649 10.4387 36.5776L10.4343 36.5746C8.96559 35.567 7.78429 34.2826 6.89738 32.7305L6.89095 32.7193C5.99699 31.1066 5.57031 29.2299 5.57031 27.125V26.125H15.2109V27.125C15.2109 28.0637 15.3465 28.7999 15.579 29.3647C15.816 29.9244 16.1391 30.3526 16.5413 30.6758C16.9736 31.0107 17.5152 31.2662 18.19 31.425C18.8985 31.5917 19.7106 31.6797 20.6328 31.6797C21.6921 31.6797 22.4589 31.5331 22.9877 31.2992C23.559 31.0375 23.9189 30.7135 24.1389 30.3535C24.3825 29.955 24.5078 29.5118 24.5078 29C24.5078 28.5202 24.4365 28.1281 24.315 27.8078L24.3111 27.7974ZM23.3984 32.2109C22.6953 32.5234 21.7734 32.6797 20.6328 32.6797C19.6484 32.6797 18.7578 32.5859 17.9609 32.3984C17.1641 32.2109 16.4844 31.8984 15.9219 31.4609C15.375 31.0234 14.9531 30.4531 14.6562 29.75C14.3594 29.0312 14.2109 28.1562 14.2109 27.125H6.57031C6.57031 27.4663 6.58229 27.7997 6.60624 28.125C6.72044 29.6763 7.1069 31.0461 7.76562 32.2344C8.57812 33.6562 9.65625 34.8281 11 35.75C12.3594 36.6719 13.875 37.3594 15.5469 37.8125C17.2188 38.25 18.9141 38.4688 20.6328 38.4688C22.5234 38.4688 24.2344 38.2578 25.7656 37.8359C27.2969 37.4141 28.6094 36.7969 29.7031 35.9844C30.8125 35.1562 31.6562 34.1562 32.2344 32.9844C32.8281 31.8125 33.125 30.4688 33.125 28.9531C33.125 27.5312 32.875 26.2578 32.375 25.1328C31.8906 24.0078 31.1641 23 30.1953 22.1094C29.2266 21.2188 28.0312 20.4219 26.6094 19.7188C25.2031 19.0156 23.5859 18.375 21.7578 17.7969C20.7109 17.4844 19.7812 17.1562 18.9688 16.8125C18.1562 16.4688 17.4688 16.1094 16.9062 15.7344C16.3594 15.3438 15.9375 14.9297 15.6406 14.4922C15.3594 14.0391 15.2188 13.5391 15.2188 12.9922C15.2188 12.3047 15.4062 11.6719 15.7812 11.0938C16.1719 10.5156 16.7422 10.0625 17.4922 9.73438C18.2578 9.39062 19.2031 9.21875 20.3281 9.21875C21.4844 9.21875 22.4453 9.42188 23.2109 9.82812C23.9922 10.2344 24.5703 10.7969 24.9453 11.5156C25.3359 12.2188 25.5312 13.0312 25.5312 13.9531H33.125C33.125 13.613 33.111 13.2797 33.0829 12.9531C32.9384 11.2697 32.4211 9.76707 31.5312 8.44531C30.4688 6.85156 28.9844 5.61719 27.0781 4.74219C25.1875 3.85156 22.9922 3.40625 20.4922 3.40625C18.6172 3.40625 16.8984 3.63281 15.3359 4.08594C13.7734 4.52344 12.4141 5.16406 11.2578 6.00781C10.1016 6.83594 9.20312 7.83594 8.5625 9.00781C7.92188 10.1797 7.60156 11.4922 7.60156 12.9453C7.60156 14.4453 7.90625 15.7578 8.51562 16.8828C9.14062 18.0078 9.99219 18.9922 11.0703 19.8359C12.1484 20.6797 13.375 21.4219 14.75 22.0625C16.1406 22.6875 17.6016 23.25 19.1328 23.75C20.4766 24.1719 21.5625 24.5859 22.3906 24.9922C23.2188 25.3828 23.8594 25.7734 24.3125 26.1641C24.7656 26.5547 25.0781 26.9844 25.25 27.4531C25.4219 27.9062 25.5078 28.4219 25.5078 29C25.5078 29.6875 25.3359 30.3125 24.9922 30.875C24.6484 31.4375 24.1172 31.8828 23.3984 32.2109Z" stroke="black" stroke-width="2" mask="url(#path-24-outside-2_13_93)"/>
</g>
<defs>
<filter id="filter0_d_13_93" x="0.570312" y="0.445312" width="175.173" height="104.023" filterUnits="userSpaceOnUse" color-interpolation-filters="sRGB">
<feFlood flood-opacity="0" result="BackgroundImageFix"/>
<feColorMatrix in="SourceAlpha" type="matrix" values="0 0 0 0 0 0 0 0 0 0 0 0 0 0 0 0 0 0 127 0" result="hardAlpha"/>
<feOffset dy="4"/>
<feGaussianBlur stdDeviation="2"/>
<feComposite in2="hardAlpha" operator="out"/>
<feColorMatrix type="matrix" values="0 0 0 0 0 0 0 0 0 0 0 0 0 0 0 0 0 0 0.25 0"/>
<feBlend mode="normal" in2="BackgroundImageFix" result="effect1_dropShadow_13_93"/>
<feBlend mode="normal" in="SourceGraphic" in2="effect1_dropShadow_13_93" result="shape"/>
</filter>
</defs>
</svg>
