<?xml version="1.0" standalone="no"?>
<!DOCTYPE svg PUBLIC "-//W3C//DTD SVG 20010904//EN"
 "http://www.w3.org/TR/2001/REC-SVG-20010904/DTD/svg10.dtd">
<svg version="1.0" xmlns="http://www.w3.org/2000/svg"
 width="471.000000pt" height="471.000000pt" viewBox="0 0 471.000000 471.000000"
 preserveAspectRatio="xMidYMid meet">

<g transform="translate(0.000000,471.000000) scale(0.100000,-0.100000)"
fill="#000000" stroke="none">
<path d="M2175 4704 c-421 -42 -785 -167 -1110 -381 -145 -96 -219 -155 -349
-282 -317 -310 -535 -684 -641 -1106 -56 -219 -69 -333 -69 -580 0 -247 13
-361 69 -580 106 -422 324 -796 641 -1106 130 -127 204 -186 349 -282 281
-185 607 -309 955 -363 161 -25 509 -25 670 0 348 54 674 178 955 363 145 96
219 155 349 282 317 310 535 684 641 1106 56 219 69 333 69 580 0 247 -13 361
-69 580 -63 249 -171 495 -312 710 -96 145 -155 219 -282 349 -128 132 -251
233 -396 329 -280 184 -612 311 -950 362 -104 16 -433 28 -520 19z m-1180
-899 c22 -13 50 -41 63 -63 l22 -40 208 -4 c192 -3 210 -5 254 -26 70 -35 128
-122 128 -192 l0 -30 680 0 680 0 0 33 c0 48 43 131 83 162 62 46 112 55 317
55 l186 0 17 34 c8 19 31 45 49 59 133 100 314 11 312 -153 -1 -61 -18 -102
-61 -142 -37 -35 -73 -48 -137 -48 -65 0 -132 39 -161 94 l-20 37 -190 -3
c-212 -4 -234 -9 -260 -65 -28 -58 -22 -61 132 -65 103 -3 146 -8 168 -20 45
-24 102 -85 127 -137 l23 -46 0 -915 0 -915 -23 -50 c-28 -61 -62 -98 -122
-133 -41 -25 -57 -27 -180 -32 l-135 -5 2 -30 c1 -19 13 -40 33 -57 l30 -28
200 0 c122 0 200 4 200 10 0 18 63 81 101 101 75 38 181 14 232 -52 99 -131
12 -319 -148 -319 -70 0 -150 50 -175 110 l-12 29 -216 3 c-235 3 -247 6 -306
64 -36 37 -56 75 -64 127 l-8 42 -674 0 -674 0 -8 -44 c-11 -66 -52 -126 -106
-158 -47 -28 -47 -28 -264 -31 l-218 -3 -17 -36 c-35 -75 -141 -119 -224 -94
-165 50 -188 287 -34 361 90 44 213 6 254 -77 l16 -33 202 0 203 0 30 28 c20
17 32 38 33 57 l2 30 -135 5 c-151 6 -182 15 -245 78 -21 20 -47 57 -59 82
-21 45 -21 49 -21 965 l0 920 24 45 c30 58 76 106 126 133 33 18 62 23 175 27
l135 5 -2 29 c-3 37 -37 73 -82 86 -20 5 -114 10 -208 10 l-172 0 -15 -27
c-32 -63 -101 -103 -176 -103 -101 0 -178 70 -188 170 -16 165 150 269 293
185z"/>
<path d="M860 3717 c-55 -28 -64 -94 -18 -137 28 -25 68 -26 101 0 51 41 38
117 -24 139 -18 6 -32 11 -33 11 -1 0 -12 -6 -26 -13z"/>
<path d="M3774 3720 c-28 -11 -54 -48 -54 -78 0 -31 52 -82 83 -82 32 0 73 33
81 65 9 36 -17 81 -55 94 -18 6 -32 11 -33 10 -1 0 -11 -4 -22 -9z"/>
<path d="M1316 3325 c-51 -18 -94 -60 -106 -104 -6 -23 -10 -362 -10 -901 l0
-866 23 -44 c26 -52 59 -78 113 -90 22 -6 465 -10 1015 -10 843 0 982 2 1026
15 59 18 97 56 113 115 7 26 10 322 8 907 -3 942 -1 896 -56 946 -51 47 -38
46 -1092 46 -820 0 -1002 -2 -1034 -14z m732 -371 c111 -36 198 -139 209 -248
l6 -56 -91 0 -90 0 -12 50 c-20 84 -35 90 -217 90 l-155 0 -29 -29 c-28 -28
-29 -33 -29 -125 0 -136 1 -137 255 -226 228 -80 277 -107 322 -173 40 -60 54
-127 49 -248 -4 -113 -29 -172 -96 -233 -72 -65 -118 -80 -256 -84 -214 -7
-320 23 -401 111 -46 49 -77 132 -71 189 l3 33 87 3 86 3 7 -43 c18 -107 48
-123 230 -123 201 0 225 18 225 169 0 145 -1 146 -248 231 -206 71 -270 102
-316 156 -55 64 -69 120 -64 252 4 128 20 169 86 229 81 73 128 86 313 87 109
1 159 -3 197 -15z m612 -260 l5 -271 201 271 201 271 96 3 c80 2 98 0 103 -13
4 -10 -59 -102 -180 -264 -102 -136 -186 -253 -186 -258 0 -9 327 -594 391
-698 10 -18 15 -36 10 -43 -9 -14 -117 -24 -164 -15 -31 6 -24 -4 -226 358
-68 121 -126 224 -130 228 -4 4 -33 -26 -64 -66 l-57 -74 0 -222 0 -221 -84 0
c-47 0 -87 3 -89 8 -8 12 -20 1259 -13 1271 5 8 37 11 94 9 l87 -3 5 -271z"/>
<path d="M839 1071 c-38 -39 -38 -74 1 -113 26 -25 36 -29 63 -24 73 15 97 96
43 142 -37 32 -71 30 -107 -5z"/>
<path d="M3749 1071 c-34 -34 -37 -68 -9 -104 39 -49 106 -43 135 14 14 26 15
36 4 60 -26 63 -83 76 -130 30z"/>
</g>
</svg>
