<svg width="166" height="95" viewBox="0 0 166 95" fill="none" xmlns="http://www.w3.org/2000/svg">
<g filter="url(#filter0_i_13_93)">
<path d="M157.148 76.6366V93H149.836V67.6406H156.703L156.944 70.8389C157.025 70.6911 157.109 70.5469 157.195 70.4062C157.82 69.375 158.586 68.5781 159.492 68.0156C160.398 67.4531 161.43 67.1719 162.586 67.1719C162.961 67.1719 163.344 67.1953 163.734 67.2422C164.125 67.2891 164.453 67.3594 164.719 67.4531L164.602 74.2734C164.289 74.2266 163.883 74.1875 163.383 74.1562C162.883 74.1094 162.453 74.0859 162.094 74.0859C161.156 74.0859 160.344 74.2031 159.656 74.4375C158.984 74.6562 158.422 74.9844 157.969 75.4219C157.63 75.761 157.356 76.166 157.148 76.6366Z" fill="#3DCFB6"/>
<path d="M157.148 76.6366V93H149.836V67.6406H156.703L156.944 70.8389C157.025 70.6911 157.109 70.5469 157.195 70.4062C157.82 69.375 158.586 68.5781 159.492 68.0156C160.398 67.4531 161.43 67.1719 162.586 67.1719C162.961 67.1719 163.344 67.1953 163.734 67.2422C164.125 67.2891 164.453 67.3594 164.719 67.4531L164.602 74.2734C164.289 74.2266 163.883 74.1875 163.383 74.1562C162.883 74.1094 162.453 74.0859 162.094 74.0859C161.156 74.0859 160.344 74.2031 159.656 74.4375C158.984 74.6562 158.422 74.9844 157.969 75.4219C157.63 75.761 157.356 76.166 157.148 76.6366Z" stroke="black"/>
<path d="M156.944 70.8389L156.703 67.6406H149.836V93H157.148V76.6366C157.356 76.166 157.63 75.761 157.969 75.4219C158.027 75.3658 158.087 75.3115 158.148 75.259C158.568 74.902 159.071 74.6282 159.656 74.4375C160.344 74.2031 161.156 74.0859 162.094 74.0859C162.453 74.0859 162.883 74.1094 163.383 74.1562C163.458 74.161 163.532 74.1659 163.603 74.171C164.004 74.1995 164.336 74.2337 164.602 74.2734L164.719 67.4531C164.453 67.3594 164.125 67.2891 163.734 67.2422C163.344 67.1953 162.961 67.1719 162.586 67.1719C161.43 67.1719 160.398 67.4531 159.492 68.0156C158.879 68.3965 158.329 68.8848 157.845 69.4806C157.614 69.7647 157.397 70.0733 157.195 70.4062C157.109 70.5469 157.025 70.6911 156.944 70.8389ZM157.742 68.1176L157.631 66.6406H148.836V94H158.148V76.8614C158.294 76.577 158.469 76.3372 158.67 76.1352C159 75.8181 159.424 75.5648 159.966 75.3884L159.979 75.384C160.537 75.1936 161.236 75.0859 162.094 75.0859C162.412 75.0859 162.809 75.1069 163.289 75.1519L163.305 75.1533L163.32 75.1543C163.806 75.1847 164.181 75.2215 164.453 75.2624L165.582 75.4317L165.731 66.7499L165.052 66.5101C164.696 66.3845 164.291 66.3018 163.854 66.2493C163.425 66.1979 163.003 66.1719 162.586 66.1719C161.26 66.1719 160.043 66.497 158.965 67.166C158.525 67.4387 158.118 67.7567 157.742 68.1176Z" fill="#3DCFB6"/>
<path d="M156.944 70.8389L156.703 67.6406H149.836V93H157.148V76.6366C157.356 76.166 157.63 75.761 157.969 75.4219C158.027 75.3658 158.087 75.3115 158.148 75.259C158.568 74.902 159.071 74.6282 159.656 74.4375C160.344 74.2031 161.156 74.0859 162.094 74.0859C162.453 74.0859 162.883 74.1094 163.383 74.1562C163.458 74.161 163.532 74.1659 163.603 74.171C164.004 74.1995 164.336 74.2337 164.602 74.2734L164.719 67.4531C164.453 67.3594 164.125 67.2891 163.734 67.2422C163.344 67.1953 162.961 67.1719 162.586 67.1719C161.43 67.1719 160.398 67.4531 159.492 68.0156C158.879 68.3965 158.329 68.8848 157.845 69.4806C157.614 69.7647 157.397 70.0733 157.195 70.4062C157.109 70.5469 157.025 70.6911 156.944 70.8389ZM157.742 68.1176L157.631 66.6406H148.836V94H158.148V76.8614C158.294 76.577 158.469 76.3372 158.67 76.1352C159 75.8181 159.424 75.5648 159.966 75.3884L159.979 75.384C160.537 75.1936 161.236 75.0859 162.094 75.0859C162.412 75.0859 162.809 75.1069 163.289 75.1519L163.305 75.1533L163.32 75.1543C163.806 75.1847 164.181 75.2215 164.453 75.2624L165.582 75.4317L165.731 66.7499L165.052 66.5101C164.696 66.3845 164.291 66.3018 163.854 66.2493C163.425 66.1979 163.003 66.1719 162.586 66.1719C161.26 66.1719 160.043 66.497 158.965 67.166C158.525 67.4387 158.118 67.7567 157.742 68.1176Z" stroke="black"/>
<path d="M135.703 93.4688C133.688 93.4688 131.883 93.1484 130.289 92.5078C128.695 91.8672 127.344 90.9844 126.234 89.8594C125.141 88.7188 124.305 87.4062 123.727 85.9219C123.148 84.4375 122.859 82.8516 122.859 81.1641V80.2734C122.859 78.3828 123.125 76.6406 123.656 75.0469C124.188 73.4531 124.961 72.0703 125.977 70.8984C127.008 69.7109 128.273 68.7969 129.773 68.1562C131.273 67.5 132.984 67.1719 134.906 67.1719C136.703 67.1719 138.305 67.4688 139.711 68.0625C141.117 68.6406 142.305 69.4766 143.273 70.5703C144.242 71.6484 144.977 72.9531 145.477 74.4844C145.992 76 146.25 77.7031 146.25 79.5938V82.5938H130.321C130.387 83.0366 130.486 83.4584 130.617 83.8594C130.883 84.6719 131.273 85.3672 131.789 85.9453C132.305 86.5234 132.93 86.9766 133.664 87.3047C134.398 87.6328 135.234 87.7969 136.172 87.7969C137.328 87.7969 138.43 87.5781 139.477 87.1406C140.523 86.6875 141.43 85.9844 142.195 85.0312L145.617 88.9453C145.102 89.6953 144.375 90.4219 143.438 91.125C142.516 91.8125 141.406 92.375 140.109 92.8125C138.812 93.25 137.344 93.4688 135.703 93.4688ZM130.453 77.3906C130.425 77.5524 130.399 77.7164 130.376 77.8828H139.078V77.3203C139.078 76.4297 138.914 75.6484 138.586 74.9766C138.273 74.3047 137.805 73.7891 137.18 73.4297C136.57 73.0547 135.797 72.8672 134.859 72.8672C133.969 72.8672 133.227 73.0547 132.633 73.4297C132.039 73.8047 131.562 74.3359 131.203 75.0234C130.859 75.6953 130.609 76.4844 130.453 77.3906Z" fill="#3DCFB6"/>
<path d="M135.703 93.4688C133.688 93.4688 131.883 93.1484 130.289 92.5078C128.695 91.8672 127.344 90.9844 126.234 89.8594C125.141 88.7188 124.305 87.4062 123.727 85.9219C123.148 84.4375 122.859 82.8516 122.859 81.1641V80.2734C122.859 78.3828 123.125 76.6406 123.656 75.0469C124.188 73.4531 124.961 72.0703 125.977 70.8984C127.008 69.7109 128.273 68.7969 129.773 68.1562C131.273 67.5 132.984 67.1719 134.906 67.1719C136.703 67.1719 138.305 67.4688 139.711 68.0625C141.117 68.6406 142.305 69.4766 143.273 70.5703C144.242 71.6484 144.977 72.9531 145.477 74.4844C145.992 76 146.25 77.7031 146.25 79.5938V82.5938H130.321C130.387 83.0366 130.486 83.4584 130.617 83.8594C130.883 84.6719 131.273 85.3672 131.789 85.9453C132.305 86.5234 132.93 86.9766 133.664 87.3047C134.398 87.6328 135.234 87.7969 136.172 87.7969C137.328 87.7969 138.43 87.5781 139.477 87.1406C140.523 86.6875 141.43 85.9844 142.195 85.0312L145.617 88.9453C145.102 89.6953 144.375 90.4219 143.438 91.125C142.516 91.8125 141.406 92.375 140.109 92.8125C138.812 93.25 137.344 93.4688 135.703 93.4688ZM130.453 77.3906C130.425 77.5524 130.399 77.7164 130.376 77.8828H139.078V77.3203C139.078 76.4297 138.914 75.6484 138.586 74.9766C138.273 74.3047 137.805 73.7891 137.18 73.4297C136.57 73.0547 135.797 72.8672 134.859 72.8672C133.969 72.8672 133.227 73.0547 132.633 73.4297C132.039 73.8047 131.562 74.3359 131.203 75.0234C130.859 75.6953 130.609 76.4844 130.453 77.3906Z" stroke="black"/>
<path d="M125.513 90.5515C124.327 89.3152 123.42 87.8906 122.795 86.2848C122.169 84.678 121.859 82.9683 121.859 81.1641V80.2734C121.859 78.2886 122.138 76.4383 122.708 74.7306C123.277 73.0229 124.112 71.5225 125.221 70.2435L125.222 70.2428C126.355 68.9378 127.745 67.9361 129.377 67.2383C131.022 66.5192 132.872 66.1719 134.906 66.1719C136.812 66.1719 138.547 66.4866 140.095 67.1394C141.634 67.7726 142.947 68.6944 144.02 69.9047C145.089 71.0955 145.887 72.523 146.425 74.1682C146.981 75.8028 147.25 77.6153 147.25 79.5938V83.5938H142.267L146.881 88.8718L146.441 89.5118C145.849 90.3728 145.038 91.1745 144.038 91.925L144.035 91.9266C143.015 92.6878 141.807 93.2951 140.429 93.76C139.011 94.2384 137.431 94.4688 135.703 94.4688C133.582 94.4688 131.647 94.1315 129.916 93.4357C128.206 92.7484 126.736 91.7925 125.522 90.5615L125.513 90.5515ZM142.067 83.5938H131.583C131.809 84.2684 132.13 84.8248 132.535 85.2797C132.953 85.7483 133.462 86.1189 134.072 86.3917C134.659 86.6537 135.352 86.7969 136.172 86.7969C137.196 86.7969 138.164 86.6042 139.085 86.2204C139.97 85.8364 140.746 85.2389 141.416 84.405L142.067 83.5938ZM139.477 87.1406C138.43 87.5781 137.328 87.7969 136.172 87.7969C135.234 87.7969 134.398 87.6328 133.664 87.3047C132.93 86.9766 132.305 86.5234 131.789 85.9453C131.273 85.3672 130.883 84.6719 130.617 83.8594C130.589 83.7718 130.561 83.6833 130.536 83.5938C130.445 83.2732 130.373 82.9399 130.321 82.5938H146.25V79.5938C146.25 77.7031 145.992 76 145.477 74.4844C144.977 72.9531 144.242 71.6484 143.273 70.5703C142.305 69.4766 141.117 68.6406 139.711 68.0625C138.305 67.4688 136.703 67.1719 134.906 67.1719C132.984 67.1719 131.273 67.5 129.773 68.1562C128.273 68.7969 127.008 69.7109 125.977 70.8984C124.961 72.0703 124.188 73.4531 123.656 75.0469C123.125 76.6406 122.859 78.3828 122.859 80.2734V81.1641C122.859 82.8516 123.148 84.4375 123.727 85.9219C124.305 87.4062 125.141 88.7188 126.234 89.8594C127.344 90.9844 128.695 91.8672 130.289 92.5078C131.883 93.1484 133.688 93.4688 135.703 93.4688C137.344 93.4688 138.812 93.25 140.109 92.8125C141.406 92.375 142.516 91.8125 143.438 91.125C144.375 90.4219 145.102 89.6953 145.617 88.9453L142.195 85.0312C141.98 85.2988 141.754 85.5467 141.517 85.7749C140.91 86.3595 140.23 86.8147 139.477 87.1406ZM130.376 77.8828H139.078V77.3203C139.078 77.1714 139.074 77.0256 139.064 76.8828C139.019 76.1715 138.859 75.5361 138.586 74.9766C138.273 74.3047 137.805 73.7891 137.18 73.4297C136.57 73.0547 135.797 72.8672 134.859 72.8672C133.969 72.8672 133.227 73.0547 132.633 73.4297C132.039 73.8047 131.562 74.3359 131.203 75.0234C130.925 75.5666 130.709 76.1864 130.553 76.8828C130.516 77.0478 130.483 77.2171 130.453 77.3906C130.425 77.5524 130.399 77.7164 130.376 77.8828ZM131.581 76.8828H138.062C138.018 76.3106 137.888 75.8261 137.687 75.4154L137.683 75.4069L137.679 75.3983C137.451 74.9078 137.122 74.5502 136.681 74.2966L136.668 74.2892L136.656 74.2813C136.246 74.0291 135.668 73.8672 134.859 73.8672C134.108 73.8672 133.563 74.025 133.167 74.2752C132.738 74.5458 132.378 74.9368 132.091 75.4829C131.886 75.885 131.714 76.3499 131.581 76.8828Z" fill="#3DCFB6"/>
<path d="M125.513 90.5515C124.327 89.3152 123.42 87.8906 122.795 86.2848C122.169 84.678 121.859 82.9683 121.859 81.1641V80.2734C121.859 78.2886 122.138 76.4383 122.708 74.7306C123.277 73.0229 124.112 71.5225 125.221 70.2435L125.222 70.2428C126.355 68.9378 127.745 67.9361 129.377 67.2383C131.022 66.5192 132.872 66.1719 134.906 66.1719C136.812 66.1719 138.547 66.4866 140.095 67.1394C141.634 67.7726 142.947 68.6944 144.02 69.9047C145.089 71.0955 145.887 72.523 146.425 74.1682C146.981 75.8028 147.25 77.6153 147.25 79.5938V83.5938H142.267L146.881 88.8718L146.441 89.5118C145.849 90.3728 145.038 91.1745 144.038 91.925L144.035 91.9266C143.015 92.6878 141.807 93.2951 140.429 93.76C139.011 94.2384 137.431 94.4688 135.703 94.4688C133.582 94.4688 131.647 94.1315 129.916 93.4357C128.206 92.7484 126.736 91.7925 125.522 90.5615L125.513 90.5515ZM142.067 83.5938H131.583C131.809 84.2684 132.13 84.8248 132.535 85.2797C132.953 85.7483 133.462 86.1189 134.072 86.3917C134.659 86.6537 135.352 86.7969 136.172 86.7969C137.196 86.7969 138.164 86.6042 139.085 86.2204C139.97 85.8364 140.746 85.2389 141.416 84.405L142.067 83.5938ZM139.477 87.1406C138.43 87.5781 137.328 87.7969 136.172 87.7969C135.234 87.7969 134.398 87.6328 133.664 87.3047C132.93 86.9766 132.305 86.5234 131.789 85.9453C131.273 85.3672 130.883 84.6719 130.617 83.8594C130.589 83.7718 130.561 83.6833 130.536 83.5938C130.445 83.2732 130.373 82.9399 130.321 82.5938H146.25V79.5938C146.25 77.7031 145.992 76 145.477 74.4844C144.977 72.9531 144.242 71.6484 143.273 70.5703C142.305 69.4766 141.117 68.6406 139.711 68.0625C138.305 67.4688 136.703 67.1719 134.906 67.1719C132.984 67.1719 131.273 67.5 129.773 68.1562C128.273 68.7969 127.008 69.7109 125.977 70.8984C124.961 72.0703 124.188 73.4531 123.656 75.0469C123.125 76.6406 122.859 78.3828 122.859 80.2734V81.1641C122.859 82.8516 123.148 84.4375 123.727 85.9219C124.305 87.4062 125.141 88.7188 126.234 89.8594C127.344 90.9844 128.695 91.8672 130.289 92.5078C131.883 93.1484 133.688 93.4688 135.703 93.4688C137.344 93.4688 138.812 93.25 140.109 92.8125C141.406 92.375 142.516 91.8125 143.438 91.125C144.375 90.4219 145.102 89.6953 145.617 88.9453L142.195 85.0312C141.98 85.2988 141.754 85.5467 141.517 85.7749C140.91 86.3595 140.23 86.8147 139.477 87.1406ZM130.376 77.8828H139.078V77.3203C139.078 77.1714 139.074 77.0256 139.064 76.8828C139.019 76.1715 138.859 75.5361 138.586 74.9766C138.273 74.3047 137.805 73.7891 137.18 73.4297C136.57 73.0547 135.797 72.8672 134.859 72.8672C133.969 72.8672 133.227 73.0547 132.633 73.4297C132.039 73.8047 131.562 74.3359 131.203 75.0234C130.925 75.5666 130.709 76.1864 130.553 76.8828C130.516 77.0478 130.483 77.2171 130.453 77.3906C130.425 77.5524 130.399 77.7164 130.376 77.8828ZM131.581 76.8828H138.062C138.018 76.3106 137.888 75.8261 137.687 75.4154L137.683 75.4069L137.679 75.3983C137.451 74.9078 137.122 74.5502 136.681 74.2966L136.668 74.2892L136.656 74.2813C136.246 74.0291 135.668 73.8672 134.859 73.8672C134.108 73.8672 133.563 74.025 133.167 74.2752C132.738 74.5458 132.378 74.9368 132.091 75.4829C131.886 75.885 131.714 76.3499 131.581 76.8828Z" stroke="black"/>
<path d="M103.922 75.0313V93H96.5859V67.6406H103.477L103.721 70.6116C103.756 70.5662 103.792 70.5212 103.828 70.4766C104.703 69.3984 105.742 68.5781 106.945 68.0156C108.164 67.4531 109.508 67.1719 110.977 67.1719C112.164 67.1719 113.25 67.3438 114.234 67.6875C115.219 68.0312 116.062 68.5859 116.766 69.3516C117.484 70.1016 118.031 71.1016 118.406 72.3516C118.781 73.5859 118.969 75.1094 118.969 76.9219V93H111.609V76.8984C111.609 75.8359 111.461 75.0156 111.164 74.4375C110.867 73.8594 110.43 73.4531 109.852 73.2188C109.289 72.9844 108.602 72.8672 107.789 72.8672C106.93 72.8672 106.195 73.0391 105.586 73.3828C104.977 73.7109 104.477 74.1719 104.086 74.7656C104.029 74.852 103.974 74.9406 103.922 75.0313Z" fill="#3DCFB6"/>
<path d="M103.922 75.0313V93H96.5859V67.6406H103.477L103.721 70.6116C103.756 70.5662 103.792 70.5212 103.828 70.4766C104.703 69.3984 105.742 68.5781 106.945 68.0156C108.164 67.4531 109.508 67.1719 110.977 67.1719C112.164 67.1719 113.25 67.3438 114.234 67.6875C115.219 68.0312 116.062 68.5859 116.766 69.3516C117.484 70.1016 118.031 71.1016 118.406 72.3516C118.781 73.5859 118.969 75.1094 118.969 76.9219V93H111.609V76.8984C111.609 75.8359 111.461 75.0156 111.164 74.4375C110.867 73.8594 110.43 73.4531 109.852 73.2188C109.289 72.9844 108.602 72.8672 107.789 72.8672C106.93 72.8672 106.195 73.0391 105.586 73.3828C104.977 73.7109 104.477 74.1719 104.086 74.7656C104.029 74.852 103.974 74.9406 103.922 75.0313Z" stroke="black"/>
<path d="M104.922 73.8281C104.603 74.0913 104.324 74.4038 104.086 74.7656C104.029 74.852 103.974 74.9406 103.922 75.0313V93H96.5859V67.6406H103.477L103.721 70.6116C103.756 70.5662 103.792 70.5212 103.828 70.4766C104.085 70.1603 104.356 69.8661 104.641 69.5942C105.327 68.9393 106.095 68.4131 106.945 68.0156C108.164 67.4531 109.508 67.1719 110.977 67.1719C112.164 67.1719 113.25 67.3438 114.234 67.6875C115.219 68.0312 116.062 68.5859 116.766 69.3516C117.484 70.1016 118.031 71.1016 118.406 72.3516C118.781 73.5859 118.969 75.1094 118.969 76.9219V93H111.609V76.8984C111.609 75.8359 111.461 75.0156 111.164 74.4375C110.867 73.8594 110.43 73.4531 109.852 73.2188C109.289 72.9844 108.602 72.8672 107.789 72.8672C106.93 72.8672 106.195 73.0391 105.586 73.3828C105.348 73.511 105.127 73.6594 104.922 73.8281ZM119.364 72.0629C119.776 73.4207 119.969 75.0484 119.969 76.9219V94H110.609V76.8984C110.609 75.9054 110.467 75.2687 110.274 74.8943C110.082 74.5196 109.822 74.2858 109.476 74.1455L109.467 74.1419C109.06 73.9721 108.511 73.8672 107.789 73.8672C107.063 73.8672 106.506 74.0119 106.077 74.2538L106.069 74.2586L106.06 74.2633C105.601 74.5105 105.224 74.8558 104.922 75.3145V94H95.5859V66.6406H104.398L104.538 68.3524C105.146 67.8587 105.807 67.4437 106.522 67.1097L106.526 67.1077C107.888 66.479 109.377 66.1719 110.977 66.1719C112.261 66.1719 113.46 66.3579 114.564 66.7434C115.7 67.1402 116.681 67.784 117.495 68.6674C118.344 69.5559 118.956 70.7038 119.364 72.0629Z" fill="#3DCFB6"/>
<path d="M104.922 73.8281C104.603 74.0913 104.324 74.4038 104.086 74.7656C104.029 74.852 103.974 74.9406 103.922 75.0313V93H96.5859V67.6406H103.477L103.721 70.6116C103.756 70.5662 103.792 70.5212 103.828 70.4766C104.085 70.1603 104.356 69.8661 104.641 69.5942C105.327 68.9393 106.095 68.4131 106.945 68.0156C108.164 67.4531 109.508 67.1719 110.977 67.1719C112.164 67.1719 113.25 67.3438 114.234 67.6875C115.219 68.0312 116.062 68.5859 116.766 69.3516C117.484 70.1016 118.031 71.1016 118.406 72.3516C118.781 73.5859 118.969 75.1094 118.969 76.9219V93H111.609V76.8984C111.609 75.8359 111.461 75.0156 111.164 74.4375C110.867 73.8594 110.43 73.4531 109.852 73.2188C109.289 72.9844 108.602 72.8672 107.789 72.8672C106.93 72.8672 106.195 73.0391 105.586 73.3828C105.348 73.511 105.127 73.6594 104.922 73.8281ZM119.364 72.0629C119.776 73.4207 119.969 75.0484 119.969 76.9219V94H110.609V76.8984C110.609 75.9054 110.467 75.2687 110.274 74.8943C110.082 74.5196 109.822 74.2858 109.476 74.1455L109.467 74.1419C109.06 73.9721 108.511 73.8672 107.789 73.8672C107.063 73.8672 106.506 74.0119 106.077 74.2538L106.069 74.2586L106.06 74.2633C105.601 74.5105 105.224 74.8558 104.922 75.3145V94H95.5859V66.6406H104.398L104.538 68.3524C105.146 67.8587 105.807 67.4437 106.522 67.1097L106.526 67.1077C107.888 66.479 109.377 66.1719 110.977 66.1719C112.261 66.1719 113.46 66.3579 114.564 66.7434C115.7 67.1402 116.681 67.784 117.495 68.6674C118.344 69.5559 118.956 70.7038 119.364 72.0629Z" stroke="black"/>
<path d="M85.5938 85.9453C85.5938 85.4766 85.4453 85.0625 85.1484 84.7031C84.8672 84.3438 84.3516 84.0156 83.6016 83.7188C82.8672 83.4219 81.8281 83.125 80.4844 82.8281C79.2188 82.5625 78.0391 82.2188 76.9453 81.7969C75.8516 81.3594 74.8984 80.8359 74.0859 80.2266C73.2734 79.6016 72.6406 78.8672 72.1875 78.0234C71.7344 77.1641 71.5078 76.1875 71.5078 75.0938C71.5078 74.0312 71.7344 73.0234 72.1875 72.0703C72.6562 71.1172 73.3281 70.2734 74.2031 69.5391C75.0938 68.8047 76.1719 68.2266 77.4375 67.8047C78.7188 67.3828 80.1719 67.1719 81.7969 67.1719C84.0312 67.1719 85.9609 67.5234 87.5859 68.2266C89.2109 68.9141 90.4609 69.8828 91.3359 71.1328C92.2109 72.3672 92.6484 73.7812 92.6484 75.375H85.3359C85.3359 74.7188 85.2109 74.1484 84.9609 73.6641C84.7109 73.1797 84.3281 72.8047 83.8125 72.5391C83.2969 72.2578 82.6172 72.1172 81.7734 72.1172C81.1172 72.1172 80.5391 72.2344 80.0391 72.4688C79.5547 72.6875 79.1719 72.9922 78.8906 73.3828C78.625 73.7734 78.4922 74.2266 78.4922 74.7422C78.4922 75.1016 78.5703 75.4297 78.7266 75.7266C78.8984 76.0078 79.1562 76.2734 79.5 76.5234C79.8594 76.7578 80.3203 76.9688 80.8828 77.1562C81.4609 77.3438 82.1641 77.5234 82.9922 77.6953C84.7578 78.0234 86.3672 78.4844 87.8203 79.0781C89.2891 79.6719 90.4609 80.4922 91.3359 81.5391C92.2266 82.5859 92.6719 83.9688 92.6719 85.6875C92.6719 86.8125 92.4141 87.8438 91.8984 88.7812C91.3984 89.7188 90.6719 90.5391 89.7188 91.2422C88.7656 91.9453 87.625 92.4922 86.2969 92.8828C84.9688 93.2734 83.4688 93.4688 81.7969 93.4688C79.4062 93.4688 77.3828 93.0391 75.7266 92.1797C74.0703 91.3203 72.8203 90.2422 71.9766 88.9453C71.1484 87.6328 70.7344 86.2891 70.7344 84.9141H77.6016C77.6328 85.7578 77.8438 86.4453 78.2344 86.9766C78.6406 87.5078 79.1641 87.8984 79.8047 88.1484C80.4453 88.3828 81.1641 88.5 81.9609 88.5C82.7578 88.5 83.4219 88.3906 83.9531 88.1719C84.4844 87.9531 84.8906 87.6562 85.1719 87.2812C85.4531 86.8906 85.5938 86.4453 85.5938 85.9453Z" fill="#3DCFB6"/>
<path d="M85.5938 85.9453C85.5938 85.4766 85.4453 85.0625 85.1484 84.7031C84.8672 84.3438 84.3516 84.0156 83.6016 83.7188C82.8672 83.4219 81.8281 83.125 80.4844 82.8281C79.2188 82.5625 78.0391 82.2188 76.9453 81.7969C75.8516 81.3594 74.8984 80.8359 74.0859 80.2266C73.2734 79.6016 72.6406 78.8672 72.1875 78.0234C71.7344 77.1641 71.5078 76.1875 71.5078 75.0938C71.5078 74.0312 71.7344 73.0234 72.1875 72.0703C72.6562 71.1172 73.3281 70.2734 74.2031 69.5391C75.0938 68.8047 76.1719 68.2266 77.4375 67.8047C78.7188 67.3828 80.1719 67.1719 81.7969 67.1719C84.0312 67.1719 85.9609 67.5234 87.5859 68.2266C89.2109 68.9141 90.4609 69.8828 91.3359 71.1328C92.2109 72.3672 92.6484 73.7812 92.6484 75.375H85.3359C85.3359 74.7188 85.2109 74.1484 84.9609 73.6641C84.7109 73.1797 84.3281 72.8047 83.8125 72.5391C83.2969 72.2578 82.6172 72.1172 81.7734 72.1172C81.1172 72.1172 80.5391 72.2344 80.0391 72.4688C79.5547 72.6875 79.1719 72.9922 78.8906 73.3828C78.625 73.7734 78.4922 74.2266 78.4922 74.7422C78.4922 75.1016 78.5703 75.4297 78.7266 75.7266C78.8984 76.0078 79.1562 76.2734 79.5 76.5234C79.8594 76.7578 80.3203 76.9688 80.8828 77.1562C81.4609 77.3438 82.1641 77.5234 82.9922 77.6953C84.7578 78.0234 86.3672 78.4844 87.8203 79.0781C89.2891 79.6719 90.4609 80.4922 91.3359 81.5391C92.2266 82.5859 92.6719 83.9688 92.6719 85.6875C92.6719 86.8125 92.4141 87.8438 91.8984 88.7812C91.3984 89.7188 90.6719 90.5391 89.7188 91.2422C88.7656 91.9453 87.625 92.4922 86.2969 92.8828C84.9688 93.2734 83.4688 93.4688 81.7969 93.4688C79.4062 93.4688 77.3828 93.0391 75.7266 92.1797C74.0703 91.3203 72.8203 90.2422 71.9766 88.9453C71.1484 87.6328 70.7344 86.2891 70.7344 84.9141H77.6016C77.6328 85.7578 77.8438 86.4453 78.2344 86.9766C78.6406 87.5078 79.1641 87.8984 79.8047 88.1484C80.4453 88.3828 81.1641 88.5 81.9609 88.5C82.7578 88.5 83.4219 88.3906 83.9531 88.1719C84.4844 87.9531 84.8906 87.6562 85.1719 87.2812C85.4531 86.8906 85.5938 86.4453 85.5938 85.9453Z" stroke="black"/>
<path fill-rule="evenodd" clip-rule="evenodd" d="M84.3691 85.3298L84.3609 85.3194C84.2442 85.1703 83.9281 84.9235 83.2335 84.6486L83.2268 84.6459C82.5689 84.38 81.5939 84.0975 80.2737 83.8057C78.9627 83.5303 77.7327 83.1724 76.5854 82.7299L76.5739 82.7254C75.4113 82.2604 74.3788 81.6962 73.4859 81.0266L73.4762 81.0192C72.5597 80.3143 71.8311 79.4734 71.3065 78.4966L71.3029 78.4899C70.7649 77.4694 70.5078 76.3293 70.5078 75.0938C70.5078 73.8838 70.767 72.7292 71.2844 71.641L71.2901 71.629C71.8247 70.5419 72.5869 69.59 73.5603 68.7731L73.5669 68.7675C74.5659 67.9437 75.7569 67.3108 77.1213 66.856L77.1247 66.8548C78.5251 66.3937 80.0867 66.1719 81.7969 66.1719C84.1317 66.1719 86.2015 66.5387 87.9793 67.3072C89.7469 68.0557 91.1556 69.1324 92.1535 70.5569C93.1537 71.9691 93.6484 73.5868 93.6484 75.375V76.375H84.3359V75.375C84.3359 74.8461 84.2356 74.4392 84.0723 74.1227C83.9239 73.8352 83.6979 73.6049 83.3545 73.428L83.344 73.4226L83.3336 73.417C83.0151 73.2432 82.5183 73.1172 81.7734 73.1172C81.2366 73.1172 80.808 73.2127 80.4635 73.3742L80.4507 73.3802C80.1143 73.5321 79.8782 73.7268 79.7102 73.956C79.5722 74.1635 79.4922 74.4137 79.4922 74.7422C79.4922 74.9374 79.5306 75.0956 79.597 75.2322C79.6838 75.3649 79.8297 75.5237 80.0674 75.6995C80.3318 75.8684 80.7007 76.0412 81.1953 76.2063C81.7255 76.3781 82.3867 76.548 83.1853 76.7141C85.0038 77.0527 86.6758 77.5304 88.1968 78.1517C89.791 78.7964 91.1049 79.7046 92.1004 80.8944C93.1785 82.1634 93.6719 83.7943 93.6719 85.6875C93.6719 86.9698 93.3767 88.1661 92.7778 89.2574C92.2001 90.3384 91.3698 91.2669 90.3124 92.0469C89.2509 92.83 88.0007 93.424 86.579 93.8422C85.1426 94.2647 83.5452 94.4688 81.7969 94.4688C79.2897 94.4688 77.0989 94.0184 75.266 93.0673C73.4879 92.1447 72.0939 90.9594 71.1383 89.4907L71.1308 89.479C70.2152 88.0279 69.7344 86.5015 69.7344 84.9141V83.9141H78.5652L78.6009 84.8771C78.6266 85.5712 78.795 86.0472 79.0347 86.3768C79.3235 86.7518 79.6912 87.0288 80.1584 87.213C80.6699 87.3986 81.2666 87.5 81.9609 87.5C82.6743 87.5 83.1989 87.401 83.5724 87.2472C83.9696 87.0837 84.2143 86.888 84.3661 86.6889C84.5161 86.4774 84.5938 86.2405 84.5938 85.9453C84.5938 85.7076 84.5254 85.5191 84.3775 85.34L84.3691 85.3298ZM85.1719 87.2812C84.8906 87.6562 84.4844 87.9531 83.9531 88.1719C83.4219 88.3906 82.7578 88.5 81.9609 88.5C81.1641 88.5 80.4453 88.3828 79.8047 88.1484C79.1641 87.8984 78.6406 87.5078 78.2344 86.9766C77.8438 86.4453 77.6328 85.7578 77.6016 84.9141H70.7344C70.7344 85.2493 70.759 85.5826 70.8082 85.9141C70.9609 86.9424 71.3503 87.9528 71.9766 88.9453C72.8203 90.2422 74.0703 91.3203 75.7266 92.1797C77.3828 93.0391 79.4062 93.4688 81.7969 93.4688C83.4688 93.4688 84.9688 93.2734 86.2969 92.8828C87.625 92.4922 88.7656 91.9453 89.7188 91.2422C90.6719 90.5391 91.3984 89.7188 91.8984 88.7812C92.4141 87.8438 92.6719 86.8125 92.6719 85.6875C92.6719 83.9688 92.2266 82.5859 91.3359 81.5391C90.4609 80.4922 89.2891 79.6719 87.8203 79.0781C86.3672 78.4844 84.7578 78.0234 82.9922 77.6953C82.1641 77.5234 81.4609 77.3438 80.8828 77.1562C80.3203 76.9688 79.8594 76.7578 79.5 76.5234C79.1562 76.2734 78.8984 76.0078 78.7266 75.7266C78.5703 75.4297 78.4922 75.1016 78.4922 74.7422C78.4922 74.2266 78.625 73.7734 78.8906 73.3828C79.1719 72.9922 79.5547 72.6875 80.0391 72.4688C80.5391 72.2344 81.1172 72.1172 81.7734 72.1172C82.6172 72.1172 83.2969 72.2578 83.8125 72.5391C84.3281 72.8047 84.7109 73.1797 84.9609 73.6641C85.2109 74.1484 85.3359 74.7188 85.3359 75.375H92.6484C92.6484 75.0334 92.6283 74.7001 92.5881 74.375C92.4408 73.1834 92.0234 72.1026 91.3359 71.1328C90.4609 69.8828 89.2109 68.9141 87.5859 68.2266C85.9609 67.5234 84.0312 67.1719 81.7969 67.1719C80.1719 67.1719 78.7188 67.3828 77.4375 67.8047C76.1719 68.2266 75.0938 68.8047 74.2031 69.5391C73.3281 70.2734 72.6562 71.1172 72.1875 72.0703C71.7344 73.0234 71.5078 74.0312 71.5078 75.0938C71.5078 76.1875 71.7344 77.1641 72.1875 78.0234C72.6406 78.8672 73.2734 79.6016 74.0859 80.2266C74.8984 80.8359 75.8516 81.3594 76.9453 81.7969C78.0391 82.2188 79.2188 82.5625 80.4844 82.8281C81.8281 83.125 82.8672 83.4219 83.6016 83.7188C84.3516 84.0156 84.8672 84.3438 85.1484 84.7031C85.4453 85.0625 85.5938 85.4766 85.5938 85.9453C85.5938 86.4453 85.4531 86.8906 85.1719 87.2812Z" fill="#3DCFB6"/>
<path d="M57.9844 93.4688C55.9688 93.4688 54.1641 93.1484 52.5703 92.5078C50.9766 91.8672 49.625 90.9844 48.5156 89.8594C47.4219 88.7188 46.5859 87.4062 46.0078 85.9219C45.4297 84.4375 45.1406 82.8516 45.1406 81.1641V80.2734C45.1406 78.3828 45.4062 76.6406 45.9375 75.0469C46.4688 73.4531 47.2422 72.0703 48.2578 70.8984C49.2891 69.7109 50.5547 68.7969 52.0547 68.1562C53.5547 67.5 55.2656 67.1719 57.1875 67.1719C58.9844 67.1719 60.5859 67.4688 61.9922 68.0625C63.3984 68.6406 64.5859 69.4766 65.5547 70.5703C66.5234 71.6484 67.2578 72.9531 67.7578 74.4844C68.2734 76 68.5312 77.7031 68.5312 79.5938V82.5938H52.6022C52.6686 83.0366 52.7674 83.4584 52.8984 83.8594C53.1641 84.6719 53.5547 85.3672 54.0703 85.9453C54.5859 86.5234 55.2109 86.9766 55.9453 87.3047C56.6797 87.6328 57.5156 87.7969 58.4531 87.7969C59.6094 87.7969 60.7109 87.5781 61.7578 87.1406C62.8047 86.6875 63.7109 85.9844 64.4766 85.0312L67.8984 88.9453C67.3828 89.6953 66.6562 90.4219 65.7188 91.125C64.7969 91.8125 63.6875 92.375 62.3906 92.8125C61.0938 93.25 59.625 93.4688 57.9844 93.4688ZM52.7344 77.3906C52.706 77.5524 52.6802 77.7164 52.657 77.8828H61.3594V77.3203C61.3594 76.4297 61.1953 75.6484 60.8672 74.9766C60.5547 74.3047 60.0859 73.7891 59.4609 73.4297C58.8516 73.0547 58.0781 72.8672 57.1406 72.8672C56.25 72.8672 55.5078 73.0547 54.9141 73.4297C54.3203 73.8047 53.8438 74.3359 53.4844 75.0234C53.1406 75.6953 52.8906 76.4844 52.7344 77.3906Z" fill="#3DCFB6"/>
<path d="M57.9844 93.4688C55.9688 93.4688 54.1641 93.1484 52.5703 92.5078C50.9766 91.8672 49.625 90.9844 48.5156 89.8594C47.4219 88.7188 46.5859 87.4062 46.0078 85.9219C45.4297 84.4375 45.1406 82.8516 45.1406 81.1641V80.2734C45.1406 78.3828 45.4062 76.6406 45.9375 75.0469C46.4688 73.4531 47.2422 72.0703 48.2578 70.8984C49.2891 69.7109 50.5547 68.7969 52.0547 68.1562C53.5547 67.5 55.2656 67.1719 57.1875 67.1719C58.9844 67.1719 60.5859 67.4688 61.9922 68.0625C63.3984 68.6406 64.5859 69.4766 65.5547 70.5703C66.5234 71.6484 67.2578 72.9531 67.7578 74.4844C68.2734 76 68.5312 77.7031 68.5312 79.5938V82.5938H52.6022C52.6686 83.0366 52.7674 83.4584 52.8984 83.8594C53.1641 84.6719 53.5547 85.3672 54.0703 85.9453C54.5859 86.5234 55.2109 86.9766 55.9453 87.3047C56.6797 87.6328 57.5156 87.7969 58.4531 87.7969C59.6094 87.7969 60.7109 87.5781 61.7578 87.1406C62.8047 86.6875 63.7109 85.9844 64.4766 85.0312L67.8984 88.9453C67.3828 89.6953 66.6562 90.4219 65.7188 91.125C64.7969 91.8125 63.6875 92.375 62.3906 92.8125C61.0938 93.25 59.625 93.4688 57.9844 93.4688ZM52.7344 77.3906C52.706 77.5524 52.6802 77.7164 52.657 77.8828H61.3594V77.3203C61.3594 76.4297 61.1953 75.6484 60.8672 74.9766C60.5547 74.3047 60.0859 73.7891 59.4609 73.4297C58.8516 73.0547 58.0781 72.8672 57.1406 72.8672C56.25 72.8672 55.5078 73.0547 54.9141 73.4297C54.3203 73.8047 53.8438 74.3359 53.4844 75.0234C53.1406 75.6953 52.8906 76.4844 52.7344 77.3906Z" stroke="black"/>
<path d="M47.7938 90.5515C46.6084 89.3152 45.7014 87.8906 45.076 86.2848C44.4502 84.678 44.1406 82.9683 44.1406 81.1641V80.2734C44.1406 78.2886 44.4196 76.4383 44.9888 74.7306C45.5581 73.0229 46.3936 71.5225 47.5021 70.2435L47.5028 70.2428C48.636 68.9378 50.0258 67.9361 51.6579 67.2383C53.3033 66.5192 55.153 66.1719 57.1875 66.1719C59.0929 66.1719 60.8287 66.4866 62.3767 67.1394C63.9153 67.7726 65.2283 68.6944 66.301 69.9047C67.3702 71.0955 68.1686 72.523 68.7065 74.1682C69.2618 75.8028 69.5312 77.6153 69.5312 79.5938V83.5938H64.5481L69.1625 88.8718L68.7225 89.5118C68.1306 90.3728 67.3194 91.1745 66.3188 91.925L66.3166 91.9266C65.2959 92.6878 64.0886 93.2951 62.7103 93.76C61.2923 94.2384 59.7127 94.4688 57.9844 94.4688C55.8628 94.4688 53.9283 94.1315 52.1974 93.4357C50.4875 92.7484 49.0174 91.7925 47.8036 90.5615L47.7938 90.5515ZM64.3486 83.5938H53.8639C54.0903 84.2684 54.4109 84.8248 54.8166 85.2797C55.2346 85.7483 55.7428 86.1189 56.3533 86.3917C56.9398 86.6537 57.6331 86.7969 58.4531 86.7969C59.4774 86.7969 60.4457 86.6042 61.3663 86.2204C62.2509 85.8364 63.0271 85.2389 63.6969 84.405L64.3486 83.5938ZM61.7578 87.1406C60.7109 87.5781 59.6094 87.7969 58.4531 87.7969C57.5156 87.7969 56.6797 87.6328 55.9453 87.3047C55.2109 86.9766 54.5859 86.5234 54.0703 85.9453C53.5547 85.3672 53.1641 84.6719 52.8984 83.8594C52.8698 83.7718 52.8427 83.6833 52.8172 83.5938C52.7258 83.2732 52.6541 82.9399 52.6022 82.5938H68.5312V79.5938C68.5312 77.7031 68.2734 76 67.7578 74.4844C67.2578 72.9531 66.5234 71.6484 65.5547 70.5703C64.5859 69.4766 63.3984 68.6406 61.9922 68.0625C60.5859 67.4688 58.9844 67.1719 57.1875 67.1719C55.2656 67.1719 53.5547 67.5 52.0547 68.1562C50.5547 68.7969 49.2891 69.7109 48.2578 70.8984C47.2422 72.0703 46.4688 73.4531 45.9375 75.0469C45.4062 76.6406 45.1406 78.3828 45.1406 80.2734V81.1641C45.1406 82.8516 45.4297 84.4375 46.0078 85.9219C46.5859 87.4062 47.4219 88.7188 48.5156 89.8594C49.625 90.9844 50.9766 91.8672 52.5703 92.5078C54.1641 93.1484 55.9688 93.4688 57.9844 93.4688C59.625 93.4688 61.0938 93.25 62.3906 92.8125C63.6875 92.375 64.7969 91.8125 65.7188 91.125C66.6562 90.4219 67.3828 89.6953 67.8984 88.9453L64.4766 85.0312C64.2616 85.2988 64.0356 85.5467 63.7984 85.7749C63.191 86.3595 62.5108 86.8147 61.7578 87.1406ZM52.657 77.8828H61.3594V77.3203C61.3594 77.1714 61.3548 77.0256 61.3456 76.8828C61.2999 76.1715 61.1405 75.5361 60.8672 74.9766C60.5547 74.3047 60.0859 73.7891 59.4609 73.4297C58.8516 73.0547 58.0781 72.8672 57.1406 72.8672C56.25 72.8672 55.5078 73.0547 54.9141 73.4297C54.3203 73.8047 53.8438 74.3359 53.4844 75.0234C53.2065 75.5666 52.9898 76.1864 52.8345 76.8828C52.7977 77.0478 52.7643 77.2171 52.7344 77.3906C52.706 77.5524 52.6802 77.7164 52.657 77.8828ZM53.862 76.8828H60.3432C60.2996 76.3106 60.1692 75.8261 59.9686 75.4154L59.9645 75.4069L59.9605 75.3983C59.7323 74.9078 59.4035 74.5502 58.9625 74.2966L58.9495 74.2892L58.9368 74.2813C58.5269 74.0291 57.9492 73.8672 57.1406 73.8672C56.3888 73.8672 55.8442 74.025 55.4481 74.2752C55.0196 74.5458 54.6588 74.9368 54.3726 75.4829C54.1673 75.885 53.9954 76.3499 53.862 76.8828Z" fill="#3DCFB6"/>
<path d="M47.7938 90.5515C46.6084 89.3152 45.7014 87.8906 45.076 86.2848C44.4502 84.678 44.1406 82.9683 44.1406 81.1641V80.2734C44.1406 78.2886 44.4196 76.4383 44.9888 74.7306C45.5581 73.0229 46.3936 71.5225 47.5021 70.2435L47.5028 70.2428C48.636 68.9378 50.0258 67.9361 51.6579 67.2383C53.3033 66.5192 55.153 66.1719 57.1875 66.1719C59.0929 66.1719 60.8287 66.4866 62.3767 67.1394C63.9153 67.7726 65.2283 68.6944 66.301 69.9047C67.3702 71.0955 68.1686 72.523 68.7065 74.1682C69.2618 75.8028 69.5312 77.6153 69.5312 79.5938V83.5938H64.5481L69.1625 88.8718L68.7225 89.5118C68.1306 90.3728 67.3194 91.1745 66.3188 91.925L66.3166 91.9266C65.2959 92.6878 64.0886 93.2951 62.7103 93.76C61.2923 94.2384 59.7127 94.4688 57.9844 94.4688C55.8628 94.4688 53.9283 94.1315 52.1974 93.4357C50.4875 92.7484 49.0174 91.7925 47.8036 90.5615L47.7938 90.5515ZM64.3486 83.5938H53.8639C54.0903 84.2684 54.4109 84.8248 54.8166 85.2797C55.2346 85.7483 55.7428 86.1189 56.3533 86.3917C56.9398 86.6537 57.6331 86.7969 58.4531 86.7969C59.4774 86.7969 60.4457 86.6042 61.3663 86.2204C62.2509 85.8364 63.0271 85.2389 63.6969 84.405L64.3486 83.5938ZM61.7578 87.1406C60.7109 87.5781 59.6094 87.7969 58.4531 87.7969C57.5156 87.7969 56.6797 87.6328 55.9453 87.3047C55.2109 86.9766 54.5859 86.5234 54.0703 85.9453C53.5547 85.3672 53.1641 84.6719 52.8984 83.8594C52.8698 83.7718 52.8427 83.6833 52.8172 83.5938C52.7258 83.2732 52.6541 82.9399 52.6022 82.5938H68.5312V79.5938C68.5312 77.7031 68.2734 76 67.7578 74.4844C67.2578 72.9531 66.5234 71.6484 65.5547 70.5703C64.5859 69.4766 63.3984 68.6406 61.9922 68.0625C60.5859 67.4688 58.9844 67.1719 57.1875 67.1719C55.2656 67.1719 53.5547 67.5 52.0547 68.1562C50.5547 68.7969 49.2891 69.7109 48.2578 70.8984C47.2422 72.0703 46.4688 73.4531 45.9375 75.0469C45.4062 76.6406 45.1406 78.3828 45.1406 80.2734V81.1641C45.1406 82.8516 45.4297 84.4375 46.0078 85.9219C46.5859 87.4062 47.4219 88.7188 48.5156 89.8594C49.625 90.9844 50.9766 91.8672 52.5703 92.5078C54.1641 93.1484 55.9688 93.4688 57.9844 93.4688C59.625 93.4688 61.0938 93.25 62.3906 92.8125C63.6875 92.375 64.7969 91.8125 65.7188 91.125C66.6562 90.4219 67.3828 89.6953 67.8984 88.9453L64.4766 85.0312C64.2616 85.2988 64.0356 85.5467 63.7984 85.7749C63.191 86.3595 62.5108 86.8147 61.7578 87.1406ZM52.657 77.8828H61.3594V77.3203C61.3594 77.1714 61.3548 77.0256 61.3456 76.8828C61.2999 76.1715 61.1405 75.5361 60.8672 74.9766C60.5547 74.3047 60.0859 73.7891 59.4609 73.4297C58.8516 73.0547 58.0781 72.8672 57.1406 72.8672C56.25 72.8672 55.5078 73.0547 54.9141 73.4297C54.3203 73.8047 53.8438 74.3359 53.4844 75.0234C53.2065 75.5666 52.9898 76.1864 52.8345 76.8828C52.7977 77.0478 52.7643 77.2171 52.7344 77.3906C52.706 77.5524 52.6802 77.7164 52.657 77.8828ZM53.862 76.8828H60.3432C60.2996 76.3106 60.1692 75.8261 59.9686 75.4154L59.9645 75.4069L59.9605 75.3983C59.7323 74.9078 59.4035 74.5502 58.9625 74.2966L58.9495 74.2892L58.9368 74.2813C58.5269 74.0291 57.9492 73.8672 57.1406 73.8672C56.3888 73.8672 55.8442 74.025 55.4481 74.2752C55.0196 74.5458 54.6588 74.9368 54.3726 75.4829C54.1673 75.885 53.9954 76.3499 53.862 76.8828Z" stroke="black"/>
<path d="M40.7578 67.6406V93H33.4219V67.6406H40.7578ZM32.9766 61.0781C32.9766 60.0156 33.3516 59.1484 34.1016 58.4766C34.8516 57.7891 35.8359 57.4453 37.0547 57.4453C38.2734 57.4453 39.2578 57.7891 40.0078 58.4766C40.7734 59.1484 41.1562 60.0156 41.1562 61.0781C41.1562 62.125 40.7734 62.9922 40.0078 63.6797C39.2578 64.3516 38.2734 64.6875 37.0547 64.6875C35.8359 64.6875 34.8516 64.3516 34.1016 63.6797C33.3516 62.9922 32.9766 62.125 32.9766 61.0781Z" fill="#3DCFB6"/>
<path d="M40.7578 67.6406V93H33.4219V67.6406H40.7578ZM32.9766 61.0781C32.9766 60.0156 33.3516 59.1484 34.1016 58.4766C34.8516 57.7891 35.8359 57.4453 37.0547 57.4453C38.2734 57.4453 39.2578 57.7891 40.0078 58.4766C40.7734 59.1484 41.1562 60.0156 41.1562 61.0781C41.1562 62.125 40.7734 62.9922 40.0078 63.6797C39.2578 64.3516 38.2734 64.6875 37.0547 64.6875C35.8359 64.6875 34.8516 64.3516 34.1016 63.6797C33.3516 62.9922 32.9766 62.125 32.9766 61.0781Z" stroke="black"/>
<path d="M41.7578 66.6406V94H32.4219V66.6406H41.7578ZM40.6759 64.4237L40.6751 64.4245C39.7048 65.2937 38.4653 65.6875 37.0547 65.6875C35.6441 65.6875 34.4046 65.2937 33.4343 64.4245L33.4258 64.4169C32.4625 63.5338 31.9766 62.3961 31.9766 61.0781C31.9766 59.751 32.4583 58.6082 33.4301 57.7355C34.3991 56.8494 35.6401 56.4453 37.0547 56.4453C38.4674 56.4453 39.707 56.8483 40.6755 57.7321C41.6625 58.6021 42.1562 59.7455 42.1562 61.0781C42.1562 62.4032 41.6569 63.5428 40.6759 64.4237ZM40.0078 58.4766C39.2578 57.7891 38.2734 57.4453 37.0547 57.4453C35.8359 57.4453 34.8516 57.7891 34.1016 58.4766C33.3516 59.1484 32.9766 60.0156 32.9766 61.0781C32.9766 62.125 33.3516 62.9922 34.1016 63.6797C34.8516 64.3516 35.8359 64.6875 37.0547 64.6875C38.2734 64.6875 39.2578 64.3516 40.0078 63.6797C40.7734 62.9922 41.1562 62.125 41.1562 61.0781C41.1562 60.0156 40.7734 59.1484 40.0078 58.4766ZM40.7578 67.6406H33.4219V93H40.7578V67.6406Z" fill="#3DCFB6"/>
<path d="M41.7578 66.6406V94H32.4219V66.6406H41.7578ZM40.6759 64.4237L40.6751 64.4245C39.7048 65.2937 38.4653 65.6875 37.0547 65.6875C35.6441 65.6875 34.4046 65.2937 33.4343 64.4245L33.4258 64.4169C32.4625 63.5338 31.9766 62.3961 31.9766 61.0781C31.9766 59.751 32.4583 58.6082 33.4301 57.7355C34.3991 56.8494 35.6401 56.4453 37.0547 56.4453C38.4674 56.4453 39.707 56.8483 40.6755 57.7321C41.6625 58.6021 42.1562 59.7455 42.1562 61.0781C42.1562 62.4032 41.6569 63.5428 40.6759 64.4237ZM40.0078 58.4766C39.2578 57.7891 38.2734 57.4453 37.0547 57.4453C35.8359 57.4453 34.8516 57.7891 34.1016 58.4766C33.3516 59.1484 32.9766 60.0156 32.9766 61.0781C32.9766 62.125 33.3516 62.9922 34.1016 63.6797C34.8516 64.3516 35.8359 64.6875 37.0547 64.6875C38.2734 64.6875 39.2578 64.3516 40.0078 63.6797C40.7734 62.9922 41.1562 62.125 41.1562 61.0781C41.1562 60.0156 40.7734 59.1484 40.0078 58.4766ZM40.7578 67.6406H33.4219V93H40.7578V67.6406Z" stroke="black"/>
<path d="M10.4531 58.875V74.2154L13.4531 69.9141L21.4688 58.875H30.8438L19.0412 73.9491L31.0312 93H21.9844L13.9721 79.7459L10.4531 83.5617V93H2.8125V58.875H10.4531Z" fill="#3DCFB6"/>
<path d="M10.4531 58.875V74.2154L13.4531 69.9141L21.4688 58.875H30.8438L19.0412 73.9491L31.0312 93H21.9844L13.9721 79.7459L10.4531 83.5617V93H2.8125V58.875H10.4531Z" stroke="black"/>
<path d="M11.4531 57.875V71.0336L12.6384 69.3342L20.959 57.875H32.8968L20.2622 74.0118L32.8422 94H21.4204L13.8049 81.4023L11.4531 83.9525V94H1.8125V57.875H11.4531ZM10.4531 83.5617L13.9721 79.7459L21.9844 93H31.0312L19.0412 73.9491L30.8438 58.875H21.4688L13.4531 69.9141L10.4531 74.2154V58.875H2.8125V93H10.4531V83.5617Z" fill="#3DCFB6"/>
<path d="M11.4531 57.875V71.0336L12.6384 69.3342L20.959 57.875H32.8968L20.2622 74.0118L32.8422 94H21.4204L13.8049 81.4023L11.4531 83.9525V94H1.8125V57.875H11.4531ZM10.4531 83.5617L13.9721 79.7459L21.9844 93H31.0312L19.0412 73.9491L30.8438 58.875H21.4688L13.4531 69.9141L10.4531 74.2154V58.875H2.8125V93H10.4531V83.5617Z" stroke="black"/>
<path d="M120.938 19.0313V37H113.602V11.6406H120.492L120.737 14.6116C120.772 14.5662 120.808 14.5212 120.844 14.4766C121.719 13.3984 122.758 12.5781 123.961 12.0156C125.18 11.4531 126.523 11.1719 127.992 11.1719C129.18 11.1719 130.266 11.3438 131.25 11.6875C132.234 12.0312 133.078 12.5859 133.781 13.3516C134.5 14.1016 135.047 15.1016 135.422 16.3516C135.797 17.5859 135.984 19.1094 135.984 20.9219V37H128.625V20.8984C128.625 19.8359 128.477 19.0156 128.18 18.4375C127.883 17.8594 127.445 17.4531 126.867 17.2188C126.305 16.9844 125.617 16.8672 124.805 16.8672C123.945 16.8672 123.211 17.0391 122.602 17.3828C121.992 17.7109 121.492 18.1719 121.102 18.7656C121.045 18.852 120.99 18.9406 120.938 19.0313Z" fill="#3DCFB6"/>
<path d="M120.938 19.0313V37H113.602V11.6406H120.492L120.737 14.6116C120.772 14.5662 120.808 14.5212 120.844 14.4766C121.719 13.3984 122.758 12.5781 123.961 12.0156C125.18 11.4531 126.523 11.1719 127.992 11.1719C129.18 11.1719 130.266 11.3438 131.25 11.6875C132.234 12.0312 133.078 12.5859 133.781 13.3516C134.5 14.1016 135.047 15.1016 135.422 16.3516C135.797 17.5859 135.984 19.1094 135.984 20.9219V37H128.625V20.8984C128.625 19.8359 128.477 19.0156 128.18 18.4375C127.883 17.8594 127.445 17.4531 126.867 17.2188C126.305 16.9844 125.617 16.8672 124.805 16.8672C123.945 16.8672 123.211 17.0391 122.602 17.3828C121.992 17.7109 121.492 18.1719 121.102 18.7656C121.045 18.852 120.99 18.9406 120.938 19.0313Z" stroke="black"/>
<path d="M121.938 17.8281C121.618 18.0913 121.34 18.4038 121.102 18.7656C121.045 18.852 120.99 18.9406 120.938 19.0313V37H113.602V11.6406H120.492L120.737 14.6116C120.772 14.5662 120.808 14.5212 120.844 14.4766C121.1 14.1603 121.371 13.8661 121.656 13.5942C122.343 12.9393 123.111 12.4131 123.961 12.0156C125.18 11.4531 126.523 11.1719 127.992 11.1719C129.18 11.1719 130.266 11.3438 131.25 11.6875C132.234 12.0312 133.078 12.5859 133.781 13.3516C134.5 14.1016 135.047 15.1016 135.422 16.3516C135.797 17.5859 135.984 19.1094 135.984 20.9219V37H128.625V20.8984C128.625 19.8359 128.477 19.0156 128.18 18.4375C127.883 17.8594 127.445 17.4531 126.867 17.2188C126.305 16.9844 125.617 16.8672 124.805 16.8672C123.945 16.8672 123.211 17.0391 122.602 17.3828C122.364 17.511 122.142 17.6594 121.938 17.8281ZM136.379 16.0629C136.791 17.4207 136.984 19.0484 136.984 20.9219V38H127.625V20.8984C127.625 19.9054 127.482 19.2687 127.29 18.8943C127.098 18.5196 126.838 18.2858 126.491 18.1455L126.483 18.1419C126.075 17.9721 125.527 17.8672 124.805 17.8672C124.078 17.8672 123.522 18.0119 123.093 18.2538L123.084 18.2586L123.076 18.2633C122.617 18.5105 122.239 18.8558 121.938 19.3145V38H112.602V10.6406H121.413L121.554 12.3524C122.162 11.8587 122.823 11.4437 123.537 11.1097L123.542 11.1077C124.904 10.479 126.393 10.1719 127.992 10.1719C129.277 10.1719 130.476 10.3579 131.58 10.7434C132.716 11.1402 133.697 11.784 134.511 12.6674C135.359 13.5559 135.971 14.7038 136.379 16.0629Z" fill="#3DCFB6"/>
<path d="M121.938 17.8281C121.618 18.0913 121.34 18.4038 121.102 18.7656C121.045 18.852 120.99 18.9406 120.938 19.0313V37H113.602V11.6406H120.492L120.737 14.6116C120.772 14.5662 120.808 14.5212 120.844 14.4766C121.1 14.1603 121.371 13.8661 121.656 13.5942C122.343 12.9393 123.111 12.4131 123.961 12.0156C125.18 11.4531 126.523 11.1719 127.992 11.1719C129.18 11.1719 130.266 11.3438 131.25 11.6875C132.234 12.0312 133.078 12.5859 133.781 13.3516C134.5 14.1016 135.047 15.1016 135.422 16.3516C135.797 17.5859 135.984 19.1094 135.984 20.9219V37H128.625V20.8984C128.625 19.8359 128.477 19.0156 128.18 18.4375C127.883 17.8594 127.445 17.4531 126.867 17.2188C126.305 16.9844 125.617 16.8672 124.805 16.8672C123.945 16.8672 123.211 17.0391 122.602 17.3828C122.364 17.511 122.142 17.6594 121.938 17.8281ZM136.379 16.0629C136.791 17.4207 136.984 19.0484 136.984 20.9219V38H127.625V20.8984C127.625 19.9054 127.482 19.2687 127.29 18.8943C127.098 18.5196 126.838 18.2858 126.491 18.1455L126.483 18.1419C126.075 17.9721 125.527 17.8672 124.805 17.8672C124.078 17.8672 123.522 18.0119 123.093 18.2538L123.084 18.2586L123.076 18.2633C122.617 18.5105 122.239 18.8558 121.938 19.3145V38H112.602V10.6406H121.413L121.554 12.3524C122.162 11.8587 122.823 11.4437 123.537 11.1097L123.542 11.1077C124.904 10.479 126.393 10.1719 127.992 10.1719C129.277 10.1719 130.476 10.3579 131.58 10.7434C132.716 11.1402 133.697 11.784 134.511 12.6674C135.359 13.5559 135.971 14.7038 136.379 16.0629Z" stroke="black"/>
<path d="M85.6641 24.5781V24.0859C85.6641 22.2266 85.9297 20.5156 86.4609 18.9531C86.9922 17.375 87.7734 16.0078 88.8047 14.8516C89.8359 13.6953 91.1016 12.7969 92.6016 12.1562C94.1016 11.5 95.8203 11.1719 97.7578 11.1719C99.7266 11.1719 101.461 11.5 102.961 12.1562C104.477 12.7969 105.75 13.6953 106.781 14.8516C107.812 16.0078 108.594 17.375 109.125 18.9531C109.656 20.5156 109.922 22.2266 109.922 24.0859V24.5781C109.922 26.4219 109.656 28.1328 109.125 29.7109C108.594 31.2734 107.812 32.6406 106.781 33.8125C105.75 34.9688 104.484 35.8672 102.984 36.5078C101.484 37.1484 99.7578 37.4688 97.8047 37.4688C95.8672 37.4688 94.1406 37.1484 92.625 36.5078C91.1094 35.8672 89.8359 34.9688 88.8047 33.8125C87.7734 32.6406 86.9922 31.2734 86.4609 29.7109C85.9297 28.1328 85.6641 26.4219 85.6641 24.5781ZM93 24.0859V24.5781C93 25.5781 93.0781 26.5156 93.2344 27.3906C93.4062 28.2656 93.6797 29.0312 94.0547 29.6875C94.4297 30.3438 94.9219 30.8594 95.5312 31.2344C96.1562 31.5938 96.9141 31.7734 97.8047 31.7734C98.6953 31.7734 99.4453 31.5938 100.055 31.2344C100.664 30.8594 101.156 30.3438 101.531 29.6875C101.906 29.0312 102.172 28.2656 102.328 27.3906C102.5 26.5156 102.586 25.5781 102.586 24.5781V24.0859C102.586 23.1016 102.5 22.1797 102.328 21.3203C102.172 20.4453 101.906 19.6719 101.531 19C101.156 18.3281 100.656 17.8047 100.031 17.4297C99.4219 17.0547 98.6641 16.8672 97.7578 16.8672C96.8828 16.8672 96.1406 17.0547 95.5312 17.4297C94.9219 17.8047 94.4297 18.3281 94.0547 19C93.6797 19.6719 93.4062 20.4453 93.2344 21.3203C93.0781 22.1797 93 23.1016 93 24.0859Z" fill="#3DCFB6"/>
<path d="M85.6641 24.5781V24.0859C85.6641 22.2266 85.9297 20.5156 86.4609 18.9531C86.9922 17.375 87.7734 16.0078 88.8047 14.8516C89.8359 13.6953 91.1016 12.7969 92.6016 12.1562C94.1016 11.5 95.8203 11.1719 97.7578 11.1719C99.7266 11.1719 101.461 11.5 102.961 12.1562C104.477 12.7969 105.75 13.6953 106.781 14.8516C107.812 16.0078 108.594 17.375 109.125 18.9531C109.656 20.5156 109.922 22.2266 109.922 24.0859V24.5781C109.922 26.4219 109.656 28.1328 109.125 29.7109C108.594 31.2734 107.812 32.6406 106.781 33.8125C105.75 34.9688 104.484 35.8672 102.984 36.5078C101.484 37.1484 99.7578 37.4688 97.8047 37.4688C95.8672 37.4688 94.1406 37.1484 92.625 36.5078C91.1094 35.8672 89.8359 34.9688 88.8047 33.8125C87.7734 32.6406 86.9922 31.2734 86.4609 29.7109C85.9297 28.1328 85.6641 26.4219 85.6641 24.5781ZM93 24.0859V24.5781C93 25.5781 93.0781 26.5156 93.2344 27.3906C93.4062 28.2656 93.6797 29.0312 94.0547 29.6875C94.4297 30.3438 94.9219 30.8594 95.5312 31.2344C96.1562 31.5938 96.9141 31.7734 97.8047 31.7734C98.6953 31.7734 99.4453 31.5938 100.055 31.2344C100.664 30.8594 101.156 30.3438 101.531 29.6875C101.906 29.0312 102.172 28.2656 102.328 27.3906C102.5 26.5156 102.586 25.5781 102.586 24.5781V24.0859C102.586 23.1016 102.5 22.1797 102.328 21.3203C102.172 20.4453 101.906 19.6719 101.531 19C101.156 18.3281 100.656 17.8047 100.031 17.4297C99.4219 17.0547 98.6641 16.8672 97.7578 16.8672C96.8828 16.8672 96.1406 17.0547 95.5312 17.4297C94.9219 17.8047 94.4297 18.3281 94.0547 19C93.6797 19.6719 93.4062 20.4453 93.2344 21.3203C93.0781 22.1797 93 23.1016 93 24.0859Z" stroke="black"/>
<path d="M110.073 30.03L110.072 30.0328C109.501 31.7128 108.655 33.1968 107.532 34.4731L107.528 34.4781L107.528 34.4781C106.393 35.7497 105.005 36.7323 103.377 37.4275C101.731 38.1305 99.8667 38.4688 97.8047 38.4688C95.7568 38.4688 93.8943 38.13 92.2357 37.4289C90.5923 36.7343 89.1943 35.7517 88.0584 34.4781L88.054 34.4731L88.054 34.4731C86.9308 33.1968 86.0854 31.7128 85.5142 30.0328L85.5132 30.03C84.9438 28.3386 84.6641 26.5188 84.6641 24.5781V24.0859C84.6641 22.1313 84.9434 20.3106 85.5137 18.6326C86.0847 16.9369 86.9311 15.4499 88.0584 14.1859C89.1916 12.9154 90.5787 11.9334 92.2048 11.2383C93.8512 10.5188 95.709 10.1719 97.7578 10.1719C99.8347 10.1719 101.708 10.5177 103.356 11.2376C104.997 11.9321 106.393 12.9138 107.528 14.1859C108.655 15.4499 109.501 16.9367 110.072 18.6323C110.643 20.3104 110.922 22.1312 110.922 24.0859V24.5781C110.922 26.5188 110.642 28.3386 110.073 30.03ZM109.125 18.9531C108.594 17.375 107.812 16.0078 106.781 14.8516C105.75 13.6953 104.477 12.7969 102.961 12.1562C101.461 11.5 99.7266 11.1719 97.7578 11.1719C95.8203 11.1719 94.1016 11.5 92.6016 12.1562C91.1016 12.7969 89.8359 13.6953 88.8047 14.8516C87.7734 16.0078 86.9922 17.375 86.4609 18.9531C85.9297 20.5156 85.6641 22.2266 85.6641 24.0859V24.5781C85.6641 26.4219 85.9297 28.1328 86.4609 29.7109C86.9922 31.2734 87.7734 32.6406 88.8047 33.8125C89.8359 34.9688 91.1094 35.8672 92.625 36.5078C94.1406 37.1484 95.8672 37.4688 97.8047 37.4688C99.7578 37.4688 101.484 37.1484 102.984 36.5078C104.484 35.8672 105.75 34.9688 106.781 33.8125C107.812 32.6406 108.594 31.2734 109.125 29.7109C109.656 28.1328 109.922 26.4219 109.922 24.5781V24.0859C109.922 22.2266 109.656 20.5156 109.125 18.9531ZM101.345 27.2063L101.347 27.1979C101.505 26.3935 101.586 25.5211 101.586 24.5781V24.0859C101.586 23.1595 101.505 22.3039 101.348 21.5164L101.346 21.5063L101.344 21.4961C101.204 20.7138 100.971 20.0485 100.658 19.4874C100.363 18.9593 99.9835 18.5672 99.5168 18.2872L99.5071 18.2814L99.5072 18.2813C99.0923 18.0261 98.5278 17.8672 97.7578 17.8672C97.0266 17.8672 96.4753 18.0229 96.0553 18.2813C95.6025 18.56 95.226 18.9532 94.9279 19.4874C94.6125 20.0524 94.3718 20.7214 94.217 21.5062C94.0735 22.2977 94 23.1569 94 24.0859V24.5781C94 25.523 94.0736 26.3983 94.2173 27.2063C94.3719 27.9896 94.6116 28.6466 94.9229 29.1914C95.2169 29.7057 95.5897 30.0932 96.0424 30.3747C96.4823 30.6242 97.0554 30.7734 97.8047 30.7734C98.5576 30.7734 99.1193 30.6228 99.5388 30.3776C99.9937 30.0958 100.368 29.7075 100.663 29.1914C100.972 28.6502 101.204 27.9966 101.344 27.2148L101.345 27.2063ZM100.055 31.2344C99.4453 31.5938 98.6953 31.7734 97.8047 31.7734C96.9141 31.7734 96.1562 31.5938 95.5312 31.2344C94.9219 30.8594 94.4297 30.3438 94.0547 29.6875C93.6797 29.0312 93.4062 28.2656 93.2344 27.3906C93.0781 26.5156 93 25.5781 93 24.5781V24.0859C93 23.1016 93.0781 22.1797 93.2344 21.3203C93.4062 20.4453 93.6797 19.6719 94.0547 19C94.4297 18.3281 94.9219 17.8047 95.5312 17.4297C96.1406 17.0547 96.8828 16.8672 97.7578 16.8672C98.6641 16.8672 99.4219 17.0547 100.031 17.4297C100.656 17.8047 101.156 18.3281 101.531 19C101.906 19.6719 102.172 20.4453 102.328 21.3203C102.5 22.1797 102.586 23.1016 102.586 24.0859V24.5781C102.586 25.5781 102.5 26.5156 102.328 27.3906C102.172 28.2656 101.906 29.0312 101.531 29.6875C101.156 30.3438 100.664 30.8594 100.055 31.2344Z" fill="#3DCFB6"/>
<path d="M110.073 30.03L110.072 30.0328C109.501 31.7128 108.655 33.1968 107.532 34.4731L107.528 34.4781L107.528 34.4781C106.393 35.7497 105.005 36.7323 103.377 37.4275C101.731 38.1305 99.8667 38.4688 97.8047 38.4688C95.7568 38.4688 93.8943 38.13 92.2357 37.4289C90.5923 36.7343 89.1943 35.7517 88.0584 34.4781L88.054 34.4731L88.054 34.4731C86.9308 33.1968 86.0854 31.7128 85.5142 30.0328L85.5132 30.03C84.9438 28.3386 84.6641 26.5188 84.6641 24.5781V24.0859C84.6641 22.1313 84.9434 20.3106 85.5137 18.6326C86.0847 16.9369 86.9311 15.4499 88.0584 14.1859C89.1916 12.9154 90.5787 11.9334 92.2048 11.2383C93.8512 10.5188 95.709 10.1719 97.7578 10.1719C99.8347 10.1719 101.708 10.5177 103.356 11.2376C104.997 11.9321 106.393 12.9138 107.528 14.1859C108.655 15.4499 109.501 16.9367 110.072 18.6323C110.643 20.3104 110.922 22.1312 110.922 24.0859V24.5781C110.922 26.5188 110.642 28.3386 110.073 30.03ZM109.125 18.9531C108.594 17.375 107.812 16.0078 106.781 14.8516C105.75 13.6953 104.477 12.7969 102.961 12.1562C101.461 11.5 99.7266 11.1719 97.7578 11.1719C95.8203 11.1719 94.1016 11.5 92.6016 12.1562C91.1016 12.7969 89.8359 13.6953 88.8047 14.8516C87.7734 16.0078 86.9922 17.375 86.4609 18.9531C85.9297 20.5156 85.6641 22.2266 85.6641 24.0859V24.5781C85.6641 26.4219 85.9297 28.1328 86.4609 29.7109C86.9922 31.2734 87.7734 32.6406 88.8047 33.8125C89.8359 34.9688 91.1094 35.8672 92.625 36.5078C94.1406 37.1484 95.8672 37.4688 97.8047 37.4688C99.7578 37.4688 101.484 37.1484 102.984 36.5078C104.484 35.8672 105.75 34.9688 106.781 33.8125C107.812 32.6406 108.594 31.2734 109.125 29.7109C109.656 28.1328 109.922 26.4219 109.922 24.5781V24.0859C109.922 22.2266 109.656 20.5156 109.125 18.9531ZM101.345 27.2063L101.347 27.1979C101.505 26.3935 101.586 25.5211 101.586 24.5781V24.0859C101.586 23.1595 101.505 22.3039 101.348 21.5164L101.346 21.5063L101.344 21.4961C101.204 20.7138 100.971 20.0485 100.658 19.4874C100.363 18.9593 99.9835 18.5672 99.5168 18.2872L99.5071 18.2814L99.5072 18.2813C99.0923 18.0261 98.5278 17.8672 97.7578 17.8672C97.0266 17.8672 96.4753 18.0229 96.0553 18.2813C95.6025 18.56 95.226 18.9532 94.9279 19.4874C94.6125 20.0524 94.3718 20.7214 94.217 21.5062C94.0735 22.2977 94 23.1569 94 24.0859V24.5781C94 25.523 94.0736 26.3983 94.2173 27.2063C94.3719 27.9896 94.6116 28.6466 94.9229 29.1914C95.2169 29.7057 95.5897 30.0932 96.0424 30.3747C96.4823 30.6242 97.0554 30.7734 97.8047 30.7734C98.5576 30.7734 99.1193 30.6228 99.5388 30.3776C99.9937 30.0958 100.368 29.7075 100.663 29.1914C100.972 28.6502 101.204 27.9966 101.344 27.2148L101.345 27.2063ZM100.055 31.2344C99.4453 31.5938 98.6953 31.7734 97.8047 31.7734C96.9141 31.7734 96.1562 31.5938 95.5312 31.2344C94.9219 30.8594 94.4297 30.3438 94.0547 29.6875C93.6797 29.0312 93.4062 28.2656 93.2344 27.3906C93.0781 26.5156 93 25.5781 93 24.5781V24.0859C93 23.1016 93.0781 22.1797 93.2344 21.3203C93.4062 20.4453 93.6797 19.6719 94.0547 19C94.4297 18.3281 94.9219 17.8047 95.5312 17.4297C96.1406 17.0547 96.8828 16.8672 97.7578 16.8672C98.6641 16.8672 99.4219 17.0547 100.031 17.4297C100.656 17.8047 101.156 18.3281 101.531 19C101.906 19.6719 102.172 20.4453 102.328 21.3203C102.5 22.1797 102.586 23.1016 102.586 24.0859V24.5781C102.586 25.5781 102.5 26.5156 102.328 27.3906C102.172 28.2656 101.906 29.0312 101.531 29.6875C101.156 30.3438 100.664 30.8594 100.055 31.2344Z" stroke="black"/>
<path d="M52.5703 19.1801V37H45.2578V11.6406H52.125L52.3715 14.5859C53.1891 13.5142 54.1929 12.6809 55.3828 12.0859C56.6172 11.4766 58.0391 11.1719 59.6484 11.1719C60.7734 11.1719 61.7969 11.3438 62.7188 11.6875C63.6406 12.0156 64.4297 12.5391 65.0859 13.2578C65.5514 13.7449 65.9419 14.3371 66.2574 15.0342C66.3484 14.9002 66.4423 14.769 66.5391 14.6406C67.3516 13.5469 68.3594 12.6953 69.5625 12.0859C70.7812 11.4766 72.1953 11.1719 73.8047 11.1719C74.9922 11.1719 76.0703 11.3438 77.0391 11.6875C78.0234 12.0312 78.8672 12.5859 79.5703 13.3516C80.2891 14.1172 80.8438 15.125 81.2344 16.375C81.625 17.6094 81.8203 19.125 81.8203 20.9219V37H74.4609V20.9219C74.4609 19.8125 74.3203 18.9688 74.0391 18.3906C73.7734 17.8125 73.3828 17.4141 72.8672 17.1953C72.3672 16.9766 71.7656 16.8672 71.0625 16.8672C70.2812 16.8672 69.6016 17.0312 69.0234 17.3594C68.4453 17.6719 67.9609 18.1094 67.5703 18.6719C67.4177 18.8856 67.2805 19.1148 67.1589 19.3596C67.1675 19.5936 67.1719 19.8331 67.1719 20.0781V37H59.8594V20.9688C59.8594 19.8438 59.7188 18.9922 59.4375 18.4141C59.1719 17.8203 58.7812 17.4141 58.2656 17.1953C57.75 16.9766 57.1328 16.8672 56.4141 16.8672C55.6328 16.8672 54.9375 17.0391 54.3281 17.3828C53.7344 17.7109 53.2344 18.1719 52.8281 18.7656C52.7371 18.8987 52.6511 19.0368 52.5703 19.1801Z" fill="#3DCFB6"/>
<path d="M52.5703 19.1801V37H45.2578V11.6406H52.125L52.3715 14.5859C53.1891 13.5142 54.1929 12.6809 55.3828 12.0859C56.6172 11.4766 58.0391 11.1719 59.6484 11.1719C60.7734 11.1719 61.7969 11.3438 62.7188 11.6875C63.6406 12.0156 64.4297 12.5391 65.0859 13.2578C65.5514 13.7449 65.9419 14.3371 66.2574 15.0342C66.3484 14.9002 66.4423 14.769 66.5391 14.6406C67.3516 13.5469 68.3594 12.6953 69.5625 12.0859C70.7812 11.4766 72.1953 11.1719 73.8047 11.1719C74.9922 11.1719 76.0703 11.3438 77.0391 11.6875C78.0234 12.0312 78.8672 12.5859 79.5703 13.3516C80.2891 14.1172 80.8438 15.125 81.2344 16.375C81.625 17.6094 81.8203 19.125 81.8203 20.9219V37H74.4609V20.9219C74.4609 19.8125 74.3203 18.9688 74.0391 18.3906C73.7734 17.8125 73.3828 17.4141 72.8672 17.1953C72.3672 16.9766 71.7656 16.8672 71.0625 16.8672C70.2812 16.8672 69.6016 17.0312 69.0234 17.3594C68.4453 17.6719 67.9609 18.1094 67.5703 18.6719C67.4177 18.8856 67.2805 19.1148 67.1589 19.3596C67.1675 19.5936 67.1719 19.8331 67.1719 20.0781V37H59.8594V20.9688C59.8594 19.8438 59.7188 18.9922 59.4375 18.4141C59.1719 17.8203 58.7812 17.4141 58.2656 17.1953C57.75 16.9766 57.1328 16.8672 56.4141 16.8672C55.6328 16.8672 54.9375 17.0391 54.3281 17.3828C53.7344 17.7109 53.2344 18.1719 52.8281 18.7656C52.7371 18.8987 52.6511 19.0368 52.5703 19.1801Z" stroke="black"/>
<path d="M53.5703 17.9181C53.2954 18.1617 53.048 18.4442 52.8281 18.7656C52.7371 18.8987 52.6511 19.0368 52.5703 19.1801V37H45.2578V11.6406H52.125L52.3715 14.5859C52.6549 14.2144 52.9607 13.8715 53.2889 13.5573C53.9074 12.9651 54.6054 12.4747 55.3828 12.0859C56.6172 11.4766 58.0391 11.1719 59.6484 11.1719C60.7734 11.1719 61.7969 11.3438 62.7188 11.6875C63.6406 12.0156 64.4297 12.5391 65.0859 13.2578C65.317 13.4997 65.5296 13.7674 65.7238 14.061C65.9207 14.3588 66.0985 14.6832 66.2574 15.0342C66.3484 14.9002 66.4423 14.769 66.5391 14.6406C66.6662 14.4695 66.798 14.3044 66.9347 14.1451C67.6716 13.2864 68.5476 12.6 69.5625 12.0859C70.7812 11.4766 72.1953 11.1719 73.8047 11.1719C74.9922 11.1719 76.0703 11.3438 77.0391 11.6875C78.0234 12.0312 78.8672 12.5859 79.5703 13.3516C80.2891 14.1172 80.8438 15.125 81.2344 16.375C81.625 17.6094 81.8203 19.125 81.8203 20.9219V37H74.4609V20.9219C74.4609 19.8125 74.3203 18.9688 74.0391 18.3906C73.7734 17.8125 73.3828 17.4141 72.8672 17.1953C72.3672 16.9766 71.7656 16.8672 71.0625 16.8672C70.2812 16.8672 69.6016 17.0312 69.0234 17.3594C68.6698 17.5505 68.3513 17.7884 68.0678 18.0731C67.8878 18.2538 67.722 18.4534 67.5703 18.6719C67.4177 18.8856 67.2805 19.1148 67.1589 19.3596C67.1675 19.5936 67.1719 19.8331 67.1719 20.0781V37H59.8594V20.9688C59.8594 19.8438 59.7188 18.9922 59.4375 18.4141C59.1719 17.8203 58.7812 17.4141 58.2656 17.1953C57.75 16.9766 57.1328 16.8672 56.4141 16.8672C55.6328 16.8672 54.9375 17.0391 54.3281 17.3828C54.0558 17.5333 53.8032 17.7117 53.5703 17.9181ZM68.1664 19.5942C68.17 19.7536 68.1719 19.915 68.1719 20.0781V38H58.8594V20.9688C58.8594 19.8979 58.7208 19.2267 58.5383 18.8515L58.5312 18.8371L58.5247 18.8224C58.3444 18.4195 58.1209 18.2202 57.8751 18.1159C57.5126 17.9621 57.0351 17.8672 56.4141 17.8672C55.7845 17.8672 55.262 18.0042 54.8194 18.2538L54.8118 18.2581C54.3629 18.5062 53.9771 18.8573 53.6534 19.3303C53.6252 19.3716 53.5975 19.4135 53.5703 19.4562V38H44.2578V10.6406H53.0448L53.1851 12.3169C53.7216 11.8821 54.3054 11.5066 54.9356 11.1915L54.9401 11.1892C56.3336 10.5013 57.9114 10.1719 59.6484 10.1719C60.8731 10.1719 62.0146 10.3587 63.0611 10.7479C64.1299 11.1296 65.0527 11.7409 65.8168 12.5752C66.0198 12.7884 66.2088 13.0165 66.3843 13.2587C67.1617 12.4099 68.0717 11.7201 69.1107 11.1938L69.1153 11.1915C70.4959 10.5012 72.068 10.1719 73.8047 10.1719C75.0879 10.1719 76.2806 10.3576 77.3714 10.7443C78.508 11.1417 79.4896 11.7865 80.3032 12.6712C81.1453 13.5697 81.7642 14.7184 82.1883 16.075C82.6188 17.4363 82.8203 19.06 82.8203 20.9219V38H73.4609V20.9219C73.4609 19.8692 73.323 19.2046 73.1398 18.8281L73.135 18.8182L73.1304 18.8081C72.9536 18.4234 72.7315 18.224 72.4766 18.1159L72.4663 18.1115C72.1235 17.9616 71.6658 17.8672 71.0625 17.8672C70.4238 17.8672 69.9202 18.0002 69.517 18.2291L69.5081 18.2342L69.499 18.2391C69.0646 18.4738 68.6968 18.803 68.3917 19.2423L68.3841 19.2532C68.3074 19.3606 68.2347 19.4742 68.1664 19.5942Z" fill="#3DCFB6"/>
<path d="M53.5703 17.9181C53.2954 18.1617 53.048 18.4442 52.8281 18.7656C52.7371 18.8987 52.6511 19.0368 52.5703 19.1801V37H45.2578V11.6406H52.125L52.3715 14.5859C52.6549 14.2144 52.9607 13.8715 53.2889 13.5573C53.9074 12.9651 54.6054 12.4747 55.3828 12.0859C56.6172 11.4766 58.0391 11.1719 59.6484 11.1719C60.7734 11.1719 61.7969 11.3438 62.7188 11.6875C63.6406 12.0156 64.4297 12.5391 65.0859 13.2578C65.317 13.4997 65.5296 13.7674 65.7238 14.061C65.9207 14.3588 66.0985 14.6832 66.2574 15.0342C66.3484 14.9002 66.4423 14.769 66.5391 14.6406C66.6662 14.4695 66.798 14.3044 66.9347 14.1451C67.6716 13.2864 68.5476 12.6 69.5625 12.0859C70.7812 11.4766 72.1953 11.1719 73.8047 11.1719C74.9922 11.1719 76.0703 11.3438 77.0391 11.6875C78.0234 12.0312 78.8672 12.5859 79.5703 13.3516C80.2891 14.1172 80.8438 15.125 81.2344 16.375C81.625 17.6094 81.8203 19.125 81.8203 20.9219V37H74.4609V20.9219C74.4609 19.8125 74.3203 18.9688 74.0391 18.3906C73.7734 17.8125 73.3828 17.4141 72.8672 17.1953C72.3672 16.9766 71.7656 16.8672 71.0625 16.8672C70.2812 16.8672 69.6016 17.0312 69.0234 17.3594C68.6698 17.5505 68.3513 17.7884 68.0678 18.0731C67.8878 18.2538 67.722 18.4534 67.5703 18.6719C67.4177 18.8856 67.2805 19.1148 67.1589 19.3596C67.1675 19.5936 67.1719 19.8331 67.1719 20.0781V37H59.8594V20.9688C59.8594 19.8438 59.7188 18.9922 59.4375 18.4141C59.1719 17.8203 58.7812 17.4141 58.2656 17.1953C57.75 16.9766 57.1328 16.8672 56.4141 16.8672C55.6328 16.8672 54.9375 17.0391 54.3281 17.3828C54.0558 17.5333 53.8032 17.7117 53.5703 17.9181ZM68.1664 19.5942C68.17 19.7536 68.1719 19.915 68.1719 20.0781V38H58.8594V20.9688C58.8594 19.8979 58.7208 19.2267 58.5383 18.8515L58.5312 18.8371L58.5247 18.8224C58.3444 18.4195 58.1209 18.2202 57.8751 18.1159C57.5126 17.9621 57.0351 17.8672 56.4141 17.8672C55.7845 17.8672 55.262 18.0042 54.8194 18.2538L54.8118 18.2581C54.3629 18.5062 53.9771 18.8573 53.6534 19.3303C53.6252 19.3716 53.5975 19.4135 53.5703 19.4562V38H44.2578V10.6406H53.0448L53.1851 12.3169C53.7216 11.8821 54.3054 11.5066 54.9356 11.1915L54.9401 11.1892C56.3336 10.5013 57.9114 10.1719 59.6484 10.1719C60.8731 10.1719 62.0146 10.3587 63.0611 10.7479C64.1299 11.1296 65.0527 11.7409 65.8168 12.5752C66.0198 12.7884 66.2088 13.0165 66.3843 13.2587C67.1617 12.4099 68.0717 11.7201 69.1107 11.1938L69.1153 11.1915C70.4959 10.5012 72.068 10.1719 73.8047 10.1719C75.0879 10.1719 76.2806 10.3576 77.3714 10.7443C78.508 11.1417 79.4896 11.7865 80.3032 12.6712C81.1453 13.5697 81.7642 14.7184 82.1883 16.075C82.6188 17.4363 82.8203 19.06 82.8203 20.9219V38H73.4609V20.9219C73.4609 19.8692 73.323 19.2046 73.1398 18.8281L73.135 18.8182L73.1304 18.8081C72.9536 18.4234 72.7315 18.224 72.4766 18.1159L72.4663 18.1115C72.1235 17.9616 71.6658 17.8672 71.0625 17.8672C70.4238 17.8672 69.9202 18.0002 69.517 18.2291L69.5081 18.2342L69.499 18.2391C69.0646 18.4738 68.6968 18.803 68.3917 19.2423L68.3841 19.2532C68.3074 19.3606 68.2347 19.4742 68.1664 19.5942Z" stroke="black"/>
<path d="M39.9609 11.6406V37H32.625V11.6406H39.9609ZM32.1797 5.07812C32.1797 4.01562 32.5547 3.14844 33.3047 2.47656C34.0547 1.78906 35.0391 1.44531 36.2578 1.44531C37.4766 1.44531 38.4609 1.78906 39.2109 2.47656C39.9766 3.14844 40.3594 4.01562 40.3594 5.07812C40.3594 6.125 39.9766 6.99219 39.2109 7.67969C38.4609 8.35156 37.4766 8.6875 36.2578 8.6875C35.0391 8.6875 34.0547 8.35156 33.3047 7.67969C32.5547 6.99219 32.1797 6.125 32.1797 5.07812Z" fill="#3DCFB6"/>
<path d="M39.9609 11.6406V37H32.625V11.6406H39.9609ZM32.1797 5.07812C32.1797 4.01562 32.5547 3.14844 33.3047 2.47656C34.0547 1.78906 35.0391 1.44531 36.2578 1.44531C37.4766 1.44531 38.4609 1.78906 39.2109 2.47656C39.9766 3.14844 40.3594 4.01562 40.3594 5.07812C40.3594 6.125 39.9766 6.99219 39.2109 7.67969C38.4609 8.35156 37.4766 8.6875 36.2578 8.6875C35.0391 8.6875 34.0547 8.35156 33.3047 7.67969C32.5547 6.99219 32.1797 6.125 32.1797 5.07812Z" stroke="black"/>
<path d="M40.9609 10.6406V38H31.625V10.6406H40.9609ZM39.8791 8.42374L39.8782 8.42452C38.9079 9.2937 37.6684 9.6875 36.2578 9.6875C34.8472 9.6875 33.6077 9.2937 32.6374 8.42452L32.6289 8.41689C31.6656 7.53385 31.1797 6.3961 31.1797 5.07812C31.1797 3.75102 31.6614 2.60816 32.6332 1.73554C33.6022 0.849361 34.8433 0.445312 36.2578 0.445312C37.6705 0.445312 38.9101 0.84831 39.8787 1.73208C40.8656 2.60207 41.3594 3.74554 41.3594 5.07812C41.3594 6.40325 40.8601 7.54284 39.8791 8.42374ZM39.2109 2.47656C38.4609 1.78906 37.4766 1.44531 36.2578 1.44531C35.0391 1.44531 34.0547 1.78906 33.3047 2.47656C32.5547 3.14844 32.1797 4.01562 32.1797 5.07812C32.1797 6.125 32.5547 6.99219 33.3047 7.67969C34.0547 8.35156 35.0391 8.6875 36.2578 8.6875C37.4766 8.6875 38.4609 8.35156 39.2109 7.67969C39.9766 6.99219 40.3594 6.125 40.3594 5.07812C40.3594 4.01562 39.9766 3.14844 39.2109 2.47656ZM39.9609 11.6406H32.625V37H39.9609V11.6406Z" fill="#3DCFB6"/>
<path d="M40.9609 10.6406V38H31.625V10.6406H40.9609ZM39.8791 8.42374L39.8782 8.42452C38.9079 9.2937 37.6684 9.6875 36.2578 9.6875C34.8472 9.6875 33.6077 9.2937 32.6374 8.42452L32.6289 8.41689C31.6656 7.53385 31.1797 6.3961 31.1797 5.07812C31.1797 3.75102 31.6614 2.60816 32.6332 1.73554C33.6022 0.849361 34.8433 0.445312 36.2578 0.445312C37.6705 0.445312 38.9101 0.84831 39.8787 1.73208C40.8656 2.60207 41.3594 3.74554 41.3594 5.07812C41.3594 6.40325 40.8601 7.54284 39.8791 8.42374ZM39.2109 2.47656C38.4609 1.78906 37.4766 1.44531 36.2578 1.44531C35.0391 1.44531 34.0547 1.78906 33.3047 2.47656C32.5547 3.14844 32.1797 4.01562 32.1797 5.07812C32.1797 6.125 32.5547 6.99219 33.3047 7.67969C34.0547 8.35156 35.0391 8.6875 36.2578 8.6875C37.4766 8.6875 38.4609 8.35156 39.2109 7.67969C39.9766 6.99219 40.3594 6.125 40.3594 5.07812C40.3594 4.01562 39.9766 3.14844 39.2109 2.47656ZM39.9609 11.6406H32.625V37H39.9609V11.6406Z" stroke="black"/>
<path d="M20.5078 28C20.5078 27.4219 20.4219 26.9062 20.25 26.4531C20.0781 25.9844 19.7656 25.5547 19.3125 25.1641C18.8594 24.7734 18.2188 24.3828 17.3906 23.9922C16.5625 23.5859 15.4766 23.1719 14.1328 22.75C12.6016 22.25 11.1406 21.6875 9.75 21.0625C8.375 20.4219 7.14844 19.6797 6.07031 18.8359C4.99219 17.9922 4.14062 17.0078 3.51562 15.8828C2.90625 14.7578 2.60156 13.4453 2.60156 11.9453C2.60156 10.4922 2.92188 9.17969 3.5625 8.00781C4.20312 6.83594 5.10156 5.83594 6.25781 5.00781C7.41406 4.16406 8.77344 3.52344 10.3359 3.08594C11.8984 2.63281 13.6172 2.40625 15.4922 2.40625C17.9922 2.40625 20.1875 2.85156 22.0781 3.74219C23.9844 4.61719 25.4688 5.85156 26.5312 7.44531C27.5938 9.02344 28.125 10.8594 28.125 12.9531H20.5312C20.5312 12.0312 20.3359 11.2188 19.9453 10.5156C19.5703 9.79688 18.9922 9.23438 18.2109 8.82812C17.4453 8.42188 16.4844 8.21875 15.3281 8.21875C14.2031 8.21875 13.2578 8.39062 12.4922 8.73438C11.7422 9.0625 11.1719 9.51562 10.7812 10.0938C10.4062 10.6719 10.2188 11.3047 10.2188 11.9922C10.2188 12.5391 10.3594 13.0391 10.6406 13.4922C10.9375 13.9297 11.3594 14.3438 11.9062 14.7344C12.4688 15.1094 13.1562 15.4688 13.9688 15.8125C14.7812 16.1562 15.7109 16.4844 16.7578 16.7969C18.5859 17.375 20.2031 18.0156 21.6094 18.7188C23.0312 19.4219 24.2266 20.2188 25.1953 21.1094C26.1641 22 26.8906 23.0078 27.375 24.1328C27.875 25.2578 28.125 26.5312 28.125 27.9531C28.125 29.4688 27.8281 30.8125 27.2344 31.9844C26.6562 33.1562 25.8125 34.1562 24.7031 34.9844C23.6094 35.7969 22.2969 36.4141 20.7656 36.8359C19.2344 37.2578 17.5234 37.4688 15.6328 37.4688C13.9141 37.4688 12.2188 37.25 10.5469 36.8125C8.875 36.3594 7.35938 35.6719 6 34.75C4.65625 33.8281 3.57812 32.6562 2.76562 31.2344C1.96875 29.7969 1.57031 28.0938 1.57031 26.125H9.21094C9.21094 27.1562 9.35938 28.0312 9.65625 28.75C9.95312 29.4531 10.375 30.0234 10.9219 30.4609C11.4844 30.8984 12.1641 31.2109 12.9609 31.3984C13.7578 31.5859 14.6484 31.6797 15.6328 31.6797C16.7734 31.6797 17.6953 31.5234 18.3984 31.2109C19.1172 30.8828 19.6484 30.4375 19.9922 29.875C20.3359 29.3125 20.5078 28.6875 20.5078 28Z" fill="#3DCFB6"/>
<path d="M20.5078 28C20.5078 27.4219 20.4219 26.9062 20.25 26.4531C20.0781 25.9844 19.7656 25.5547 19.3125 25.1641C18.8594 24.7734 18.2188 24.3828 17.3906 23.9922C16.5625 23.5859 15.4766 23.1719 14.1328 22.75C12.6016 22.25 11.1406 21.6875 9.75 21.0625C8.375 20.4219 7.14844 19.6797 6.07031 18.8359C4.99219 17.9922 4.14062 17.0078 3.51562 15.8828C2.90625 14.7578 2.60156 13.4453 2.60156 11.9453C2.60156 10.4922 2.92188 9.17969 3.5625 8.00781C4.20312 6.83594 5.10156 5.83594 6.25781 5.00781C7.41406 4.16406 8.77344 3.52344 10.3359 3.08594C11.8984 2.63281 13.6172 2.40625 15.4922 2.40625C17.9922 2.40625 20.1875 2.85156 22.0781 3.74219C23.9844 4.61719 25.4688 5.85156 26.5312 7.44531C27.5938 9.02344 28.125 10.8594 28.125 12.9531H20.5312C20.5312 12.0312 20.3359 11.2188 19.9453 10.5156C19.5703 9.79688 18.9922 9.23438 18.2109 8.82812C17.4453 8.42188 16.4844 8.21875 15.3281 8.21875C14.2031 8.21875 13.2578 8.39062 12.4922 8.73438C11.7422 9.0625 11.1719 9.51562 10.7812 10.0938C10.4062 10.6719 10.2188 11.3047 10.2188 11.9922C10.2188 12.5391 10.3594 13.0391 10.6406 13.4922C10.9375 13.9297 11.3594 14.3438 11.9062 14.7344C12.4688 15.1094 13.1562 15.4688 13.9688 15.8125C14.7812 16.1562 15.7109 16.4844 16.7578 16.7969C18.5859 17.375 20.2031 18.0156 21.6094 18.7188C23.0312 19.4219 24.2266 20.2188 25.1953 21.1094C26.1641 22 26.8906 23.0078 27.375 24.1328C27.875 25.2578 28.125 26.5312 28.125 27.9531C28.125 29.4688 27.8281 30.8125 27.2344 31.9844C26.6562 33.1562 25.8125 34.1562 24.7031 34.9844C23.6094 35.7969 22.2969 36.4141 20.7656 36.8359C19.2344 37.2578 17.5234 37.4688 15.6328 37.4688C13.9141 37.4688 12.2188 37.25 10.5469 36.8125C8.875 36.3594 7.35938 35.6719 6 34.75C4.65625 33.8281 3.57812 32.6562 2.76562 31.2344C1.96875 29.7969 1.57031 28.0938 1.57031 26.125H9.21094C9.21094 27.1562 9.35938 28.0312 9.65625 28.75C9.95312 29.4531 10.375 30.0234 10.9219 30.4609C11.4844 30.8984 12.1641 31.2109 12.9609 31.3984C13.7578 31.5859 14.6484 31.6797 15.6328 31.6797C16.7734 31.6797 17.6953 31.5234 18.3984 31.2109C19.1172 30.8828 19.6484 30.4375 19.9922 29.875C20.3359 29.3125 20.5078 28.6875 20.5078 28Z" stroke="black"/>
<path fill-rule="evenodd" clip-rule="evenodd" d="M19.3111 26.7974C19.2084 26.5173 19.0093 26.223 18.6596 25.9215C18.3009 25.6123 17.7488 25.2668 16.964 24.8966L16.9571 24.8934L16.9502 24.89C16.1846 24.5144 15.151 24.1178 13.8333 23.7041L13.8224 23.7007C12.2592 23.1902 10.7649 22.615 9.34006 21.9746L9.32764 21.969C7.89098 21.2997 6.5981 20.5188 5.454 19.6234C4.27743 18.7026 3.33545 17.6176 2.64147 16.3685L2.63628 16.3591C1.93504 15.0645 1.60156 13.5829 1.60156 11.9453C1.60156 10.3397 1.95706 8.85984 2.68505 7.52814C3.40172 6.21716 4.4033 5.10677 5.67191 4.19742C6.93471 3.27664 8.40293 2.58921 10.0618 2.12422C11.7262 1.64207 13.5387 1.40625 15.4922 1.40625C18.1091 1.40625 20.4533 1.87232 22.4998 2.83542C24.555 3.77968 26.1879 5.12842 27.362 6.8886C28.5459 8.64787 29.125 10.682 29.125 12.9531V13.9531H19.5312V12.9531C19.5312 12.1761 19.3678 11.5353 19.0712 11.0013L19.0648 10.9898L19.0587 10.9782C18.7868 10.457 18.3654 10.0356 17.7496 9.71534L17.7422 9.7115C17.1611 9.40314 16.3734 9.21875 15.3281 9.21875C14.2988 9.21875 13.5027 9.37685 12.9018 9.64664L12.893 9.65057C12.2898 9.91447 11.8825 10.2534 11.615 10.6459C11.3484 11.0601 11.2188 11.5015 11.2188 11.9922C11.2188 12.3506 11.3064 12.6619 11.4799 12.9479C11.6931 13.2568 12.0145 13.581 12.4744 13.9113C12.9697 14.2399 13.5941 14.5682 14.3584 14.8915C15.1302 15.2181 16.0243 15.5343 17.0438 15.8387L17.0516 15.841L17.0593 15.8434C18.9262 16.4338 20.593 17.0927 22.0546 17.8233C23.5438 18.5599 24.8214 19.4072 25.8721 20.3732C26.9352 21.3506 27.7471 22.4705 28.2912 23.732C28.8545 25.0018 29.125 26.415 29.125 27.9531C29.125 29.5996 28.8021 31.1007 28.1288 32.4316C27.4768 33.7513 26.528 34.8701 25.3013 35.7857L25.2994 35.7871C24.0914 36.6845 22.6623 37.3506 21.0312 37.8C19.3989 38.2497 17.5967 38.4688 15.6328 38.4688C13.8282 38.4688 12.0478 38.2389 10.2937 37.7799L10.2853 37.7777C8.51246 37.2972 6.89461 36.5649 5.43873 35.5776L5.43428 35.5746C3.96559 34.567 2.78429 33.2826 1.89738 31.7305L1.89095 31.7193C0.996987 30.1066 0.570312 28.2299 0.570312 26.125V25.125H10.2109V26.125C10.2109 27.0637 10.3465 27.7999 10.579 28.3647C10.816 28.9244 11.1391 29.3526 11.5413 29.6758C11.9736 30.0107 12.5152 30.2662 13.19 30.425C13.8985 30.5917 14.7106 30.6797 15.6328 30.6797C16.6921 30.6797 17.4589 30.5331 17.9877 30.2992C18.559 30.0375 18.9189 29.7135 19.1389 29.3535C19.3825 28.955 19.5078 28.5118 19.5078 28C19.5078 27.5202 19.4365 27.1281 19.315 26.8078L19.3111 26.7974ZM18.3984 31.2109C17.6953 31.5234 16.7734 31.6797 15.6328 31.6797C14.6484 31.6797 13.7578 31.5859 12.9609 31.3984C12.1641 31.2109 11.4844 30.8984 10.9219 30.4609C10.375 30.0234 9.95312 29.4531 9.65625 28.75C9.35938 28.0312 9.21094 27.1562 9.21094 26.125H1.57031C1.57031 26.4663 1.58229 26.7997 1.60624 27.125C1.72044 28.6763 2.1069 30.0461 2.76562 31.2344C3.57812 32.6562 4.65625 33.8281 6 34.75C7.35938 35.6719 8.875 36.3594 10.5469 36.8125C12.2188 37.25 13.9141 37.4688 15.6328 37.4688C17.5234 37.4688 19.2344 37.2578 20.7656 36.8359C22.2969 36.4141 23.6094 35.7969 24.7031 34.9844C25.8125 34.1562 26.6562 33.1562 27.2344 31.9844C27.8281 30.8125 28.125 29.4688 28.125 27.9531C28.125 26.5312 27.875 25.2578 27.375 24.1328C26.8906 23.0078 26.1641 22 25.1953 21.1094C24.2266 20.2188 23.0312 19.4219 21.6094 18.7188C20.2031 18.0156 18.5859 17.375 16.7578 16.7969C15.7109 16.4844 14.7812 16.1562 13.9688 15.8125C13.1562 15.4688 12.4688 15.1094 11.9062 14.7344C11.3594 14.3438 10.9375 13.9297 10.6406 13.4922C10.3594 13.0391 10.2188 12.5391 10.2188 11.9922C10.2188 11.3047 10.4062 10.6719 10.7812 10.0938C11.1719 9.51562 11.7422 9.0625 12.4922 8.73438C13.2578 8.39062 14.2031 8.21875 15.3281 8.21875C16.4844 8.21875 17.4453 8.42188 18.2109 8.82812C18.9922 9.23438 19.5703 9.79688 19.9453 10.5156C20.3359 11.2188 20.5312 12.0312 20.5312 12.9531H28.125C28.125 12.613 28.111 12.2797 28.0829 11.9531C27.9384 10.2697 27.4211 8.76707 26.5312 7.44531C25.4688 5.85156 23.9844 4.61719 22.0781 3.74219C20.1875 2.85156 17.9922 2.40625 15.4922 2.40625C13.6172 2.40625 11.8984 2.63281 10.3359 3.08594C8.77344 3.52344 7.41406 4.16406 6.25781 5.00781C5.10156 5.83594 4.20312 6.83594 3.5625 8.00781C2.92188 9.17969 2.60156 10.4922 2.60156 11.9453C2.60156 13.4453 2.90625 14.7578 3.51562 15.8828C4.14062 17.0078 4.99219 17.9922 6.07031 18.8359C7.14844 19.6797 8.375 20.4219 9.75 21.0625C11.1406 21.6875 12.6016 22.25 14.1328 22.75C15.4766 23.1719 16.5625 23.5859 17.3906 23.9922C18.2188 24.3828 18.8594 24.7734 19.3125 25.1641C19.7656 25.5547 20.0781 25.9844 20.25 26.4531C20.4219 26.9062 20.5078 27.4219 20.5078 28C20.5078 28.6875 20.3359 29.3125 19.9922 29.875C19.6484 30.4375 19.1172 30.8828 18.3984 31.2109Z" fill="#3DCFB6"/>
</g>
<defs>
<filter id="filter0_i_13_93" x="0.570312" y="0.445312" width="165.161" height="98.0234" filterUnits="userSpaceOnUse" color-interpolation-filters="sRGB">
<feFlood flood-opacity="0" result="BackgroundImageFix"/>
<feBlend mode="normal" in="SourceGraphic" in2="BackgroundImageFix" result="shape"/>
<feColorMatrix in="SourceAlpha" type="matrix" values="0 0 0 0 0 0 0 0 0 0 0 0 0 0 0 0 0 0 127 0" result="hardAlpha"/>
<feOffset dy="4"/>
<feGaussianBlur stdDeviation="2"/>
<feComposite in2="hardAlpha" operator="arithmetic" k2="-1" k3="1"/>
<feColorMatrix type="matrix" values="0 0 0 0 0 0 0 0 0 0 0 0 0 0 0 0 0 0 0.25 0"/>
<feBlend mode="normal" in2="shape" result="effect1_innerShadow_13_93"/>
</filter>
</defs>
</svg>
