<svg width="176" height="105" viewBox="0 0 176 105" fill="none" xmlns="http://www.w3.org/2000/svg">
<g filter="url(#filter0_d_10_54)">
<g filter="url(#filter1_i_10_54)">
<path d="M162.148 74.5469V94H154.836V68.6406H161.703L162.148 74.5469ZM169.719 68.4531L169.602 75.2734C169.289 75.2266 168.883 75.1875 168.383 75.1562C167.883 75.1094 167.453 75.0859 167.094 75.0859C166.156 75.0859 165.344 75.2031 164.656 75.4375C163.984 75.6562 163.422 75.9844 162.969 76.4219C162.531 76.8594 162.203 77.4062 161.984 78.0625C161.766 78.7031 161.656 79.4453 161.656 80.2891L160.273 79.6094C160.273 77.9375 160.438 76.4062 160.766 75.0156C161.094 73.625 161.57 72.4219 162.195 71.4062C162.82 70.375 163.586 69.5781 164.492 69.0156C165.398 68.4531 166.43 68.1719 167.586 68.1719C167.961 68.1719 168.344 68.1953 168.734 68.2422C169.125 68.2891 169.453 68.3594 169.719 68.4531Z" fill="#08463B"/>
</g>
<path d="M162.742 69.1176L162.7 68.5654L162.631 67.6406H161.703H154.836H153.836V68.6406V94V95H154.836H162.148H163.148V94V77.8614C163.294 77.577 163.469 77.3372 163.67 77.1352C164 76.8181 164.424 76.5648 164.966 76.3884L164.966 76.3885L164.979 76.384C165.537 76.1936 166.236 76.0859 167.094 76.0859C167.412 76.0859 167.809 76.1069 168.289 76.1519L168.305 76.1533L168.32 76.1543C168.806 76.1847 169.181 76.2215 169.453 76.2624L170.582 76.4317L170.601 75.2906L170.719 68.4703L170.731 67.7499L170.052 67.5101C169.696 67.3845 169.291 67.3018 168.854 67.2493C168.425 67.1979 168.003 67.1719 167.586 67.1719C166.26 67.1719 165.043 67.497 163.965 68.166C163.525 68.4387 163.118 68.7567 162.742 69.1176Z" stroke="white" stroke-opacity="0.6" stroke-width="2"/>
<g filter="url(#filter2_i_10_54)">
<path d="M140.703 94.4688C138.688 94.4688 136.883 94.1484 135.289 93.5078C133.695 92.8672 132.344 91.9844 131.234 90.8594C130.141 89.7188 129.305 88.4062 128.727 86.9219C128.148 85.4375 127.859 83.8516 127.859 82.1641V81.2734C127.859 79.3828 128.125 77.6406 128.656 76.0469C129.188 74.4531 129.961 73.0703 130.977 71.8984C132.008 70.7109 133.273 69.7969 134.773 69.1562C136.273 68.5 137.984 68.1719 139.906 68.1719C141.703 68.1719 143.305 68.4688 144.711 69.0625C146.117 69.6406 147.305 70.4766 148.273 71.5703C149.242 72.6484 149.977 73.9531 150.477 75.4844C150.992 77 151.25 78.7031 151.25 80.5938V83.5938H130.812V78.8828H144.078V78.3203C144.078 77.4297 143.914 76.6484 143.586 75.9766C143.273 75.3047 142.805 74.7891 142.18 74.4297C141.57 74.0547 140.797 73.8672 139.859 73.8672C138.969 73.8672 138.227 74.0547 137.633 74.4297C137.039 74.8047 136.562 75.3359 136.203 76.0234C135.859 76.6953 135.609 77.4844 135.453 78.3906C135.297 79.2812 135.219 80.2422 135.219 81.2734V82.1641C135.219 83.1484 135.352 84.0469 135.617 84.8594C135.883 85.6719 136.273 86.3672 136.789 86.9453C137.305 87.5234 137.93 87.9766 138.664 88.3047C139.398 88.6328 140.234 88.7969 141.172 88.7969C142.328 88.7969 143.43 88.5781 144.477 88.1406C145.523 87.6875 146.43 86.9844 147.195 86.0312L150.617 89.9453C150.102 90.6953 149.375 91.4219 148.438 92.125C147.516 92.8125 146.406 93.375 145.109 93.8125C143.812 94.25 142.344 94.4688 140.703 94.4688Z" fill="#08463B"/>
</g>
<path d="M130.513 91.5515L130.513 91.5516L130.522 91.5615C131.736 92.7925 133.206 93.7484 134.916 94.4357C136.647 95.1315 138.582 95.4688 140.703 95.4688C142.431 95.4688 144.011 95.2384 145.429 94.76C146.807 94.2951 148.015 93.6878 149.035 92.9266L149.038 92.925C150.038 92.1745 150.849 91.3728 151.441 90.5118L151.881 89.8718L151.37 89.2871L147.948 85.3731L147.267 84.5938H151.25H152.25V83.5938V80.5938C152.25 78.6153 151.981 76.8028 151.425 75.1682C150.887 73.523 150.089 72.0955 149.02 70.9047C147.947 69.6944 146.634 68.7726 145.095 68.1394C143.547 67.4866 141.812 67.1719 139.906 67.1719C137.872 67.1719 136.022 67.5192 134.377 68.2383C132.745 68.9361 131.355 69.9378 130.222 71.2428L130.221 71.2435C129.112 72.5225 128.277 74.0229 127.708 75.7306C127.138 77.4383 126.859 79.2886 126.859 81.2734V82.1641C126.859 83.9683 127.169 85.678 127.795 87.2848C128.42 88.8906 129.327 90.3152 130.513 91.5515ZM136.583 84.5938H147.067L146.416 85.405C145.746 86.2389 144.97 86.8364 144.085 87.2204C143.164 87.6042 142.196 87.7969 141.172 87.7969C140.352 87.7969 139.659 87.6537 139.072 87.3917C138.462 87.1189 137.953 86.7483 137.535 86.2797C137.13 85.8248 136.809 85.2684 136.583 84.5938ZM143.062 77.8828H136.581C136.714 77.3499 136.886 76.885 137.091 76.4829C137.378 75.9368 137.738 75.5458 138.167 75.2752C138.563 75.025 139.108 74.8672 139.859 74.8672C140.668 74.8672 141.246 75.0291 141.656 75.2813L141.668 75.2892L141.681 75.2966C142.122 75.5502 142.451 75.9078 142.679 76.3983L142.683 76.4069L142.687 76.4154C142.888 76.8261 143.018 77.3106 143.062 77.8828Z" stroke="white" stroke-opacity="0.6" stroke-width="2"/>
<g filter="url(#filter3_i_10_54)">
<path d="M108.922 74.0547V94H101.586V68.6406H108.477L108.922 74.0547ZM107.961 80.4297L106.133 80.4766C106.133 78.5703 106.367 76.8594 106.836 75.3438C107.305 73.8281 107.969 72.5391 108.828 71.4766C109.703 70.3984 110.742 69.5781 111.945 69.0156C113.164 68.4531 114.508 68.1719 115.977 68.1719C117.164 68.1719 118.25 68.3438 119.234 68.6875C120.219 69.0312 121.062 69.5859 121.766 70.3516C122.484 71.1016 123.031 72.1016 123.406 73.3516C123.781 74.5859 123.969 76.1094 123.969 77.9219V94H116.609V77.8984C116.609 76.8359 116.461 76.0156 116.164 75.4375C115.867 74.8594 115.43 74.4531 114.852 74.2188C114.289 73.9844 113.602 73.8672 112.789 73.8672C111.93 73.8672 111.195 74.0391 110.586 74.3828C109.977 74.7109 109.477 75.1719 109.086 75.7656C108.695 76.3594 108.406 77.0547 108.219 77.8516C108.047 78.6484 107.961 79.5078 107.961 80.4297Z" fill="#08463B"/>
</g>
<path d="M109.922 94V76.3145C110.224 75.8558 110.601 75.5105 111.06 75.2633L111.069 75.2586L111.077 75.2538C111.506 75.0119 112.063 74.8672 112.789 74.8672C113.511 74.8672 114.06 74.9721 114.467 75.1418L114.467 75.1419L114.476 75.1455C114.822 75.2858 115.082 75.5196 115.274 75.8943C115.467 76.2687 115.609 76.9054 115.609 77.8984V94V95H116.609H123.969H124.969V94V77.9219C124.969 76.0484 124.776 74.4207 124.364 73.0629C123.956 71.7038 123.344 70.5559 122.495 69.6674C121.681 68.784 120.7 68.1402 119.564 67.7434C118.46 67.3579 117.261 67.1719 115.977 67.1719C114.377 67.1719 112.888 67.479 111.526 68.1077L111.526 68.1077L111.522 68.1097C110.807 68.4437 110.146 68.8587 109.538 69.3524L109.473 68.5587L109.398 67.6406H108.477H101.586H100.586V68.6406V94V95H101.586H108.922H109.922V94Z" stroke="white" stroke-opacity="0.6" stroke-width="2"/>
<g filter="url(#filter4_i_10_54)">
<path d="M90.5938 86.9453C90.5938 86.4766 90.4453 86.0625 90.1484 85.7031C89.8672 85.3438 89.3516 85.0156 88.6016 84.7188C87.8672 84.4219 86.8281 84.125 85.4844 83.8281C84.2188 83.5625 83.0391 83.2188 81.9453 82.7969C80.8516 82.3594 79.8984 81.8359 79.0859 81.2266C78.2734 80.6016 77.6406 79.8672 77.1875 79.0234C76.7344 78.1641 76.5078 77.1875 76.5078 76.0938C76.5078 75.0312 76.7344 74.0234 77.1875 73.0703C77.6562 72.1172 78.3281 71.2734 79.2031 70.5391C80.0938 69.8047 81.1719 69.2266 82.4375 68.8047C83.7188 68.3828 85.1719 68.1719 86.7969 68.1719C89.0312 68.1719 90.9609 68.5234 92.5859 69.2266C94.2109 69.9141 95.4609 70.8828 96.3359 72.1328C97.2109 73.3672 97.6484 74.7812 97.6484 76.375H90.3359C90.3359 75.7188 90.2109 75.1484 89.9609 74.6641C89.7109 74.1797 89.3281 73.8047 88.8125 73.5391C88.2969 73.2578 87.6172 73.1172 86.7734 73.1172C86.1172 73.1172 85.5391 73.2344 85.0391 73.4688C84.5547 73.6875 84.1719 73.9922 83.8906 74.3828C83.625 74.7734 83.4922 75.2266 83.4922 75.7422C83.4922 76.1016 83.5703 76.4297 83.7266 76.7266C83.8984 77.0078 84.1562 77.2734 84.5 77.5234C84.8594 77.7578 85.3203 77.9688 85.8828 78.1562C86.4609 78.3438 87.1641 78.5234 87.9922 78.6953C89.7578 79.0234 91.3672 79.4844 92.8203 80.0781C94.2891 80.6719 95.4609 81.4922 96.3359 82.5391C97.2266 83.5859 97.6719 84.9688 97.6719 86.6875C97.6719 87.8125 97.4141 88.8438 96.8984 89.7812C96.3984 90.7188 95.6719 91.5391 94.7188 92.2422C93.7656 92.9453 92.625 93.4922 91.2969 93.8828C89.9688 94.2734 88.4688 94.4688 86.7969 94.4688C84.4062 94.4688 82.3828 94.0391 80.7266 93.1797C79.0703 92.3203 77.8203 91.2422 76.9766 89.9453C76.1484 88.6328 75.7344 87.2891 75.7344 85.9141H82.6016C82.6328 86.7578 82.8438 87.4453 83.2344 87.9766C83.6406 88.5078 84.1641 88.8984 84.8047 89.1484C85.4453 89.3828 86.1641 89.5 86.9609 89.5C87.7578 89.5 88.4219 89.3906 88.9531 89.1719C89.4844 88.9531 89.8906 88.6562 90.1719 88.2812C90.4531 87.8906 90.5938 87.4453 90.5938 86.9453Z" fill="#08463B"/>
</g>
<path d="M89.3609 86.3194L89.3691 86.3298L89.3775 86.34C89.5254 86.5191 89.5938 86.7076 89.5938 86.9453C89.5938 87.2405 89.5161 87.4774 89.3661 87.6889C89.2143 87.888 88.9696 88.0837 88.5724 88.2472C88.1989 88.401 87.6743 88.5 86.9609 88.5C86.2666 88.5 85.6699 88.3986 85.1584 88.213C84.6912 88.0288 84.3235 87.7518 84.0347 87.3768C83.795 87.0472 83.6266 86.5712 83.6009 85.8771L83.5652 84.9141H82.6016H75.7344H74.7344V85.9141C74.7344 87.5015 75.2153 89.0278 76.1308 90.4789L76.1308 90.479L76.1383 90.4907C77.0939 91.9594 78.4879 93.1447 80.266 94.0673C82.0989 95.0184 84.2897 95.4688 86.7969 95.4688C88.5452 95.4688 90.1426 95.2647 91.579 94.8422C93.0007 94.424 94.2509 93.83 95.3124 93.0469C96.3698 92.2669 97.2001 91.3384 97.7778 90.2574C98.3767 89.1661 98.6719 87.9698 98.6719 86.6875C98.6719 84.7943 98.1785 83.1634 97.1004 81.8944C96.1049 80.7046 94.791 79.7964 93.1968 79.1517C91.6758 78.5304 90.0038 78.0527 88.1853 77.7141C87.3867 77.548 86.7255 77.3781 86.1953 77.2063C85.7007 77.0412 85.3318 76.8684 85.0674 76.6995C84.8297 76.5237 84.6838 76.3649 84.597 76.2322C84.5306 76.0956 84.4922 75.9374 84.4922 75.7422C84.4922 75.4137 84.5722 75.1635 84.7102 74.956C84.8782 74.7268 85.1143 74.532 85.4506 74.3801L85.4507 74.3802L85.4635 74.3742C85.808 74.2127 86.2366 74.1172 86.7734 74.1172C87.5183 74.1172 88.0151 74.2432 88.3336 74.417L88.344 74.4226L88.3545 74.428C88.6979 74.6049 88.9239 74.8352 89.0723 75.1227C89.2356 75.4392 89.3359 75.8461 89.3359 76.375V77.375H90.3359H97.6484H98.6484V76.375C98.6484 74.5868 98.1537 72.9691 97.1535 71.5569C96.1556 70.1324 94.7469 69.0557 92.9793 68.3072C91.2015 67.5387 89.1317 67.1719 86.7969 67.1719C85.0867 67.1719 83.5251 67.3938 82.1247 67.8549L82.1247 67.8548L82.1213 67.856C80.7569 68.3108 79.566 68.9438 78.5669 69.7675L78.5669 69.7675L78.5603 69.7731C77.5869 70.59 76.8248 71.5419 76.2902 72.629L76.2901 72.629L76.2844 72.641C75.767 73.7292 75.5078 74.8838 75.5078 76.0938C75.5078 77.3293 75.7649 78.4694 76.3029 79.4898L76.3029 79.4899L76.3065 79.4966C76.8311 80.4734 77.5597 81.3142 78.4762 82.0192L78.4762 82.0192L78.4859 82.0266C79.3788 82.6962 80.4113 83.2603 81.5739 83.7254L81.5739 83.7254L81.5854 83.7299C82.7327 84.1724 83.9627 84.5303 85.2737 84.8057C86.5939 85.0975 87.5689 85.3799 88.2268 85.6459L88.2268 85.6459L88.2335 85.6486C88.9281 85.9235 89.2442 86.1703 89.3609 86.3194Z" stroke="white" stroke-opacity="0.6" stroke-width="2"/>
<g filter="url(#filter5_i_10_54)">
<path d="M62.9844 94.4688C60.9688 94.4688 59.1641 94.1484 57.5703 93.5078C55.9766 92.8672 54.625 91.9844 53.5156 90.8594C52.4219 89.7188 51.5859 88.4062 51.0078 86.9219C50.4297 85.4375 50.1406 83.8516 50.1406 82.1641V81.2734C50.1406 79.3828 50.4062 77.6406 50.9375 76.0469C51.4688 74.4531 52.2422 73.0703 53.2578 71.8984C54.2891 70.7109 55.5547 69.7969 57.0547 69.1562C58.5547 68.5 60.2656 68.1719 62.1875 68.1719C63.9844 68.1719 65.5859 68.4688 66.9922 69.0625C68.3984 69.6406 69.5859 70.4766 70.5547 71.5703C71.5234 72.6484 72.2578 73.9531 72.7578 75.4844C73.2734 77 73.5312 78.7031 73.5312 80.5938V83.5938H53.0938V78.8828H66.3594V78.3203C66.3594 77.4297 66.1953 76.6484 65.8672 75.9766C65.5547 75.3047 65.0859 74.7891 64.4609 74.4297C63.8516 74.0547 63.0781 73.8672 62.1406 73.8672C61.25 73.8672 60.5078 74.0547 59.9141 74.4297C59.3203 74.8047 58.8438 75.3359 58.4844 76.0234C58.1406 76.6953 57.8906 77.4844 57.7344 78.3906C57.5781 79.2812 57.5 80.2422 57.5 81.2734V82.1641C57.5 83.1484 57.6328 84.0469 57.8984 84.8594C58.1641 85.6719 58.5547 86.3672 59.0703 86.9453C59.5859 87.5234 60.2109 87.9766 60.9453 88.3047C61.6797 88.6328 62.5156 88.7969 63.4531 88.7969C64.6094 88.7969 65.7109 88.5781 66.7578 88.1406C67.8047 87.6875 68.7109 86.9844 69.4766 86.0312L72.8984 89.9453C72.3828 90.6953 71.6562 91.4219 70.7188 92.125C69.7969 92.8125 68.6875 93.375 67.3906 93.8125C66.0938 94.25 64.625 94.4688 62.9844 94.4688Z" fill="#08463B"/>
</g>
<path d="M52.7938 91.5515L52.7938 91.5516L52.8036 91.5615C54.0174 92.7925 55.4875 93.7484 57.1974 94.4357C58.9283 95.1315 60.8628 95.4688 62.9844 95.4688C64.7127 95.4688 66.2923 95.2384 67.7103 94.76C69.0886 94.2951 70.2959 93.6878 71.3166 92.9266L71.3188 92.925C72.3194 92.1745 73.1306 91.3728 73.7225 90.5118L74.1625 89.8718L73.6513 89.2871L70.2294 85.3731L69.5481 84.5938H73.5312H74.5312V83.5938V80.5938C74.5312 78.6153 74.2618 76.8028 73.7065 75.1682C73.1686 73.523 72.3702 72.0955 71.301 70.9047C70.2283 69.6944 68.9153 68.7726 67.3767 68.1394C65.8287 67.4866 64.0929 67.1719 62.1875 67.1719C60.153 67.1719 58.3033 67.5192 56.6579 68.2383C55.0258 68.9361 53.636 69.9378 52.5028 71.2428L52.5021 71.2435C51.3936 72.5225 50.5581 74.0229 49.9888 75.7306C49.4196 77.4383 49.1406 79.2886 49.1406 81.2734V82.1641C49.1406 83.9683 49.4502 85.678 50.076 87.2848C50.7014 88.8906 51.6084 90.3152 52.7938 91.5515ZM58.8639 84.5938H69.3486L68.6969 85.405C68.0271 86.2389 67.2509 86.8364 66.3663 87.2204C65.4457 87.6042 64.4774 87.7969 63.4531 87.7969C62.6331 87.7969 61.9398 87.6537 61.3533 87.3917C60.7428 87.1189 60.2346 86.7483 59.8166 86.2797C59.4109 85.8248 59.0903 85.2684 58.8639 84.5938ZM65.3432 77.8828H58.862C58.9954 77.3499 59.1673 76.885 59.3726 76.4829C59.6588 75.9368 60.0196 75.5458 60.4481 75.2752C60.8442 75.025 61.3888 74.8672 62.1406 74.8672C62.9492 74.8672 63.5269 75.0291 63.9368 75.2813L63.9495 75.2892L63.9625 75.2966C64.4035 75.5502 64.7323 75.9078 64.9605 76.3983L64.9645 76.4069L64.9686 76.4154C65.1692 76.8261 65.2996 77.3106 65.3432 77.8828Z" stroke="white" stroke-opacity="0.6" stroke-width="2"/>
<g filter="url(#filter6_i_10_54)">
<path d="M45.7578 68.6406V94H38.4219V68.6406H45.7578ZM37.9766 62.0781C37.9766 61.0156 38.3516 60.1484 39.1016 59.4766C39.8516 58.7891 40.8359 58.4453 42.0547 58.4453C43.2734 58.4453 44.2578 58.7891 45.0078 59.4766C45.7734 60.1484 46.1562 61.0156 46.1562 62.0781C46.1562 63.125 45.7734 63.9922 45.0078 64.6797C44.2578 65.3516 43.2734 65.6875 42.0547 65.6875C40.8359 65.6875 39.8516 65.3516 39.1016 64.6797C38.3516 63.9922 37.9766 63.125 37.9766 62.0781Z" fill="#08463B"/>
</g>
<path d="M46.7578 68.6406V67.6406H45.7578H38.4219H37.4219V68.6406V94V95H38.4219H45.7578H46.7578V94V68.6406ZM45.6751 65.4245L45.6759 65.4237C46.6569 64.5428 47.1562 63.4032 47.1562 62.0781C47.1562 60.7455 46.6625 59.6021 45.6755 58.7321C44.707 57.8483 43.4674 57.4453 42.0547 57.4453C40.6401 57.4453 39.3991 57.8494 38.4301 58.7355C37.4583 59.6082 36.9766 60.751 36.9766 62.0781C36.9766 63.3961 37.4625 64.5338 38.4258 65.4168L38.4258 65.4169L38.4343 65.4245C39.4046 66.2937 40.6441 66.6875 42.0547 66.6875C43.4653 66.6875 44.7048 66.2937 45.6751 65.4245Z" stroke="white" stroke-opacity="0.6" stroke-width="2"/>
<g filter="url(#filter7_i_10_54)">
<path d="M15.4531 59.875V94H7.8125V59.875H15.4531ZM35.8438 59.875L22.4844 76.9375L14.7031 85.375L13.3203 78.2734L18.4531 70.9141L26.4688 59.875H35.8438ZM26.9844 94L17.5625 78.4141L23.375 73.8906L36.0312 94H26.9844Z" fill="#08463B"/>
</g>
<path d="M16.4531 59.875V58.875H15.4531H7.8125H6.8125V59.875V94V95H7.8125H15.4531H16.4531V94V84.9525L18.8049 82.4023L26.1286 94.5173L26.4204 95H26.9844H36.0312H37.8422L36.8776 93.4673L25.2622 75.0118L36.6311 60.4915L37.8968 58.875H35.8438H26.4688H25.959L25.6596 59.2874L17.6439 70.3265L17.6384 70.3342L17.6329 70.342L16.4531 72.0336V59.875Z" stroke="white" stroke-opacity="0.6" stroke-width="2"/>
<g filter="url(#filter8_i_10_54)">
<path d="M125.938 18.0547V38H118.602V12.6406H125.492L125.938 18.0547ZM124.977 24.4297L123.148 24.4766C123.148 22.5703 123.383 20.8594 123.852 19.3438C124.32 17.8281 124.984 16.5391 125.844 15.4766C126.719 14.3984 127.758 13.5781 128.961 13.0156C130.18 12.4531 131.523 12.1719 132.992 12.1719C134.18 12.1719 135.266 12.3438 136.25 12.6875C137.234 13.0312 138.078 13.5859 138.781 14.3516C139.5 15.1016 140.047 16.1016 140.422 17.3516C140.797 18.5859 140.984 20.1094 140.984 21.9219V38H133.625V21.8984C133.625 20.8359 133.477 20.0156 133.18 19.4375C132.883 18.8594 132.445 18.4531 131.867 18.2188C131.305 17.9844 130.617 17.8672 129.805 17.8672C128.945 17.8672 128.211 18.0391 127.602 18.3828C126.992 18.7109 126.492 19.1719 126.102 19.7656C125.711 20.3594 125.422 21.0547 125.234 21.8516C125.062 22.6484 124.977 23.5078 124.977 24.4297Z" fill="#08463B"/>
</g>
<path d="M126.938 38V20.3145C127.239 19.8558 127.617 19.5105 128.076 19.2633L128.084 19.2586L128.093 19.2538C128.522 19.0119 129.078 18.8672 129.805 18.8672C130.527 18.8672 131.075 18.9721 131.483 19.1418L131.483 19.1419L131.491 19.1455C131.838 19.2858 132.098 19.5196 132.29 19.8943C132.482 20.2687 132.625 20.9054 132.625 21.8984V38V39H133.625H140.984H141.984V38V21.9219C141.984 20.0484 141.791 18.4207 141.379 17.0629C140.971 15.7038 140.359 14.5559 139.511 13.6674C138.697 12.784 137.716 12.1402 136.58 11.7434C135.476 11.3579 134.277 11.1719 132.992 11.1719C131.393 11.1719 129.904 11.479 128.542 12.1077L128.542 12.1077L128.537 12.1097C127.823 12.4437 127.162 12.8587 126.554 13.3524L126.489 12.5587L126.413 11.6406H125.492H118.602H117.602V12.6406V38V39H118.602H125.938H126.938V38Z" stroke="white" stroke-opacity="0.6" stroke-width="2"/>
<g filter="url(#filter9_i_10_54)">
<path d="M90.6641 25.5781V25.0859C90.6641 23.2266 90.9297 21.5156 91.4609 19.9531C91.9922 18.375 92.7734 17.0078 93.8047 15.8516C94.8359 14.6953 96.1016 13.7969 97.6016 13.1562C99.1016 12.5 100.82 12.1719 102.758 12.1719C104.727 12.1719 106.461 12.5 107.961 13.1562C109.477 13.7969 110.75 14.6953 111.781 15.8516C112.812 17.0078 113.594 18.375 114.125 19.9531C114.656 21.5156 114.922 23.2266 114.922 25.0859V25.5781C114.922 27.4219 114.656 29.1328 114.125 30.7109C113.594 32.2734 112.812 33.6406 111.781 34.8125C110.75 35.9688 109.484 36.8672 107.984 37.5078C106.484 38.1484 104.758 38.4688 102.805 38.4688C100.867 38.4688 99.1406 38.1484 97.625 37.5078C96.1094 36.8672 94.8359 35.9688 93.8047 34.8125C92.7734 33.6406 91.9922 32.2734 91.4609 30.7109C90.9297 29.1328 90.6641 27.4219 90.6641 25.5781ZM98 25.0859V25.5781C98 26.5781 98.0781 27.5156 98.2344 28.3906C98.4062 29.2656 98.6797 30.0312 99.0547 30.6875C99.4297 31.3438 99.9219 31.8594 100.531 32.2344C101.156 32.5938 101.914 32.7734 102.805 32.7734C103.695 32.7734 104.445 32.5938 105.055 32.2344C105.664 31.8594 106.156 31.3438 106.531 30.6875C106.906 30.0312 107.172 29.2656 107.328 28.3906C107.5 27.5156 107.586 26.5781 107.586 25.5781V25.0859C107.586 24.1016 107.5 23.1797 107.328 22.3203C107.172 21.4453 106.906 20.6719 106.531 20C106.156 19.3281 105.656 18.8047 105.031 18.4297C104.422 18.0547 103.664 17.8672 102.758 17.8672C101.883 17.8672 101.141 18.0547 100.531 18.4297C99.9219 18.8047 99.4297 19.3281 99.0547 20C98.6797 20.6719 98.4062 21.4453 98.2344 22.3203C98.0781 23.1797 98 24.1016 98 25.0859Z" fill="#08463B"/>
</g>
<path d="M115.072 31.0328L115.073 31.03C115.642 29.3386 115.922 27.5188 115.922 25.5781V25.0859C115.922 23.1312 115.643 21.3104 115.072 19.6323C114.501 17.9367 113.655 16.4499 112.528 15.1859C111.393 13.9138 109.997 12.9321 108.356 12.2376C106.708 11.5177 104.835 11.1719 102.758 11.1719C100.709 11.1719 98.8512 11.5188 97.2048 12.2383C95.5787 12.9334 94.1916 13.9154 93.0584 15.1859C91.9311 16.4499 91.0847 17.9369 90.5137 19.6326C89.9434 21.3106 89.6641 23.1313 89.6641 25.0859V25.5781C89.6641 27.5188 89.9438 29.3386 90.5132 31.03L90.5142 31.0328C91.0854 32.7128 91.9308 34.1968 93.054 35.4731L93.054 35.4731L93.0584 35.4781C94.1943 36.7517 95.5923 37.7343 97.2357 38.4289C98.8943 39.13 100.757 39.4688 102.805 39.4688C104.867 39.4688 106.731 39.1305 108.377 38.4275C110.005 37.7323 111.393 36.7497 112.528 35.4781L112.528 35.4781L112.532 35.4731C113.655 34.1968 114.501 32.7128 115.072 31.0328ZM106.347 28.1979L106.345 28.2063L106.344 28.2148C106.204 28.9966 105.972 29.6502 105.663 30.1914C105.368 30.7075 104.994 31.0958 104.539 31.3776C104.119 31.6228 103.558 31.7734 102.805 31.7734C102.055 31.7734 101.482 31.6242 101.042 31.3747C100.59 31.0932 100.217 30.7057 99.9229 30.1914C99.6116 29.6466 99.3719 28.9896 99.2173 28.2063C99.0736 27.3983 99 26.523 99 25.5781V25.0859C99 24.1569 99.0735 23.2977 99.217 22.5062C99.3718 21.7214 99.6125 21.0524 99.9279 20.4874C100.226 19.9532 100.602 19.56 101.055 19.2813C101.475 19.0229 102.027 18.8672 102.758 18.8672C103.528 18.8672 104.092 19.0261 104.507 19.2813L104.507 19.2814L104.517 19.2872C104.983 19.5672 105.363 19.9593 105.658 20.4874C105.971 21.0485 106.204 21.7138 106.344 22.4961L106.346 22.5063L106.348 22.5164C106.505 23.3039 106.586 24.1595 106.586 25.0859V25.5781C106.586 26.5211 106.505 27.3935 106.347 28.1979Z" stroke="white" stroke-opacity="0.6" stroke-width="2"/>
<g filter="url(#filter10_i_10_54)">
<path d="M57.5703 17.9609V38H50.2578V12.6406H57.125L57.5703 17.9609ZM56.6328 24.4297L54.7812 24.4766C54.7812 22.6953 54.9922 21.0625 55.4141 19.5781C55.8516 18.0781 56.4844 16.7734 57.3125 15.6641C58.1406 14.5547 59.1641 13.6953 60.3828 13.0859C61.6172 12.4766 63.0391 12.1719 64.6484 12.1719C65.7734 12.1719 66.7969 12.3438 67.7188 12.6875C68.6406 13.0156 69.4297 13.5391 70.0859 14.2578C70.7578 14.9609 71.2734 15.8828 71.6328 17.0234C71.9922 18.1484 72.1719 19.5 72.1719 21.0781V38H64.8594V21.9688C64.8594 20.8438 64.7188 19.9922 64.4375 19.4141C64.1719 18.8203 63.7812 18.4141 63.2656 18.1953C62.75 17.9766 62.1328 17.8672 61.4141 17.8672C60.6328 17.8672 59.9375 18.0391 59.3281 18.3828C58.7344 18.7109 58.2344 19.1719 57.8281 19.7656C57.4219 20.3594 57.1172 21.0547 56.9141 21.8516C56.7266 22.6484 56.6328 23.5078 56.6328 24.4297ZM71.4219 24.0547L69.1016 24.2422C69.1016 22.5234 69.3047 20.9297 69.7109 19.4609C70.1172 17.9922 70.7266 16.7188 71.5391 15.6406C72.3516 14.5469 73.3594 13.6953 74.5625 13.0859C75.7812 12.4766 77.1953 12.1719 78.8047 12.1719C79.9922 12.1719 81.0703 12.3438 82.0391 12.6875C83.0234 13.0312 83.8672 13.5859 84.5703 14.3516C85.2891 15.1172 85.8438 16.125 86.2344 17.375C86.625 18.6094 86.8203 20.125 86.8203 21.9219V38H79.4609V21.9219C79.4609 20.8125 79.3203 19.9688 79.0391 19.3906C78.7734 18.8125 78.3828 18.4141 77.8672 18.1953C77.3672 17.9766 76.7656 17.8672 76.0625 17.8672C75.2812 17.8672 74.6016 18.0312 74.0234 18.3594C73.4453 18.6719 72.9609 19.1094 72.5703 19.6719C72.1797 20.2188 71.8906 20.8672 71.7031 21.6172C71.5156 22.3672 71.4219 23.1797 71.4219 24.0547Z" fill="#08463B"/>
</g>
<path d="M58.5703 38V20.4562C58.5975 20.4135 58.6252 20.3716 58.6534 20.3303C58.9771 19.8573 59.3628 19.5062 59.8118 19.2581L59.8118 19.2581L59.8194 19.2538C60.262 19.0042 60.7845 18.8672 61.4141 18.8672C62.0351 18.8672 62.5126 18.9621 62.8751 19.1159C63.1209 19.2202 63.3444 19.4195 63.5247 19.8224L63.5312 19.8371L63.5383 19.8515C63.7208 20.2267 63.8594 20.8979 63.8594 21.9688V38V39H64.8594H72.1719H73.1719V38V21.0781C73.1719 20.915 73.17 20.7536 73.1664 20.5942C73.2347 20.4742 73.3073 20.3606 73.384 20.2531L73.3841 20.2532L73.3917 20.2423C73.6968 19.803 74.0646 19.4738 74.499 19.2391L74.5081 19.2342L74.517 19.2291C74.9202 19.0002 75.4238 18.8672 76.0625 18.8672C76.6658 18.8672 77.1236 18.9615 77.4664 19.1115L77.4663 19.1115L77.4766 19.1159C77.7315 19.224 77.9536 19.4234 78.1304 19.8081L78.135 19.8182L78.1398 19.8281C78.323 20.2046 78.4609 20.8692 78.4609 21.9219V38V39H79.4609H86.8203H87.8203V38V21.9219C87.8203 20.06 87.6188 18.4363 87.1883 17.075C86.7642 15.7184 86.1453 14.5697 85.3032 13.6712C84.4896 12.7865 83.508 12.1417 82.3714 11.7443C81.2806 11.3576 80.0879 11.1719 78.8047 11.1719C77.068 11.1719 75.4959 11.5012 74.1153 12.1915L74.1153 12.1915L74.1107 12.1938C73.0717 12.7201 72.1617 13.4099 71.3843 14.2587C71.2088 14.0165 71.0198 13.7884 70.8168 13.5752C70.0527 12.7409 69.1299 12.1296 68.0611 11.7479C67.0146 11.3587 65.8731 11.1719 64.6484 11.1719C62.9114 11.1719 61.3337 11.5013 59.9401 12.1893L59.9401 12.1892L59.9356 12.1915C59.3054 12.5066 58.7216 12.8821 58.1851 13.3169L58.1215 12.5572L58.0448 11.6406H57.125H50.2578H49.2578V12.6406V38V39H50.2578H57.5703H58.5703V38Z" stroke="white" stroke-opacity="0.6" stroke-width="2"/>
<g filter="url(#filter11_i_10_54)">
<path d="M44.9609 12.6406V38H37.625V12.6406H44.9609ZM37.1797 6.07812C37.1797 5.01562 37.5547 4.14844 38.3047 3.47656C39.0547 2.78906 40.0391 2.44531 41.2578 2.44531C42.4766 2.44531 43.4609 2.78906 44.2109 3.47656C44.9766 4.14844 45.3594 5.01562 45.3594 6.07812C45.3594 7.125 44.9766 7.99219 44.2109 8.67969C43.4609 9.35156 42.4766 9.6875 41.2578 9.6875C40.0391 9.6875 39.0547 9.35156 38.3047 8.67969C37.5547 7.99219 37.1797 7.125 37.1797 6.07812Z" fill="#08463B"/>
</g>
<path d="M45.9609 12.6406V11.6406H44.9609H37.625H36.625V12.6406V38V39H37.625H44.9609H45.9609V38V12.6406ZM44.8782 9.42452L44.8791 9.42374C45.8601 8.54284 46.3594 7.40325 46.3594 6.07812C46.3594 4.74554 45.8656 3.60207 44.8787 2.73208C43.9101 1.84831 42.6705 1.44531 41.2578 1.44531C39.8433 1.44531 38.6022 1.84936 37.6332 2.73554C36.6614 3.60816 36.1797 4.75102 36.1797 6.07812C36.1797 7.3961 36.6656 8.5338 37.629 9.41684L37.6289 9.41689L37.6374 9.42452C38.6077 10.2937 39.8472 10.6875 41.2578 10.6875C42.6684 10.6875 43.9079 10.2937 44.8782 9.42452Z" stroke="white" stroke-opacity="0.6" stroke-width="2"/>
<g filter="url(#filter12_i_10_54)">
<path d="M25.5078 29C25.5078 28.4219 25.4219 27.9062 25.25 27.4531C25.0781 26.9844 24.7656 26.5547 24.3125 26.1641C23.8594 25.7734 23.2188 25.3828 22.3906 24.9922C21.5625 24.5859 20.4766 24.1719 19.1328 23.75C17.6016 23.25 16.1406 22.6875 14.75 22.0625C13.375 21.4219 12.1484 20.6797 11.0703 19.8359C9.99219 18.9922 9.14062 18.0078 8.51562 16.8828C7.90625 15.7578 7.60156 14.4453 7.60156 12.9453C7.60156 11.4922 7.92188 10.1797 8.5625 9.00781C9.20312 7.83594 10.1016 6.83594 11.2578 6.00781C12.4141 5.16406 13.7734 4.52344 15.3359 4.08594C16.8984 3.63281 18.6172 3.40625 20.4922 3.40625C22.9922 3.40625 25.1875 3.85156 27.0781 4.74219C28.9844 5.61719 30.4688 6.85156 31.5312 8.44531C32.5938 10.0234 33.125 11.8594 33.125 13.9531H25.5312C25.5312 13.0312 25.3359 12.2188 24.9453 11.5156C24.5703 10.7969 23.9922 10.2344 23.2109 9.82812C22.4453 9.42188 21.4844 9.21875 20.3281 9.21875C19.2031 9.21875 18.2578 9.39062 17.4922 9.73438C16.7422 10.0625 16.1719 10.5156 15.7812 11.0938C15.4062 11.6719 15.2188 12.3047 15.2188 12.9922C15.2188 13.5391 15.3594 14.0391 15.6406 14.4922C15.9375 14.9297 16.3594 15.3438 16.9062 15.7344C17.4688 16.1094 18.1562 16.4688 18.9688 16.8125C19.7812 17.1562 20.7109 17.4844 21.7578 17.7969C23.5859 18.375 25.2031 19.0156 26.6094 19.7188C28.0312 20.4219 29.2266 21.2188 30.1953 22.1094C31.1641 23 31.8906 24.0078 32.375 25.1328C32.875 26.2578 33.125 27.5312 33.125 28.9531C33.125 30.4688 32.8281 31.8125 32.2344 32.9844C31.6562 34.1562 30.8125 35.1562 29.7031 35.9844C28.6094 36.7969 27.2969 37.4141 25.7656 37.8359C24.2344 38.2578 22.5234 38.4688 20.6328 38.4688C18.9141 38.4688 17.2188 38.25 15.5469 37.8125C13.875 37.3594 12.3594 36.6719 11 35.75C9.65625 34.8281 8.57812 33.6562 7.76562 32.2344C6.96875 30.7969 6.57031 29.0938 6.57031 27.125H14.2109C14.2109 28.1562 14.3594 29.0312 14.6562 29.75C14.9531 30.4531 15.375 31.0234 15.9219 31.4609C16.4844 31.8984 17.1641 32.2109 17.9609 32.3984C18.7578 32.5859 19.6484 32.6797 20.6328 32.6797C21.7734 32.6797 22.6953 32.5234 23.3984 32.2109C24.1172 31.8828 24.6484 31.4375 24.9922 30.875C25.3359 30.3125 25.5078 29.6875 25.5078 29Z" fill="#08463B"/>
</g>
<path d="M24.3111 27.7974L24.3111 27.7974L24.315 27.8078C24.4365 28.1281 24.5078 28.5202 24.5078 29C24.5078 29.5118 24.3825 29.955 24.1389 30.3535C23.9189 30.7135 23.559 31.0375 22.9877 31.2992C22.4589 31.5331 21.6921 31.6797 20.6328 31.6797C19.7106 31.6797 18.8985 31.5917 18.19 31.425C17.5152 31.2662 16.9736 31.0107 16.5413 30.6758C16.1391 30.3526 15.816 29.9244 15.579 29.3647C15.3465 28.7999 15.2109 28.0637 15.2109 27.125V26.125H14.2109H6.57031H5.57031V27.125C5.57031 29.2299 5.99706 31.1066 6.89102 32.7192L6.89095 32.7193L6.89738 32.7305C7.78429 34.2826 8.96559 35.567 10.4343 36.5746L10.4387 36.5776C11.8946 37.5649 13.5125 38.2972 15.2853 38.7777L15.2853 38.7777L15.2937 38.7799C17.0478 39.2389 18.8282 39.4688 20.6328 39.4688C22.5967 39.4688 24.3989 39.2497 26.0312 38.8C27.6623 38.3506 29.0914 37.6845 30.2994 36.7871L30.3013 36.7857C31.528 35.8701 32.4768 34.7513 33.1288 33.4316C33.8021 32.1007 34.125 30.5996 34.125 28.9531C34.125 27.415 33.8545 26.0018 33.2912 24.732C32.7471 23.4705 31.9352 22.3506 30.8721 21.3732C29.8214 20.4072 28.5438 19.5599 27.0546 18.8233C25.593 18.0927 23.9262 17.4338 22.0593 16.8434L22.0516 16.841L22.0438 16.8387C21.0243 16.5343 20.1302 16.2181 19.3584 15.8915C18.5941 15.5682 17.9697 15.2399 17.4744 14.9113C17.0145 14.581 16.6931 14.2568 16.4799 13.9479C16.3064 13.6619 16.2188 13.3506 16.2188 12.9922C16.2188 12.5015 16.3484 12.0601 16.615 11.6459C16.8825 11.2534 17.2898 10.9144 17.893 10.6505L17.893 10.6506L17.9018 10.6466C18.5027 10.3769 19.2988 10.2188 20.3281 10.2188C21.3734 10.2188 22.1611 10.4031 22.7422 10.7115L22.7422 10.7115L22.7496 10.7153C23.3654 11.0356 23.7868 11.457 24.0587 11.9782L24.0648 11.9898L24.0712 12.0013C24.3678 12.5353 24.5312 13.1761 24.5312 13.9531V14.9531H25.5312H33.125H34.125V13.9531C34.125 11.682 33.5459 9.64787 32.362 7.8886C31.1879 6.12842 29.555 4.77968 27.4998 3.83542C25.4533 2.87232 23.1091 2.40625 20.4922 2.40625C18.5387 2.40625 16.7262 2.64207 15.0618 3.12422C13.4029 3.58921 11.9347 4.27664 10.6719 5.19742C9.4033 6.10677 8.40172 7.21716 7.68505 8.52814C6.95706 9.85984 6.60156 11.3397 6.60156 12.9453C6.60156 14.5829 6.93509 16.0645 7.63633 17.3591L7.63628 17.3591L7.64147 17.3685C8.33545 18.6176 9.27743 19.7026 10.454 20.6234C11.5981 21.5188 12.891 22.2996 14.3277 22.9689L14.3276 22.969L14.3401 22.9746C15.7649 23.615 17.2592 24.1902 18.8224 24.7006L18.8224 24.7007L18.8333 24.7041C20.151 25.1178 21.1846 25.5144 21.9502 25.89L21.9571 25.8934L21.964 25.8966C22.7488 26.2668 23.3009 26.6123 23.6596 26.9215C24.0093 27.223 24.2084 27.5173 24.3111 27.7974Z" stroke="white" stroke-opacity="0.6" stroke-width="2"/>
</g>
<defs>
<filter id="filter0_d_10_54" x="0.570312" y="0.445312" width="175.173" height="104.023" filterUnits="userSpaceOnUse" color-interpolation-filters="sRGB">
<feFlood flood-opacity="0" result="BackgroundImageFix"/>
<feColorMatrix in="SourceAlpha" type="matrix" values="0 0 0 0 0 0 0 0 0 0 0 0 0 0 0 0 0 0 127 0" result="hardAlpha"/>
<feOffset dy="4"/>
<feGaussianBlur stdDeviation="2"/>
<feComposite in2="hardAlpha" operator="out"/>
<feColorMatrix type="matrix" values="0 0 0 0 0 0 0 0 0 0 0 0 0 0 0 0 0 0 0.25 0"/>
<feBlend mode="normal" in2="BackgroundImageFix" result="effect1_dropShadow_10_54"/>
<feBlend mode="normal" in="SourceGraphic" in2="effect1_dropShadow_10_54" result="shape"/>
</filter>
<filter id="filter1_i_10_54" x="152.836" y="66.1719" width="18.9073" height="33.8281" filterUnits="userSpaceOnUse" color-interpolation-filters="sRGB">
<feFlood flood-opacity="0" result="BackgroundImageFix"/>
<feBlend mode="normal" in="SourceGraphic" in2="BackgroundImageFix" result="shape"/>
<feColorMatrix in="SourceAlpha" type="matrix" values="0 0 0 0 0 0 0 0 0 0 0 0 0 0 0 0 0 0 127 0" result="hardAlpha"/>
<feOffset dy="4"/>
<feGaussianBlur stdDeviation="2"/>
<feComposite in2="hardAlpha" operator="arithmetic" k2="-1" k3="1"/>
<feColorMatrix type="matrix" values="0 0 0 0 0 0 0 0 0 0 0 0 0 0 0 0 0 0 0.25 0"/>
<feBlend mode="normal" in2="shape" result="effect1_innerShadow_10_54"/>
</filter>
<filter id="filter2_i_10_54" x="125.859" y="66.1719" width="27.3906" height="34.2969" filterUnits="userSpaceOnUse" color-interpolation-filters="sRGB">
<feFlood flood-opacity="0" result="BackgroundImageFix"/>
<feBlend mode="normal" in="SourceGraphic" in2="BackgroundImageFix" result="shape"/>
<feColorMatrix in="SourceAlpha" type="matrix" values="0 0 0 0 0 0 0 0 0 0 0 0 0 0 0 0 0 0 127 0" result="hardAlpha"/>
<feOffset dy="4"/>
<feGaussianBlur stdDeviation="2"/>
<feComposite in2="hardAlpha" operator="arithmetic" k2="-1" k3="1"/>
<feColorMatrix type="matrix" values="0 0 0 0 0 0 0 0 0 0 0 0 0 0 0 0 0 0 0.25 0"/>
<feBlend mode="normal" in2="shape" result="effect1_innerShadow_10_54"/>
</filter>
<filter id="filter3_i_10_54" x="99.5859" y="66.1719" width="26.3828" height="33.8281" filterUnits="userSpaceOnUse" color-interpolation-filters="sRGB">
<feFlood flood-opacity="0" result="BackgroundImageFix"/>
<feBlend mode="normal" in="SourceGraphic" in2="BackgroundImageFix" result="shape"/>
<feColorMatrix in="SourceAlpha" type="matrix" values="0 0 0 0 0 0 0 0 0 0 0 0 0 0 0 0 0 0 127 0" result="hardAlpha"/>
<feOffset dy="4"/>
<feGaussianBlur stdDeviation="2"/>
<feComposite in2="hardAlpha" operator="arithmetic" k2="-1" k3="1"/>
<feColorMatrix type="matrix" values="0 0 0 0 0 0 0 0 0 0 0 0 0 0 0 0 0 0 0.25 0"/>
<feBlend mode="normal" in2="shape" result="effect1_innerShadow_10_54"/>
</filter>
<filter id="filter4_i_10_54" x="73.7344" y="66.1719" width="25.9375" height="34.2969" filterUnits="userSpaceOnUse" color-interpolation-filters="sRGB">
<feFlood flood-opacity="0" result="BackgroundImageFix"/>
<feBlend mode="normal" in="SourceGraphic" in2="BackgroundImageFix" result="shape"/>
<feColorMatrix in="SourceAlpha" type="matrix" values="0 0 0 0 0 0 0 0 0 0 0 0 0 0 0 0 0 0 127 0" result="hardAlpha"/>
<feOffset dy="4"/>
<feGaussianBlur stdDeviation="2"/>
<feComposite in2="hardAlpha" operator="arithmetic" k2="-1" k3="1"/>
<feColorMatrix type="matrix" values="0 0 0 0 0 0 0 0 0 0 0 0 0 0 0 0 0 0 0.25 0"/>
<feBlend mode="normal" in2="shape" result="effect1_innerShadow_10_54"/>
</filter>
<filter id="filter5_i_10_54" x="48.1406" y="66.1719" width="27.3906" height="34.2969" filterUnits="userSpaceOnUse" color-interpolation-filters="sRGB">
<feFlood flood-opacity="0" result="BackgroundImageFix"/>
<feBlend mode="normal" in="SourceGraphic" in2="BackgroundImageFix" result="shape"/>
<feColorMatrix in="SourceAlpha" type="matrix" values="0 0 0 0 0 0 0 0 0 0 0 0 0 0 0 0 0 0 127 0" result="hardAlpha"/>
<feOffset dy="4"/>
<feGaussianBlur stdDeviation="2"/>
<feComposite in2="hardAlpha" operator="arithmetic" k2="-1" k3="1"/>
<feColorMatrix type="matrix" values="0 0 0 0 0 0 0 0 0 0 0 0 0 0 0 0 0 0 0.25 0"/>
<feBlend mode="normal" in2="shape" result="effect1_innerShadow_10_54"/>
</filter>
<filter id="filter6_i_10_54" x="35.9766" y="56.4453" width="12.1797" height="43.5547" filterUnits="userSpaceOnUse" color-interpolation-filters="sRGB">
<feFlood flood-opacity="0" result="BackgroundImageFix"/>
<feBlend mode="normal" in="SourceGraphic" in2="BackgroundImageFix" result="shape"/>
<feColorMatrix in="SourceAlpha" type="matrix" values="0 0 0 0 0 0 0 0 0 0 0 0 0 0 0 0 0 0 127 0" result="hardAlpha"/>
<feOffset dy="4"/>
<feGaussianBlur stdDeviation="2"/>
<feComposite in2="hardAlpha" operator="arithmetic" k2="-1" k3="1"/>
<feColorMatrix type="matrix" values="0 0 0 0 0 0 0 0 0 0 0 0 0 0 0 0 0 0 0.25 0"/>
<feBlend mode="normal" in2="shape" result="effect1_innerShadow_10_54"/>
</filter>
<filter id="filter7_i_10_54" x="5.8125" y="57.875" width="34.1373" height="42.125" filterUnits="userSpaceOnUse" color-interpolation-filters="sRGB">
<feFlood flood-opacity="0" result="BackgroundImageFix"/>
<feBlend mode="normal" in="SourceGraphic" in2="BackgroundImageFix" result="shape"/>
<feColorMatrix in="SourceAlpha" type="matrix" values="0 0 0 0 0 0 0 0 0 0 0 0 0 0 0 0 0 0 127 0" result="hardAlpha"/>
<feOffset dy="4"/>
<feGaussianBlur stdDeviation="2"/>
<feComposite in2="hardAlpha" operator="arithmetic" k2="-1" k3="1"/>
<feColorMatrix type="matrix" values="0 0 0 0 0 0 0 0 0 0 0 0 0 0 0 0 0 0 0.25 0"/>
<feBlend mode="normal" in2="shape" result="effect1_innerShadow_10_54"/>
</filter>
<filter id="filter8_i_10_54" x="116.602" y="10.1719" width="26.3828" height="33.8281" filterUnits="userSpaceOnUse" color-interpolation-filters="sRGB">
<feFlood flood-opacity="0" result="BackgroundImageFix"/>
<feBlend mode="normal" in="SourceGraphic" in2="BackgroundImageFix" result="shape"/>
<feColorMatrix in="SourceAlpha" type="matrix" values="0 0 0 0 0 0 0 0 0 0 0 0 0 0 0 0 0 0 127 0" result="hardAlpha"/>
<feOffset dy="4"/>
<feGaussianBlur stdDeviation="2"/>
<feComposite in2="hardAlpha" operator="arithmetic" k2="-1" k3="1"/>
<feColorMatrix type="matrix" values="0 0 0 0 0 0 0 0 0 0 0 0 0 0 0 0 0 0 0.25 0"/>
<feBlend mode="normal" in2="shape" result="effect1_innerShadow_10_54"/>
</filter>
<filter id="filter9_i_10_54" x="88.6641" y="10.1719" width="28.2578" height="34.2969" filterUnits="userSpaceOnUse" color-interpolation-filters="sRGB">
<feFlood flood-opacity="0" result="BackgroundImageFix"/>
<feBlend mode="normal" in="SourceGraphic" in2="BackgroundImageFix" result="shape"/>
<feColorMatrix in="SourceAlpha" type="matrix" values="0 0 0 0 0 0 0 0 0 0 0 0 0 0 0 0 0 0 127 0" result="hardAlpha"/>
<feOffset dy="4"/>
<feGaussianBlur stdDeviation="2"/>
<feComposite in2="hardAlpha" operator="arithmetic" k2="-1" k3="1"/>
<feColorMatrix type="matrix" values="0 0 0 0 0 0 0 0 0 0 0 0 0 0 0 0 0 0 0.25 0"/>
<feBlend mode="normal" in2="shape" result="effect1_innerShadow_10_54"/>
</filter>
<filter id="filter10_i_10_54" x="48.2578" y="10.1719" width="40.5625" height="33.8281" filterUnits="userSpaceOnUse" color-interpolation-filters="sRGB">
<feFlood flood-opacity="0" result="BackgroundImageFix"/>
<feBlend mode="normal" in="SourceGraphic" in2="BackgroundImageFix" result="shape"/>
<feColorMatrix in="SourceAlpha" type="matrix" values="0 0 0 0 0 0 0 0 0 0 0 0 0 0 0 0 0 0 127 0" result="hardAlpha"/>
<feOffset dy="4"/>
<feGaussianBlur stdDeviation="2"/>
<feComposite in2="hardAlpha" operator="arithmetic" k2="-1" k3="1"/>
<feColorMatrix type="matrix" values="0 0 0 0 0 0 0 0 0 0 0 0 0 0 0 0 0 0 0.25 0"/>
<feBlend mode="normal" in2="shape" result="effect1_innerShadow_10_54"/>
</filter>
<filter id="filter11_i_10_54" x="35.1797" y="0.445312" width="12.1797" height="43.5547" filterUnits="userSpaceOnUse" color-interpolation-filters="sRGB">
<feFlood flood-opacity="0" result="BackgroundImageFix"/>
<feBlend mode="normal" in="SourceGraphic" in2="BackgroundImageFix" result="shape"/>
<feColorMatrix in="SourceAlpha" type="matrix" values="0 0 0 0 0 0 0 0 0 0 0 0 0 0 0 0 0 0 127 0" result="hardAlpha"/>
<feOffset dy="4"/>
<feGaussianBlur stdDeviation="2"/>
<feComposite in2="hardAlpha" operator="arithmetic" k2="-1" k3="1"/>
<feColorMatrix type="matrix" values="0 0 0 0 0 0 0 0 0 0 0 0 0 0 0 0 0 0 0.25 0"/>
<feBlend mode="normal" in2="shape" result="effect1_innerShadow_10_54"/>
</filter>
<filter id="filter12_i_10_54" x="4.57031" y="1.40625" width="30.5547" height="43.0625" filterUnits="userSpaceOnUse" color-interpolation-filters="sRGB">
<feFlood flood-opacity="0" result="BackgroundImageFix"/>
<feBlend mode="normal" in="SourceGraphic" in2="BackgroundImageFix" result="shape"/>
<feColorMatrix in="SourceAlpha" type="matrix" values="0 0 0 0 0 0 0 0 0 0 0 0 0 0 0 0 0 0 127 0" result="hardAlpha"/>
<feOffset dy="4"/>
<feGaussianBlur stdDeviation="2"/>
<feComposite in2="hardAlpha" operator="arithmetic" k2="-1" k3="1"/>
<feColorMatrix type="matrix" values="0 0 0 0 0 0 0 0 0 0 0 0 0 0 0 0 0 0 0.25 0"/>
<feBlend mode="normal" in2="shape" result="effect1_innerShadow_10_54"/>
</filter>
</defs>
</svg>
