<svg width="234" height="140" viewBox="0 0 234 140" fill="none" xmlns="http://www.w3.org/2000/svg">
<g filter="url(#filter0_d_17_2)">
<mask id="path-1-outside-1_17_2" maskUnits="userSpaceOnUse" x="4" y="0" width="226" height="132" fill="black">
<rect fill="white" x="4" width="226" height="132"/>
<path d="M33.3438 40C33.3438 39.2292 33.2292 38.5417 33 37.9375C32.7708 37.3125 32.3542 36.7396 31.75 36.2188C31.1458 35.6979 30.2917 35.1771 29.1875 34.6562C28.0833 34.1146 26.6354 33.5625 24.8438 33C22.8021 32.3333 20.8542 31.5833 19 30.75C17.1667 29.8958 15.5312 28.9062 14.0938 27.7812C12.6562 26.6562 11.5208 25.3438 10.6875 23.8438C9.875 22.3438 9.46875 20.5938 9.46875 18.5938C9.46875 16.6562 9.89583 14.9062 10.75 13.3438C11.6042 11.7812 12.8021 10.4479 14.3438 9.34375C15.8854 8.21875 17.6979 7.36458 19.7812 6.78125C21.8646 6.17708 24.1562 5.875 26.6562 5.875C29.9896 5.875 32.9167 6.46875 35.4375 7.65625C37.9792 8.82292 39.9583 10.4688 41.375 12.5938C42.7917 14.6979 43.5 17.1458 43.5 19.9375H33.375C33.375 18.7083 33.1146 17.625 32.5938 16.6875C32.0938 15.7292 31.3229 14.9792 30.2812 14.4375C29.2604 13.8958 27.9792 13.625 26.4375 13.625C24.9375 13.625 23.6771 13.8542 22.6562 14.3125C21.6562 14.75 20.8958 15.3542 20.375 16.125C19.875 16.8958 19.625 17.7396 19.625 18.6562C19.625 19.3854 19.8125 20.0521 20.1875 20.6562C20.5833 21.2396 21.1458 21.7917 21.875 22.3125C22.625 22.8125 23.5417 23.2917 24.625 23.75C25.7083 24.2083 26.9479 24.6458 28.3438 25.0625C30.7812 25.8333 32.9375 26.6875 34.8125 27.625C36.7083 28.5625 38.3021 29.625 39.5938 30.8125C40.8854 32 41.8542 33.3438 42.5 34.8438C43.1667 36.3438 43.5 38.0417 43.5 39.9375C43.5 41.9583 43.1042 43.75 42.3125 45.3125C41.5417 46.875 40.4167 48.2083 38.9375 49.3125C37.4792 50.3958 35.7292 51.2188 33.6875 51.7812C31.6458 52.3438 29.3646 52.625 26.8438 52.625C24.5521 52.625 22.2917 52.3333 20.0625 51.75C17.8333 51.1458 15.8125 50.2292 14 49C12.2083 47.7708 10.7708 46.2083 9.6875 44.3125C8.625 42.3958 8.09375 40.125 8.09375 37.5H18.2812C18.2812 38.875 18.4792 40.0417 18.875 41C19.2708 41.9375 19.8333 42.6979 20.5625 43.2812C21.3125 43.8646 22.2188 44.2812 23.2812 44.5312C24.3438 44.7812 25.5312 44.9062 26.8438 44.9062C28.3646 44.9062 29.5938 44.6979 30.5312 44.2812C31.4896 43.8438 32.1979 43.25 32.6562 42.5C33.1146 41.75 33.3438 40.9167 33.3438 40ZM59.2812 18.1875V52H49.5V18.1875H59.2812ZM48.9062 9.4375C48.9062 8.02083 49.4062 6.86458 50.4062 5.96875C51.4062 5.05208 52.7188 4.59375 54.3438 4.59375C55.9688 4.59375 57.2812 5.05208 58.2812 5.96875C59.3021 6.86458 59.8125 8.02083 59.8125 9.4375C59.8125 10.8333 59.3021 11.9896 58.2812 12.9062C57.2812 13.8021 55.9688 14.25 54.3438 14.25C52.7188 14.25 51.4062 13.8021 50.4062 12.9062C49.4062 11.9896 48.9062 10.8333 48.9062 9.4375ZM76.0938 25.2812V52H66.3438V18.1875H75.5L76.0938 25.2812ZM74.8438 33.9062L72.375 33.9688C72.375 31.5938 72.6562 29.4167 73.2188 27.4375C73.8021 25.4375 74.6458 23.6979 75.75 22.2188C76.8542 20.7396 78.2188 19.5938 79.8438 18.7812C81.4896 17.9688 83.3854 17.5625 85.5312 17.5625C87.0312 17.5625 88.3958 17.7917 89.625 18.25C90.8542 18.6875 91.9062 19.3854 92.7812 20.3438C93.6771 21.2812 94.3646 22.5104 94.8438 24.0312C95.3229 25.5312 95.5625 27.3333 95.5625 29.4375V52H85.8125V30.625C85.8125 29.125 85.625 27.9896 85.25 27.2188C84.8958 26.4271 84.375 25.8854 83.6875 25.5938C83 25.3021 82.1771 25.1562 81.2188 25.1562C80.1771 25.1562 79.25 25.3854 78.4375 25.8438C77.6458 26.2812 76.9792 26.8958 76.4375 27.6875C75.8958 28.4792 75.4896 29.4062 75.2188 30.4688C74.9688 31.5312 74.8438 32.6771 74.8438 33.9062ZM94.5625 33.4062L91.4688 33.6562C91.4688 31.3646 91.7396 29.2396 92.2812 27.2812C92.8229 25.3229 93.6354 23.625 94.7188 22.1875C95.8021 20.7292 97.1458 19.5938 98.75 18.7812C100.375 17.9688 102.26 17.5625 104.406 17.5625C105.99 17.5625 107.427 17.7917 108.719 18.25C110.031 18.7083 111.156 19.4479 112.094 20.4688C113.052 21.4896 113.792 22.8333 114.312 24.5C114.833 26.1458 115.094 28.1667 115.094 30.5625V52H105.281V30.5625C105.281 29.0833 105.094 27.9583 104.719 27.1875C104.365 26.4167 103.844 25.8854 103.156 25.5938C102.49 25.3021 101.688 25.1562 100.75 25.1562C99.7083 25.1562 98.8021 25.375 98.0312 25.8125C97.2604 26.2292 96.6146 26.8125 96.0938 27.5625C95.5729 28.2917 95.1875 29.1562 94.9375 30.1562C94.6875 31.1562 94.5625 32.2396 94.5625 33.4062ZM120.219 35.4375V34.7812C120.219 32.3021 120.573 30.0208 121.281 27.9375C121.99 25.8333 123.031 24.0104 124.406 22.4688C125.781 20.9271 127.469 19.7292 129.469 18.875C131.469 18 133.76 17.5625 136.344 17.5625C138.969 17.5625 141.281 18 143.281 18.875C145.302 19.7292 147 20.9271 148.375 22.4688C149.75 24.0104 150.792 25.8333 151.5 27.9375C152.208 30.0208 152.562 32.3021 152.562 34.7812V35.4375C152.562 37.8958 152.208 40.1771 151.5 42.2812C150.792 44.3646 149.75 46.1875 148.375 47.75C147 49.2917 145.312 50.4896 143.312 51.3438C141.312 52.1979 139.01 52.625 136.406 52.625C133.823 52.625 131.521 52.1979 129.5 51.3438C127.479 50.4896 125.781 49.2917 124.406 47.75C123.031 46.1875 121.99 44.3646 121.281 42.2812C120.573 40.1771 120.219 37.8958 120.219 35.4375ZM130 34.7812V35.4375C130 36.7708 130.104 38.0208 130.312 39.1875C130.542 40.3542 130.906 41.375 131.406 42.25C131.906 43.125 132.562 43.8125 133.375 44.3125C134.208 44.7917 135.219 45.0312 136.406 45.0312C137.594 45.0312 138.594 44.7917 139.406 44.3125C140.219 43.8125 140.875 43.125 141.375 42.25C141.875 41.375 142.229 40.3542 142.438 39.1875C142.667 38.0208 142.781 36.7708 142.781 35.4375V34.7812C142.781 33.4688 142.667 32.2396 142.438 31.0938C142.229 29.9271 141.875 28.8958 141.375 28C140.875 27.1042 140.208 26.4062 139.375 25.9062C138.562 25.4062 137.552 25.1562 136.344 25.1562C135.177 25.1562 134.188 25.4062 133.375 25.9062C132.562 26.4062 131.906 27.1042 131.406 28C130.906 28.8958 130.542 29.9271 130.312 31.0938C130.104 32.2396 130 33.4688 130 34.7812ZM167.25 25.4062V52H157.469V18.1875H166.656L167.25 25.4062ZM165.969 33.9062L163.531 33.9688C163.531 31.4271 163.844 29.1458 164.469 27.125C165.094 25.1042 165.979 23.3854 167.125 21.9688C168.292 20.5312 169.677 19.4375 171.281 18.6875C172.906 17.9375 174.698 17.5625 176.656 17.5625C178.24 17.5625 179.688 17.7917 181 18.25C182.312 18.7083 183.438 19.4479 184.375 20.4688C185.333 21.4688 186.062 22.8021 186.562 24.4688C187.062 26.1146 187.312 28.1458 187.312 30.5625V52H177.5V30.5312C177.5 29.1146 177.302 28.0208 176.906 27.25C176.51 26.4792 175.927 25.9375 175.156 25.625C174.406 25.3125 173.49 25.1562 172.406 25.1562C171.26 25.1562 170.281 25.3854 169.469 25.8438C168.656 26.2812 167.99 26.8958 167.469 27.6875C166.948 28.4792 166.562 29.4062 166.312 30.4688C166.083 31.5312 165.969 32.6771 165.969 33.9062ZM19.9375 81.5V127H9.75V81.5H19.9375ZM47.125 81.5L29.3125 104.25L18.9375 115.5L17.0938 106.031L23.9375 96.2188L34.625 81.5H47.125ZM35.3125 127L22.75 106.219L30.5 100.188L47.375 127H35.3125ZM60.3438 93.1875V127H50.5625V93.1875H60.3438ZM49.9688 84.4375C49.9688 83.0208 50.4688 81.8646 51.4688 80.9688C52.4688 80.0521 53.7812 79.5938 55.4062 79.5938C57.0312 79.5938 58.3438 80.0521 59.3438 80.9688C60.3646 81.8646 60.875 83.0208 60.875 84.4375C60.875 85.8333 60.3646 86.9896 59.3438 87.9062C58.3438 88.8021 57.0312 89.25 55.4062 89.25C53.7812 89.25 52.4688 88.8021 51.4688 87.9062C50.4688 86.9896 49.9688 85.8333 49.9688 84.4375ZM83.3125 127.625C80.625 127.625 78.2188 127.198 76.0938 126.344C73.9688 125.49 72.1667 124.312 70.6875 122.812C69.2292 121.292 68.1146 119.542 67.3438 117.562C66.5729 115.583 66.1875 113.469 66.1875 111.219V110.031C66.1875 107.51 66.5417 105.188 67.25 103.062C67.9583 100.938 68.9896 99.0938 70.3438 97.5312C71.7188 95.9479 73.4062 94.7292 75.4062 93.875C77.4062 93 79.6875 92.5625 82.25 92.5625C84.6458 92.5625 86.7812 92.9583 88.6562 93.75C90.5312 94.5208 92.1146 95.6354 93.4062 97.0938C94.6979 98.5312 95.6771 100.271 96.3438 102.312C97.0312 104.333 97.375 106.604 97.375 109.125V113.125H70.125V106.844H87.8125V106.094C87.8125 104.906 87.5938 103.865 87.1562 102.969C86.7396 102.073 86.1146 101.385 85.2812 100.906C84.4688 100.406 83.4375 100.156 82.1875 100.156C81 100.156 80.0104 100.406 79.2188 100.906C78.4271 101.406 77.7917 102.115 77.3125 103.031C76.8542 103.927 76.5208 104.979 76.3125 106.188C76.1042 107.375 76 108.656 76 110.031V111.219C76 112.531 76.1771 113.729 76.5312 114.812C76.8854 115.896 77.4062 116.823 78.0938 117.594C78.7812 118.365 79.6146 118.969 80.5938 119.406C81.5729 119.844 82.6875 120.062 83.9375 120.062C85.4792 120.062 86.9479 119.771 88.3438 119.188C89.7396 118.583 90.9479 117.646 91.9688 116.375L96.5312 121.594C95.8438 122.594 94.875 123.562 93.625 124.5C92.3958 125.417 90.9167 126.167 89.1875 126.75C87.4583 127.333 85.5 127.625 83.3125 127.625ZM120.125 117.594C120.125 116.969 119.927 116.417 119.531 115.938C119.156 115.458 118.469 115.021 117.469 114.625C116.49 114.229 115.104 113.833 113.312 113.438C111.625 113.083 110.052 112.625 108.594 112.062C107.135 111.479 105.865 110.781 104.781 109.969C103.698 109.135 102.854 108.156 102.25 107.031C101.646 105.885 101.344 104.583 101.344 103.125C101.344 101.708 101.646 100.365 102.25 99.0938C102.875 97.8229 103.771 96.6979 104.938 95.7188C106.125 94.7396 107.562 93.9688 109.25 93.4062C110.958 92.8438 112.896 92.5625 115.062 92.5625C118.042 92.5625 120.615 93.0312 122.781 93.9688C124.948 94.8854 126.615 96.1771 127.781 97.8438C128.948 99.4896 129.531 101.375 129.531 103.5H119.781C119.781 102.625 119.615 101.865 119.281 101.219C118.948 100.573 118.438 100.073 117.75 99.7188C117.062 99.3438 116.156 99.1562 115.031 99.1562C114.156 99.1562 113.385 99.3125 112.719 99.625C112.073 99.9167 111.562 100.323 111.188 100.844C110.833 101.365 110.656 101.969 110.656 102.656C110.656 103.135 110.76 103.573 110.969 103.969C111.198 104.344 111.542 104.698 112 105.031C112.479 105.344 113.094 105.625 113.844 105.875C114.615 106.125 115.552 106.365 116.656 106.594C119.01 107.031 121.156 107.646 123.094 108.438C125.052 109.229 126.615 110.323 127.781 111.719C128.969 113.115 129.562 114.958 129.562 117.25C129.562 118.75 129.219 120.125 128.531 121.375C127.865 122.625 126.896 123.719 125.625 124.656C124.354 125.594 122.833 126.323 121.062 126.844C119.292 127.365 117.292 127.625 115.062 127.625C111.875 127.625 109.177 127.052 106.969 125.906C104.76 124.76 103.094 123.323 101.969 121.594C100.865 119.844 100.312 118.052 100.312 116.219H109.469C109.51 117.344 109.792 118.26 110.312 118.969C110.854 119.677 111.552 120.198 112.406 120.531C113.26 120.844 114.219 121 115.281 121C116.344 121 117.229 120.854 117.938 120.562C118.646 120.271 119.188 119.875 119.562 119.375C119.938 118.854 120.125 118.26 120.125 117.594ZM144.562 100.406V127H134.781V93.1875H143.969L144.562 100.406ZM143.281 108.906L140.844 108.969C140.844 106.427 141.156 104.146 141.781 102.125C142.406 100.104 143.292 98.3854 144.438 96.9688C145.604 95.5312 146.99 94.4375 148.594 93.6875C150.219 92.9375 152.01 92.5625 153.969 92.5625C155.552 92.5625 157 92.7917 158.312 93.25C159.625 93.7083 160.75 94.4479 161.688 95.4688C162.646 96.4688 163.375 97.8021 163.875 99.4688C164.375 101.115 164.625 103.146 164.625 105.562V127H154.812V105.531C154.812 104.115 154.615 103.021 154.219 102.25C153.823 101.479 153.24 100.938 152.469 100.625C151.719 100.312 150.802 100.156 149.719 100.156C148.573 100.156 147.594 100.385 146.781 100.844C145.969 101.281 145.302 101.896 144.781 102.688C144.26 103.479 143.875 104.406 143.625 105.469C143.396 106.531 143.281 107.677 143.281 108.906ZM186.938 127.625C184.25 127.625 181.844 127.198 179.719 126.344C177.594 125.49 175.792 124.312 174.312 122.812C172.854 121.292 171.74 119.542 170.969 117.562C170.198 115.583 169.812 113.469 169.812 111.219V110.031C169.812 107.51 170.167 105.188 170.875 103.062C171.583 100.938 172.615 99.0938 173.969 97.5312C175.344 95.9479 177.031 94.7292 179.031 93.875C181.031 93 183.312 92.5625 185.875 92.5625C188.271 92.5625 190.406 92.9583 192.281 93.75C194.156 94.5208 195.74 95.6354 197.031 97.0938C198.323 98.5312 199.302 100.271 199.969 102.312C200.656 104.333 201 106.604 201 109.125V113.125H173.75V106.844H191.438V106.094C191.438 104.906 191.219 103.865 190.781 102.969C190.365 102.073 189.74 101.385 188.906 100.906C188.094 100.406 187.062 100.156 185.812 100.156C184.625 100.156 183.635 100.406 182.844 100.906C182.052 101.406 181.417 102.115 180.938 103.031C180.479 103.927 180.146 104.979 179.938 106.188C179.729 107.375 179.625 108.656 179.625 110.031V111.219C179.625 112.531 179.802 113.729 180.156 114.812C180.51 115.896 181.031 116.823 181.719 117.594C182.406 118.365 183.24 118.969 184.219 119.406C185.198 119.844 186.312 120.062 187.562 120.062C189.104 120.062 190.573 119.771 191.969 119.188C193.365 118.583 194.573 117.646 195.594 116.375L200.156 121.594C199.469 122.594 198.5 123.562 197.25 124.5C196.021 125.417 194.542 126.167 192.812 126.75C191.083 127.333 189.125 127.625 186.938 127.625ZM215.531 101.062V127H205.781V93.1875H214.938L215.531 101.062ZM225.625 92.9375L225.469 102.031C225.052 101.969 224.51 101.917 223.844 101.875C223.177 101.812 222.604 101.781 222.125 101.781C220.875 101.781 219.792 101.938 218.875 102.25C217.979 102.542 217.229 102.979 216.625 103.562C216.042 104.146 215.604 104.875 215.312 105.75C215.021 106.604 214.875 107.594 214.875 108.719L213.031 107.812C213.031 105.583 213.25 103.542 213.688 101.688C214.125 99.8333 214.76 98.2292 215.594 96.875C216.427 95.5 217.448 94.4375 218.656 93.6875C219.865 92.9375 221.24 92.5625 222.781 92.5625C223.281 92.5625 223.792 92.5938 224.312 92.6562C224.833 92.7188 225.271 92.8125 225.625 92.9375Z"/>
</mask>
<path d="M33.3438 40C33.3438 39.2292 33.2292 38.5417 33 37.9375C32.7708 37.3125 32.3542 36.7396 31.75 36.2188C31.1458 35.6979 30.2917 35.1771 29.1875 34.6562C28.0833 34.1146 26.6354 33.5625 24.8438 33C22.8021 32.3333 20.8542 31.5833 19 30.75C17.1667 29.8958 15.5312 28.9062 14.0938 27.7812C12.6562 26.6562 11.5208 25.3438 10.6875 23.8438C9.875 22.3438 9.46875 20.5938 9.46875 18.5938C9.46875 16.6562 9.89583 14.9062 10.75 13.3438C11.6042 11.7812 12.8021 10.4479 14.3438 9.34375C15.8854 8.21875 17.6979 7.36458 19.7812 6.78125C21.8646 6.17708 24.1562 5.875 26.6562 5.875C29.9896 5.875 32.9167 6.46875 35.4375 7.65625C37.9792 8.82292 39.9583 10.4688 41.375 12.5938C42.7917 14.6979 43.5 17.1458 43.5 19.9375H33.375C33.375 18.7083 33.1146 17.625 32.5938 16.6875C32.0938 15.7292 31.3229 14.9792 30.2812 14.4375C29.2604 13.8958 27.9792 13.625 26.4375 13.625C24.9375 13.625 23.6771 13.8542 22.6562 14.3125C21.6562 14.75 20.8958 15.3542 20.375 16.125C19.875 16.8958 19.625 17.7396 19.625 18.6562C19.625 19.3854 19.8125 20.0521 20.1875 20.6562C20.5833 21.2396 21.1458 21.7917 21.875 22.3125C22.625 22.8125 23.5417 23.2917 24.625 23.75C25.7083 24.2083 26.9479 24.6458 28.3438 25.0625C30.7812 25.8333 32.9375 26.6875 34.8125 27.625C36.7083 28.5625 38.3021 29.625 39.5938 30.8125C40.8854 32 41.8542 33.3438 42.5 34.8438C43.1667 36.3438 43.5 38.0417 43.5 39.9375C43.5 41.9583 43.1042 43.75 42.3125 45.3125C41.5417 46.875 40.4167 48.2083 38.9375 49.3125C37.4792 50.3958 35.7292 51.2188 33.6875 51.7812C31.6458 52.3438 29.3646 52.625 26.8438 52.625C24.5521 52.625 22.2917 52.3333 20.0625 51.75C17.8333 51.1458 15.8125 50.2292 14 49C12.2083 47.7708 10.7708 46.2083 9.6875 44.3125C8.625 42.3958 8.09375 40.125 8.09375 37.5H18.2812C18.2812 38.875 18.4792 40.0417 18.875 41C19.2708 41.9375 19.8333 42.6979 20.5625 43.2812C21.3125 43.8646 22.2188 44.2812 23.2812 44.5312C24.3438 44.7812 25.5312 44.9062 26.8438 44.9062C28.3646 44.9062 29.5938 44.6979 30.5312 44.2812C31.4896 43.8438 32.1979 43.25 32.6562 42.5C33.1146 41.75 33.3438 40.9167 33.3438 40ZM59.2812 18.1875V52H49.5V18.1875H59.2812ZM48.9062 9.4375C48.9062 8.02083 49.4062 6.86458 50.4062 5.96875C51.4062 5.05208 52.7188 4.59375 54.3438 4.59375C55.9688 4.59375 57.2812 5.05208 58.2812 5.96875C59.3021 6.86458 59.8125 8.02083 59.8125 9.4375C59.8125 10.8333 59.3021 11.9896 58.2812 12.9062C57.2812 13.8021 55.9688 14.25 54.3438 14.25C52.7188 14.25 51.4062 13.8021 50.4062 12.9062C49.4062 11.9896 48.9062 10.8333 48.9062 9.4375ZM76.0938 25.2812V52H66.3438V18.1875H75.5L76.0938 25.2812ZM74.8438 33.9062L72.375 33.9688C72.375 31.5938 72.6562 29.4167 73.2188 27.4375C73.8021 25.4375 74.6458 23.6979 75.75 22.2188C76.8542 20.7396 78.2188 19.5938 79.8438 18.7812C81.4896 17.9688 83.3854 17.5625 85.5312 17.5625C87.0312 17.5625 88.3958 17.7917 89.625 18.25C90.8542 18.6875 91.9062 19.3854 92.7812 20.3438C93.6771 21.2812 94.3646 22.5104 94.8438 24.0312C95.3229 25.5312 95.5625 27.3333 95.5625 29.4375V52H85.8125V30.625C85.8125 29.125 85.625 27.9896 85.25 27.2188C84.8958 26.4271 84.375 25.8854 83.6875 25.5938C83 25.3021 82.1771 25.1562 81.2188 25.1562C80.1771 25.1562 79.25 25.3854 78.4375 25.8438C77.6458 26.2812 76.9792 26.8958 76.4375 27.6875C75.8958 28.4792 75.4896 29.4062 75.2188 30.4688C74.9688 31.5312 74.8438 32.6771 74.8438 33.9062ZM94.5625 33.4062L91.4688 33.6562C91.4688 31.3646 91.7396 29.2396 92.2812 27.2812C92.8229 25.3229 93.6354 23.625 94.7188 22.1875C95.8021 20.7292 97.1458 19.5938 98.75 18.7812C100.375 17.9688 102.26 17.5625 104.406 17.5625C105.99 17.5625 107.427 17.7917 108.719 18.25C110.031 18.7083 111.156 19.4479 112.094 20.4688C113.052 21.4896 113.792 22.8333 114.312 24.5C114.833 26.1458 115.094 28.1667 115.094 30.5625V52H105.281V30.5625C105.281 29.0833 105.094 27.9583 104.719 27.1875C104.365 26.4167 103.844 25.8854 103.156 25.5938C102.49 25.3021 101.688 25.1562 100.75 25.1562C99.7083 25.1562 98.8021 25.375 98.0312 25.8125C97.2604 26.2292 96.6146 26.8125 96.0938 27.5625C95.5729 28.2917 95.1875 29.1562 94.9375 30.1562C94.6875 31.1562 94.5625 32.2396 94.5625 33.4062ZM120.219 35.4375V34.7812C120.219 32.3021 120.573 30.0208 121.281 27.9375C121.99 25.8333 123.031 24.0104 124.406 22.4688C125.781 20.9271 127.469 19.7292 129.469 18.875C131.469 18 133.76 17.5625 136.344 17.5625C138.969 17.5625 141.281 18 143.281 18.875C145.302 19.7292 147 20.9271 148.375 22.4688C149.75 24.0104 150.792 25.8333 151.5 27.9375C152.208 30.0208 152.562 32.3021 152.562 34.7812V35.4375C152.562 37.8958 152.208 40.1771 151.5 42.2812C150.792 44.3646 149.75 46.1875 148.375 47.75C147 49.2917 145.312 50.4896 143.312 51.3438C141.312 52.1979 139.01 52.625 136.406 52.625C133.823 52.625 131.521 52.1979 129.5 51.3438C127.479 50.4896 125.781 49.2917 124.406 47.75C123.031 46.1875 121.99 44.3646 121.281 42.2812C120.573 40.1771 120.219 37.8958 120.219 35.4375ZM130 34.7812V35.4375C130 36.7708 130.104 38.0208 130.312 39.1875C130.542 40.3542 130.906 41.375 131.406 42.25C131.906 43.125 132.562 43.8125 133.375 44.3125C134.208 44.7917 135.219 45.0312 136.406 45.0312C137.594 45.0312 138.594 44.7917 139.406 44.3125C140.219 43.8125 140.875 43.125 141.375 42.25C141.875 41.375 142.229 40.3542 142.438 39.1875C142.667 38.0208 142.781 36.7708 142.781 35.4375V34.7812C142.781 33.4688 142.667 32.2396 142.438 31.0938C142.229 29.9271 141.875 28.8958 141.375 28C140.875 27.1042 140.208 26.4062 139.375 25.9062C138.562 25.4062 137.552 25.1562 136.344 25.1562C135.177 25.1562 134.188 25.4062 133.375 25.9062C132.562 26.4062 131.906 27.1042 131.406 28C130.906 28.8958 130.542 29.9271 130.312 31.0938C130.104 32.2396 130 33.4688 130 34.7812ZM167.25 25.4062V52H157.469V18.1875H166.656L167.25 25.4062ZM165.969 33.9062L163.531 33.9688C163.531 31.4271 163.844 29.1458 164.469 27.125C165.094 25.1042 165.979 23.3854 167.125 21.9688C168.292 20.5312 169.677 19.4375 171.281 18.6875C172.906 17.9375 174.698 17.5625 176.656 17.5625C178.24 17.5625 179.688 17.7917 181 18.25C182.312 18.7083 183.438 19.4479 184.375 20.4688C185.333 21.4688 186.062 22.8021 186.562 24.4688C187.062 26.1146 187.312 28.1458 187.312 30.5625V52H177.5V30.5312C177.5 29.1146 177.302 28.0208 176.906 27.25C176.51 26.4792 175.927 25.9375 175.156 25.625C174.406 25.3125 173.49 25.1562 172.406 25.1562C171.26 25.1562 170.281 25.3854 169.469 25.8438C168.656 26.2812 167.99 26.8958 167.469 27.6875C166.948 28.4792 166.562 29.4062 166.312 30.4688C166.083 31.5312 165.969 32.6771 165.969 33.9062ZM19.9375 81.5V127H9.75V81.5H19.9375ZM47.125 81.5L29.3125 104.25L18.9375 115.5L17.0938 106.031L23.9375 96.2188L34.625 81.5H47.125ZM35.3125 127L22.75 106.219L30.5 100.188L47.375 127H35.3125ZM60.3438 93.1875V127H50.5625V93.1875H60.3438ZM49.9688 84.4375C49.9688 83.0208 50.4688 81.8646 51.4688 80.9688C52.4688 80.0521 53.7812 79.5938 55.4062 79.5938C57.0312 79.5938 58.3438 80.0521 59.3438 80.9688C60.3646 81.8646 60.875 83.0208 60.875 84.4375C60.875 85.8333 60.3646 86.9896 59.3438 87.9062C58.3438 88.8021 57.0312 89.25 55.4062 89.25C53.7812 89.25 52.4688 88.8021 51.4688 87.9062C50.4688 86.9896 49.9688 85.8333 49.9688 84.4375ZM83.3125 127.625C80.625 127.625 78.2188 127.198 76.0938 126.344C73.9688 125.49 72.1667 124.312 70.6875 122.812C69.2292 121.292 68.1146 119.542 67.3438 117.562C66.5729 115.583 66.1875 113.469 66.1875 111.219V110.031C66.1875 107.51 66.5417 105.188 67.25 103.062C67.9583 100.938 68.9896 99.0938 70.3438 97.5312C71.7188 95.9479 73.4062 94.7292 75.4062 93.875C77.4062 93 79.6875 92.5625 82.25 92.5625C84.6458 92.5625 86.7812 92.9583 88.6562 93.75C90.5312 94.5208 92.1146 95.6354 93.4062 97.0938C94.6979 98.5312 95.6771 100.271 96.3438 102.312C97.0312 104.333 97.375 106.604 97.375 109.125V113.125H70.125V106.844H87.8125V106.094C87.8125 104.906 87.5938 103.865 87.1562 102.969C86.7396 102.073 86.1146 101.385 85.2812 100.906C84.4688 100.406 83.4375 100.156 82.1875 100.156C81 100.156 80.0104 100.406 79.2188 100.906C78.4271 101.406 77.7917 102.115 77.3125 103.031C76.8542 103.927 76.5208 104.979 76.3125 106.188C76.1042 107.375 76 108.656 76 110.031V111.219C76 112.531 76.1771 113.729 76.5312 114.812C76.8854 115.896 77.4062 116.823 78.0938 117.594C78.7812 118.365 79.6146 118.969 80.5938 119.406C81.5729 119.844 82.6875 120.062 83.9375 120.062C85.4792 120.062 86.9479 119.771 88.3438 119.188C89.7396 118.583 90.9479 117.646 91.9688 116.375L96.5312 121.594C95.8438 122.594 94.875 123.562 93.625 124.5C92.3958 125.417 90.9167 126.167 89.1875 126.75C87.4583 127.333 85.5 127.625 83.3125 127.625ZM120.125 117.594C120.125 116.969 119.927 116.417 119.531 115.938C119.156 115.458 118.469 115.021 117.469 114.625C116.49 114.229 115.104 113.833 113.312 113.438C111.625 113.083 110.052 112.625 108.594 112.062C107.135 111.479 105.865 110.781 104.781 109.969C103.698 109.135 102.854 108.156 102.25 107.031C101.646 105.885 101.344 104.583 101.344 103.125C101.344 101.708 101.646 100.365 102.25 99.0938C102.875 97.8229 103.771 96.6979 104.938 95.7188C106.125 94.7396 107.562 93.9688 109.25 93.4062C110.958 92.8438 112.896 92.5625 115.062 92.5625C118.042 92.5625 120.615 93.0312 122.781 93.9688C124.948 94.8854 126.615 96.1771 127.781 97.8438C128.948 99.4896 129.531 101.375 129.531 103.5H119.781C119.781 102.625 119.615 101.865 119.281 101.219C118.948 100.573 118.438 100.073 117.75 99.7188C117.062 99.3438 116.156 99.1562 115.031 99.1562C114.156 99.1562 113.385 99.3125 112.719 99.625C112.073 99.9167 111.562 100.323 111.188 100.844C110.833 101.365 110.656 101.969 110.656 102.656C110.656 103.135 110.76 103.573 110.969 103.969C111.198 104.344 111.542 104.698 112 105.031C112.479 105.344 113.094 105.625 113.844 105.875C114.615 106.125 115.552 106.365 116.656 106.594C119.01 107.031 121.156 107.646 123.094 108.438C125.052 109.229 126.615 110.323 127.781 111.719C128.969 113.115 129.562 114.958 129.562 117.25C129.562 118.75 129.219 120.125 128.531 121.375C127.865 122.625 126.896 123.719 125.625 124.656C124.354 125.594 122.833 126.323 121.062 126.844C119.292 127.365 117.292 127.625 115.062 127.625C111.875 127.625 109.177 127.052 106.969 125.906C104.76 124.76 103.094 123.323 101.969 121.594C100.865 119.844 100.312 118.052 100.312 116.219H109.469C109.51 117.344 109.792 118.26 110.312 118.969C110.854 119.677 111.552 120.198 112.406 120.531C113.26 120.844 114.219 121 115.281 121C116.344 121 117.229 120.854 117.938 120.562C118.646 120.271 119.188 119.875 119.562 119.375C119.938 118.854 120.125 118.26 120.125 117.594ZM144.562 100.406V127H134.781V93.1875H143.969L144.562 100.406ZM143.281 108.906L140.844 108.969C140.844 106.427 141.156 104.146 141.781 102.125C142.406 100.104 143.292 98.3854 144.438 96.9688C145.604 95.5312 146.99 94.4375 148.594 93.6875C150.219 92.9375 152.01 92.5625 153.969 92.5625C155.552 92.5625 157 92.7917 158.312 93.25C159.625 93.7083 160.75 94.4479 161.688 95.4688C162.646 96.4688 163.375 97.8021 163.875 99.4688C164.375 101.115 164.625 103.146 164.625 105.562V127H154.812V105.531C154.812 104.115 154.615 103.021 154.219 102.25C153.823 101.479 153.24 100.938 152.469 100.625C151.719 100.312 150.802 100.156 149.719 100.156C148.573 100.156 147.594 100.385 146.781 100.844C145.969 101.281 145.302 101.896 144.781 102.688C144.26 103.479 143.875 104.406 143.625 105.469C143.396 106.531 143.281 107.677 143.281 108.906ZM186.938 127.625C184.25 127.625 181.844 127.198 179.719 126.344C177.594 125.49 175.792 124.312 174.312 122.812C172.854 121.292 171.74 119.542 170.969 117.562C170.198 115.583 169.812 113.469 169.812 111.219V110.031C169.812 107.51 170.167 105.188 170.875 103.062C171.583 100.938 172.615 99.0938 173.969 97.5312C175.344 95.9479 177.031 94.7292 179.031 93.875C181.031 93 183.312 92.5625 185.875 92.5625C188.271 92.5625 190.406 92.9583 192.281 93.75C194.156 94.5208 195.74 95.6354 197.031 97.0938C198.323 98.5312 199.302 100.271 199.969 102.312C200.656 104.333 201 106.604 201 109.125V113.125H173.75V106.844H191.438V106.094C191.438 104.906 191.219 103.865 190.781 102.969C190.365 102.073 189.74 101.385 188.906 100.906C188.094 100.406 187.062 100.156 185.812 100.156C184.625 100.156 183.635 100.406 182.844 100.906C182.052 101.406 181.417 102.115 180.938 103.031C180.479 103.927 180.146 104.979 179.938 106.188C179.729 107.375 179.625 108.656 179.625 110.031V111.219C179.625 112.531 179.802 113.729 180.156 114.812C180.51 115.896 181.031 116.823 181.719 117.594C182.406 118.365 183.24 118.969 184.219 119.406C185.198 119.844 186.312 120.062 187.562 120.062C189.104 120.062 190.573 119.771 191.969 119.188C193.365 118.583 194.573 117.646 195.594 116.375L200.156 121.594C199.469 122.594 198.5 123.562 197.25 124.5C196.021 125.417 194.542 126.167 192.812 126.75C191.083 127.333 189.125 127.625 186.938 127.625ZM215.531 101.062V127H205.781V93.1875H214.938L215.531 101.062ZM225.625 92.9375L225.469 102.031C225.052 101.969 224.51 101.917 223.844 101.875C223.177 101.812 222.604 101.781 222.125 101.781C220.875 101.781 219.792 101.938 218.875 102.25C217.979 102.542 217.229 102.979 216.625 103.562C216.042 104.146 215.604 104.875 215.312 105.75C215.021 106.604 214.875 107.594 214.875 108.719L213.031 107.812C213.031 105.583 213.25 103.542 213.688 101.688C214.125 99.8333 214.76 98.2292 215.594 96.875C216.427 95.5 217.448 94.4375 218.656 93.6875C219.865 92.9375 221.24 92.5625 222.781 92.5625C223.281 92.5625 223.792 92.5938 224.312 92.6562C224.833 92.7188 225.271 92.8125 225.625 92.9375Z" fill="#1C1C1C"/>
<path d="M33 37.9375L29.2445 39.3145L29.2521 39.3354L29.26 39.3561L33 37.9375ZM31.75 36.2188L34.3618 33.1891L31.75 36.2188ZM29.1875 34.6562L27.4258 38.2474L27.4533 38.2609L27.481 38.274L29.1875 34.6562ZM24.8438 33L23.6021 36.8024L23.6238 36.8095L23.6456 36.8163L24.8438 33ZM19 30.75L17.3107 34.3758L17.3354 34.3873L17.3602 34.3985L19 30.75ZM10.6875 23.8438L7.17033 25.7489L7.1805 25.7677L7.19087 25.7863L10.6875 23.8438ZM10.75 13.3438L7.24021 11.4251L10.75 13.3438ZM14.3438 9.34375L16.6729 12.5957L16.6873 12.5854L16.7016 12.5749L14.3438 9.34375ZM19.7812 6.78125L20.8598 10.6331L20.8776 10.6281L20.8953 10.623L19.7812 6.78125ZM35.4375 7.65625L33.7329 11.2748L33.7508 11.2833L33.7688 11.2916L35.4375 7.65625ZM41.375 12.5938L38.0468 14.8126L38.0519 14.8201L38.0569 14.8277L41.375 12.5938ZM43.5 19.9375V23.9375H47.5V19.9375H43.5ZM33.375 19.9375H29.375V23.9375H33.375V19.9375ZM32.5938 16.6875L29.0474 18.5378L29.0717 18.5842L29.0971 18.6301L32.5938 16.6875ZM30.2812 14.4375L28.4064 17.9709L28.4211 17.9787L28.4358 17.9864L30.2812 14.4375ZM22.6562 14.3125L24.2595 17.9771L24.2771 17.9694L24.2946 17.9616L22.6562 14.3125ZM20.375 16.125L17.0606 13.8856L17.0396 13.9167L17.0192 13.9482L20.375 16.125ZM20.1875 20.6562L16.7889 22.7657L16.8319 22.8349L16.8776 22.9023L20.1875 20.6562ZM21.875 22.3125L19.55 25.5674L19.6025 25.6049L19.6562 25.6407L21.875 22.3125ZM28.3438 25.0625L29.5498 21.2487L29.5189 21.2389L29.4879 21.2296L28.3438 25.0625ZM34.8125 27.625L33.0236 31.2027L33.0315 31.2066L33.0394 31.2106L34.8125 27.625ZM42.5 34.8438L38.8261 36.4256L38.8353 36.447L38.8448 36.4683L42.5 34.8438ZM42.3125 45.3125L38.7444 43.5046L38.7347 43.5237L38.7253 43.5428L42.3125 45.3125ZM38.9375 49.3125L41.3228 52.5235L41.3303 52.5179L38.9375 49.3125ZM20.0625 51.75L19.0161 55.6107L19.033 55.6153L19.0499 55.6197L20.0625 51.75ZM14 49L11.7371 52.2984L11.746 52.3045L11.7549 52.3105L14 49ZM9.6875 44.3125L6.18908 46.2518L6.20166 46.2745L6.21453 46.2971L9.6875 44.3125ZM8.09375 37.5V33.5H4.09375V37.5H8.09375ZM18.2812 37.5H22.2812V33.5H18.2812V37.5ZM18.875 41L15.178 42.527L15.1839 42.5415L15.19 42.5559L18.875 41ZM20.5625 43.2812L18.0637 46.4047L18.0851 46.4218L18.1067 46.4387L20.5625 43.2812ZM30.5312 44.2812L32.1558 47.9365L32.1742 47.9283L32.1924 47.92L30.5312 44.2812ZM37.3438 40C37.3438 38.8357 37.1707 37.6544 36.74 36.5189L29.26 39.3561C29.2876 39.4289 29.3438 39.6226 29.3438 40H37.3438ZM36.7555 36.5605C36.2496 35.1806 35.3795 34.0665 34.3618 33.1891L29.1382 39.2484C29.236 39.3326 29.2744 39.3831 29.2807 39.3917C29.2851 39.3978 29.2653 39.3714 29.2445 39.3145L36.7555 36.5605ZM34.3618 33.1891C33.3796 32.3425 32.1716 31.6412 30.894 31.0385L27.481 38.274C28.4117 38.713 28.912 39.0534 29.1382 39.2484L34.3618 33.1891ZM30.9492 31.0651C29.5949 30.4007 27.9375 29.7788 26.0419 29.1837L23.6456 36.8163C25.3334 37.3462 26.5717 37.8284 27.4258 38.2474L30.9492 31.0651ZM26.0854 29.1976C24.1715 28.5726 22.357 27.8733 20.6398 27.1015L17.3602 34.3985C19.3514 35.2933 21.4327 36.094 23.6021 36.8024L26.0854 29.1976ZM20.6893 27.1242C19.1026 26.385 17.7326 25.5497 16.559 24.6312L11.6285 30.9313C13.3299 32.2628 15.2308 33.4067 17.3107 34.3758L20.6893 27.1242ZM16.559 24.6312C15.5153 23.8144 14.7415 22.9045 14.1841 21.9012L7.19087 25.7863C8.30014 27.783 9.79721 29.4981 11.6285 30.9313L16.559 24.6312ZM14.2047 21.9386C13.7596 21.117 13.4688 20.0435 13.4688 18.5938H5.46875C5.46875 21.144 5.99035 23.5705 7.17033 25.7489L14.2047 21.9386ZM13.4688 18.5938C13.4688 17.2662 13.7551 16.1856 14.2598 15.2624L7.24021 11.4251C6.03656 13.6269 5.46875 16.0463 5.46875 18.5938H13.4688ZM14.2598 15.2624C14.8071 14.2613 15.5875 13.373 16.6729 12.5957L12.0146 6.09179C10.0166 7.52279 8.40128 9.30115 7.24021 11.4251L14.2598 15.2624ZM16.7016 12.5749C17.8094 11.7666 19.1757 11.1047 20.8598 10.6331L18.7027 2.92939C16.2202 3.62451 13.9615 4.67094 11.9859 6.11259L16.7016 12.5749ZM20.8953 10.623C22.5664 10.1384 24.4771 9.875 26.6562 9.875V1.875C23.8354 1.875 21.1628 2.2158 18.6672 2.93953L20.8953 10.623ZM26.6562 9.875C29.5143 9.875 31.8396 10.383 33.7329 11.2748L37.1421 4.03765C33.9937 2.55452 30.4648 1.875 26.6562 1.875V9.875ZM33.7688 11.2916C35.703 12.1794 37.08 13.3623 38.0468 14.8126L44.7032 10.3749C42.8367 7.57515 40.2553 5.46645 37.1062 4.02093L33.7688 11.2916ZM38.0569 14.8277C38.9847 16.2057 39.5 17.8583 39.5 19.9375H47.5C47.5 16.4333 46.5986 13.1902 44.6931 10.3598L38.0569 14.8277ZM43.5 15.9375H33.375V23.9375H43.5V15.9375ZM37.375 19.9375C37.375 18.1291 36.9869 16.3587 36.0904 14.7449L29.0971 18.6301C29.2422 18.8913 29.375 19.2876 29.375 19.9375H37.375ZM36.1401 14.8372C35.2277 13.0885 33.8302 11.7744 32.1267 10.8886L28.4358 17.9864C28.8157 18.1839 28.9598 18.3698 29.0474 18.5378L36.1401 14.8372ZM32.1561 10.9041C30.3974 9.9709 28.4232 9.625 26.4375 9.625V17.625C27.5351 17.625 28.1234 17.8208 28.4064 17.9709L32.1561 10.9041ZM26.4375 9.625C24.555 9.625 22.6976 9.90925 21.0179 10.6634L24.2946 17.9616C24.6565 17.7991 25.32 17.625 26.4375 17.625V9.625ZM21.053 10.6479C19.4814 11.3354 18.0744 12.3852 17.0606 13.8856L23.6894 18.3644C23.7173 18.3231 23.8311 18.1646 24.2595 17.9771L21.053 10.6479ZM17.0192 13.9482C16.0998 15.3656 15.625 16.9651 15.625 18.6562H23.625C23.625 18.5141 23.6502 18.426 23.7308 18.3018L17.0192 13.9482ZM15.625 18.6562C15.625 20.1109 16.0104 21.5114 16.7889 22.7657L23.5861 18.5468C23.5877 18.5494 23.5928 18.5581 23.5991 18.5724C23.6055 18.5868 23.6115 18.6032 23.6162 18.6201C23.6267 18.6575 23.625 18.6741 23.625 18.6562H15.625ZM16.8776 22.9023C17.6005 23.9677 18.5352 24.8426 19.55 25.5674L24.2 19.0576C23.7564 18.7408 23.5661 18.5115 23.4974 18.4102L16.8776 22.9023ZM19.6562 25.6407C20.6665 26.3142 21.8179 26.9056 23.0664 27.4339L26.1836 20.0661C25.2654 19.6777 24.5835 19.3108 24.0938 18.9843L19.6562 25.6407ZM23.0664 27.4339C24.3124 27.961 25.6947 28.4461 27.1996 28.8954L29.4879 21.2296C28.2012 20.8455 27.1043 20.4557 26.1836 20.0661L23.0664 27.4339ZM27.1377 28.8763C29.4168 29.5971 31.3719 30.3768 33.0236 31.2027L36.6014 24.0473C34.5031 22.9982 32.1457 22.0696 29.5498 21.2487L27.1377 28.8763ZM33.0394 31.2106C34.6624 32.0131 35.9247 32.8728 36.8866 33.7572L42.3009 27.8678C40.6795 26.3772 38.7543 25.1119 36.5856 24.0394L33.0394 31.2106ZM36.8866 33.7572C37.7949 34.5923 38.4192 35.4805 38.8261 36.4256L46.1739 33.2619C45.2892 31.207 43.9759 29.4077 42.3009 27.8678L36.8866 33.7572ZM38.8448 36.4683C39.2515 37.3836 39.5 38.5152 39.5 39.9375H47.5C47.5 37.5682 47.0818 35.3039 46.1552 33.2192L38.8448 36.4683ZM39.5 39.9375C39.5 41.427 39.2114 42.5829 38.7444 43.5046L45.8806 47.1204C46.997 44.9171 47.5 42.4897 47.5 39.9375H39.5ZM38.7253 43.5428C38.2503 44.5056 37.5489 45.3575 36.5447 46.1071L41.3303 52.5179C43.2844 51.0592 44.833 49.2444 45.8997 47.0822L38.7253 43.5428ZM36.5522 46.1015C35.5511 46.8452 34.2674 47.4724 32.625 47.9249L34.75 55.6376C37.1909 54.9651 39.4072 53.9465 41.3228 52.5235L36.5522 46.1015ZM32.625 47.9249C30.9878 48.376 29.0716 48.625 26.8438 48.625V56.625C29.6576 56.625 32.3039 56.3115 34.75 55.6376L32.625 47.9249ZM26.8438 48.625C24.8957 48.625 22.9755 48.3776 21.0751 47.8803L19.0499 55.6197C21.6078 56.2891 24.2085 56.625 26.8438 56.625V48.625ZM21.1089 47.8893C19.2835 47.3945 17.6716 46.6569 16.2451 45.6895L11.7549 52.3105C13.9534 53.8015 16.3832 54.8971 19.0161 55.6107L21.1089 47.8893ZM16.2629 45.7016C14.971 44.8153 13.9462 43.7029 13.1605 42.3279L6.21453 46.2971C7.5955 48.7138 9.44568 50.7264 11.7371 52.2984L16.2629 45.7016ZM13.1859 42.3732C12.5118 41.157 12.0938 39.5805 12.0938 37.5H4.09375C4.09375 40.6695 4.73824 43.6346 6.18908 46.2518L13.1859 42.3732ZM8.09375 41.5H18.2812V33.5H8.09375V41.5ZM14.2812 37.5C14.2812 39.2372 14.5284 40.9545 15.178 42.527L22.572 39.473C22.4299 39.1288 22.2812 38.5128 22.2812 37.5H14.2812ZM15.19 42.5559C15.8209 44.0501 16.7691 45.369 18.0637 46.4047L23.0613 40.1578C22.8976 40.0268 22.7208 39.8249 22.56 39.4441L15.19 42.5559ZM18.1067 46.4387C19.3739 47.4242 20.8255 48.0627 22.3651 48.4249L24.1974 40.6376C23.612 40.4998 23.2511 40.3049 23.0183 40.1238L18.1067 46.4387ZM22.3651 48.4249C23.7811 48.7581 25.2827 48.9062 26.8438 48.9062V40.9062C25.7798 40.9062 24.9064 40.8044 24.1974 40.6376L22.3651 48.4249ZM26.8438 48.9062C28.6778 48.9062 30.5215 48.6628 32.1558 47.9365L28.9067 40.626C28.666 40.733 28.0514 40.9062 26.8438 40.9062V48.9062ZM32.1924 47.92C33.73 47.218 35.1183 46.1421 36.0694 44.5858L29.2431 40.4142C29.2516 40.4003 29.2506 40.4097 29.2117 40.4423C29.1685 40.4785 29.0668 40.5527 28.8701 40.6425L32.1924 47.92ZM36.0694 44.5858C36.9284 43.1801 37.3438 41.6196 37.3438 40H29.3438C29.3438 40.2137 29.3008 40.3199 29.2431 40.4142L36.0694 44.5858ZM59.2812 18.1875H63.2812V14.1875H59.2812V18.1875ZM59.2812 52V56H63.2812V52H59.2812ZM49.5 52H45.5V56H49.5V52ZM49.5 18.1875V14.1875H45.5V18.1875H49.5ZM50.4062 5.96875L53.0752 8.94809L53.0923 8.93283L53.1091 8.91737L50.4062 5.96875ZM58.2812 5.96875L55.5784 8.91737L55.6103 8.94666L55.6429 8.97525L58.2812 5.96875ZM58.2812 12.9062L60.9502 15.8856L60.9538 15.8824L58.2812 12.9062ZM50.4062 12.9062L47.7034 15.8549L47.7202 15.8703L47.7373 15.8856L50.4062 12.9062ZM55.2812 18.1875V52H63.2812V18.1875H55.2812ZM59.2812 48H49.5V56H59.2812V48ZM53.5 52V18.1875H45.5V52H53.5ZM49.5 22.1875H59.2812V14.1875H49.5V22.1875ZM52.9062 9.4375C52.9062 9.20724 52.9449 9.11346 52.9527 9.09546C52.9582 9.08272 52.9772 9.03591 53.0752 8.94809L47.7373 2.98941C45.8388 4.69013 44.9062 6.95468 44.9062 9.4375H52.9062ZM53.1091 8.91737C53.2304 8.80619 53.5102 8.59375 54.3438 8.59375V0.59375C51.9273 0.59375 49.5821 1.29798 47.7034 3.02013L53.1091 8.91737ZM54.3438 8.59375C55.1773 8.59375 55.4571 8.80619 55.5784 8.91737L60.9841 3.02013C59.1054 1.29798 56.7602 0.59375 54.3438 0.59375V8.59375ZM55.6429 8.97525C55.749 9.06839 55.7674 9.11649 55.7704 9.12318C55.7752 9.13418 55.8125 9.21808 55.8125 9.4375H63.8125C63.8125 6.92589 62.8475 4.65404 60.9196 2.96225L55.6429 8.97525ZM55.8125 9.4375C55.8125 9.63756 55.7785 9.71784 55.7704 9.73619C55.763 9.75285 55.7341 9.81753 55.6087 9.93006L60.9538 15.8824C62.8361 14.1922 63.8125 11.9463 63.8125 9.4375H55.8125ZM55.6123 9.92691C55.4932 10.0335 55.2013 10.25 54.3438 10.25V18.25C56.7362 18.25 59.0693 17.5706 60.9502 15.8856L55.6123 9.92691ZM54.3438 10.25C53.4862 10.25 53.1943 10.0335 53.0752 9.92691L47.7373 15.8856C49.6182 17.5706 51.9513 18.25 54.3438 18.25V10.25ZM53.1091 9.95763C52.9918 9.85008 52.9624 9.78645 52.9527 9.76392C52.9418 9.73869 52.9062 9.64857 52.9062 9.4375H44.9062C44.9062 11.9177 45.8501 14.156 47.7034 15.8549L53.1091 9.95763ZM76.0938 25.2812H80.0938V25.1141L80.0798 24.9476L76.0938 25.2812ZM76.0938 52V56H80.0938V52H76.0938ZM66.3438 52H62.3438V56H66.3438V52ZM66.3438 18.1875V14.1875H62.3438V18.1875H66.3438ZM75.5 18.1875L79.4861 17.8539L79.1792 14.1875H75.5V18.1875ZM74.8438 33.9062L74.945 37.905L78.8438 37.8063V33.9062H74.8438ZM72.375 33.9688H68.375V38.0713L72.4762 37.9675L72.375 33.9688ZM73.2188 27.4375L69.3787 26.3175L69.3749 26.3307L69.3711 26.344L73.2188 27.4375ZM79.8438 18.7812L78.0731 15.1945L78.064 15.199L78.0549 15.2035L79.8438 18.7812ZM89.625 18.25L88.2275 21.9979L88.2555 22.0084L88.2837 22.0184L89.625 18.25ZM92.7812 20.3438L89.8273 23.0408L89.8579 23.0744L89.8893 23.1072L92.7812 20.3438ZM94.8438 24.0312L91.0286 25.2333L91.031 25.2409L91.0334 25.2484L94.8438 24.0312ZM95.5625 52V56H99.5625V52H95.5625ZM85.8125 52H81.8125V56H85.8125V52ZM85.25 27.2188L81.5987 28.8522L81.625 28.9108L81.6531 28.9686L85.25 27.2188ZM78.4375 25.8438L80.3722 29.3447L80.3876 29.3363L80.4028 29.3277L78.4375 25.8438ZM75.2188 30.4688L71.3427 29.4807L71.3336 29.5166L71.3251 29.5526L75.2188 30.4688ZM94.5625 33.4062L94.8847 37.3933L98.5625 37.0961V33.4062H94.5625ZM91.4688 33.6562H87.4688V37.9925L91.7909 37.6433L91.4688 33.6562ZM94.7188 22.1875L97.9132 24.5949L97.9215 24.5839L97.9297 24.5728L94.7188 22.1875ZM98.75 18.7812L96.9611 15.2035L96.9519 15.2082L96.9426 15.2129L98.75 18.7812ZM108.719 18.25L107.381 22.0197L107.391 22.0231L107.4 22.0264L108.719 18.25ZM112.094 20.4688L109.148 23.1744L109.162 23.1905L109.177 23.2065L112.094 20.4688ZM114.312 24.5L110.495 25.6931L110.497 25.7L110.499 25.7068L114.312 24.5ZM115.094 52V56H119.094V52H115.094ZM105.281 52H101.281V56H105.281V52ZM104.719 27.1875L101.084 28.8575L101.102 28.8976L101.122 28.9374L104.719 27.1875ZM103.156 25.5938L101.553 29.2584L101.573 29.2673L101.594 29.2761L103.156 25.5938ZM98.0312 25.8125L99.9333 29.3313L99.9697 29.3117L100.006 29.2912L98.0312 25.8125ZM96.0938 27.5625L99.3487 29.8875L99.3641 29.8659L99.3792 29.8441L96.0938 27.5625ZM72.0938 25.2812V52H80.0938V25.2812H72.0938ZM76.0938 48H66.3438V56H76.0938V48ZM70.3438 52V18.1875H62.3438V52H70.3438ZM66.3438 22.1875H75.5V14.1875H66.3438V22.1875ZM71.5139 18.5211L72.1077 25.6149L80.0798 24.9476L79.4861 17.8539L71.5139 18.5211ZM74.7425 29.9075L72.2738 29.97L72.4762 37.9675L74.945 37.905L74.7425 29.9075ZM76.375 33.9688C76.375 31.9079 76.6191 30.1046 77.0664 28.531L69.3711 26.344C68.6934 28.7287 68.375 31.2796 68.375 33.9688H76.375ZM77.0588 28.5575C77.5253 26.9577 78.1714 25.6618 78.9554 24.6115L72.5446 19.826C71.1202 21.7341 70.0788 23.9173 69.3787 26.3175L77.0588 28.5575ZM78.9554 24.6115C79.6925 23.6241 80.5749 22.8878 81.6326 22.359L78.0549 15.2035C75.8626 16.2997 74.0159 17.855 72.5446 19.826L78.9554 24.6115ZM81.6144 22.368C82.6237 21.8697 83.896 21.5625 85.5312 21.5625V13.5625C82.8748 13.5625 80.3554 14.0678 78.0731 15.1945L81.6144 22.368ZM85.5312 21.5625C86.6217 21.5625 87.5046 21.7284 88.2275 21.9979L91.0225 14.5021C89.287 13.855 87.4408 13.5625 85.5312 13.5625V21.5625ZM88.2837 22.0184C88.8992 22.2375 89.3965 22.569 89.8273 23.0408L95.7352 17.6467C94.416 16.2018 92.8091 15.1375 90.9663 14.4816L88.2837 22.0184ZM89.8893 23.1072C90.2759 23.5117 90.6921 24.1651 91.0286 25.2333L98.6589 22.8292C98.0371 20.8558 97.0783 19.0508 95.6732 17.5803L89.8893 23.1072ZM91.0334 25.2484C91.3527 26.2479 91.5625 27.6167 91.5625 29.4375H99.5625C99.5625 27.05 99.2931 24.8146 98.6541 22.8141L91.0334 25.2484ZM91.5625 29.4375V52H99.5625V29.4375H91.5625ZM95.5625 48H85.8125V56H95.5625V48ZM89.8125 52V30.625H81.8125V52H89.8125ZM89.8125 30.625C89.8125 28.9085 89.6168 27.0514 88.8469 25.4689L81.6531 28.9686C81.6251 28.9112 81.6744 28.992 81.7253 29.3002C81.7747 29.5992 81.8125 30.0317 81.8125 30.625H89.8125ZM88.9013 25.5853C88.2057 24.0304 87.0162 22.6609 85.2497 21.9114L82.1253 29.2761C81.9686 29.2096 81.822 29.1073 81.7104 28.9912C81.606 28.8826 81.5815 28.8136 81.5987 28.8522L88.9013 25.5853ZM85.2497 21.9114C83.9495 21.3598 82.5681 21.1562 81.2188 21.1562V29.1562C81.7861 29.1562 82.0505 29.2443 82.1253 29.2761L85.2497 21.9114ZM81.2188 21.1562C79.5705 21.1562 77.952 21.5251 76.4722 22.3598L80.4028 29.3277C80.548 29.2458 80.7837 29.1562 81.2188 29.1562V21.1562ZM76.5028 22.3428C75.132 23.1003 74.0084 24.1541 73.1363 25.4288L79.7387 29.9462C79.9499 29.6376 80.1597 29.4622 80.3722 29.3447L76.5028 22.3428ZM73.1363 25.4288C72.2951 26.6581 71.7129 28.0284 71.3427 29.4807L79.0948 31.4568C79.2663 30.7841 79.4965 30.3002 79.7387 29.9462L73.1363 25.4288ZM71.3251 29.5526C70.9962 30.9503 70.8438 32.4067 70.8438 33.9062H78.8438C78.8438 32.9475 78.9413 32.1122 79.1124 31.3849L71.3251 29.5526ZM94.2403 29.4192L91.1466 29.6692L91.7909 37.6433L94.8847 37.3933L94.2403 29.4192ZM95.4688 33.6562C95.4688 31.6797 95.7022 29.9176 96.1365 28.3476L88.426 26.2149C87.7769 28.5616 87.4688 31.0495 87.4688 33.6562H95.4688ZM96.1365 28.3476C96.5613 26.8118 97.1689 25.5825 97.9132 24.5949L91.5243 19.7801C90.1019 21.6675 89.0845 23.834 88.426 26.2149L96.1365 28.3476ZM97.9297 24.5728C98.6472 23.607 99.5123 22.8789 100.557 22.3496L96.9426 15.2129C94.7793 16.3086 92.957 17.8513 91.5078 19.8022L97.9297 24.5728ZM100.539 22.359C101.516 21.8702 102.77 21.5625 104.406 21.5625V13.5625C101.751 13.5625 99.2336 14.0673 96.9611 15.2035L100.539 22.359ZM104.406 21.5625C105.603 21.5625 106.58 21.7354 107.381 22.0197L110.056 14.4803C108.274 13.8479 106.376 13.5625 104.406 13.5625V21.5625ZM107.4 22.0264C108.092 22.268 108.657 22.6407 109.148 23.1744L115.04 17.7631C113.655 16.2552 111.97 15.1486 110.037 14.4736L107.4 22.0264ZM109.177 23.2065C109.633 23.692 110.11 24.4638 110.495 25.6931L118.13 23.3069C117.473 21.2028 116.471 19.2871 115.01 17.731L109.177 23.2065ZM110.499 25.7068C110.859 26.8437 111.094 28.4298 111.094 30.5625H119.094C119.094 27.9036 118.808 25.4479 118.126 23.2932L110.499 25.7068ZM111.094 30.5625V52H119.094V30.5625H111.094ZM115.094 48H105.281V56H115.094V48ZM109.281 52V30.5625H101.281V52H109.281ZM109.281 30.5625C109.281 28.8565 109.083 27.0148 108.316 25.4376L101.122 28.9374C101.096 28.8849 101.145 28.9665 101.195 29.267C101.244 29.5593 101.281 29.9823 101.281 30.5625H109.281ZM108.353 25.5175C107.644 23.9732 106.449 22.6455 104.718 21.9114L101.594 29.2761C101.454 29.2168 101.316 29.1235 101.206 29.0112C101.102 28.9051 101.073 28.8329 101.084 28.8575L108.353 25.5175ZM104.76 21.9291C103.464 21.3623 102.087 21.1562 100.75 21.1562V29.1562C101.288 29.1562 101.515 29.2418 101.553 29.2584L104.76 21.9291ZM100.75 21.1562C99.1382 21.1562 97.5275 21.499 96.0568 22.3338L100.006 29.2912C100.077 29.251 100.278 29.1562 100.75 29.1562V21.1562ZM96.1292 22.2937C94.7831 23.0213 93.6713 24.0381 92.8083 25.2809L99.3792 29.8441C99.5578 29.5869 99.7377 29.4371 99.9333 29.3313L96.1292 22.2937ZM92.8388 25.2375C91.9859 26.4317 91.4106 27.7716 91.0569 29.1861L98.8181 31.1264C98.9644 30.5409 99.1599 30.1517 99.3487 29.8875L92.8388 25.2375ZM91.0569 29.1861C90.718 30.5418 90.5625 31.9547 90.5625 33.4062H98.5625C98.5625 32.5245 98.657 31.7707 98.8181 31.1264L91.0569 29.1861ZM121.281 27.9375L125.068 29.2251L125.072 29.2137L121.281 27.9375ZM129.469 18.875L131.04 22.5536L131.056 22.5467L131.072 22.5396L129.469 18.875ZM143.281 18.875L141.678 22.5396L141.701 22.5497L141.724 22.5594L143.281 18.875ZM151.5 27.9375L147.709 29.2137L147.713 29.2251L151.5 27.9375ZM151.5 42.2812L155.287 43.5689L155.291 43.5574L151.5 42.2812ZM148.375 47.75L151.36 50.4125L151.369 50.4025L151.378 50.3925L148.375 47.75ZM124.406 47.75L121.403 50.3925L121.412 50.4025L121.421 50.4125L124.406 47.75ZM121.281 42.2812L117.49 43.5574L117.494 43.5689L121.281 42.2812ZM130.312 39.1875L126.375 39.8907L126.381 39.9246L126.388 39.9585L130.312 39.1875ZM133.375 44.3125L131.279 47.7191L131.329 47.7504L131.381 47.7801L133.375 44.3125ZM139.406 44.3125L141.438 47.758L141.471 47.7389L141.503 47.7191L139.406 44.3125ZM142.438 39.1875L138.513 38.4165L138.506 38.4504L138.5 38.4843L142.438 39.1875ZM142.438 31.0938L138.5 31.7969L138.507 31.8376L138.515 31.8782L142.438 31.0938ZM139.375 25.9062L137.279 29.3129L137.298 29.3247L137.317 29.3362L139.375 25.9062ZM130.312 31.0938L126.388 30.3228L126.382 30.3505L126.377 30.3782L130.312 31.0938ZM124.219 35.4375V34.7812H116.219V35.4375H124.219ZM124.219 34.7812C124.219 32.6852 124.518 30.8449 125.068 29.2251L117.494 26.6499C116.628 29.1968 116.219 31.9189 116.219 34.7812H124.219ZM125.072 29.2137C125.621 27.5825 126.402 26.2405 127.391 25.1312L121.421 19.8063C119.66 21.7803 118.358 24.0841 117.49 26.6613L125.072 29.2137ZM127.391 25.1312C128.355 24.0511 129.551 23.1894 131.04 22.5536L127.898 15.1964C125.387 16.2689 123.208 17.8031 121.421 19.8063L127.391 25.1312ZM131.072 22.5396C132.482 21.9226 134.213 21.5625 136.344 21.5625V13.5625C133.308 13.5625 130.455 14.0774 127.865 15.2104L131.072 22.5396ZM136.344 21.5625C138.526 21.5625 140.275 21.9259 141.678 22.5396L144.885 15.2104C142.287 14.0741 139.411 13.5625 136.344 13.5625V21.5625ZM141.724 22.5594C143.234 23.1975 144.433 24.0589 145.39 25.1312L151.36 19.8063C149.567 17.7952 147.371 16.2608 144.839 15.1906L141.724 22.5594ZM145.39 25.1312C146.379 26.2405 147.16 27.5825 147.709 29.2137L155.291 26.6613C154.423 24.0841 153.121 21.7803 151.36 19.8063L145.39 25.1312ZM147.713 29.2251C148.264 30.8449 148.562 32.6852 148.562 34.7812H156.562C156.562 31.9189 156.153 29.1968 155.287 26.6499L147.713 29.2251ZM148.562 34.7812V35.4375H156.562V34.7812H148.562ZM148.562 35.4375C148.562 37.5081 148.265 39.3538 147.709 41.0051L155.291 43.5574C156.152 41.0004 156.562 38.2835 156.562 35.4375H148.562ZM147.713 40.9936C147.164 42.6071 146.379 43.9629 145.372 45.1075L151.378 50.3925C153.121 48.4121 154.419 46.1221 155.287 43.5689L147.713 40.9936ZM145.39 45.0875C144.426 46.1677 143.23 47.0293 141.741 47.6652L144.884 55.0223C147.395 53.9499 149.574 52.4156 151.36 50.4125L145.39 45.0875ZM141.741 47.6652C140.326 48.2697 138.575 48.625 136.406 48.625V56.625C139.446 56.625 142.299 56.1261 144.884 55.0223L141.741 47.6652ZM136.406 48.625C134.264 48.625 132.506 48.2717 131.057 47.6594L127.943 55.0281C130.536 56.1242 133.381 56.625 136.406 56.625V48.625ZM131.057 47.6594C129.548 47.0213 128.348 46.1598 127.391 45.0875L121.421 50.4125C123.215 52.4235 125.411 53.9579 127.943 55.0281L131.057 47.6594ZM127.409 45.1075C126.402 43.9629 125.617 42.6071 125.068 40.9936L117.494 43.5689C118.362 46.1221 119.661 48.4121 121.403 50.3925L127.409 45.1075ZM125.072 41.0051C124.516 39.3538 124.219 37.5081 124.219 35.4375H116.219C116.219 38.2835 116.63 41.0004 117.49 43.5574L125.072 41.0051ZM126 34.7812V35.4375H134V34.7812H126ZM126 35.4375C126 36.9779 126.12 38.4652 126.375 39.8907L134.25 38.4843C134.088 37.5764 134 36.5638 134 35.4375H126ZM126.388 39.9585C126.686 41.4768 127.183 42.9214 127.933 44.2346L134.879 40.2654C134.63 39.8286 134.398 39.2315 134.237 38.4165L126.388 39.9585ZM127.933 44.2346C128.746 45.6575 129.863 46.848 131.279 47.7191L135.471 40.9059C135.262 40.777 135.066 40.5925 134.879 40.2654L127.933 44.2346ZM131.381 47.7801C132.948 48.6813 134.682 49.0312 136.406 49.0312V41.0312C135.755 41.0312 135.468 40.902 135.369 40.8449L131.381 47.7801ZM136.406 49.0312C138.126 49.0312 139.87 48.683 141.438 47.758L137.374 40.867C137.318 40.9004 137.062 41.0312 136.406 41.0312V49.0312ZM141.503 47.7191C142.918 46.848 144.035 45.6575 144.848 44.2346L137.902 40.2654C137.715 40.5925 137.519 40.777 137.31 40.9059L141.503 47.7191ZM144.848 44.2346C145.611 42.8991 146.1 41.4304 146.375 39.8907L138.5 38.4843C138.358 39.2779 138.139 39.8509 137.902 40.2654L144.848 44.2346ZM146.362 39.9585C146.647 38.5094 146.781 36.999 146.781 35.4375H138.781C138.781 36.5427 138.686 37.5323 138.513 38.4165L146.362 39.9585ZM146.781 35.4375V34.7812H138.781V35.4375H146.781ZM146.781 34.7812C146.781 33.237 146.647 31.7427 146.36 30.3093L138.515 31.8782C138.687 32.7364 138.781 33.7005 138.781 34.7812H146.781ZM146.375 30.3906C146.101 28.8533 145.615 27.3892 144.868 26.0505L137.882 29.9495C138.135 30.4025 138.358 31.0009 138.5 31.7969L146.375 30.3906ZM144.868 26.0505C144.047 24.5796 142.899 23.3562 141.433 22.4763L137.317 29.3362C137.517 29.4563 137.703 29.6287 137.882 29.9495L144.868 26.0505ZM141.471 22.4996C139.881 21.5207 138.097 21.1562 136.344 21.1562V29.1562C137.007 29.1562 137.244 29.2918 137.279 29.3129L141.471 22.4996ZM136.344 21.1562C134.602 21.1562 132.849 21.5334 131.279 22.4996L135.471 29.3129C135.526 29.2791 135.752 29.1562 136.344 29.1562V21.1562ZM131.279 22.4996C129.84 23.3848 128.721 24.604 127.913 26.0505L134.899 29.9495C135.092 29.6043 135.285 29.4277 135.471 29.3129L131.279 22.4996ZM127.913 26.0505C127.179 27.3671 126.685 28.8072 126.388 30.3228L134.237 31.8647C134.398 31.0469 134.634 30.4246 134.899 29.9495L127.913 26.0505ZM126.377 30.3782C126.121 31.7877 126 33.2585 126 34.7812H134C134 33.679 134.088 32.6915 134.248 31.8093L126.377 30.3782ZM167.25 25.4062H171.25V25.242L171.237 25.0784L167.25 25.4062ZM167.25 52V56H171.25V52H167.25ZM157.469 52H153.469V56H157.469V52ZM157.469 18.1875V14.1875H153.469V18.1875H157.469ZM166.656 18.1875L170.643 17.8596L170.341 14.1875H166.656V18.1875ZM165.969 33.9062L166.071 37.9049L169.969 37.805V33.9062H165.969ZM163.531 33.9688H159.531V38.0726L163.634 37.9674L163.531 33.9688ZM167.125 21.9688L164.019 19.4481L164.015 19.4533L167.125 21.9688ZM171.281 18.6875L169.605 15.0557L169.596 15.0598L169.587 15.064L171.281 18.6875ZM184.375 20.4688L181.429 23.1744L181.458 23.2057L181.487 23.2364L184.375 20.4688ZM186.562 24.4688L182.731 25.6181L182.735 25.6315L186.562 24.4688ZM187.312 52V56H191.312V52H187.312ZM177.5 52H173.5V56H177.5V52ZM175.156 25.625L173.618 29.3173L173.636 29.3247L173.653 29.332L175.156 25.625ZM169.469 25.8438L171.365 29.3656L171.4 29.347L171.434 29.3277L169.469 25.8438ZM166.312 30.4688L162.419 29.5526L162.41 29.5889L162.402 29.6254L166.312 30.4688ZM163.25 25.4062V52H171.25V25.4062H163.25ZM167.25 48H157.469V56H167.25V48ZM161.469 52V18.1875H153.469V52H161.469ZM157.469 22.1875H166.656V14.1875H157.469V22.1875ZM162.67 18.5154L163.263 25.7341L171.237 25.0784L170.643 17.8596L162.67 18.5154ZM165.866 29.9076L163.429 29.9701L163.634 37.9674L166.071 37.9049L165.866 29.9076ZM167.531 33.9688C167.531 31.7497 167.805 29.8769 168.29 28.3069L160.647 25.9431C159.883 28.4148 159.531 31.1044 159.531 33.9688H167.531ZM168.29 28.3069C168.789 26.6946 169.456 25.4474 170.235 24.4842L164.015 19.4533C162.502 21.3235 161.399 23.5137 160.647 25.9431L168.29 28.3069ZM170.231 24.4894C171.034 23.4996 171.944 22.7932 172.975 22.311L169.587 15.064C167.41 16.0818 165.549 17.5629 164.019 19.4481L170.231 24.4894ZM172.957 22.3193C174.009 21.834 175.222 21.5625 176.656 21.5625V13.5625C174.174 13.5625 171.803 14.041 169.605 15.0557L172.957 22.3193ZM176.656 21.5625C177.852 21.5625 178.847 21.7351 179.681 22.0264L182.319 14.4736C180.528 13.8483 178.627 13.5625 176.656 13.5625V21.5625ZM179.681 22.0264C180.373 22.268 180.939 22.6407 181.429 23.1744L187.321 17.7631C185.936 16.2552 184.252 15.1486 182.319 14.4736L179.681 22.0264ZM181.487 23.2364C181.909 23.6771 182.368 24.4061 182.731 25.6181L190.394 23.3194C189.757 21.1981 188.757 19.2604 187.263 17.7011L181.487 23.2364ZM182.735 25.6315C183.085 26.7822 183.312 28.3936 183.312 30.5625H191.312C191.312 27.898 191.04 25.447 190.39 23.306L182.735 25.6315ZM183.312 30.5625V52H191.312V30.5625H183.312ZM187.312 48H177.5V56H187.312V48ZM181.5 52V30.5312H173.5V52H181.5ZM181.5 30.5312C181.5 28.8366 181.279 27.0086 180.465 25.4228L173.348 29.0772C173.323 29.0287 173.368 29.0983 173.415 29.3607C173.462 29.6189 173.5 30.0003 173.5 30.5312H181.5ZM180.465 25.4228C179.651 23.8382 178.358 22.6067 176.659 21.918L173.653 29.332C173.609 29.3141 173.53 29.2711 173.45 29.1968C173.372 29.1242 173.344 29.069 173.348 29.0772L180.465 25.4228ZM176.695 21.9327C175.324 21.3616 173.851 21.1562 172.406 21.1562V29.1562C173.128 29.1562 173.488 29.2634 173.618 29.3173L176.695 21.9327ZM172.406 21.1562C170.728 21.1562 169.038 21.494 167.503 22.3598L171.434 29.3277C171.524 29.2768 171.793 29.1562 172.406 29.1562V21.1562ZM167.572 22.3219C166.16 23.0825 165.002 24.1587 164.127 25.489L170.81 29.886C170.977 29.6329 171.153 29.48 171.365 29.3656L167.572 22.3219ZM164.127 25.489C163.313 26.7271 162.76 28.1019 162.419 29.5526L170.206 31.3849C170.365 30.7106 170.583 30.2313 170.81 29.886L164.127 25.489ZM162.402 29.6254C162.106 30.9983 161.969 32.4298 161.969 33.9062H169.969C169.969 32.9244 170.06 32.0642 170.223 31.3121L162.402 29.6254ZM19.9375 81.5H23.9375V77.5H19.9375V81.5ZM19.9375 127V131H23.9375V127H19.9375ZM9.75 127H5.75V131H9.75V127ZM9.75 81.5V77.5H5.75V81.5H9.75ZM47.125 81.5L50.2745 83.9659L55.3371 77.5H47.125V81.5ZM29.3125 104.25L32.253 106.962L32.3624 106.843L32.462 106.716L29.3125 104.25ZM18.9375 115.5L15.0112 116.265L16.5214 124.02L21.878 118.212L18.9375 115.5ZM17.0938 106.031L13.8129 103.743L12.8437 105.133L13.1675 106.796L17.0938 106.031ZM23.9375 96.2188L20.7008 93.8685L20.6784 93.8993L20.6567 93.9305L23.9375 96.2188ZM34.625 81.5V77.5H32.5862L31.3883 79.1498L34.625 81.5ZM35.3125 127L31.8894 129.069L33.0565 131H35.3125V127ZM22.75 106.219L20.2934 103.062L17.4876 105.246L19.3269 108.288L22.75 106.219ZM30.5 100.188L33.8853 98.0569L31.5312 94.3164L28.0434 97.0308L30.5 100.188ZM47.375 127V131H54.6188L50.7603 124.869L47.375 127ZM15.9375 81.5V127H23.9375V81.5H15.9375ZM19.9375 123H9.75V131H19.9375V123ZM13.75 127V81.5H5.75V127H13.75ZM9.75 85.5H19.9375V77.5H9.75V85.5ZM43.9755 79.0341L26.163 101.784L32.462 106.716L50.2745 83.9659L43.9755 79.0341ZM26.372 101.538L15.997 112.788L21.878 118.212L32.253 106.962L26.372 101.538ZM22.8638 114.735L21.02 105.267L13.1675 106.796L15.0112 116.265L22.8638 114.735ZM20.3746 108.319L27.2183 98.507L20.6567 93.9305L13.8129 103.743L20.3746 108.319ZM27.1742 98.569L37.8617 83.8502L31.3883 79.1498L20.7008 93.8685L27.1742 98.569ZM34.625 85.5H47.125V77.5H34.625V85.5ZM38.7356 124.931L26.1731 104.149L19.3269 108.288L31.8894 129.069L38.7356 124.931ZM25.2066 109.375L32.9566 103.344L28.0434 97.0308L20.2934 103.062L25.2066 109.375ZM27.1147 102.318L43.9897 129.131L50.7603 124.869L33.8853 98.0569L27.1147 102.318ZM47.375 123H35.3125V131H47.375V123ZM60.3438 93.1875H64.3438V89.1875H60.3438V93.1875ZM60.3438 127V131H64.3438V127H60.3438ZM50.5625 127H46.5625V131H50.5625V127ZM50.5625 93.1875V89.1875H46.5625V93.1875H50.5625ZM51.4688 80.9688L54.1377 83.9481L54.1548 83.9328L54.1716 83.9174L51.4688 80.9688ZM59.3438 80.9688L56.6409 83.9174L56.6728 83.9467L56.7054 83.9753L59.3438 80.9688ZM59.3438 87.9062L62.0127 90.8856L62.0163 90.8824L59.3438 87.9062ZM51.4688 87.9062L48.7659 90.8549L48.7827 90.8703L48.7998 90.8856L51.4688 87.9062ZM56.3438 93.1875V127H64.3438V93.1875H56.3438ZM60.3438 123H50.5625V131H60.3438V123ZM54.5625 127V93.1875H46.5625V127H54.5625ZM50.5625 97.1875H60.3438V89.1875H50.5625V97.1875ZM53.9688 84.4375C53.9688 84.2072 54.0074 84.1135 54.0152 84.0955C54.0207 84.0827 54.0397 84.0359 54.1377 83.9481L48.7998 77.9894C46.9013 79.6901 45.9688 81.9547 45.9688 84.4375H53.9688ZM54.1716 83.9174C54.2929 83.8062 54.5727 83.5938 55.4062 83.5938V75.5938C52.9898 75.5938 50.6446 76.298 48.7659 78.0201L54.1716 83.9174ZM55.4062 83.5938C56.2398 83.5938 56.5196 83.8062 56.6409 83.9174L62.0466 78.0201C60.1679 76.298 57.8227 75.5938 55.4062 75.5938V83.5938ZM56.7054 83.9753C56.8115 84.0684 56.8299 84.1165 56.8329 84.1232C56.8377 84.1342 56.875 84.2181 56.875 84.4375H64.875C64.875 81.9259 63.91 79.654 61.9821 77.9622L56.7054 83.9753ZM56.875 84.4375C56.875 84.6376 56.841 84.7178 56.8329 84.7362C56.8255 84.7528 56.7966 84.8175 56.6712 84.9301L62.0163 90.8824C63.8986 89.1922 64.875 86.9463 64.875 84.4375H56.875ZM56.6748 84.9269C56.5557 85.0335 56.2638 85.25 55.4062 85.25V93.25C57.7987 93.25 60.1318 92.5706 62.0127 90.8856L56.6748 84.9269ZM55.4062 85.25C54.5487 85.25 54.2568 85.0335 54.1377 84.9269L48.7998 90.8856C50.6807 92.5706 53.0138 93.25 55.4062 93.25V85.25ZM54.1716 84.9576C54.0543 84.8501 54.0249 84.7865 54.0152 84.7639C54.0043 84.7387 53.9688 84.6486 53.9688 84.4375H45.9688C45.9688 86.9177 46.9126 89.156 48.7659 90.8549L54.1716 84.9576ZM70.6875 122.812L67.8004 125.581L67.8197 125.601L67.8394 125.621L70.6875 122.812ZM70.3438 97.5312L67.3236 94.9085L67.321 94.9115L70.3438 97.5312ZM75.4062 93.875L76.9773 97.5536L76.9934 97.5467L77.0095 97.5396L75.4062 93.875ZM88.6562 93.75L87.1004 97.435L87.1178 97.4424L87.1353 97.4496L88.6562 93.75ZM93.4062 97.0938L90.4119 99.7459L90.4214 99.7566L90.4309 99.7672L93.4062 97.0938ZM96.3438 102.312L92.5413 103.554L92.549 103.578L92.5569 103.601L96.3438 102.312ZM97.375 113.125V117.125H101.375V113.125H97.375ZM70.125 113.125H66.125V117.125H70.125V113.125ZM70.125 106.844V102.844H66.125V106.844H70.125ZM87.8125 106.844V110.844H91.8125V106.844H87.8125ZM87.1562 102.969L83.5294 104.656L83.5453 104.69L83.562 104.724L87.1562 102.969ZM85.2812 100.906L83.1849 104.313L83.2357 104.344L83.2874 104.374L85.2812 100.906ZM77.3125 103.031L73.7676 101.178L73.7595 101.194L73.7515 101.209L77.3125 103.031ZM76.3125 106.188L80.2523 106.879L80.2543 106.867L76.3125 106.188ZM80.5938 119.406L78.962 123.058L80.5938 119.406ZM88.3438 119.188L89.8861 122.878L89.9094 122.868L89.9326 122.858L88.3438 119.188ZM91.9688 116.375L94.9802 113.742L91.839 110.149L88.8503 113.87L91.9688 116.375ZM96.5312 121.594L99.8274 123.86L101.587 121.3L99.5427 118.961L96.5312 121.594ZM93.625 124.5L96.0163 127.707L96.025 127.7L93.625 124.5ZM83.3125 123.625C81.0489 123.625 79.1616 123.266 77.5856 122.632L74.6019 130.055C77.2759 131.13 80.2011 131.625 83.3125 131.625V123.625ZM77.5856 122.632C75.925 121.965 74.5969 121.08 73.5356 120.004L67.8394 125.621C69.7364 127.545 72.0125 129.014 74.6019 130.055L77.5856 122.632ZM73.5746 120.044C72.4832 118.906 71.6526 117.604 71.071 116.111L63.6165 119.014C64.5765 121.479 65.9752 123.678 67.8004 125.581L73.5746 120.044ZM71.071 116.111C70.4909 114.621 70.1875 113.002 70.1875 111.219H62.1875C62.1875 113.936 62.6549 116.545 63.6165 119.014L71.071 116.111ZM70.1875 111.219V110.031H62.1875V111.219H70.1875ZM70.1875 110.031C70.1875 107.887 70.4882 105.997 71.0447 104.327L63.4553 101.798C62.5951 104.378 62.1875 107.134 62.1875 110.031H70.1875ZM71.0447 104.327C71.601 102.658 72.3838 101.285 73.3665 100.151L67.321 94.9115C65.5954 96.9026 64.3156 99.2165 63.4553 101.798L71.0447 104.327ZM73.3639 100.154C74.3271 99.0448 75.5127 98.179 76.9773 97.5536L73.8352 90.1964C71.2998 91.2793 69.1104 92.851 67.3236 94.9085L73.3639 100.154ZM77.0095 97.5396C78.4238 96.9209 80.1446 96.5625 82.25 96.5625V88.5625C79.2304 88.5625 76.3887 89.0791 73.803 90.2104L77.0095 97.5396ZM82.25 96.5625C84.2046 96.5625 85.797 96.8847 87.1004 97.435L90.2121 90.065C87.7655 89.032 85.087 88.5625 82.25 88.5625V96.5625ZM87.1353 97.4496C88.4693 97.998 89.5416 98.7633 90.4119 99.7459L96.4006 94.4416C94.6876 92.5075 92.5932 91.0437 90.1772 90.0504L87.1353 97.4496ZM90.4309 99.7672C91.3107 100.746 92.0283 101.983 92.5413 103.554L100.146 101.071C99.3259 98.5588 98.0852 96.3162 96.3816 94.4203L90.4309 99.7672ZM92.5569 103.601C93.0804 105.139 93.375 106.965 93.375 109.125H101.375C101.375 106.243 100.982 103.527 100.131 101.024L92.5569 103.601ZM93.375 109.125V113.125H101.375V109.125H93.375ZM97.375 109.125H70.125V117.125H97.375V109.125ZM74.125 113.125V106.844H66.125V113.125H74.125ZM70.125 110.844H87.8125V102.844H70.125V110.844ZM91.8125 106.844V106.094H83.8125V106.844H91.8125ZM91.8125 106.094C91.8125 104.413 91.5013 102.751 90.7505 101.213L83.562 104.724C83.6862 104.978 83.8125 105.399 83.8125 106.094H91.8125ZM90.7831 101.282C90.029 99.6605 88.8443 98.3409 87.2751 97.4386L83.2874 104.374C83.3849 104.43 83.4502 104.485 83.5294 104.656L90.7831 101.282ZM87.3776 97.4996C85.7674 96.5087 83.9531 96.1562 82.1875 96.1562V104.156C82.9219 104.156 83.1701 104.304 83.1849 104.313L87.3776 97.4996ZM82.1875 96.1562C80.445 96.1562 78.6648 96.5252 77.0828 97.5243L81.3547 104.288C81.3561 104.287 81.555 104.156 82.1875 104.156V96.1562ZM77.0828 97.5243C75.634 98.4393 74.5383 99.7038 73.7676 101.178L80.8574 104.884C81.045 104.525 81.2202 104.373 81.3547 104.288L77.0828 97.5243ZM73.7515 101.209C73.0743 102.533 72.6332 103.985 72.3707 105.508L80.2543 106.867C80.4085 105.973 80.634 105.321 80.8735 104.853L73.7515 101.209ZM72.3727 105.496C72.1192 106.941 72 108.456 72 110.031H80C80 108.856 80.0891 107.809 80.2523 106.879L72.3727 105.496ZM72 110.031V111.219H80V110.031H72ZM72 111.219C72 112.891 72.2257 114.515 72.7293 116.055L80.3332 113.57C80.1284 112.943 80 112.172 80 111.219H72ZM72.7293 116.055C73.237 117.609 74.0174 119.033 75.1086 120.256L81.0789 114.931C80.7951 114.613 80.5338 114.183 80.3332 113.57L72.7293 116.055ZM75.1086 120.256C76.1867 121.465 77.4871 122.399 78.962 123.058L82.2255 115.754C81.7421 115.538 81.3758 115.264 81.0789 114.931L75.1086 120.256ZM78.962 123.058C80.5326 123.76 82.2174 124.062 83.9375 124.062V116.062C83.1576 116.062 82.6132 115.927 82.2255 115.754L78.962 123.058ZM83.9375 124.062C85.9983 124.062 87.9922 123.67 89.8861 122.878L86.8014 115.497C85.9036 115.872 84.96 116.062 83.9375 116.062V124.062ZM89.9326 122.858C91.9681 121.977 93.689 120.621 95.0872 118.88L88.8503 113.87C88.2069 114.671 87.5111 115.189 86.7549 115.517L89.9326 122.858ZM88.9573 119.008L93.5198 124.226L99.5427 118.961L94.9802 113.742L88.9573 119.008ZM93.2351 119.328C92.8528 119.884 92.2222 120.552 91.225 121.3L96.025 127.7C97.5278 126.573 98.8347 125.304 99.8274 123.86L93.2351 119.328ZM91.2337 121.293C90.3995 121.916 89.3125 122.486 87.9089 122.96L90.4661 130.54C92.5209 129.847 94.3921 128.918 96.0163 127.707L91.2337 121.293ZM87.9089 122.96C86.6642 123.38 85.149 123.625 83.3125 123.625V131.625C85.851 131.625 88.2525 131.287 90.4661 130.54L87.9089 122.96ZM119.531 115.938L116.381 118.403L116.414 118.444L116.447 118.485L119.531 115.938ZM117.469 114.625L115.97 118.333L115.983 118.339L115.997 118.344L117.469 114.625ZM113.312 113.438L114.175 109.532L114.155 109.527L114.134 109.523L113.312 113.438ZM108.594 112.062L107.108 115.776L107.131 115.786L107.154 115.795L108.594 112.062ZM104.781 109.969L102.342 113.139L102.362 113.154L102.381 113.169L104.781 109.969ZM102.25 107.031L98.7117 108.897L98.7188 108.91L98.726 108.924L102.25 107.031ZM102.25 99.0938L98.6606 97.3285L98.6489 97.3523L98.6375 97.3763L102.25 99.0938ZM104.938 95.7188L102.393 92.6326L102.379 92.6437L102.366 92.6549L104.938 95.7188ZM109.25 93.4062L107.999 89.6069L107.992 89.6092L107.985 89.6115L109.25 93.4062ZM122.781 93.9688L121.193 97.6398L121.208 97.6463L121.223 97.6526L122.781 93.9688ZM127.781 97.8438L124.504 100.138L124.511 100.147L124.518 100.157L127.781 97.8438ZM129.531 103.5V107.5H133.531V103.5H129.531ZM119.781 103.5H115.781V107.5H119.781V103.5ZM117.75 99.7188L115.835 103.23L115.876 103.253L115.918 103.275L117.75 99.7188ZM112.719 99.625L114.365 103.27L114.391 103.259L114.416 103.247L112.719 99.625ZM111.188 100.844L107.941 98.5065L107.91 98.5501L107.88 98.5945L111.188 100.844ZM110.969 103.969L107.429 105.832L107.489 105.945L107.556 106.055L110.969 103.969ZM112 105.031L109.647 108.266L109.73 108.326L109.815 108.382L112 105.031ZM113.844 105.875L112.579 109.67L112.594 109.675L112.61 109.68L113.844 105.875ZM116.656 106.594L115.843 110.51L115.884 110.519L115.925 110.526L116.656 106.594ZM123.094 108.438L121.581 112.14L121.588 112.143L121.595 112.146L123.094 108.438ZM127.781 111.719L124.712 114.284L124.723 114.297L124.735 114.311L127.781 111.719ZM128.531 121.375L125.026 119.447L125.014 119.47L125.002 119.493L128.531 121.375ZM101.969 121.594L98.5858 123.728L98.6007 123.752L98.6159 123.775L101.969 121.594ZM100.312 116.219V112.219H96.3125V116.219H100.312ZM109.469 116.219L113.466 116.071L113.323 112.219H109.469V116.219ZM110.312 118.969L107.09 121.338L107.112 121.369L107.135 121.399L110.312 118.969ZM112.406 120.531L110.952 124.258L110.992 124.273L111.032 124.288L112.406 120.531ZM119.562 119.375L122.763 121.775L122.786 121.744L122.809 121.712L119.562 119.375ZM124.125 117.594C124.125 116.045 123.607 114.59 122.615 113.39L116.447 118.485C116.368 118.389 116.278 118.246 116.211 118.061C116.145 117.876 116.125 117.711 116.125 117.594H124.125ZM122.681 113.472C121.648 112.152 120.163 111.389 118.941 110.906L115.997 118.344C116.331 118.477 116.512 118.577 116.587 118.625C116.621 118.646 116.613 118.645 116.578 118.615C116.544 118.584 116.47 118.516 116.381 118.403L122.681 113.472ZM118.968 110.917C117.686 110.398 116.051 109.946 114.175 109.532L112.45 117.343C114.157 117.721 115.293 118.06 115.97 118.333L118.968 110.917ZM114.134 109.523C112.636 109.208 111.272 108.808 110.033 108.33L107.154 115.795C108.833 116.442 110.614 116.958 112.491 117.352L114.134 109.523ZM110.079 108.349C108.896 107.875 107.943 107.34 107.181 106.769L102.381 113.169C103.786 114.222 105.375 115.083 107.108 115.776L110.079 108.349ZM107.22 106.798C106.553 106.285 106.092 105.731 105.774 105.139L98.726 108.924C99.616 110.581 100.843 111.986 102.342 113.139L107.22 106.798ZM105.788 105.166C105.524 104.664 105.344 104.016 105.344 103.125H97.3438C97.3438 105.151 97.7679 107.107 98.7117 108.897L105.788 105.166ZM105.344 103.125C105.344 102.298 105.515 101.542 105.863 100.811L98.6375 97.3763C97.7764 99.1875 97.3438 101.118 97.3438 103.125H105.344ZM105.839 100.859C106.201 100.124 106.736 99.4317 107.509 98.7826L102.366 92.6549C100.806 93.9641 99.5491 95.5219 98.6606 97.3285L105.839 100.859ZM107.482 98.8049C108.236 98.1833 109.222 97.6318 110.515 97.201L107.985 89.6115C105.903 90.3057 104.014 91.2959 102.393 92.6326L107.482 98.8049ZM110.501 97.2056C111.733 96.8 113.237 96.5625 115.062 96.5625V88.5625C112.555 88.5625 110.184 88.8875 107.999 89.6069L110.501 97.2056ZM115.062 96.5625C117.633 96.5625 119.64 96.9682 121.193 97.6398L124.37 90.2977C121.589 89.0943 118.45 88.5625 115.062 88.5625V96.5625ZM121.223 97.6526C122.808 98.3232 123.832 99.1778 124.504 100.138L131.058 95.5499C129.397 93.1764 127.088 91.4476 124.34 90.2849L121.223 97.6526ZM124.518 100.157C125.179 101.089 125.531 102.157 125.531 103.5H133.531C133.531 100.593 132.717 97.8898 131.045 95.5305L124.518 100.157ZM129.531 99.5H119.781V107.5H129.531V99.5ZM123.781 103.5C123.781 102.116 123.516 100.702 122.836 99.3842L115.727 103.053C115.713 103.027 115.781 103.134 115.781 103.5H123.781ZM122.836 99.3842C122.096 97.9509 120.958 96.872 119.582 96.1629L115.918 103.275C115.936 103.284 115.902 103.269 115.849 103.217C115.795 103.163 115.752 103.103 115.727 103.053L122.836 99.3842ZM119.665 96.2072C118.19 95.4022 116.552 95.1562 115.031 95.1562V103.156C115.377 103.156 115.608 103.186 115.744 103.214C115.879 103.242 115.893 103.262 115.835 103.23L119.665 96.2072ZM115.031 95.1562C113.679 95.1562 112.31 95.3991 111.021 96.0032L114.416 103.247C114.461 103.226 114.634 103.156 115.031 103.156V95.1562ZM111.072 95.9795C109.856 96.5288 108.767 97.3592 107.941 98.5065L114.434 103.181C114.42 103.2 114.404 103.22 114.387 103.237C114.37 103.255 114.354 103.269 114.343 103.278C114.317 103.298 114.318 103.292 114.365 103.27L111.072 95.9795ZM107.88 98.5945C107.033 99.8395 106.656 101.243 106.656 102.656H114.656C114.656 102.656 114.656 102.66 114.656 102.667C114.655 102.675 114.654 102.686 114.652 102.7C114.648 102.728 114.641 102.766 114.628 102.813C114.599 102.911 114.552 103.009 114.495 103.093L107.88 98.5945ZM106.656 102.656C106.656 103.737 106.897 104.821 107.429 105.832L114.508 102.106C114.561 102.206 114.601 102.312 114.626 102.417C114.65 102.521 114.656 102.604 114.656 102.656H106.656ZM107.556 106.055C108.126 106.988 108.881 107.709 109.647 108.266L114.353 101.796C114.282 101.745 114.26 101.721 114.269 101.73C114.278 101.74 114.324 101.789 114.382 101.883L107.556 106.055ZM109.815 108.382C110.666 108.937 111.618 109.35 112.579 109.67L115.109 102.08C114.569 101.9 114.292 101.751 114.185 101.681L109.815 108.382ZM112.61 109.68C113.56 109.988 114.647 110.262 115.843 110.51L117.469 102.677C116.457 102.467 115.669 102.262 115.078 102.07L112.61 109.68ZM115.925 110.526C118.049 110.921 119.928 111.465 121.581 112.14L124.607 104.735C122.384 103.826 119.972 103.141 117.387 102.661L115.925 110.526ZM121.595 112.146C123.042 112.731 124.03 113.468 124.712 114.284L130.85 109.154C129.199 107.178 127.062 105.727 124.593 104.729L121.595 112.146ZM124.735 114.311C125.164 114.816 125.562 115.663 125.562 117.25H133.562C133.562 114.254 132.773 111.413 130.828 109.127L124.735 114.311ZM125.562 117.25C125.562 118.112 125.372 118.819 125.026 119.447L132.036 123.303C133.065 121.431 133.562 119.388 133.562 117.25H125.562ZM125.002 119.493C124.646 120.159 124.097 120.813 123.25 121.437L128 127.875C129.695 126.625 131.083 125.091 132.061 123.257L125.002 119.493ZM123.25 121.437C122.413 122.055 121.331 122.595 119.934 123.006L122.191 130.681C124.336 130.05 126.295 129.132 128 127.875L123.25 121.437ZM119.934 123.006C118.596 123.4 116.986 123.625 115.062 123.625V131.625C117.597 131.625 119.987 131.329 122.191 130.681L119.934 123.006ZM115.062 123.625C112.341 123.625 110.313 123.135 108.811 122.356L105.127 129.457C108.041 130.969 111.409 131.625 115.062 131.625V123.625ZM108.811 122.356C107.09 121.463 105.999 120.454 105.322 119.412L98.6159 123.775C100.188 126.192 102.431 128.058 105.127 129.457L108.811 122.356ZM105.352 119.459C104.597 118.264 104.312 117.203 104.312 116.219H96.3125C96.3125 118.902 97.1319 121.424 98.5858 123.728L105.352 119.459ZM100.312 120.219H109.469V112.219H100.312V120.219ZM105.471 116.367C105.535 118.069 105.977 119.824 107.09 121.338L113.535 116.599C113.607 116.697 113.486 116.618 113.466 116.071L105.471 116.367ZM107.135 121.399C108.135 122.706 109.436 123.666 110.952 124.258L113.86 116.805C113.668 116.73 113.574 116.648 113.49 116.539L107.135 121.399ZM111.032 124.288C112.394 124.786 113.827 125 115.281 125V117C114.61 117 114.127 116.902 113.781 116.775L111.032 124.288ZM115.281 125C116.678 125 118.121 124.813 119.46 124.261L116.415 116.864C116.337 116.896 116.01 117 115.281 117V125ZM119.46 124.261C120.685 123.757 121.868 122.968 122.763 121.775L116.362 116.975C116.395 116.932 116.426 116.897 116.454 116.87C116.482 116.842 116.504 116.826 116.515 116.817C116.537 116.801 116.513 116.823 116.415 116.864L119.46 124.261ZM122.809 121.712C123.694 120.483 124.125 119.065 124.125 117.594H116.125C116.125 117.547 116.132 117.454 116.17 117.335C116.208 117.214 116.263 117.112 116.316 117.038L122.809 121.712ZM144.562 100.406H148.562V100.242L148.549 100.078L144.562 100.406ZM144.562 127V131H148.562V127H144.562ZM134.781 127H130.781V131H134.781V127ZM134.781 93.1875V89.1875H130.781V93.1875H134.781ZM143.969 93.1875L147.955 92.8596L147.653 89.1875H143.969V93.1875ZM143.281 108.906L143.384 112.905L147.281 112.805V108.906H143.281ZM140.844 108.969H136.844V113.073L140.946 112.967L140.844 108.969ZM144.438 96.9688L141.332 94.4481L141.327 94.4533L144.438 96.9688ZM148.594 93.6875L146.918 90.0557L146.909 90.0598L146.9 90.064L148.594 93.6875ZM161.688 95.4688L158.741 98.1744L158.77 98.2057L158.8 98.2364L161.688 95.4688ZM163.875 99.4688L160.044 100.618L160.048 100.631L163.875 99.4688ZM164.625 127V131H168.625V127H164.625ZM154.812 127H150.812V131H154.812V127ZM152.469 100.625L150.93 104.317L150.948 104.325L150.966 104.332L152.469 100.625ZM146.781 100.844L148.678 104.366L148.712 104.347L148.747 104.328L146.781 100.844ZM143.625 105.469L139.731 104.553L139.723 104.589L139.715 104.625L143.625 105.469ZM140.562 100.406V127H148.562V100.406H140.562ZM144.562 123H134.781V131H144.562V123ZM138.781 127V93.1875H130.781V127H138.781ZM134.781 97.1875H143.969V89.1875H134.781V97.1875ZM139.982 93.5154L140.576 100.734L148.549 100.078L147.955 92.8596L139.982 93.5154ZM143.179 104.908L140.741 104.97L140.946 112.967L143.384 112.905L143.179 104.908ZM144.844 108.969C144.844 106.75 145.117 104.877 145.603 103.307L137.96 100.943C137.195 103.415 136.844 106.104 136.844 108.969H144.844ZM145.603 103.307C146.101 101.695 146.769 100.447 147.548 99.4842L141.327 94.4533C139.815 96.3235 138.711 98.5137 137.96 100.943L145.603 103.307ZM147.543 99.4894C148.347 98.4996 149.257 97.7932 150.288 97.311L146.9 90.064C144.723 91.0818 142.862 92.5629 141.332 94.4481L147.543 99.4894ZM150.27 97.3193C151.322 96.834 152.534 96.5625 153.969 96.5625V88.5625C151.487 88.5625 149.116 89.041 146.918 90.0557L150.27 97.3193ZM153.969 96.5625C155.165 96.5625 156.16 96.7351 156.994 97.0264L159.631 89.4736C157.84 88.8483 155.94 88.5625 153.969 88.5625V96.5625ZM156.994 97.0264C157.686 97.268 158.251 97.6407 158.741 98.1744L164.634 92.7631C163.249 91.2552 161.564 90.1486 159.631 89.4736L156.994 97.0264ZM158.8 98.2364C159.222 98.6771 159.68 99.4061 160.044 100.618L167.706 98.3194C167.07 96.1981 166.07 94.2604 164.575 92.7011L158.8 98.2364ZM160.048 100.631C160.397 101.782 160.625 103.394 160.625 105.562H168.625C168.625 102.898 168.353 100.447 167.702 98.306L160.048 100.631ZM160.625 105.562V127H168.625V105.562H160.625ZM164.625 123H154.812V131H164.625V123ZM158.812 127V105.531H150.812V127H158.812ZM158.812 105.531C158.812 103.837 158.591 102.009 157.777 100.423L150.66 104.077C150.636 104.029 150.68 104.098 150.728 104.361C150.775 104.619 150.812 105 150.812 105.531H158.812ZM157.777 100.423C156.963 98.8382 155.67 97.6067 153.972 96.918L150.966 104.332C150.922 104.314 150.843 104.271 150.763 104.197C150.684 104.124 150.656 104.069 150.66 104.077L157.777 100.423ZM154.007 96.9327C152.637 96.3616 151.164 96.1562 149.719 96.1562V104.156C150.44 104.156 150.801 104.263 150.93 104.317L154.007 96.9327ZM149.719 96.1562C148.04 96.1562 146.351 96.494 144.816 97.3598L148.747 104.328C148.837 104.277 149.106 104.156 149.719 104.156V96.1562ZM144.885 97.3219C143.472 98.0825 142.315 99.1587 141.44 100.489L148.123 104.886C148.289 104.633 148.465 104.48 148.678 104.366L144.885 97.3219ZM141.44 100.489C140.625 101.727 140.073 103.102 139.731 104.553L147.519 106.385C147.677 105.711 147.896 105.231 148.123 104.886L141.44 100.489ZM139.715 104.625C139.419 105.998 139.281 107.43 139.281 108.906H147.281C147.281 107.924 147.373 107.064 147.535 106.312L139.715 104.625ZM174.312 122.812L171.425 125.581L171.445 125.601L171.464 125.621L174.312 122.812ZM173.969 97.5312L170.949 94.9085L170.946 94.9115L173.969 97.5312ZM179.031 93.875L180.602 97.5536L180.618 97.5467L180.635 97.5396L179.031 93.875ZM192.281 93.75L190.725 97.435L190.743 97.4424L190.76 97.4496L192.281 93.75ZM197.031 97.0938L194.037 99.7459L194.046 99.7566L194.056 99.7672L197.031 97.0938ZM199.969 102.312L196.166 103.554L196.174 103.578L196.182 103.601L199.969 102.312ZM201 113.125V117.125H205V113.125H201ZM173.75 113.125H169.75V117.125H173.75V113.125ZM173.75 106.844V102.844H169.75V106.844H173.75ZM191.438 106.844V110.844H195.438V106.844H191.438ZM190.781 102.969L187.154 104.656L187.17 104.69L187.187 104.724L190.781 102.969ZM188.906 100.906L186.81 104.313L186.861 104.344L186.912 104.374L188.906 100.906ZM180.938 103.031L177.393 101.178L177.384 101.194L177.377 101.209L180.938 103.031ZM179.938 106.188L183.877 106.879L183.879 106.867L179.938 106.188ZM184.219 119.406L182.587 123.058L184.219 119.406ZM191.969 119.188L193.511 122.878L193.534 122.868L193.558 122.858L191.969 119.188ZM195.594 116.375L198.605 113.742L195.464 110.149L192.475 113.87L195.594 116.375ZM200.156 121.594L203.452 123.86L205.212 121.3L203.168 118.961L200.156 121.594ZM197.25 124.5L199.641 127.707L199.65 127.7L197.25 124.5ZM186.938 123.625C184.674 123.625 182.787 123.266 181.211 122.632L178.227 130.055C180.901 131.13 183.826 131.625 186.938 131.625V123.625ZM181.211 122.632C179.55 121.965 178.222 121.08 177.161 120.004L171.464 125.621C173.361 127.545 175.637 129.014 178.227 130.055L181.211 122.632ZM177.2 120.044C176.108 118.906 175.278 117.604 174.696 116.111L167.241 119.014C168.202 121.479 169.6 123.678 171.425 125.581L177.2 120.044ZM174.696 116.111C174.116 114.621 173.812 113.002 173.812 111.219H165.812C165.812 113.936 166.28 116.545 167.241 119.014L174.696 116.111ZM173.812 111.219V110.031H165.812V111.219H173.812ZM173.812 110.031C173.812 107.887 174.113 105.997 174.67 104.327L167.08 101.798C166.22 104.378 165.812 107.134 165.812 110.031H173.812ZM174.67 104.327C175.226 102.658 176.009 101.285 176.992 100.151L170.946 94.9115C169.22 96.9026 167.941 99.2165 167.08 101.798L174.67 104.327ZM176.989 100.154C177.952 99.0448 179.138 98.179 180.602 97.5536L177.46 90.1964C174.925 91.2793 172.735 92.851 170.949 94.9085L176.989 100.154ZM180.635 97.5396C182.049 96.9209 183.77 96.5625 185.875 96.5625V88.5625C182.855 88.5625 180.014 89.0791 177.428 90.2104L180.635 97.5396ZM185.875 96.5625C187.83 96.5625 189.422 96.8847 190.725 97.435L193.837 90.065C191.391 89.032 188.712 88.5625 185.875 88.5625V96.5625ZM190.76 97.4496C192.094 97.998 193.167 98.7633 194.037 99.7459L200.026 94.4416C198.313 92.5075 196.218 91.0437 193.802 90.0504L190.76 97.4496ZM194.056 99.7672C194.936 100.746 195.653 101.983 196.166 103.554L203.771 101.071C202.951 98.5588 201.71 96.3162 200.007 94.4203L194.056 99.7672ZM196.182 103.601C196.705 105.139 197 106.965 197 109.125H205C205 106.243 204.607 103.527 203.756 101.024L196.182 103.601ZM197 109.125V113.125H205V109.125H197ZM201 109.125H173.75V117.125H201V109.125ZM177.75 113.125V106.844H169.75V113.125H177.75ZM173.75 110.844H191.438V102.844H173.75V110.844ZM195.438 106.844V106.094H187.438V106.844H195.438ZM195.438 106.094C195.438 104.413 195.126 102.751 194.376 101.213L187.187 104.724C187.311 104.978 187.438 105.399 187.438 106.094H195.438ZM194.408 101.282C193.654 99.6605 192.469 98.3409 190.9 97.4386L186.912 104.374C187.01 104.43 187.075 104.485 187.154 104.656L194.408 101.282ZM191.003 97.4996C189.392 96.5087 187.578 96.1562 185.812 96.1562V104.156C186.547 104.156 186.795 104.304 186.81 104.313L191.003 97.4996ZM185.812 96.1562C184.07 96.1562 182.29 96.5252 180.708 97.5243L184.98 104.288C184.981 104.287 185.18 104.156 185.812 104.156V96.1562ZM180.708 97.5243C179.259 98.4393 178.163 99.7038 177.393 101.178L184.482 104.884C184.67 104.525 184.845 104.373 184.98 104.288L180.708 97.5243ZM177.377 101.209C176.699 102.533 176.258 103.985 175.996 105.508L183.879 106.867C184.034 105.973 184.259 105.321 184.498 104.853L177.377 101.209ZM175.998 105.496C175.744 106.941 175.625 108.456 175.625 110.031H183.625C183.625 108.856 183.714 107.809 183.877 106.879L175.998 105.496ZM175.625 110.031V111.219H183.625V110.031H175.625ZM175.625 111.219C175.625 112.891 175.851 114.515 176.354 116.055L183.958 113.57C183.753 112.943 183.625 112.172 183.625 111.219H175.625ZM176.354 116.055C176.862 117.609 177.642 119.033 178.734 120.256L184.704 114.931C184.42 114.613 184.159 114.183 183.958 113.57L176.354 116.055ZM178.734 120.256C179.812 121.465 181.112 122.399 182.587 123.058L185.851 115.754C185.367 115.538 185.001 115.264 184.704 114.931L178.734 120.256ZM182.587 123.058C184.158 123.76 185.842 124.062 187.562 124.062V116.062C186.783 116.062 186.238 115.927 185.851 115.754L182.587 123.058ZM187.562 124.062C189.623 124.062 191.617 123.67 193.511 122.878L190.426 115.497C189.529 115.872 188.585 116.062 187.562 116.062V124.062ZM193.558 122.858C195.593 121.977 197.314 120.621 198.712 118.88L192.475 113.87C191.832 114.671 191.136 115.189 190.38 115.517L193.558 122.858ZM192.582 119.008L197.145 124.226L203.168 118.961L198.605 113.742L192.582 119.008ZM196.86 119.328C196.478 119.884 195.847 120.552 194.85 121.3L199.65 127.7C201.153 126.573 202.46 125.304 203.452 123.86L196.86 119.328ZM194.859 121.293C194.025 121.916 192.937 122.486 191.534 122.96L194.091 130.54C196.146 129.847 198.017 128.918 199.641 127.707L194.859 121.293ZM191.534 122.96C190.289 123.38 188.774 123.625 186.938 123.625V131.625C189.476 131.625 191.877 131.287 194.091 130.54L191.534 122.96ZM215.531 101.062H219.531V100.912L219.52 100.762L215.531 101.062ZM215.531 127V131H219.531V127H215.531ZM205.781 127H201.781V131H205.781V127ZM205.781 93.1875V89.1875H201.781V93.1875H205.781ZM214.938 93.1875L218.926 92.8868L218.647 89.1875H214.938V93.1875ZM225.625 92.9375L229.624 93.0062L229.674 90.1247L226.956 89.1655L225.625 92.9375ZM225.469 102.031L224.875 105.987L229.39 106.664L229.468 102.1L225.469 102.031ZM223.844 101.875L223.47 105.858L223.532 105.863L223.594 105.867L223.844 101.875ZM218.875 102.25L220.113 106.053L220.14 106.045L220.166 106.036L218.875 102.25ZM216.625 103.562L213.847 100.685L213.821 100.709L213.797 100.734L216.625 103.562ZM215.312 105.75L219.098 107.043L219.103 107.029L219.107 107.015L215.312 105.75ZM214.875 108.719L213.111 112.309L218.875 115.142V108.719H214.875ZM213.031 107.812H209.031V110.303L211.267 111.402L213.031 107.812ZM215.594 96.875L219 98.9714L219.008 98.9598L219.015 98.9482L215.594 96.875ZM211.531 101.062V127H219.531V101.062H211.531ZM215.531 123H205.781V131H215.531V123ZM209.781 127V93.1875H201.781V127H209.781ZM205.781 97.1875H214.938V89.1875H205.781V97.1875ZM210.949 93.4882L211.543 101.363L219.52 100.762L218.926 92.8868L210.949 93.4882ZM221.626 92.8688L221.469 101.963L229.468 102.1L229.624 93.0062L221.626 92.8688ZM226.062 98.0755C225.486 97.989 224.817 97.928 224.093 97.8828L223.594 105.867C224.204 105.905 224.619 105.948 224.875 105.987L226.062 98.0755ZM224.217 97.8925C223.471 97.8225 222.767 97.7812 222.125 97.7812V105.781C222.442 105.781 222.883 105.802 223.47 105.858L224.217 97.8925ZM222.125 97.7812C220.557 97.7812 219.017 97.9754 217.584 98.464L220.166 106.036C220.566 105.9 221.193 105.781 222.125 105.781V97.7812ZM217.637 98.4465C216.235 98.903 214.938 99.6313 213.847 100.685L219.403 106.44C219.52 106.327 219.724 106.18 220.113 106.053L217.637 98.4465ZM213.797 100.734C212.725 101.806 211.982 103.091 211.518 104.485L219.107 107.015C219.226 106.659 219.359 106.486 219.453 106.391L213.797 100.734ZM211.527 104.457C211.063 105.816 210.875 107.258 210.875 108.719H218.875C218.875 107.93 218.978 107.393 219.098 107.043L211.527 104.457ZM216.639 105.129L214.796 104.223L211.267 111.402L213.111 112.309L216.639 105.129ZM217.031 107.812C217.031 105.842 217.225 104.113 217.581 102.606L209.794 100.769C209.275 102.97 209.031 105.325 209.031 107.812H217.031ZM217.581 102.606C217.939 101.088 218.43 99.8976 219 98.9714L212.187 94.7786C211.09 96.5608 210.311 98.5786 209.794 100.769L217.581 102.606ZM219.015 98.9482C219.564 98.0411 220.159 97.4626 220.766 97.0861L216.547 90.2889C214.737 91.4124 213.29 92.9589 212.173 94.8018L219.015 98.9482ZM220.766 97.0861C221.288 96.7621 221.92 96.5625 222.781 96.5625V88.5625C220.559 88.5625 218.442 89.1129 216.547 90.2889L220.766 97.0861ZM222.781 96.5625C223.114 96.5625 223.466 96.5833 223.836 96.6278L224.789 88.6847C224.118 88.6042 223.448 88.5625 222.781 88.5625V96.5625ZM223.836 96.6278C223.995 96.6469 224.112 96.6673 224.193 96.6846C224.275 96.7022 224.305 96.7134 224.294 96.7095L226.956 89.1655C226.241 88.913 225.496 88.7696 224.789 88.6847L223.836 96.6278Z" fill="white" mask="url(#path-1-outside-1_17_2)"/>
</g>
<defs>
<filter id="filter0_d_17_2" x="0.09375" y="0.59375" width="233.58" height="139.031" filterUnits="userSpaceOnUse" color-interpolation-filters="sRGB">
<feFlood flood-opacity="0" result="BackgroundImageFix"/>
<feColorMatrix in="SourceAlpha" type="matrix" values="0 0 0 0 0 0 0 0 0 0 0 0 0 0 0 0 0 0 127 0" result="hardAlpha"/>
<feOffset dy="4"/>
<feGaussianBlur stdDeviation="2"/>
<feComposite in2="hardAlpha" operator="out"/>
<feColorMatrix type="matrix" values="0 0 0 0 0 0 0 0 0 0 0 0 0 0 0 0 0 0 0.25 0"/>
<feBlend mode="normal" in2="BackgroundImageFix" result="effect1_dropShadow_17_2"/>
<feBlend mode="normal" in="SourceGraphic" in2="effect1_dropShadow_17_2" result="shape"/>
</filter>
</defs>
</svg>
