<svg width="164" height="93" viewBox="0 0 164 93" fill="none" xmlns="http://www.w3.org/2000/svg">
<g filter="url(#filter0_i_10_52)">
<path d="M19.5078 27C19.5078 26.4219 19.4219 25.9062 19.25 25.4531C19.0781 24.9844 18.7656 24.5547 18.3125 24.1641C17.8594 23.7734 17.2188 23.3828 16.3906 22.9922C15.5625 22.5859 14.4766 22.1719 13.1328 21.75C11.6016 21.25 10.1406 20.6875 8.75 20.0625C7.375 19.4219 6.14844 18.6797 5.07031 17.8359C3.99219 16.9922 3.14062 16.0078 2.51562 14.8828C1.90625 13.7578 1.60156 12.4453 1.60156 10.9453C1.60156 9.49219 1.92188 8.17969 2.5625 7.00781C3.20312 5.83594 4.10156 4.83594 5.25781 4.00781C6.41406 3.16406 7.77344 2.52344 9.33594 2.08594C10.8984 1.63281 12.6172 1.40625 14.4922 1.40625C16.9922 1.40625 19.1875 1.85156 21.0781 2.74219C22.9844 3.61719 24.4688 4.85156 25.5312 6.44531C26.5938 8.02344 27.125 9.85938 27.125 11.9531H19.5312C19.5312 11.0312 19.3359 10.2188 18.9453 9.51562C18.5703 8.79688 17.9922 8.23438 17.2109 7.82812C16.4453 7.42188 15.4844 7.21875 14.3281 7.21875C13.2031 7.21875 12.2578 7.39062 11.4922 7.73438C10.7422 8.0625 10.1719 8.51562 9.78125 9.09375C9.40625 9.67188 9.21875 10.3047 9.21875 10.9922C9.21875 11.5391 9.35938 12.0391 9.64062 12.4922C9.9375 12.9297 10.3594 13.3438 10.9062 13.7344C11.4688 14.1094 12.1562 14.4688 12.9688 14.8125C13.7812 15.1562 14.7109 15.4844 15.7578 15.7969C17.5859 16.375 19.2031 17.0156 20.6094 17.7188C22.0312 18.4219 23.2266 19.2188 24.1953 20.1094C25.1641 21 25.8906 22.0078 26.375 23.1328C26.875 24.2578 27.125 25.5312 27.125 26.9531C27.125 28.4688 26.8281 29.8125 26.2344 30.9844C25.6562 32.1562 24.8125 33.1562 23.7031 33.9844C22.6094 34.7969 21.2969 35.4141 19.7656 35.8359C18.2344 36.2578 16.5234 36.4688 14.6328 36.4688C12.9141 36.4688 11.2188 36.25 9.54688 35.8125C7.875 35.3594 6.35938 34.6719 5 33.75C3.65625 32.8281 2.57812 31.6562 1.76562 30.2344C0.96875 28.7969 0.570312 27.0938 0.570312 25.125H8.21094C8.21094 26.1562 8.35938 27.0312 8.65625 27.75C8.95312 28.4531 9.375 29.0234 9.92188 29.4609C10.4844 29.8984 11.1641 30.2109 11.9609 30.3984C12.7578 30.5859 13.6484 30.6797 14.6328 30.6797C15.7734 30.6797 16.6953 30.5234 17.3984 30.2109C18.1172 29.8828 18.6484 29.4375 18.9922 28.875C19.3359 28.3125 19.5078 27.6875 19.5078 27ZM38.9609 10.6406V36H31.625V10.6406H38.9609ZM31.1797 4.07812C31.1797 3.01563 31.5547 2.14844 32.3047 1.47656C33.0547 0.789063 34.0391 0.445312 35.2578 0.445312C36.4766 0.445312 37.4609 0.789063 38.2109 1.47656C38.9766 2.14844 39.3594 3.01563 39.3594 4.07812C39.3594 5.125 38.9766 5.99219 38.2109 6.67969C37.4609 7.35156 36.4766 7.6875 35.2578 7.6875C34.0391 7.6875 33.0547 7.35156 32.3047 6.67969C31.5547 5.99219 31.1797 5.125 31.1797 4.07812ZM51.5703 15.9609V36H44.2578V10.6406H51.125L51.5703 15.9609ZM50.6328 22.4297L48.7812 22.4766C48.7812 20.6953 48.9922 19.0625 49.4141 17.5781C49.8516 16.0781 50.4844 14.7734 51.3125 13.6641C52.1406 12.5547 53.1641 11.6953 54.3828 11.0859C55.6172 10.4766 57.0391 10.1719 58.6484 10.1719C59.7734 10.1719 60.7969 10.3438 61.7188 10.6875C62.6406 11.0156 63.4297 11.5391 64.0859 12.2578C64.7578 12.9609 65.2734 13.8828 65.6328 15.0234C65.9922 16.1484 66.1719 17.5 66.1719 19.0781V36H58.8594V19.9688C58.8594 18.8438 58.7188 17.9922 58.4375 17.4141C58.1719 16.8203 57.7812 16.4141 57.2656 16.1953C56.75 15.9766 56.1328 15.8672 55.4141 15.8672C54.6328 15.8672 53.9375 16.0391 53.3281 16.3828C52.7344 16.7109 52.2344 17.1719 51.8281 17.7656C51.4219 18.3594 51.1172 19.0547 50.9141 19.8516C50.7266 20.6484 50.6328 21.5078 50.6328 22.4297ZM65.4219 22.0547L63.1016 22.2422C63.1016 20.5234 63.3047 18.9297 63.7109 17.4609C64.1172 15.9922 64.7266 14.7188 65.5391 13.6406C66.3516 12.5469 67.3594 11.6953 68.5625 11.0859C69.7812 10.4766 71.1953 10.1719 72.8047 10.1719C73.9922 10.1719 75.0703 10.3438 76.0391 10.6875C77.0234 11.0312 77.8672 11.5859 78.5703 12.3516C79.2891 13.1172 79.8438 14.125 80.2344 15.375C80.625 16.6094 80.8203 18.125 80.8203 19.9219V36H73.4609V19.9219C73.4609 18.8125 73.3203 17.9688 73.0391 17.3906C72.7734 16.8125 72.3828 16.4141 71.8672 16.1953C71.3672 15.9766 70.7656 15.8672 70.0625 15.8672C69.2812 15.8672 68.6016 16.0312 68.0234 16.3594C67.4453 16.6719 66.9609 17.1094 66.5703 17.6719C66.1797 18.2188 65.8906 18.8672 65.7031 19.6172C65.5156 20.3672 65.4219 21.1797 65.4219 22.0547ZM84.6641 23.5781V23.0859C84.6641 21.2266 84.9297 19.5156 85.4609 17.9531C85.9922 16.375 86.7734 15.0078 87.8047 13.8516C88.8359 12.6953 90.1016 11.7969 91.6016 11.1562C93.1016 10.5 94.8203 10.1719 96.7578 10.1719C98.7266 10.1719 100.461 10.5 101.961 11.1562C103.477 11.7969 104.75 12.6953 105.781 13.8516C106.812 15.0078 107.594 16.375 108.125 17.9531C108.656 19.5156 108.922 21.2266 108.922 23.0859V23.5781C108.922 25.4219 108.656 27.1328 108.125 28.7109C107.594 30.2734 106.812 31.6406 105.781 32.8125C104.75 33.9688 103.484 34.8672 101.984 35.5078C100.484 36.1484 98.7578 36.4688 96.8047 36.4688C94.8672 36.4688 93.1406 36.1484 91.625 35.5078C90.1094 34.8672 88.8359 33.9688 87.8047 32.8125C86.7734 31.6406 85.9922 30.2734 85.4609 28.7109C84.9297 27.1328 84.6641 25.4219 84.6641 23.5781ZM92 23.0859V23.5781C92 24.5781 92.0781 25.5156 92.2344 26.3906C92.4062 27.2656 92.6797 28.0312 93.0547 28.6875C93.4297 29.3438 93.9219 29.8594 94.5312 30.2344C95.1562 30.5938 95.9141 30.7734 96.8047 30.7734C97.6953 30.7734 98.4453 30.5938 99.0547 30.2344C99.6641 29.8594 100.156 29.3438 100.531 28.6875C100.906 28.0312 101.172 27.2656 101.328 26.3906C101.5 25.5156 101.586 24.5781 101.586 23.5781V23.0859C101.586 22.1016 101.5 21.1797 101.328 20.3203C101.172 19.4453 100.906 18.6719 100.531 18C100.156 17.3281 99.6562 16.8047 99.0312 16.4297C98.4219 16.0547 97.6641 15.8672 96.7578 15.8672C95.8828 15.8672 95.1406 16.0547 94.5312 16.4297C93.9219 16.8047 93.4297 17.3281 93.0547 18C92.6797 18.6719 92.4062 19.4453 92.2344 20.3203C92.0781 21.1797 92 22.1016 92 23.0859ZM119.938 16.0547V36H112.602V10.6406H119.492L119.938 16.0547ZM118.977 22.4297L117.148 22.4766C117.148 20.5703 117.383 18.8594 117.852 17.3438C118.32 15.8281 118.984 14.5391 119.844 13.4766C120.719 12.3984 121.758 11.5781 122.961 11.0156C124.18 10.4531 125.523 10.1719 126.992 10.1719C128.18 10.1719 129.266 10.3438 130.25 10.6875C131.234 11.0312 132.078 11.5859 132.781 12.3516C133.5 13.1016 134.047 14.1016 134.422 15.3516C134.797 16.5859 134.984 18.1094 134.984 19.9219V36H127.625V19.8984C127.625 18.8359 127.477 18.0156 127.18 17.4375C126.883 16.8594 126.445 16.4531 125.867 16.2188C125.305 15.9844 124.617 15.8672 123.805 15.8672C122.945 15.8672 122.211 16.0391 121.602 16.3828C120.992 16.7109 120.492 17.1719 120.102 17.7656C119.711 18.3594 119.422 19.0547 119.234 19.8516C119.062 20.6484 118.977 21.5078 118.977 22.4297ZM9.45312 57.875V92H1.8125V57.875H9.45312ZM29.8438 57.875L16.4844 74.9375L8.70312 83.375L7.32031 76.2734L12.4531 68.9141L20.4688 57.875H29.8438ZM20.9844 92L11.5625 76.4141L17.375 71.8906L30.0312 92H20.9844ZM39.7578 66.6406V92H32.4219V66.6406H39.7578ZM31.9766 60.0781C31.9766 59.0156 32.3516 58.1484 33.1016 57.4766C33.8516 56.7891 34.8359 56.4453 36.0547 56.4453C37.2734 56.4453 38.2578 56.7891 39.0078 57.4766C39.7734 58.1484 40.1562 59.0156 40.1562 60.0781C40.1562 61.125 39.7734 61.9922 39.0078 62.6797C38.2578 63.3516 37.2734 63.6875 36.0547 63.6875C34.8359 63.6875 33.8516 63.3516 33.1016 62.6797C32.3516 61.9922 31.9766 61.125 31.9766 60.0781ZM56.9844 92.4688C54.9688 92.4688 53.1641 92.1484 51.5703 91.5078C49.9766 90.8672 48.625 89.9844 47.5156 88.8594C46.4219 87.7188 45.5859 86.4062 45.0078 84.9219C44.4297 83.4375 44.1406 81.8516 44.1406 80.1641V79.2734C44.1406 77.3828 44.4062 75.6406 44.9375 74.0469C45.4688 72.4531 46.2422 71.0703 47.2578 69.8984C48.2891 68.7109 49.5547 67.7969 51.0547 67.1562C52.5547 66.5 54.2656 66.1719 56.1875 66.1719C57.9844 66.1719 59.5859 66.4688 60.9922 67.0625C62.3984 67.6406 63.5859 68.4766 64.5547 69.5703C65.5234 70.6484 66.2578 71.9531 66.7578 73.4844C67.2734 75 67.5312 76.7031 67.5312 78.5938V81.5938H47.0938V76.8828H60.3594V76.3203C60.3594 75.4297 60.1953 74.6484 59.8672 73.9766C59.5547 73.3047 59.0859 72.7891 58.4609 72.4297C57.8516 72.0547 57.0781 71.8672 56.1406 71.8672C55.25 71.8672 54.5078 72.0547 53.9141 72.4297C53.3203 72.8047 52.8438 73.3359 52.4844 74.0234C52.1406 74.6953 51.8906 75.4844 51.7344 76.3906C51.5781 77.2812 51.5 78.2422 51.5 79.2734V80.1641C51.5 81.1484 51.6328 82.0469 51.8984 82.8594C52.1641 83.6719 52.5547 84.3672 53.0703 84.9453C53.5859 85.5234 54.2109 85.9766 54.9453 86.3047C55.6797 86.6328 56.5156 86.7969 57.4531 86.7969C58.6094 86.7969 59.7109 86.5781 60.7578 86.1406C61.8047 85.6875 62.7109 84.9844 63.4766 84.0312L66.8984 87.9453C66.3828 88.6953 65.6562 89.4219 64.7188 90.125C63.7969 90.8125 62.6875 91.375 61.3906 91.8125C60.0938 92.25 58.625 92.4688 56.9844 92.4688ZM84.5938 84.9453C84.5938 84.4766 84.4453 84.0625 84.1484 83.7031C83.8672 83.3438 83.3516 83.0156 82.6016 82.7188C81.8672 82.4219 80.8281 82.125 79.4844 81.8281C78.2188 81.5625 77.0391 81.2188 75.9453 80.7969C74.8516 80.3594 73.8984 79.8359 73.0859 79.2266C72.2734 78.6016 71.6406 77.8672 71.1875 77.0234C70.7344 76.1641 70.5078 75.1875 70.5078 74.0938C70.5078 73.0312 70.7344 72.0234 71.1875 71.0703C71.6562 70.1172 72.3281 69.2734 73.2031 68.5391C74.0938 67.8047 75.1719 67.2266 76.4375 66.8047C77.7188 66.3828 79.1719 66.1719 80.7969 66.1719C83.0312 66.1719 84.9609 66.5234 86.5859 67.2266C88.2109 67.9141 89.4609 68.8828 90.3359 70.1328C91.2109 71.3672 91.6484 72.7812 91.6484 74.375H84.3359C84.3359 73.7188 84.2109 73.1484 83.9609 72.6641C83.7109 72.1797 83.3281 71.8047 82.8125 71.5391C82.2969 71.2578 81.6172 71.1172 80.7734 71.1172C80.1172 71.1172 79.5391 71.2344 79.0391 71.4688C78.5547 71.6875 78.1719 71.9922 77.8906 72.3828C77.625 72.7734 77.4922 73.2266 77.4922 73.7422C77.4922 74.1016 77.5703 74.4297 77.7266 74.7266C77.8984 75.0078 78.1562 75.2734 78.5 75.5234C78.8594 75.7578 79.3203 75.9688 79.8828 76.1562C80.4609 76.3438 81.1641 76.5234 81.9922 76.6953C83.7578 77.0234 85.3672 77.4844 86.8203 78.0781C88.2891 78.6719 89.4609 79.4922 90.3359 80.5391C91.2266 81.5859 91.6719 82.9688 91.6719 84.6875C91.6719 85.8125 91.4141 86.8438 90.8984 87.7812C90.3984 88.7188 89.6719 89.5391 88.7188 90.2422C87.7656 90.9453 86.625 91.4922 85.2969 91.8828C83.9688 92.2734 82.4688 92.4688 80.7969 92.4688C78.4062 92.4688 76.3828 92.0391 74.7266 91.1797C73.0703 90.3203 71.8203 89.2422 70.9766 87.9453C70.1484 86.6328 69.7344 85.2891 69.7344 83.9141H76.6016C76.6328 84.7578 76.8438 85.4453 77.2344 85.9766C77.6406 86.5078 78.1641 86.8984 78.8047 87.1484C79.4453 87.3828 80.1641 87.5 80.9609 87.5C81.7578 87.5 82.4219 87.3906 82.9531 87.1719C83.4844 86.9531 83.8906 86.6562 84.1719 86.2812C84.4531 85.8906 84.5938 85.4453 84.5938 84.9453ZM102.922 72.0547V92H95.5859V66.6406H102.477L102.922 72.0547ZM101.961 78.4297L100.133 78.4766C100.133 76.5703 100.367 74.8594 100.836 73.3438C101.305 71.8281 101.969 70.5391 102.828 69.4766C103.703 68.3984 104.742 67.5781 105.945 67.0156C107.164 66.4531 108.508 66.1719 109.977 66.1719C111.164 66.1719 112.25 66.3438 113.234 66.6875C114.219 67.0312 115.062 67.5859 115.766 68.3516C116.484 69.1016 117.031 70.1016 117.406 71.3516C117.781 72.5859 117.969 74.1094 117.969 75.9219V92H110.609V75.8984C110.609 74.8359 110.461 74.0156 110.164 73.4375C109.867 72.8594 109.43 72.4531 108.852 72.2188C108.289 71.9844 107.602 71.8672 106.789 71.8672C105.93 71.8672 105.195 72.0391 104.586 72.3828C103.977 72.7109 103.477 73.1719 103.086 73.7656C102.695 74.3594 102.406 75.0547 102.219 75.8516C102.047 76.6484 101.961 77.5078 101.961 78.4297ZM134.703 92.4688C132.688 92.4688 130.883 92.1484 129.289 91.5078C127.695 90.8672 126.344 89.9844 125.234 88.8594C124.141 87.7188 123.305 86.4062 122.727 84.9219C122.148 83.4375 121.859 81.8516 121.859 80.1641V79.2734C121.859 77.3828 122.125 75.6406 122.656 74.0469C123.188 72.4531 123.961 71.0703 124.977 69.8984C126.008 68.7109 127.273 67.7969 128.773 67.1562C130.273 66.5 131.984 66.1719 133.906 66.1719C135.703 66.1719 137.305 66.4688 138.711 67.0625C140.117 67.6406 141.305 68.4766 142.273 69.5703C143.242 70.6484 143.977 71.9531 144.477 73.4844C144.992 75 145.25 76.7031 145.25 78.5938V81.5938H124.812V76.8828H138.078V76.3203C138.078 75.4297 137.914 74.6484 137.586 73.9766C137.273 73.3047 136.805 72.7891 136.18 72.4297C135.57 72.0547 134.797 71.8672 133.859 71.8672C132.969 71.8672 132.227 72.0547 131.633 72.4297C131.039 72.8047 130.562 73.3359 130.203 74.0234C129.859 74.6953 129.609 75.4844 129.453 76.3906C129.297 77.2812 129.219 78.2422 129.219 79.2734V80.1641C129.219 81.1484 129.352 82.0469 129.617 82.8594C129.883 83.6719 130.273 84.3672 130.789 84.9453C131.305 85.5234 131.93 85.9766 132.664 86.3047C133.398 86.6328 134.234 86.7969 135.172 86.7969C136.328 86.7969 137.43 86.5781 138.477 86.1406C139.523 85.6875 140.43 84.9844 141.195 84.0312L144.617 87.9453C144.102 88.6953 143.375 89.4219 142.438 90.125C141.516 90.8125 140.406 91.375 139.109 91.8125C137.812 92.25 136.344 92.4688 134.703 92.4688ZM156.148 72.5469V92H148.836V66.6406H155.703L156.148 72.5469ZM163.719 66.4531L163.602 73.2734C163.289 73.2266 162.883 73.1875 162.383 73.1562C161.883 73.1094 161.453 73.0859 161.094 73.0859C160.156 73.0859 159.344 73.2031 158.656 73.4375C157.984 73.6562 157.422 73.9844 156.969 74.4219C156.531 74.8594 156.203 75.4062 155.984 76.0625C155.766 76.7031 155.656 77.4453 155.656 78.2891L154.273 77.6094C154.273 75.9375 154.438 74.4062 154.766 73.0156C155.094 71.625 155.57 70.4219 156.195 69.4062C156.82 68.375 157.586 67.5781 158.492 67.0156C159.398 66.4531 160.43 66.1719 161.586 66.1719C161.961 66.1719 162.344 66.1953 162.734 66.2422C163.125 66.2891 163.453 66.3594 163.719 66.4531Z" fill="white"/>
</g>
<defs>
<filter id="filter0_i_10_52" x="0.570312" y="0.445312" width="163.148" height="96.0234" filterUnits="userSpaceOnUse" color-interpolation-filters="sRGB">
<feFlood flood-opacity="0" result="BackgroundImageFix"/>
<feBlend mode="normal" in="SourceGraphic" in2="BackgroundImageFix" result="shape"/>
<feColorMatrix in="SourceAlpha" type="matrix" values="0 0 0 0 0 0 0 0 0 0 0 0 0 0 0 0 0 0 127 0" result="hardAlpha"/>
<feOffset dy="4"/>
<feGaussianBlur stdDeviation="2"/>
<feComposite in2="hardAlpha" operator="arithmetic" k2="-1" k3="1"/>
<feColorMatrix type="matrix" values="0 0 0 0 0 0 0 0 0 0 0 0 0 0 0 0 0 0 0.25 0"/>
<feBlend mode="normal" in2="shape" result="effect1_innerShadow_10_52"/>
</filter>
</defs>
</svg>
