<svg width="151" height="40" viewBox="0 0 151 40" fill="none" xmlns="http://www.w3.org/2000/svg">
<path d="M1.8 14.696H3.474L9.216 24.002H9.09V14.696H10.494L10.494 26H8.928L2.988 16.388H3.204L3.204 26H1.8L1.8 14.696ZM17.1107 26.216C16.3667 26.216 15.7007 26.027 15.1127 25.649C14.5307 25.265 14.0687 24.734 13.7267 24.056C13.3907 23.378 13.2227 22.598 13.2227 21.716C13.2227 20.774 13.3907 19.964 13.7267 19.286C14.0627 18.608 14.5217 18.089 15.1037 17.729C15.6917 17.363 16.3607 17.18 17.1107 17.18C17.7647 17.18 18.3227 17.312 18.7847 17.576C19.2467 17.84 19.6187 18.197 19.9007 18.647C20.1827 19.097 20.3777 19.607 20.4857 20.177C20.5997 20.741 20.6327 21.326 20.5847 21.932L14.3567 21.932V21.068L19.6577 21.068L19.2437 21.338C19.2617 20.984 19.2407 20.63 19.1807 20.276C19.1267 19.922 19.0217 19.598 18.8657 19.304C18.7097 19.004 18.4907 18.764 18.2087 18.584C17.9267 18.404 17.5667 18.314 17.1287 18.314C16.5767 18.314 16.1147 18.455 15.7427 18.737C15.3707 19.019 15.0917 19.391 14.9057 19.853C14.7197 20.309 14.6267 20.804 14.6267 21.338V21.914C14.6267 22.514 14.7167 23.051 14.8967 23.525C15.0827 23.999 15.3587 24.374 15.7247 24.65C16.0907 24.926 16.5527 25.064 17.1107 25.064C17.6687 25.064 18.1277 24.929 18.4877 24.659C18.8477 24.389 19.0667 23.99 19.1447 23.462H20.6027C20.5127 24.032 20.3087 24.524 19.9907 24.938C19.6727 25.346 19.2677 25.661 18.7757 25.883C18.2837 26.105 17.7287 26.216 17.1107 26.216ZM22.0188 26L25.2768 21.698L22.0188 17.378H23.7288L26.1948 20.636L28.5708 17.378H30.2808L27.0048 21.698L30.2628 26H28.5528L26.0868 22.724L23.7288 26H22.0188ZM35.2257 26.216C34.7577 26.216 34.3377 26.126 33.9657 25.946C33.5937 25.766 33.2997 25.496 33.0837 25.136C32.8677 24.776 32.7597 24.326 32.7597 23.786V15.002H34.1457V23.75C34.1457 24.638 34.5597 25.082 35.3877 25.082C35.6337 25.082 35.8707 25.055 36.0987 25.001C36.3327 24.947 36.5937 24.866 36.8817 24.758L37.0797 25.766C36.7737 25.898 36.4677 26.006 36.1617 26.09C35.8617 26.174 35.5497 26.216 35.2257 26.216ZM31.3737 18.368V17.396H36.8637V18.368H31.3737ZM47.5248 26.216C46.8948 26.216 46.3458 26.072 45.8778 25.784C45.4158 25.496 45.0588 25.076 44.8068 24.524C44.5548 23.966 44.4288 23.288 44.4288 22.49H45.0228C45.0228 23.024 45.1338 23.474 45.3558 23.84C45.5778 24.206 45.8658 24.485 46.2198 24.677C46.5798 24.863 46.9608 24.956 47.3628 24.956C47.7948 24.956 48.2088 24.833 48.6048 24.587C49.0008 24.335 49.3248 23.966 49.5768 23.48C49.8288 22.994 49.9548 22.394 49.9548 21.68C49.9548 20.996 49.8378 20.411 49.6038 19.925C49.3758 19.439 49.0668 19.067 48.6768 18.809C48.2868 18.551 47.8548 18.422 47.3808 18.422C46.9728 18.422 46.5888 18.521 46.2288 18.719C45.8688 18.917 45.5778 19.208 45.3558 19.592C45.1338 19.97 45.0228 20.438 45.0228 20.996H44.4288C44.4288 20.162 44.5668 19.463 44.8428 18.899C45.1188 18.329 45.4938 17.9 45.9678 17.612C46.4418 17.324 46.9728 17.18 47.5608 17.18C48.2328 17.18 48.8598 17.36 49.4418 17.72C50.0238 18.08 50.4948 18.596 50.8548 19.268C51.2148 19.94 51.3948 20.744 51.3948 21.68C51.3948 22.628 51.2118 23.441 50.8458 24.119C50.4858 24.797 50.0118 25.316 49.4238 25.676C48.8358 26.036 48.2028 26.216 47.5248 26.216ZM43.6188 30.23V17.396H44.7888L45.0228 19.412V30.23H43.6188ZM54.1481 26V17.378H55.5521V26L54.1481 26ZM55.1201 22.112C55.1201 21.02 55.2251 20.114 55.4351 19.394C55.6451 18.668 55.9511 18.128 56.3531 17.774C56.7611 17.414 57.2561 17.234 57.8381 17.234C58.0301 17.234 58.2041 17.249 58.3601 17.279C58.5221 17.303 58.6841 17.342 58.8461 17.396L58.7561 18.782C58.5881 18.728 58.4051 18.683 58.2071 18.647C58.0091 18.605 57.8321 18.584 57.6761 18.584C57.1661 18.584 56.7551 18.731 56.4431 19.025C56.1311 19.313 55.9031 19.721 55.7591 20.249C55.6211 20.777 55.5521 21.398 55.5521 22.112H55.1201ZM63.766 26.216C62.992 26.216 62.302 26.045 61.696 25.703C61.096 25.361 60.622 24.854 60.274 24.182C59.926 23.51 59.752 22.682 59.752 21.698C59.752 20.708 59.926 19.88 60.274 19.214C60.622 18.542 61.096 18.035 61.696 17.693C62.302 17.351 62.992 17.18 63.766 17.18C64.534 17.18 65.218 17.351 65.818 17.693C66.424 18.035 66.898 18.542 67.24 19.214C67.588 19.88 67.762 20.708 67.762 21.698C67.762 22.682 67.588 23.51 67.24 24.182C66.898 24.854 66.424 25.361 65.818 25.703C65.218 26.045 64.534 26.216 63.766 26.216ZM63.73 24.992C64.288 24.992 64.762 24.86 65.152 24.596C65.542 24.326 65.836 23.945 66.034 23.453C66.238 22.961 66.34 22.376 66.34 21.698C66.34 20.672 66.127 19.865 65.701 19.277C65.275 18.683 64.642 18.386 63.802 18.386C63.238 18.386 62.761 18.521 62.371 18.791C61.987 19.055 61.693 19.436 61.489 19.934C61.291 20.426 61.192 21.014 61.192 21.698C61.192 22.712 61.405 23.516 61.831 24.11C62.263 24.698 62.896 24.992 63.73 24.992ZM69.0737 17.396H70.6397L73.4477 24.776H73.1237L75.3017 17.396H76.7417L73.5017 27.728C73.2317 28.592 72.8717 29.258 72.4217 29.726C71.9717 30.194 71.3957 30.428 70.6937 30.428C70.3157 30.428 69.9557 30.374 69.6137 30.266C69.2777 30.158 68.9297 30.002 68.5697 29.798V28.502C68.8877 28.754 69.1937 28.934 69.4877 29.042C69.7877 29.15 70.0997 29.204 70.4237 29.204C70.7837 29.204 71.0837 29.09 71.3237 28.862C71.5697 28.634 71.7737 28.34 71.9357 27.98C72.0977 27.626 72.2357 27.254 72.3497 26.864L72.6017 26L69.0737 17.396ZM81.8685 26.216C81.1245 26.216 80.4585 26.027 79.8705 25.649C79.2885 25.265 78.8265 24.734 78.4845 24.056C78.1485 23.378 77.9805 22.598 77.9805 21.716C77.9805 20.774 78.1485 19.964 78.4845 19.286C78.8205 18.608 79.2795 18.089 79.8615 17.729C80.4495 17.363 81.1185 17.18 81.8685 17.18C82.5225 17.18 83.0805 17.312 83.5425 17.576C84.0045 17.84 84.3765 18.197 84.6585 18.647C84.9405 19.097 85.1355 19.607 85.2435 20.177C85.3575 20.741 85.3905 21.326 85.3425 21.932H79.1145V21.068H84.4155L84.0015 21.338C84.0195 20.984 83.9985 20.63 83.9385 20.276C83.8845 19.922 83.7795 19.598 83.6235 19.304C83.4675 19.004 83.2485 18.764 82.9665 18.584C82.6845 18.404 82.3245 18.314 81.8865 18.314C81.3345 18.314 80.8725 18.455 80.5005 18.737C80.1285 19.019 79.8495 19.391 79.6635 19.853C79.4775 20.309 79.3845 20.804 79.3845 21.338V21.914C79.3845 22.514 79.4745 23.051 79.6545 23.525C79.8405 23.999 80.1165 24.374 80.4825 24.65C80.8485 24.926 81.3105 25.064 81.8685 25.064C82.4265 25.064 82.8855 24.929 83.2455 24.659C83.6055 24.389 83.8245 23.99 83.9025 23.462H85.3605C85.2705 24.032 85.0665 24.524 84.7485 24.938C84.4305 25.346 84.0255 25.661 83.5335 25.883C83.0415 26.105 82.4865 26.216 81.8685 26.216ZM91.1506 26.216C90.4606 26.216 89.8156 26.03 89.2156 25.658C88.6216 25.286 88.1416 24.761 87.7756 24.083C87.4096 23.405 87.2266 22.604 87.2266 21.68C87.2266 20.732 87.4096 19.922 87.7756 19.25C88.1416 18.578 88.6216 18.065 89.2156 17.711C89.8156 17.357 90.4606 17.18 91.1506 17.18C91.6366 17.18 92.0716 17.255 92.4556 17.405C92.8456 17.549 93.1846 17.75 93.4726 18.008C93.7606 18.266 93.9976 18.56 94.1836 18.89C94.3756 19.214 94.5166 19.556 94.6066 19.916L93.1666 20.042C93.0166 19.544 92.7646 19.151 92.4106 18.863C92.0626 18.569 91.6366 18.422 91.1326 18.422C90.7066 18.422 90.3046 18.545 89.9266 18.791C89.5546 19.031 89.2516 19.394 89.0176 19.88C88.7836 20.36 88.6666 20.96 88.6666 21.68C88.6666 22.346 88.7716 22.925 88.9816 23.417C89.1976 23.903 89.4916 24.281 89.8636 24.551C90.2356 24.821 90.6586 24.956 91.1326 24.956C91.7986 24.956 92.3026 24.794 92.6446 24.47C92.9926 24.14 93.1666 23.684 93.1666 23.102H94.6066C94.6066 23.702 94.4656 24.236 94.1836 24.704C93.9016 25.172 93.4996 25.541 92.9776 25.811C92.4616 26.081 91.8526 26.216 91.1506 26.216ZM100.054 26.216C99.5858 26.216 99.1658 26.126 98.7938 25.946C98.4218 25.766 98.1278 25.496 97.9118 25.136C97.6958 24.776 97.5878 24.326 97.5878 23.786V15.002H98.9738V23.75C98.9738 24.638 99.3878 25.082 100.216 25.082C100.462 25.082 100.699 25.055 100.927 25.001C101.161 24.947 101.422 24.866 101.71 24.758L101.908 25.766C101.602 25.898 101.296 26.006 100.99 26.09C100.69 26.174 100.378 26.216 100.054 26.216ZM96.2018 18.368V17.396H101.692V18.368H96.2018Z" fill="#3DCFB6"/>
<mask id="mask0_3001_2617" style="mask-type:alpha" maskUnits="userSpaceOnUse" x="111" y="4" width="32" height="32">
<rect x="111" y="4" width="32" height="32" fill="#D9D9D9"/>
</mask>
<g mask="url(#mask0_3001_2617)">
<path d="M133.772 20.6667H118.333C118.144 20.6667 117.985 20.603 117.858 20.4757C117.73 20.3484 117.667 20.1898 117.667 20C117.667 19.8102 117.73 19.6517 117.858 19.5244C117.985 19.397 118.144 19.3334 118.333 19.3334H133.772L126.521 12.082C126.391 11.9522 126.323 11.7992 126.317 11.623C126.311 11.447 126.381 11.2855 126.528 11.1384C126.675 10.9966 126.833 10.9244 127 10.9217C127.168 10.9192 127.325 10.9915 127.472 11.1384L135.579 19.246C135.696 19.3625 135.778 19.4814 135.824 19.6027C135.872 19.724 135.895 19.8565 135.895 20C135.895 20.1436 135.872 20.276 135.824 20.3974C135.778 20.5187 135.696 20.6376 135.579 20.754L127.472 28.8617C127.347 28.9864 127.195 29.053 127.017 29.0617C126.838 29.0701 126.675 29.0035 126.528 28.8617C126.381 28.7146 126.308 28.556 126.308 28.386C126.308 28.2158 126.381 28.0572 126.528 27.9104L133.772 20.6667Z" fill="#3DCFB6"/>
</g>
</svg>
