<svg width="497" height="28" viewBox="0 0 497 28" fill="none" xmlns="http://www.w3.org/2000/svg">
<path d="M9.328 17.798L2.2 7.304L3.124 6.908L4.246 6.6L10.406 15.73L9.328 17.798ZM1.958 22V6.6H4.114V22H1.958ZM9.328 17.798L8.272 15.73L14.432 6.6L15.554 6.908L16.456 7.282L9.328 17.798ZM14.564 22V6.6H16.72V22H14.564ZM20.2539 22L20.2979 11H22.3659L22.3439 22H20.2539ZM21.3099 8.668C20.9726 8.668 20.6793 8.54333 20.4299 8.294C20.1806 8.03 20.0559 7.72933 20.0559 7.392C20.0559 7.04 20.1806 6.74667 20.4299 6.512C20.6793 6.26267 20.9726 6.138 21.3099 6.138C21.6619 6.138 21.9553 6.26267 22.1899 6.512C22.4393 6.74667 22.5639 7.04 22.5639 7.392C22.5639 7.72933 22.4393 8.03 22.1899 8.294C21.9553 8.54333 21.6619 8.668 21.3099 8.668ZM29.6531 22.264C28.5531 22.264 27.7024 21.9853 27.1011 21.428C26.4997 20.856 26.1991 20.042 26.1991 18.986V7.568H28.2891V18.678C28.2891 19.2207 28.4211 19.6387 28.6851 19.932C28.9637 20.2107 29.3597 20.35 29.8731 20.35C30.0197 20.35 30.1811 20.3207 30.3571 20.262C30.5331 20.2033 30.7457 20.086 30.9951 19.91L31.7871 21.538C31.4057 21.7873 31.0391 21.9707 30.6871 22.088C30.3497 22.2053 30.0051 22.264 29.6531 22.264ZM24.3291 12.804V11H31.4131V12.804H24.3291Z" fill="white"/>
<path d="M53 24L44.477 14.8554C43.7287 14.0853 43.2348 13.0927 43.0652 12.018C42.8956 10.9433 43.0589 9.84093 43.532 8.86696C43.8894 8.13186 44.4116 7.49465 45.0554 7.00783C45.6992 6.52101 46.4462 6.19852 47.2349 6.06692C48.0236 5.93533 48.8315 5.9984 49.5918 6.25093C50.3522 6.50347 51.0434 6.93825 51.6084 7.51944L53 8.95097L54.3916 7.51944C54.9566 6.93825 55.6478 6.50347 56.4082 6.25093C57.1685 5.9984 57.9764 5.93533 58.7651 6.06692C59.5538 6.19852 60.3008 6.52101 60.9446 7.00783C61.5884 7.49465 62.1106 8.13186 62.468 8.86696C62.9411 9.84093 63.1044 10.9433 62.9348 12.018C62.7652 13.0927 62.2713 14.0853 61.523 14.8554L53 24Z" stroke="#70E61C" stroke-width="2.1" stroke-linecap="round" stroke-linejoin="round"/>
<path d="M82.504 22L82.416 19.954V6.6H84.484V22H82.504ZM78.808 22.264C77.8107 22.264 76.938 22.022 76.19 21.538C75.4567 21.054 74.8773 20.3793 74.452 19.514C74.0413 18.6487 73.836 17.644 73.836 16.5C73.836 15.3413 74.0413 14.3367 74.452 13.486C74.8773 12.6207 75.4567 11.946 76.19 11.462C76.938 10.978 77.8107 10.736 78.808 10.736C79.732 10.736 80.5313 10.978 81.206 11.462C81.8953 11.946 82.4233 12.6207 82.79 13.486C83.1567 14.3367 83.34 15.3413 83.34 16.5C83.34 17.644 83.1567 18.6487 82.79 19.514C82.4233 20.3793 81.8953 21.054 81.206 21.538C80.5313 22.022 79.732 22.264 78.808 22.264ZM79.292 20.372C79.908 20.372 80.4507 20.2107 80.92 19.888C81.3893 19.5507 81.756 19.096 82.02 18.524C82.284 17.9373 82.416 17.2627 82.416 16.5C82.416 15.7373 82.284 15.07 82.02 14.498C81.756 13.9113 81.3893 13.4567 80.92 13.134C80.4507 12.7967 79.9007 12.628 79.27 12.628C78.6247 12.628 78.0527 12.7967 77.554 13.134C77.0553 13.4567 76.6667 13.9113 76.388 14.498C76.1093 15.07 75.97 15.7373 75.97 16.5C75.97 17.2627 76.1093 17.9373 76.388 18.524C76.6813 19.096 77.0773 19.5507 77.576 19.888C78.0747 20.2107 78.6467 20.372 79.292 20.372ZM92.2476 22.264C91.1769 22.264 90.2309 22.022 89.4096 21.538C88.5883 21.0393 87.9429 20.3573 87.4736 19.492C87.0043 18.6267 86.7696 17.6293 86.7696 16.5C86.7696 15.3707 87.0043 14.3733 87.4736 13.508C87.9429 12.6427 88.5883 11.968 89.4096 11.484C90.2456 10.9853 91.1989 10.736 92.2696 10.736C93.2669 10.736 94.1469 10.9927 94.9096 11.506C95.6869 12.0047 96.2883 12.7233 96.7136 13.662C97.1536 14.586 97.3736 15.6787 97.3736 16.94H95.2836C95.2983 16.0013 95.1809 15.2093 94.9316 14.564C94.6969 13.9187 94.3449 13.4347 93.8756 13.112C93.4209 12.7747 92.8709 12.606 92.2256 12.606C91.5363 12.606 90.9423 12.7673 90.4436 13.09C89.9449 13.398 89.5563 13.8453 89.2776 14.432C89.0136 15.004 88.8816 15.708 88.8816 16.544C88.8816 17.3213 89.0356 17.996 89.3436 18.568C89.6516 19.1253 90.0696 19.5653 90.5976 19.888C91.1256 20.196 91.7269 20.35 92.4016 20.35C93.1203 20.35 93.7143 20.1813 94.1836 19.844C94.6676 19.5067 95.0489 19.074 95.3276 18.546L97.1976 19.404C96.9043 19.976 96.5229 20.482 96.0536 20.922C95.5843 21.3473 95.0269 21.6773 94.3816 21.912C93.7509 22.1467 93.0396 22.264 92.2476 22.264ZM88.1336 16.94L88.1556 15.224H96.2076V16.94H88.1336ZM103.376 22.264C102.599 22.264 101.902 22.1467 101.286 21.912C100.685 21.6773 100.172 21.362 99.7463 20.966C99.3357 20.57 99.0277 20.1227 98.8223 19.624L100.626 18.832C100.861 19.2867 101.213 19.6607 101.682 19.954C102.152 20.2473 102.672 20.394 103.244 20.394C103.875 20.394 104.396 20.2767 104.806 20.042C105.217 19.8073 105.422 19.4773 105.422 19.052C105.422 18.6413 105.268 18.3187 104.96 18.084C104.652 17.8493 104.205 17.6587 103.618 17.512L102.584 17.248C101.558 16.9693 100.758 16.5513 100.186 15.994C99.629 15.4367 99.3503 14.806 99.3503 14.102C99.3503 13.0313 99.695 12.2027 100.384 11.616C101.074 11.0293 102.093 10.736 103.442 10.736C104.102 10.736 104.704 10.8313 105.246 11.022C105.804 11.2127 106.273 11.484 106.654 11.836C107.05 12.188 107.329 12.606 107.49 13.09L105.73 13.882C105.554 13.442 105.254 13.1193 104.828 12.914C104.403 12.694 103.904 12.584 103.332 12.584C102.746 12.584 102.284 12.716 101.946 12.98C101.609 13.2293 101.44 13.5813 101.44 14.036C101.44 14.2853 101.58 14.5273 101.858 14.762C102.152 14.982 102.577 15.1653 103.134 15.312L104.322 15.598C105.041 15.774 105.635 16.0453 106.104 16.412C106.574 16.764 106.926 17.1673 107.16 17.622C107.395 18.062 107.512 18.524 107.512 19.008C107.512 19.668 107.329 20.2473 106.962 20.746C106.61 21.23 106.119 21.604 105.488 21.868C104.872 22.132 104.168 22.264 103.376 22.264ZM109.818 22L109.862 11H111.93L111.908 22H109.818ZM110.874 8.668C110.537 8.668 110.244 8.54333 109.994 8.294C109.745 8.03 109.62 7.72933 109.62 7.392C109.62 7.04 109.745 6.74667 109.994 6.512C110.244 6.26267 110.537 6.138 110.874 6.138C111.226 6.138 111.52 6.26267 111.754 6.512C112.004 6.74667 112.128 7.04 112.128 7.392C112.128 7.72933 112.004 8.03 111.754 8.294C111.52 8.54333 111.226 8.668 110.874 8.668ZM119.526 26.686C118.792 26.686 118.125 26.6127 117.524 26.466C116.922 26.334 116.416 26.18 116.006 26.004C115.595 25.828 115.287 25.674 115.082 25.542L115.874 23.848C116.064 23.9653 116.336 24.0973 116.688 24.244C117.04 24.4053 117.45 24.5373 117.92 24.64C118.389 24.7573 118.91 24.816 119.482 24.816C120.156 24.816 120.758 24.6767 121.286 24.398C121.814 24.134 122.224 23.716 122.518 23.144C122.826 22.572 122.98 21.8387 122.98 20.944V11H125.07V20.9C125.07 22.1613 124.828 23.2173 124.344 24.068C123.874 24.9333 123.222 25.586 122.386 26.026C121.564 26.466 120.611 26.686 119.526 26.686ZM119.328 21.846C118.33 21.846 117.458 21.6187 116.71 21.164C115.976 20.6947 115.397 20.0493 114.972 19.228C114.561 18.392 114.356 17.4313 114.356 16.346C114.356 15.2167 114.561 14.234 114.972 13.398C115.397 12.562 115.976 11.9093 116.71 11.44C117.458 10.9707 118.33 10.736 119.328 10.736C120.237 10.736 121.029 10.9707 121.704 11.44C122.393 11.9093 122.921 12.5693 123.288 13.42C123.669 14.256 123.86 15.2387 123.86 16.368C123.86 17.4533 123.669 18.414 123.288 19.25C122.921 20.0713 122.393 20.7093 121.704 21.164C121.029 21.6187 120.237 21.846 119.328 21.846ZM119.856 20.086C120.472 20.086 121.007 19.9247 121.462 19.602C121.916 19.2647 122.276 18.8173 122.54 18.26C122.804 17.688 122.936 17.0353 122.936 16.302C122.936 15.5687 122.804 14.9233 122.54 14.366C122.276 13.8087 121.909 13.376 121.44 13.068C120.985 12.7453 120.45 12.584 119.834 12.584C119.188 12.584 118.616 12.7453 118.118 13.068C117.634 13.376 117.252 13.8087 116.974 14.366C116.695 14.9233 116.556 15.5687 116.556 16.302C116.556 17.0353 116.695 17.688 116.974 18.26C117.267 18.8173 117.656 19.2647 118.14 19.602C118.638 19.9247 119.21 20.086 119.856 20.086ZM127.97 22V11H129.928L130.06 13.024V22H127.97ZM135.582 22V16.368L137.672 15.708V22H135.582ZM135.582 16.368C135.582 15.3707 135.464 14.6153 135.23 14.102C135.01 13.574 134.694 13.2073 134.284 13.002C133.888 12.7967 133.426 12.6867 132.898 12.672C132.003 12.672 131.306 12.9873 130.808 13.618C130.309 14.2487 130.06 15.136 130.06 16.28H129.158C129.158 15.1213 129.326 14.1313 129.664 13.31C130.001 12.474 130.485 11.836 131.116 11.396C131.761 10.956 132.531 10.736 133.426 10.736C134.746 10.736 135.78 11.1467 136.528 11.968C137.29 12.7747 137.672 14.0213 137.672 15.708L135.582 16.368ZM145.164 22.264C144.093 22.264 143.147 22.022 142.326 21.538C141.504 21.0393 140.859 20.3573 140.39 19.492C139.92 18.6267 139.686 17.6293 139.686 16.5C139.686 15.3707 139.92 14.3733 140.39 13.508C140.859 12.6427 141.504 11.968 142.326 11.484C143.162 10.9853 144.115 10.736 145.186 10.736C146.183 10.736 147.063 10.9927 147.826 11.506C148.603 12.0047 149.204 12.7233 149.63 13.662C150.07 14.586 150.29 15.6787 150.29 16.94H148.2C148.214 16.0013 148.097 15.2093 147.848 14.564C147.613 13.9187 147.261 13.4347 146.792 13.112C146.337 12.7747 145.787 12.606 145.142 12.606C144.452 12.606 143.858 12.7673 143.36 13.09C142.861 13.398 142.472 13.8453 142.194 14.432C141.93 15.004 141.798 15.708 141.798 16.544C141.798 17.3213 141.952 17.996 142.26 18.568C142.568 19.1253 142.986 19.5653 143.514 19.888C144.042 20.196 144.643 20.35 145.318 20.35C146.036 20.35 146.63 20.1813 147.1 19.844C147.584 19.5067 147.965 19.074 148.244 18.546L150.114 19.404C149.82 19.976 149.439 20.482 148.97 20.922C148.5 21.3473 147.943 21.6773 147.298 21.912C146.667 22.1467 145.956 22.264 145.164 22.264ZM141.05 16.94L141.072 15.224H149.124V16.94H141.05ZM160.406 22L160.318 19.954V6.6H162.386V22H160.406ZM156.71 22.264C155.713 22.264 154.84 22.022 154.092 21.538C153.359 21.054 152.78 20.3793 152.354 19.514C151.944 18.6487 151.738 17.644 151.738 16.5C151.738 15.3413 151.944 14.3367 152.354 13.486C152.78 12.6207 153.359 11.946 154.092 11.462C154.84 10.978 155.713 10.736 156.71 10.736C157.634 10.736 158.434 10.978 159.108 11.462C159.798 11.946 160.326 12.6207 160.692 13.486C161.059 14.3367 161.242 15.3413 161.242 16.5C161.242 17.644 161.059 18.6487 160.692 19.514C160.326 20.3793 159.798 21.054 159.108 21.538C158.434 22.022 157.634 22.264 156.71 22.264ZM157.194 20.372C157.81 20.372 158.353 20.2107 158.822 19.888C159.292 19.5507 159.658 19.096 159.922 18.524C160.186 17.9373 160.318 17.2627 160.318 16.5C160.318 15.7373 160.186 15.07 159.922 14.498C159.658 13.9113 159.292 13.4567 158.822 13.134C158.353 12.7967 157.803 12.628 157.172 12.628C156.527 12.628 155.955 12.7967 155.456 13.134C154.958 13.4567 154.569 13.9113 154.29 14.498C154.012 15.07 153.872 15.7373 153.872 16.5C153.872 17.2627 154.012 17.9373 154.29 18.524C154.584 19.096 154.98 19.5507 155.478 19.888C155.977 20.2107 156.549 20.372 157.194 20.372ZM170.659 22V6.6H172.749V19.954L172.639 22H170.659ZM176.357 22.264C175.433 22.264 174.626 22.022 173.937 21.538C173.262 21.054 172.742 20.3793 172.375 19.514C172.008 18.6487 171.825 17.644 171.825 16.5C171.825 15.3413 172.008 14.3367 172.375 13.486C172.742 12.6207 173.262 11.946 173.937 11.462C174.626 10.978 175.433 10.736 176.357 10.736C177.34 10.736 178.205 10.978 178.953 11.462C179.701 11.946 180.28 12.6207 180.691 13.486C181.116 14.3367 181.329 15.3413 181.329 16.5C181.329 17.644 181.116 18.6487 180.691 19.514C180.28 20.3793 179.701 21.054 178.953 21.538C178.205 22.022 177.34 22.264 176.357 22.264ZM175.851 20.372C176.511 20.372 177.09 20.2107 177.589 19.888C178.088 19.5507 178.476 19.096 178.755 18.524C179.048 17.9373 179.195 17.2627 179.195 16.5C179.195 15.7373 179.056 15.07 178.777 14.498C178.498 13.9113 178.11 13.4567 177.611 13.134C177.112 12.7967 176.533 12.628 175.873 12.628C175.272 12.628 174.729 12.7967 174.245 13.134C173.776 13.4567 173.409 13.9113 173.145 14.498C172.881 15.0847 172.749 15.752 172.749 16.5C172.749 17.2627 172.881 17.9373 173.145 18.524C173.409 19.096 173.776 19.5507 174.245 19.888C174.714 20.2107 175.25 20.372 175.851 20.372ZM184.612 26.664C184.29 26.664 183.93 26.6053 183.534 26.488C183.153 26.3707 182.757 26.2167 182.346 26.026L183.116 24.31C183.439 24.4567 183.718 24.5667 183.952 24.64C184.202 24.7133 184.4 24.75 184.546 24.75C184.913 24.75 185.221 24.6473 185.47 24.442C185.734 24.2367 185.947 23.9507 186.108 23.584L187.384 20.57L191.3 11H193.544L188.33 23.364C188.052 24.0387 187.758 24.6253 187.45 25.124C187.142 25.6227 186.761 26.004 186.306 26.268C185.866 26.532 185.302 26.664 184.612 26.664ZM186.812 22L181.994 11H184.216L188.198 20.548L188.836 22H186.812ZM201.028 22V6.6H203.184V22H201.028ZM202.832 22V20.02H210.334V22H202.832ZM202.832 15.092V13.156H209.586V15.092H202.832ZM202.832 8.58V6.6H210.29V8.58H202.832ZM217.458 22.264C216.681 22.264 215.984 22.1467 215.368 21.912C214.767 21.6773 214.254 21.362 213.828 20.966C213.418 20.57 213.11 20.1227 212.904 19.624L214.708 18.832C214.943 19.2867 215.295 19.6607 215.764 19.954C216.234 20.2473 216.754 20.394 217.326 20.394C217.957 20.394 218.478 20.2767 218.888 20.042C219.299 19.8073 219.504 19.4773 219.504 19.052C219.504 18.6413 219.35 18.3187 219.042 18.084C218.734 17.8493 218.287 17.6587 217.7 17.512L216.666 17.248C215.64 16.9693 214.84 16.5513 214.268 15.994C213.711 15.4367 213.432 14.806 213.432 14.102C213.432 13.0313 213.777 12.2027 214.466 11.616C215.156 11.0293 216.175 10.736 217.524 10.736C218.184 10.736 218.786 10.8313 219.328 11.022C219.886 11.2127 220.355 11.484 220.736 11.836C221.132 12.188 221.411 12.606 221.572 13.09L219.812 13.882C219.636 13.442 219.336 13.1193 218.91 12.914C218.485 12.694 217.986 12.584 217.414 12.584C216.828 12.584 216.366 12.716 216.028 12.98C215.691 13.2293 215.522 13.5813 215.522 14.036C215.522 14.2853 215.662 14.5273 215.94 14.762C216.234 14.982 216.659 15.1653 217.216 15.312L218.404 15.598C219.123 15.774 219.717 16.0453 220.186 16.412C220.656 16.764 221.008 17.1673 221.242 17.622C221.477 18.062 221.594 18.524 221.594 19.008C221.594 19.668 221.411 20.2473 221.044 20.746C220.692 21.23 220.201 21.604 219.57 21.868C218.954 22.132 218.25 22.264 217.458 22.264ZM228.014 22.264C226.914 22.264 226.064 21.9853 225.462 21.428C224.861 20.856 224.56 20.042 224.56 18.986V7.568H226.65V18.678C226.65 19.2207 226.782 19.6387 227.046 19.932C227.325 20.2107 227.721 20.35 228.234 20.35C228.381 20.35 228.542 20.3207 228.718 20.262C228.894 20.2033 229.107 20.086 229.356 19.91L230.148 21.538C229.767 21.7873 229.4 21.9707 229.048 22.088C228.711 22.2053 228.366 22.264 228.014 22.264ZM222.69 12.804V11H229.774V12.804H222.69ZM236.988 22.264C235.917 22.264 234.971 22.022 234.15 21.538C233.328 21.0393 232.683 20.3573 232.214 19.492C231.744 18.6267 231.51 17.6293 231.51 16.5C231.51 15.3707 231.744 14.3733 232.214 13.508C232.683 12.6427 233.328 11.968 234.15 11.484C234.986 10.9853 235.939 10.736 237.01 10.736C238.007 10.736 238.887 10.9927 239.65 11.506C240.427 12.0047 241.028 12.7233 241.454 13.662C241.894 14.586 242.114 15.6787 242.114 16.94H240.024C240.038 16.0013 239.921 15.2093 239.672 14.564C239.437 13.9187 239.085 13.4347 238.616 13.112C238.161 12.7747 237.611 12.606 236.966 12.606C236.276 12.606 235.682 12.7673 235.184 13.09C234.685 13.398 234.296 13.8453 234.018 14.432C233.754 15.004 233.622 15.708 233.622 16.544C233.622 17.3213 233.776 17.996 234.084 18.568C234.392 19.1253 234.81 19.5653 235.338 19.888C235.866 20.196 236.467 20.35 237.142 20.35C237.86 20.35 238.454 20.1813 238.924 19.844C239.408 19.5067 239.789 19.074 240.068 18.546L241.938 19.404C241.644 19.976 241.263 20.482 240.794 20.922C240.324 21.3473 239.767 21.6773 239.122 21.912C238.491 22.1467 237.78 22.264 236.988 22.264ZM232.874 16.94L232.896 15.224H240.948V16.94H232.874ZM245.279 22V9.79C245.279 8.63133 245.557 7.75867 246.115 7.172C246.672 6.57067 247.515 6.27 248.645 6.27C248.982 6.27 249.349 6.32867 249.745 6.446C250.141 6.54867 250.544 6.69533 250.955 6.886L250.185 8.492C249.877 8.34533 249.605 8.24267 249.371 8.184C249.151 8.11067 248.96 8.074 248.799 8.074C248.315 8.074 247.955 8.23533 247.721 8.558C247.486 8.866 247.369 9.35 247.369 10.01V22H245.279ZM243.321 12.738V11H250.405V12.738H243.321ZM259.053 22L258.943 20.086V16.258C258.943 15.4513 258.848 14.784 258.657 14.256C258.481 13.7133 258.202 13.3027 257.821 13.024C257.454 12.7453 256.963 12.606 256.347 12.606C255.775 12.606 255.269 12.7233 254.829 12.958C254.404 13.1927 254.052 13.5593 253.773 14.058L251.881 13.354C252.145 12.8553 252.482 12.408 252.893 12.012C253.304 11.616 253.795 11.308 254.367 11.088C254.954 10.8533 255.628 10.736 256.391 10.736C257.418 10.736 258.276 10.934 258.965 11.33C259.669 11.726 260.19 12.32 260.527 13.112C260.879 13.8893 261.048 14.8573 261.033 16.016L261.011 22H259.053ZM255.841 22.264C254.536 22.264 253.516 21.9707 252.783 21.384C252.064 20.7827 251.705 19.954 251.705 18.898C251.705 17.7687 252.079 16.9107 252.827 16.324C253.59 15.7227 254.646 15.422 255.995 15.422H259.053V17.072H256.567C255.555 17.072 254.844 17.2333 254.433 17.556C254.022 17.864 253.817 18.2967 253.817 18.854C253.817 19.3673 254.008 19.7707 254.389 20.064C254.785 20.3427 255.328 20.482 256.017 20.482C256.618 20.482 257.132 20.3427 257.557 20.064C257.997 19.7853 258.334 19.4187 258.569 18.964C258.818 18.4947 258.943 17.974 258.943 17.402H259.933C259.933 18.898 259.588 20.086 258.899 20.966C258.21 21.8313 257.19 22.264 255.841 22.264ZM263.665 22V11H265.623L265.755 13.024V22H263.665ZM271.277 22V16.368L273.367 15.708V22H271.277ZM271.277 16.368C271.277 15.3707 271.16 14.6153 270.925 14.102C270.705 13.574 270.39 13.2073 269.979 13.002C269.583 12.7967 269.121 12.6867 268.593 12.672C267.698 12.672 267.002 12.9873 266.503 13.618C266.004 14.2487 265.755 15.136 265.755 16.28H264.853C264.853 15.1213 265.022 14.1313 265.359 13.31C265.696 12.474 266.18 11.836 266.811 11.396C267.456 10.956 268.226 10.736 269.121 10.736C270.441 10.736 271.475 11.1467 272.223 11.968C272.986 12.7747 273.367 14.0213 273.367 15.708L271.277 16.368ZM276.129 22L276.173 11H278.241L278.219 22H276.129ZM275.579 9.504L278.153 6.6H280.683L277.845 9.504H275.579ZM288.014 22L287.904 20.086V16.258C287.904 15.4513 287.809 14.784 287.618 14.256C287.442 13.7133 287.163 13.3027 286.782 13.024C286.415 12.7453 285.924 12.606 285.308 12.606C284.736 12.606 284.23 12.7233 283.79 12.958C283.365 13.1927 283.013 13.5593 282.734 14.058L280.842 13.354C281.106 12.8553 281.443 12.408 281.854 12.012C282.265 11.616 282.756 11.308 283.328 11.088C283.915 10.8533 284.589 10.736 285.352 10.736C286.379 10.736 287.237 10.934 287.926 11.33C288.63 11.726 289.151 12.32 289.488 13.112C289.84 13.8893 290.009 14.8573 289.994 16.016L289.972 22H288.014ZM284.802 22.264C283.497 22.264 282.477 21.9707 281.744 21.384C281.025 20.7827 280.666 19.954 280.666 18.898C280.666 17.7687 281.04 16.9107 281.788 16.324C282.551 15.7227 283.607 15.422 284.956 15.422H288.014V17.072H285.528C284.516 17.072 283.805 17.2333 283.394 17.556C282.983 17.864 282.778 18.2967 282.778 18.854C282.778 19.3673 282.969 19.7707 283.35 20.064C283.746 20.3427 284.289 20.482 284.978 20.482C285.579 20.482 286.093 20.3427 286.518 20.064C286.958 19.7853 287.295 19.4187 287.53 18.964C287.779 18.4947 287.904 17.974 287.904 17.402H288.894C288.894 18.898 288.549 20.086 287.86 20.966C287.171 21.8313 286.151 22.264 284.802 22.264ZM301.451 22L305.851 11H308.029L303.431 22H301.451ZM301.319 22L296.743 11H298.877L303.277 22H301.319ZM314.356 22.264C313.256 22.264 312.288 22.022 311.452 21.538C310.616 21.0393 309.956 20.3573 309.472 19.492C309.002 18.6267 308.768 17.6293 308.768 16.5C308.768 15.3707 309.002 14.3733 309.472 13.508C309.941 12.6427 310.594 11.968 311.43 11.484C312.266 10.9853 313.226 10.736 314.312 10.736C315.397 10.736 316.358 10.9853 317.194 11.484C318.03 11.968 318.682 12.6427 319.152 13.508C319.621 14.3733 319.856 15.3707 319.856 16.5C319.856 17.6293 319.621 18.6267 319.152 19.492C318.682 20.3573 318.03 21.0393 317.194 21.538C316.372 22.022 315.426 22.264 314.356 22.264ZM314.356 20.35C315.016 20.35 315.602 20.1887 316.116 19.866C316.629 19.5287 317.025 19.074 317.304 18.502C317.597 17.93 317.744 17.2627 317.744 16.5C317.744 15.7373 317.597 15.07 317.304 14.498C317.025 13.926 316.622 13.4787 316.094 13.156C315.566 12.8187 314.972 12.65 314.312 12.65C313.637 12.65 313.043 12.8187 312.53 13.156C312.016 13.4787 311.613 13.926 311.32 14.498C311.026 15.07 310.88 15.7373 310.88 16.5C310.88 17.2627 311.026 17.93 311.32 18.502C311.613 19.074 312.024 19.5287 312.552 19.866C313.08 20.1887 313.681 20.35 314.356 20.35ZM322.145 22V11H324.103L324.235 13.024V22H322.145ZM329.757 22V16.368L331.847 15.708V22H329.757ZM329.757 16.368C329.757 15.3707 329.64 14.6153 329.405 14.102C329.185 13.574 328.87 13.2073 328.459 13.002C328.063 12.7967 327.601 12.6867 327.073 12.672C326.179 12.672 325.482 12.9873 324.983 13.618C324.485 14.2487 324.235 15.136 324.235 16.28H323.333C323.333 15.1213 323.502 14.1313 323.839 13.31C324.177 12.474 324.661 11.836 325.291 11.396C325.937 10.956 326.707 10.736 327.601 10.736C328.921 10.736 329.955 11.1467 330.703 11.968C331.466 12.7747 331.847 14.0213 331.847 15.708L329.757 16.368ZM347.9 22L347.812 19.954V6.6H349.88V22H347.9ZM344.204 22.264C343.207 22.264 342.334 22.022 341.586 21.538C340.853 21.054 340.274 20.3793 339.848 19.514C339.438 18.6487 339.232 17.644 339.232 16.5C339.232 15.3413 339.438 14.3367 339.848 13.486C340.274 12.6207 340.853 11.946 341.586 11.462C342.334 10.978 343.207 10.736 344.204 10.736C345.128 10.736 345.928 10.978 346.602 11.462C347.292 11.946 347.82 12.6207 348.186 13.486C348.553 14.3367 348.736 15.3413 348.736 16.5C348.736 17.644 348.553 18.6487 348.186 19.514C347.82 20.3793 347.292 21.054 346.602 21.538C345.928 22.022 345.128 22.264 344.204 22.264ZM344.688 20.372C345.304 20.372 345.847 20.2107 346.316 19.888C346.786 19.5507 347.152 19.096 347.416 18.524C347.68 17.9373 347.812 17.2627 347.812 16.5C347.812 15.7373 347.68 15.07 347.416 14.498C347.152 13.9113 346.786 13.4567 346.316 13.134C345.847 12.7967 345.297 12.628 344.666 12.628C344.021 12.628 343.449 12.7967 342.95 13.134C342.452 13.4567 342.063 13.9113 341.784 14.498C341.506 15.07 341.366 15.7373 341.366 16.5C341.366 17.2627 341.506 17.9373 341.784 18.524C342.078 19.096 342.474 19.5507 342.972 19.888C343.471 20.2107 344.043 20.372 344.688 20.372ZM357.644 22.264C356.573 22.264 355.627 22.022 354.806 21.538C353.985 21.0393 353.339 20.3573 352.87 19.492C352.401 18.6267 352.166 17.6293 352.166 16.5C352.166 15.3707 352.401 14.3733 352.87 13.508C353.339 12.6427 353.985 11.968 354.806 11.484C355.642 10.9853 356.595 10.736 357.666 10.736C358.663 10.736 359.543 10.9927 360.306 11.506C361.083 12.0047 361.685 12.7233 362.11 13.662C362.55 14.586 362.77 15.6787 362.77 16.94H360.68C360.695 16.0013 360.577 15.2093 360.328 14.564C360.093 13.9187 359.741 13.4347 359.272 13.112C358.817 12.7747 358.267 12.606 357.622 12.606C356.933 12.606 356.339 12.7673 355.84 13.09C355.341 13.398 354.953 13.8453 354.674 14.432C354.41 15.004 354.278 15.708 354.278 16.544C354.278 17.3213 354.432 17.996 354.74 18.568C355.048 19.1253 355.466 19.5653 355.994 19.888C356.522 20.196 357.123 20.35 357.798 20.35C358.517 20.35 359.111 20.1813 359.58 19.844C360.064 19.5067 360.445 19.074 360.724 18.546L362.594 19.404C362.301 19.976 361.919 20.482 361.45 20.922C360.981 21.3473 360.423 21.6773 359.778 21.912C359.147 22.1467 358.436 22.264 357.644 22.264ZM353.53 16.94L353.552 15.224H361.604V16.94H353.53ZM366.111 16.082C366.111 14.894 366.338 13.926 366.793 13.178C367.247 12.43 367.834 11.8727 368.553 11.506C369.271 11.1393 370.027 10.956 370.819 10.956V12.936C370.159 12.936 369.528 13.0387 368.927 13.244C368.34 13.4347 367.856 13.7573 367.475 14.212C367.108 14.652 366.925 15.2533 366.925 16.016L366.111 16.082ZM364.835 22V11H366.925V22H364.835Z" fill="white"/>
<path d="M425.948 11.7609V9.94633C426.497 9.94633 427.012 9.84552 427.494 9.6439C427.976 9.43109 428.396 9.13987 428.754 8.77024C429.113 8.40061 429.393 7.96938 429.594 7.47654C429.796 6.98371 429.897 6.45167 429.897 5.88043C429.897 5.30919 429.796 4.77715 429.594 4.28431C429.393 3.79148 429.113 3.36024 428.754 2.99062C428.396 2.62099 427.976 2.33537 427.494 2.13376C427.012 1.92094 426.497 1.81453 425.948 1.81453V0C427.102 0 428.121 0.252018 429.006 0.756055C429.902 1.24889 430.602 1.93774 431.106 2.82261C431.622 3.70747 431.879 4.72674 431.879 5.88043C431.879 7.02291 431.622 8.03659 431.106 8.92145C430.602 9.80631 429.902 10.5008 429.006 11.0048C428.121 11.5088 427.102 11.7609 425.948 11.7609ZM423.512 11.7609V9.94633H425.948V11.7609H423.512ZM422.252 11.7609V0H424.201V11.7609H422.252ZM423.512 1.81453V0H425.948V1.81453H423.512Z" fill="white"/>
<path d="M437.093 11.9625C436.275 11.9625 435.547 11.7777 434.909 11.408C434.27 11.0272 433.772 10.5064 433.413 9.84552C433.055 9.18467 432.876 8.42301 432.876 7.56055C432.876 6.69809 433.061 5.93643 433.43 5.27558C433.8 4.61474 434.304 4.0995 434.942 3.72987C435.581 3.34904 436.32 3.15863 437.16 3.15863C437.899 3.15863 438.571 3.35464 439.176 3.74667C439.781 4.1275 440.257 4.68194 440.604 5.40999C440.963 6.13805 441.142 7.00611 441.142 8.01418H439.243C439.255 7.28613 439.171 6.68689 438.991 6.21645C438.823 5.74602 438.577 5.39879 438.252 5.17478C437.927 4.93956 437.541 4.82195 437.093 4.82195C436.622 4.82195 436.219 4.92836 435.883 5.14117C435.558 5.35399 435.306 5.66761 435.127 6.08204C434.948 6.48527 434.858 6.99491 434.858 7.61095C434.858 8.15979 434.965 8.63023 435.177 9.02226C435.39 9.41429 435.676 9.71671 436.034 9.92952C436.404 10.1311 436.813 10.2319 437.261 10.2319C437.754 10.2319 438.162 10.1199 438.487 9.89592C438.812 9.6607 439.064 9.36388 439.243 9.00546L440.974 9.74471C440.739 10.1927 440.442 10.5848 440.083 10.9208C439.725 11.2568 439.294 11.5144 438.79 11.6937C438.286 11.8729 437.72 11.9625 437.093 11.9625ZM434.102 8.01418L434.119 6.51888H440.167V8.01418H434.102Z" fill="white"/>
<path d="M444.737 11.7609L448.013 3.36025H449.962L446.501 11.7609H444.737ZM444.602 11.7609L441.125 3.36025H443.057L446.35 11.7609H444.602Z" fill="white"/>
<path d="M454.42 11.9625C453.602 11.9625 452.874 11.7777 452.236 11.408C451.597 11.0272 451.099 10.5064 450.74 9.84552C450.382 9.18467 450.203 8.42301 450.203 7.56055C450.203 6.69809 450.387 5.93643 450.757 5.27558C451.127 4.61474 451.631 4.0995 452.269 3.72987C452.908 3.34904 453.647 3.15863 454.487 3.15863C455.226 3.15863 455.898 3.35464 456.503 3.74667C457.108 4.1275 457.584 4.68194 457.931 5.40999C458.29 6.13805 458.469 7.00611 458.469 8.01418H456.57C456.581 7.28613 456.497 6.68689 456.318 6.21645C456.15 5.74602 455.904 5.39879 455.579 5.17478C455.254 4.93956 454.868 4.82195 454.42 4.82195C453.949 4.82195 453.546 4.92836 453.21 5.14117C452.885 5.35399 452.633 5.66761 452.454 6.08204C452.275 6.48527 452.185 6.99491 452.185 7.61095C452.185 8.15979 452.292 8.63023 452.504 9.02226C452.717 9.41429 453.003 9.71671 453.361 9.92952C453.731 10.1311 454.14 10.2319 454.588 10.2319C455.081 10.2319 455.489 10.1199 455.814 9.89592C456.139 9.6607 456.391 9.36388 456.57 9.00546L458.301 9.74471C458.066 10.1927 457.769 10.5848 457.41 10.9208C457.052 11.2568 456.621 11.5144 456.117 11.6937C455.613 11.8729 455.047 11.9625 454.42 11.9625ZM451.429 8.01418L451.446 6.51888H457.494V8.01418H451.429Z" fill="white"/>
<path d="M459.671 11.7609L459.687 0H461.569L461.552 11.7609H459.671Z" fill="white"/>
<path d="M467.303 11.9625C466.452 11.9625 465.696 11.7777 465.035 11.408C464.386 11.0272 463.876 10.5064 463.506 9.84552C463.137 9.18467 462.952 8.42301 462.952 7.56055C462.952 6.69809 463.131 5.93643 463.49 5.27558C463.859 4.61474 464.369 4.0995 465.018 3.72987C465.679 3.34904 466.43 3.15863 467.27 3.15863C468.121 3.15863 468.871 3.34904 469.521 3.72987C470.171 4.0995 470.68 4.61474 471.05 5.27558C471.42 5.93643 471.604 6.69809 471.604 7.56055C471.604 8.42301 471.42 9.18467 471.05 9.84552C470.68 10.5064 470.171 11.0272 469.521 11.408C468.883 11.7777 468.143 11.9625 467.303 11.9625ZM467.303 10.1479C467.751 10.1479 468.143 10.0415 468.479 9.82872C468.827 9.6047 469.096 9.29668 469.286 8.90465C469.488 8.51262 469.588 8.06459 469.588 7.56055C469.588 7.05651 469.488 6.60848 469.286 6.21645C469.096 5.82442 468.821 5.522 468.463 5.30919C468.115 5.08517 467.718 4.97316 467.27 4.97316C466.822 4.97316 466.424 5.08517 466.077 5.30919C465.73 5.522 465.455 5.82442 465.254 6.21645C465.063 6.60848 464.968 7.05651 464.968 7.56055C464.968 8.06459 465.063 8.51262 465.254 8.90465C465.455 9.29668 465.73 9.6047 466.077 9.82872C466.435 10.0415 466.844 10.1479 467.303 10.1479Z" fill="white"/>
<path d="M473.062 15.1211V3.36025H474.826L474.943 4.90596V15.1211H473.062ZM477.598 11.9625C476.892 11.9625 476.282 11.7833 475.767 11.4248C475.263 11.0552 474.876 10.54 474.607 9.87912C474.339 9.21827 474.204 8.44542 474.204 7.56055C474.204 6.66449 474.339 5.89163 474.607 5.24198C474.876 4.58113 475.263 4.0715 475.767 3.71307C476.282 3.34344 476.892 3.15863 477.598 3.15863C478.36 3.15863 479.02 3.34344 479.58 3.71307C480.152 4.0715 480.594 4.58113 480.908 5.24198C481.233 5.89163 481.395 6.66449 481.395 7.56055C481.395 8.44542 481.233 9.21827 480.908 9.87912C480.594 10.54 480.152 11.0552 479.58 11.4248C479.02 11.7833 478.36 11.9625 477.598 11.9625ZM477.128 10.2487C477.576 10.2487 477.973 10.1367 478.32 9.91272C478.668 9.6775 478.942 9.35828 479.144 8.95505C479.356 8.55182 479.463 8.08699 479.463 7.56055C479.463 7.03411 479.362 6.56928 479.16 6.16605C478.97 5.76282 478.701 5.4492 478.354 5.22518C478.007 5.00116 477.604 4.88916 477.144 4.88916C476.719 4.88916 476.338 5.00116 476.002 5.22518C475.666 5.4492 475.403 5.76282 475.212 6.16605C475.033 6.56928 474.943 7.03411 474.943 7.56055C474.943 8.08699 475.033 8.55182 475.212 8.95505C475.403 9.35828 475.66 9.6775 475.985 9.91272C476.321 10.1367 476.702 10.2487 477.128 10.2487Z" fill="white"/>
<path d="M486.514 11.9625C485.696 11.9625 484.968 11.7777 484.33 11.408C483.691 11.0272 483.193 10.5064 482.835 9.84552C482.476 9.18467 482.297 8.42301 482.297 7.56055C482.297 6.69809 482.482 5.93643 482.851 5.27558C483.221 4.61474 483.725 4.0995 484.363 3.72987C485.002 3.34904 485.741 3.15863 486.581 3.15863C487.32 3.15863 487.993 3.35464 488.597 3.74667C489.202 4.1275 489.678 4.68194 490.025 5.40999C490.384 6.13805 490.563 7.00611 490.563 8.01418H488.665C488.676 7.28613 488.592 6.68689 488.413 6.21645C488.245 5.74602 487.998 5.39879 487.673 5.17478C487.348 4.93956 486.962 4.82195 486.514 4.82195C486.044 4.82195 485.64 4.92836 485.304 5.14117C484.979 5.35399 484.727 5.66761 484.548 6.08204C484.369 6.48527 484.279 6.99491 484.279 7.61095C484.279 8.15979 484.386 8.63023 484.599 9.02226C484.811 9.41429 485.097 9.71671 485.456 9.92952C485.825 10.1311 486.234 10.2319 486.682 10.2319C487.175 10.2319 487.584 10.1199 487.909 9.89592C488.233 9.6607 488.485 9.36388 488.665 9.00546L490.395 9.74471C490.16 10.1927 489.863 10.5848 489.505 10.9208C489.146 11.2568 488.715 11.5144 488.211 11.6937C487.707 11.8729 487.141 11.9625 486.514 11.9625ZM483.523 8.01418L483.54 6.51888H489.589V8.01418H483.523Z" fill="white"/>
<path d="M493.008 7.29173C493.008 6.38446 493.182 5.63961 493.529 5.05717C493.876 4.47473 494.324 4.04349 494.873 3.76347C495.433 3.47225 496.015 3.32664 496.62 3.32664V5.12437C496.105 5.12437 495.618 5.19718 495.159 5.34279C494.711 5.4772 494.347 5.70122 494.067 6.01484C493.787 6.32846 493.647 6.74289 493.647 7.25813L493.008 7.29173ZM491.765 11.7609V3.36025H493.647V11.7609H491.765Z" fill="white"/>
<path d="M430.401 27.7984L425.814 16.0375H427.763L432.467 27.7984H430.401ZM421.009 27.7984L425.696 16.0375H427.662L423.075 27.7984H421.009ZM423.21 24.9086V23.1781H430.249V24.9086H423.21Z" fill="white"/>
<path d="M435.109 25.4462L433.966 24.1525L438.335 19.3978H440.603L435.109 25.4462ZM433.311 27.7984V16.0375H435.193V27.7984H433.311ZM438.654 27.7984L435.697 23.4469L436.923 22.1364L440.888 27.7984H438.654Z" fill="white"/>
<path d="M446.501 27.7984L446.417 23.4805C446.417 22.9092 446.355 22.4332 446.232 22.0524C446.109 21.6715 445.919 21.3803 445.661 21.1787C445.403 20.9771 445.056 20.8763 444.619 20.8763C444.227 20.8763 443.88 20.9603 443.578 21.1283C443.275 21.2963 443.023 21.5539 442.822 21.9012L441.142 21.3131C441.332 20.9435 441.578 20.5963 441.881 20.2714C442.183 19.9466 442.564 19.689 443.023 19.4986C443.482 19.297 444.031 19.1962 444.67 19.1962C445.476 19.1962 446.148 19.3474 446.686 19.6498C447.235 19.9522 447.644 20.4002 447.912 20.9939C448.181 21.5875 448.316 22.3212 448.316 23.1949V27.7984H446.501ZM444.115 28C443.118 28 442.34 27.776 441.78 27.328C441.231 26.8799 440.957 26.2471 440.957 25.4294C440.957 24.5557 441.248 23.8893 441.83 23.4301C442.424 22.9708 443.247 22.7412 444.3 22.7412H446.938L446.955 24.1861H444.888C444.138 24.1861 443.611 24.2925 443.309 24.5053C443.018 24.707 442.872 24.9982 442.872 25.379C442.872 25.7038 443.001 25.9615 443.258 26.1519C443.527 26.3311 443.897 26.4207 444.367 26.4207C444.782 26.4207 445.14 26.3255 445.443 26.1351C445.756 25.9334 445.997 25.6758 446.165 25.3622C446.333 25.0374 446.417 24.6902 446.417 24.3205H447.123C447.123 25.463 446.876 26.3647 446.383 27.0255C445.902 27.6752 445.146 28 444.115 28Z" fill="white"/>
<path d="M455.965 27.7984L455.881 26.2359V16.0375H457.746V27.7984H455.965ZM453.226 28C452.465 28 451.798 27.8208 451.227 27.4624C450.667 27.0927 450.224 26.5775 449.9 25.9166C449.586 25.2558 449.429 24.4829 449.429 23.5981C449.429 22.702 449.586 21.9292 449.9 21.2795C450.224 20.6187 450.667 20.109 451.227 19.7506C451.798 19.381 452.465 19.1962 453.226 19.1962C453.932 19.1962 454.537 19.381 455.041 19.7506C455.556 20.109 455.948 20.6187 456.217 21.2795C456.486 21.9292 456.62 22.702 456.62 23.5981C456.62 24.4829 456.486 25.2558 456.217 25.9166C455.948 26.5775 455.556 27.0927 455.041 27.4624C454.537 27.8208 453.932 28 453.226 28ZM453.697 26.2863C454.122 26.2863 454.497 26.1743 454.822 25.9503C455.158 25.715 455.416 25.3958 455.595 24.9926C455.786 24.5894 455.881 24.1245 455.881 23.5981C455.881 23.0716 455.786 22.6068 455.595 22.2036C455.416 21.8004 455.158 21.4867 454.822 21.2627C454.497 21.0387 454.117 20.9267 453.68 20.9267C453.232 20.9267 452.834 21.0387 452.487 21.2627C452.14 21.4867 451.865 21.8004 451.664 22.2036C451.473 22.6068 451.372 23.0716 451.361 23.5981C451.372 24.1245 451.473 24.5894 451.664 24.9926C451.865 25.3958 452.14 25.715 452.487 25.9503C452.845 26.1743 453.249 26.2863 453.697 26.2863Z" fill="white"/>
<path d="M463.338 28C462.52 28 461.792 27.8152 461.153 27.4456C460.515 27.0647 460.016 26.5439 459.658 25.883C459.3 25.2222 459.12 24.4605 459.12 23.5981C459.12 22.7356 459.305 21.974 459.675 21.3131C460.044 20.6523 460.549 20.137 461.187 19.7674C461.825 19.3866 462.565 19.1962 463.405 19.1962C464.144 19.1962 464.816 19.3922 465.421 19.7842C466.026 20.165 466.502 20.7195 466.849 21.4475C467.207 22.1756 467.387 23.0436 467.387 24.0517H465.488C465.499 23.3237 465.415 22.7244 465.236 22.254C465.068 21.7835 464.822 21.4363 464.497 21.2123C464.172 20.9771 463.786 20.8595 463.338 20.8595C462.867 20.8595 462.464 20.9659 462.128 21.1787C461.803 21.3915 461.551 21.7051 461.372 22.1196C461.193 22.5228 461.103 23.0324 461.103 23.6485C461.103 24.1973 461.209 24.6678 461.422 25.0598C461.635 25.4518 461.921 25.7542 462.279 25.9671C462.649 26.1687 463.057 26.2695 463.506 26.2695C463.998 26.2695 464.407 26.1575 464.732 25.9335C465.057 25.6982 465.309 25.4014 465.488 25.043L467.219 25.7822C466.983 26.2303 466.687 26.6223 466.328 26.9583C465.97 27.2944 465.538 27.552 465.034 27.7312C464.53 27.9104 463.965 28 463.338 28ZM460.347 24.0517L460.364 22.5564H466.412V24.0517H460.347Z" fill="white"/>
<path d="M468.588 27.7984V19.3978H470.352L470.47 20.9435V27.7984H468.588ZM474.284 27.7984V23.4973L476.166 22.9932V27.7984H474.284ZM479.996 27.7984V23.4973L481.861 22.9932V27.7984H479.996ZM474.284 23.4973C474.284 22.8252 474.205 22.31 474.049 21.9516C473.903 21.5819 473.69 21.3243 473.41 21.1787C473.141 21.0331 472.822 20.9603 472.453 20.9603C471.825 20.9491 471.338 21.1563 470.991 21.5819C470.644 22.0076 470.47 22.618 470.47 23.4133H469.764C469.764 22.5284 469.893 21.7723 470.151 21.1451C470.408 20.5067 470.778 20.025 471.26 19.7002C471.741 19.3642 472.313 19.1962 472.973 19.1962C473.993 19.1962 474.777 19.5098 475.326 20.137C475.886 20.7531 476.166 21.7051 476.166 22.9932L474.284 23.4973ZM479.996 23.4973C479.996 22.8252 479.918 22.31 479.761 21.9516C479.604 21.5819 479.386 21.3243 479.106 21.1787C478.837 21.0331 478.523 20.9603 478.165 20.9603C477.527 20.9491 477.034 21.1563 476.686 21.5819C476.339 22.0076 476.166 22.618 476.166 23.4133H475.46C475.46 22.5284 475.589 21.7723 475.846 21.1451C476.104 20.5067 476.474 20.025 476.955 19.7002C477.437 19.3642 478.008 19.1962 478.669 19.1962C479.688 19.1962 480.478 19.5098 481.038 20.137C481.598 20.7531 481.872 21.7051 481.861 22.9932L479.996 23.4973Z" fill="white"/>
<path d="M483.563 27.7984L483.58 19.3978H485.445L485.428 27.7984H483.563ZM484.504 17.8017C484.202 17.8017 483.938 17.6953 483.714 17.4824C483.502 17.2584 483.395 16.9952 483.395 16.6928C483.395 16.3904 483.502 16.1327 483.714 15.9199C483.938 15.7071 484.202 15.6007 484.504 15.6007C484.806 15.6007 485.064 15.7071 485.277 15.9199C485.501 16.1327 485.613 16.3904 485.613 16.6928C485.613 16.9952 485.501 17.2584 485.277 17.4824C485.064 17.6953 484.806 17.8017 484.504 17.8017Z" fill="white"/>
<path d="M491.157 28C490.34 28 489.612 27.8152 488.973 27.4456C488.335 27.0647 487.836 26.5439 487.478 25.883C487.119 25.2222 486.94 24.4605 486.94 23.5981C486.94 22.7356 487.125 21.974 487.495 21.3131C487.864 20.6523 488.368 20.137 489.007 19.7674C489.645 19.3866 490.384 19.1962 491.225 19.1962C491.964 19.1962 492.636 19.3922 493.241 19.7842C493.846 20.165 494.322 20.7195 494.669 21.4475C495.027 22.1756 495.206 23.0436 495.206 24.0517H493.308C493.319 23.3237 493.235 22.7244 493.056 22.254C492.888 21.7835 492.641 21.4363 492.317 21.2123C491.992 20.9771 491.605 20.8595 491.157 20.8595C490.687 20.8595 490.284 20.9659 489.948 21.1787C489.623 21.3915 489.371 21.7051 489.192 22.1196C489.012 22.5228 488.923 23.0324 488.923 23.6485C488.923 24.1973 489.029 24.6678 489.242 25.0598C489.455 25.4518 489.74 25.7542 490.099 25.9671C490.468 26.1687 490.877 26.2695 491.325 26.2695C491.818 26.2695 492.227 26.1575 492.552 25.9335C492.877 25.6982 493.129 25.4014 493.308 25.043L495.038 25.7822C494.803 26.2303 494.506 26.6223 494.148 26.9583C493.79 27.2944 493.358 27.552 492.854 27.7312C492.35 27.9104 491.785 28 491.157 28ZM488.167 24.0517L488.184 22.5564H494.232V24.0517H488.167Z" fill="white"/>
<path d="M397.436 17.8934C397.443 17.9415 397.473 17.9833 397.516 18.0059C397.559 18.0284 397.611 18.0291 397.654 18.0077L404.022 14.8818C404.062 14.862 404.092 14.8253 404.103 14.7816C404.183 14.4592 404.209 14.1395 404.209 13.7947C404.209 13.4134 404.156 13.0658 404.105 12.7583C404.097 12.7095 404.066 12.6676 404.021 12.646L397.654 9.55077C397.61 9.52971 397.56 9.53032 397.517 9.55244C397.474 9.57455 397.444 9.61556 397.436 9.66309L397.435 9.66872C397.411 9.81443 397.385 9.97367 397.383 10.1353C397.358 10.2982 397.358 10.4873 397.358 10.6609V10.6688C397.358 10.7337 397.364 10.8047 397.37 10.871L397.371 10.8851C397.377 10.9583 397.383 11.0287 397.383 11.0978C397.383 11.1062 397.384 11.1146 397.385 11.1229C397.396 11.1896 397.402 11.257 397.408 11.328L397.409 11.3372C397.416 11.4084 397.423 11.4864 397.437 11.558C397.447 11.606 397.48 11.6464 397.525 11.6664L402.236 13.7668L397.523 15.9546C397.479 15.9749 397.447 16.0147 397.437 16.062C397.412 16.1853 397.385 16.3453 397.383 16.5095C397.358 16.671 397.358 16.8314 397.358 17.0055V17.0125C397.358 17.268 397.384 17.552 397.436 17.8934Z" fill="#FD5B4F"/>
<path fill-rule="evenodd" clip-rule="evenodd" d="M395.323 6.27986C395.366 6.30244 395.396 6.34422 395.403 6.39236C395.455 6.73378 395.481 7.01777 395.481 7.27327V7.28034C395.481 7.45438 395.481 7.61472 395.456 7.77621C395.454 7.94044 395.427 8.10045 395.402 8.22371C395.392 8.27099 395.36 8.31085 395.316 8.33118L390.603 10.5189L395.314 12.6193C395.359 12.6393 395.392 12.6797 395.402 12.7278C395.416 12.7993 395.423 12.8773 395.43 12.9486L395.43 12.9577C395.437 13.0287 395.443 13.0961 395.454 13.1628C395.455 13.1711 395.456 13.1795 395.456 13.1879C395.456 13.257 395.461 13.3274 395.468 13.4006L395.469 13.4147C395.475 13.4809 395.481 13.5521 395.481 13.6169V13.6249C395.481 13.7985 395.481 13.9875 395.456 14.1505C395.454 14.312 395.428 14.4713 395.404 14.6169L395.403 14.6226C395.395 14.6702 395.365 14.7112 395.322 14.7333C395.279 14.7554 395.229 14.756 395.185 14.735L388.818 11.6397C388.773 11.6181 388.742 11.5762 388.734 11.5274C388.683 11.22 388.63 10.8723 388.63 10.4911C388.63 10.1462 388.656 9.82649 388.736 9.5041C388.747 9.46042 388.777 9.42377 388.817 9.40394L395.185 6.27807C395.228 6.25662 395.28 6.25728 395.323 6.27986Z" fill="#FD5B4F"/>
<path fill-rule="evenodd" clip-rule="evenodd" d="M409.402 0.6875H383.437C381.539 0.6875 380 2.22612 380 4.12411V20.1616C380 22.0596 381.539 23.5983 383.437 23.5983H409.402C411.3 23.5983 412.839 22.0596 412.839 20.1616V4.12411C412.839 2.22613 411.3 0.6875 409.402 0.6875ZM381.909 4.12411C381.909 3.28056 382.593 2.59673 383.437 2.59673H409.402C410.246 2.59673 410.93 3.28056 410.93 4.12411V20.1616C410.93 21.0052 410.246 21.689 409.402 21.689H383.437C382.593 21.689 381.909 21.0052 381.909 20.1616V4.12411Z" fill="#FD5B4F"/>
<path d="M383.628 25.5075C383.1 25.5075 382.673 25.9349 382.673 26.4621C382.673 26.9893 383.1 27.4167 383.628 27.4167H409.211C409.738 27.4167 410.166 26.9893 410.166 26.4621C410.166 25.9349 409.738 25.5075 409.211 25.5075H383.628Z" fill="#FD5B4F"/>
</svg>
