<svg width="830" height="463" viewBox="0 0 830 463" fill="none" xmlns="http://www.w3.org/2000/svg">
<g filter="url(#filter0_d_603_30)">
<path d="M561.827 15.804V438.337H470.625V15.804H561.827ZM805.219 15.804L645.755 227.07L552.875 331.543L536.369 243.612L597.637 152.489L693.315 15.804H805.219ZM699.469 438.337L587.006 245.353L656.386 189.344L807.457 438.337H699.469Z" fill="black"/>
<path d="M561.827 15.804V438.337H470.625V15.804H561.827ZM805.219 15.804L645.755 227.07L552.875 331.543L536.369 243.612L597.637 152.489L693.315 15.804H805.219ZM699.469 438.337L587.006 245.353L656.386 189.344L807.457 438.337H699.469Z" fill="#3DCFB6"/>
<path fill-rule="evenodd" clip-rule="evenodd" d="M571.827 5.80396V172.953L589.39 146.831L688.108 5.80396H825.296L676.406 203.062L825.221 448.337H693.723L602.139 291.181L571.827 325.275V448.337H460.625V5.80396H571.827ZM561.827 321.473L603.832 274.226L699.469 438.337H807.457L664.338 202.451L805.219 15.804H693.315L597.637 152.489L561.827 205.748V15.804H470.625V438.337H561.827V321.473Z" fill="#3DCFB6"/>
<path d="M240.047 326.899C240.047 319.741 239.021 313.357 236.969 307.746C234.918 301.942 231.187 296.622 225.779 291.785C220.37 286.948 212.723 282.112 202.838 277.275C192.954 272.245 179.991 267.118 163.952 261.894C145.674 255.703 128.236 248.739 111.636 241C95.2238 233.068 80.583 223.878 67.714 213.431C54.8451 202.984 44.6804 190.795 37.2201 176.866C29.9464 162.936 26.3095 146.685 26.3095 128.112C26.3095 110.119 30.1329 93.8681 37.7797 79.358C45.4264 64.848 56.1506 52.4661 69.9521 42.2123C83.7536 31.7651 99.9798 23.8329 118.63 18.4158C137.281 12.8053 157.797 10 180.178 10C210.019 10 236.223 15.5138 258.791 26.5415C281.544 37.3756 299.263 52.6595 311.945 72.3932C324.628 91.9334 330.969 114.666 330.969 140.59H240.326C240.326 129.176 237.995 119.116 233.332 110.41C228.856 101.51 221.955 94.5452 212.63 89.5151C203.491 84.4849 192.021 81.9698 178.219 81.9698C164.791 81.9698 153.507 84.098 144.368 88.3543C135.416 92.4171 128.609 98.0276 123.946 105.186C119.47 112.344 117.232 120.18 117.232 128.692C117.232 135.464 118.91 141.654 122.267 147.265C125.811 152.682 130.847 157.809 137.374 162.646C144.089 167.289 152.295 171.739 161.993 175.995C171.692 180.251 182.789 184.314 195.285 188.183C217.106 195.342 236.41 203.274 253.195 211.98C270.167 220.686 284.435 230.553 295.999 241.58C307.562 252.608 316.235 265.087 322.016 279.016C327.985 292.946 330.969 308.714 330.969 326.319C330.969 345.085 327.425 361.724 320.338 376.234C313.437 390.744 303.366 403.126 290.124 413.379C277.068 423.44 261.402 431.082 243.124 436.305C224.846 441.529 204.424 444.141 181.856 444.141C161.341 444.141 141.105 441.432 121.148 436.015C101.192 430.404 83.1009 421.892 66.8748 410.477C50.8351 399.063 37.9662 384.553 28.2678 366.947C18.7559 349.148 14 328.06 14 303.683H105.202C105.202 316.452 106.974 327.286 110.517 336.186C114.061 344.892 119.097 351.953 125.624 357.371C132.339 362.788 140.452 366.657 149.964 368.979C159.476 371.3 170.106 372.461 181.856 372.461C195.471 372.461 206.475 370.526 214.868 366.657C223.447 362.594 229.789 357.08 233.892 350.116C237.995 343.151 240.047 335.412 240.047 326.899Z" fill="black"/>
<path d="M240.047 326.899C240.047 319.741 239.021 313.357 236.969 307.746C234.918 301.942 231.187 296.622 225.779 291.785C220.37 286.948 212.723 282.112 202.838 277.275C192.954 272.245 179.991 267.118 163.952 261.894C145.674 255.703 128.236 248.739 111.636 241C95.2238 233.068 80.583 223.878 67.714 213.431C54.8451 202.984 44.6804 190.795 37.2201 176.866C29.9464 162.936 26.3095 146.685 26.3095 128.112C26.3095 110.119 30.1329 93.8681 37.7797 79.358C45.4264 64.848 56.1506 52.4661 69.9521 42.2123C83.7536 31.7651 99.9798 23.8329 118.63 18.4158C137.281 12.8053 157.797 10 180.178 10C210.019 10 236.223 15.5138 258.791 26.5415C281.544 37.3756 299.263 52.6595 311.945 72.3932C324.628 91.9334 330.969 114.666 330.969 140.59H240.326C240.326 129.176 237.995 119.116 233.332 110.41C228.856 101.51 221.955 94.5452 212.63 89.5151C203.491 84.4849 192.021 81.9698 178.219 81.9698C164.791 81.9698 153.507 84.098 144.368 88.3543C135.416 92.4171 128.609 98.0276 123.946 105.186C119.47 112.344 117.232 120.18 117.232 128.692C117.232 135.464 118.91 141.654 122.267 147.265C125.811 152.682 130.847 157.809 137.374 162.646C144.089 167.289 152.295 171.739 161.993 175.995C171.692 180.251 182.789 184.314 195.285 188.183C217.106 195.342 236.41 203.274 253.195 211.98C270.167 220.686 284.435 230.553 295.999 241.58C307.562 252.608 316.235 265.087 322.016 279.016C327.985 292.946 330.969 308.714 330.969 326.319C330.969 345.085 327.425 361.724 320.338 376.234C313.437 390.744 303.366 403.126 290.124 413.379C277.068 423.44 261.402 431.082 243.124 436.305C224.846 441.529 204.424 444.141 181.856 444.141C161.341 444.141 141.105 441.432 121.148 436.015C101.192 430.404 83.1009 421.892 66.8748 410.477C50.8351 399.063 37.9662 384.553 28.2678 366.947C18.7559 349.148 14 328.06 14 303.683H105.202C105.202 316.452 106.974 327.286 110.517 336.186C114.061 344.892 119.097 351.953 125.624 357.371C132.339 362.788 140.452 366.657 149.964 368.979C159.476 371.3 170.106 372.461 181.856 372.461C195.471 372.461 206.475 370.526 214.868 366.657C223.447 362.594 229.789 357.08 233.892 350.116C237.995 343.151 240.047 335.412 240.047 326.899Z" fill="#3DCFB6"/>
<path fill-rule="evenodd" clip-rule="evenodd" d="M227.559 311.13L227.541 311.079C226.142 307.12 223.493 303.157 219.113 299.239C214.643 295.242 207.883 290.876 198.443 286.257L198.373 286.223L198.303 286.188C189.054 281.481 176.627 276.539 160.855 271.403L160.799 271.385L160.744 271.366C142.138 265.064 124.359 257.965 107.411 250.063L107.348 250.034L107.285 250.004C90.2446 241.768 74.9369 232.175 61.4113 221.195C47.5624 209.952 36.5228 196.744 28.4048 181.587L28.3801 181.541L28.3559 181.494C20.2115 165.897 16.3095 148.004 16.3095 128.112C16.3095 108.655 20.4571 90.779 28.933 74.6958C37.3041 58.8114 49.027 45.3084 63.9525 34.2119C78.8195 22.9657 96.1491 14.5376 115.795 8.82603C135.495 2.90534 156.981 0 180.178 0C211.237 0 238.978 5.73954 263.135 17.5344C287.411 29.1026 306.589 45.5721 320.344 66.9663C334.188 88.303 340.969 112.967 340.969 140.59V150.59H230.326V140.59C230.326 130.565 228.289 122.173 224.517 115.131L224.456 115.018L224.399 114.903C220.903 107.954 215.525 102.439 207.883 98.3163L207.845 98.2962L207.808 98.2757C200.547 94.2792 190.861 91.9698 178.219 91.9698C165.789 91.9698 156.045 93.9476 148.59 97.4193L148.546 97.4401L148.501 97.4604C141.051 100.841 135.849 105.268 132.375 110.567C128.935 116.1 127.232 122.07 127.232 128.692C127.232 133.652 128.42 138.004 130.748 141.961C133.481 146.086 137.534 150.299 143.197 154.514C149.236 158.674 156.805 162.797 166.012 166.838C175.295 170.912 186.028 174.848 198.243 178.631L198.323 178.656L198.402 178.682C220.621 185.97 240.431 194.096 257.778 203.092C275.437 212.152 290.527 222.543 302.9 234.344C315.395 246.26 324.885 259.863 331.231 275.132C337.796 290.477 340.969 307.598 340.969 326.319C340.969 346.34 337.186 364.504 329.347 380.574C321.745 396.54 310.659 410.125 296.246 421.286L296.228 421.3C282.029 432.241 265.181 440.402 245.872 445.92C226.552 451.442 205.185 454.141 181.856 454.141C160.449 454.141 139.332 451.313 118.529 445.666L118.485 445.654L118.442 445.642C97.4447 439.739 78.3148 430.751 61.1211 418.656L61.0988 418.641L61.0766 418.625C43.7867 406.32 29.9163 390.665 19.5089 371.772L19.4782 371.716L19.4482 371.66C9.01582 352.139 4 329.365 4 303.683V293.683H115.202V303.683C115.202 315.564 116.855 325.054 119.794 332.451C122.773 339.757 126.862 345.388 131.958 349.631C137.372 353.986 144.086 357.25 152.335 359.264C160.934 361.363 170.752 362.461 181.856 362.461C194.624 362.461 204.029 360.631 210.637 357.596C217.702 354.241 222.363 349.984 225.276 345.04C228.424 339.696 230.047 333.725 230.047 326.899C230.047 320.687 229.156 315.497 227.577 311.18L227.559 311.13ZM214.868 366.657C206.475 370.526 195.471 372.461 181.856 372.461C170.106 372.461 159.476 371.3 149.964 368.979C140.452 366.657 132.339 362.788 125.624 357.371C119.097 351.953 114.061 344.892 110.517 336.186C106.974 327.286 105.202 316.452 105.202 303.683H14C14 307.081 14.0924 310.414 14.2771 313.683C15.418 333.874 20.0815 351.629 28.2678 366.947C37.9662 384.553 50.8351 399.063 66.8748 410.477C83.1009 421.892 101.192 430.404 121.148 436.015C141.105 441.432 161.341 444.141 181.856 444.141C204.424 444.141 224.846 441.529 243.124 436.305C261.402 431.082 277.068 423.44 290.124 413.379C303.366 403.126 313.437 390.744 320.338 376.234C327.425 361.724 330.969 345.085 330.969 326.319C330.969 308.714 327.985 292.946 322.016 279.016C316.235 265.087 307.562 252.608 295.999 241.58C284.435 230.553 270.167 220.686 253.195 211.98C236.41 203.274 217.106 195.342 195.285 188.183C182.789 184.314 171.692 180.251 161.993 175.995C152.295 171.739 144.089 167.289 137.374 162.646C130.847 157.809 125.811 152.682 122.267 147.265C118.91 141.654 117.232 135.464 117.232 128.692C117.232 120.18 119.47 112.344 123.946 105.186C128.609 98.0276 135.416 92.4171 144.368 88.3543C153.507 84.098 164.791 81.9698 178.219 81.9698C192.021 81.9698 203.491 84.4849 212.63 89.5151C221.955 94.5452 228.856 101.51 233.332 110.41C237.995 119.116 240.326 129.176 240.326 140.59H330.969C330.969 137.203 330.86 133.869 330.644 130.59C329.203 108.779 322.97 89.3799 311.945 72.3932C299.263 52.6595 281.544 37.3756 258.791 26.5415C236.223 15.5138 210.019 10 180.178 10C157.797 10 137.281 12.8053 118.63 18.4158C99.9798 23.8329 83.7536 31.7651 69.9521 42.2123C56.1506 52.4661 45.4264 64.848 37.7797 79.358C30.1329 93.8681 26.3095 110.119 26.3095 128.112C26.3095 146.685 29.9464 162.936 37.2201 176.866C44.6804 190.795 54.8451 202.984 67.714 213.431C80.583 223.878 95.2238 233.068 111.636 241C128.236 248.739 145.674 255.703 163.952 261.894C179.991 267.118 192.954 272.245 202.838 277.275C212.723 282.112 220.37 286.948 225.779 291.785C231.188 296.622 234.918 301.942 236.969 307.746C239.021 313.357 240.047 319.741 240.047 326.899C240.047 335.412 237.995 343.151 233.892 350.116C229.789 357.08 223.447 362.594 214.868 366.657Z" fill="#3DCFB6"/>
</g>
<defs>
<filter id="filter0_d_603_30" x="0" y="0" width="829.296" height="462.141" filterUnits="userSpaceOnUse" color-interpolation-filters="sRGB">
<feFlood flood-opacity="0" result="BackgroundImageFix"/>
<feColorMatrix in="SourceAlpha" type="matrix" values="0 0 0 0 0 0 0 0 0 0 0 0 0 0 0 0 0 0 127 0" result="hardAlpha"/>
<feOffset dy="4"/>
<feGaussianBlur stdDeviation="2"/>
<feComposite in2="hardAlpha" operator="out"/>
<feColorMatrix type="matrix" values="0 0 0 0 0 0 0 0 0 0 0 0 0 0 0 0 0 0 0.25 0"/>
<feBlend mode="normal" in2="BackgroundImageFix" result="effect1_dropShadow_603_30"/>
<feBlend mode="normal" in="SourceGraphic" in2="effect1_dropShadow_603_30" result="shape"/>
</filter>
</defs>
</svg>
