<svg width="866" height="487" viewBox="0 0 866 487" fill="none" xmlns="http://www.w3.org/2000/svg">
<g filter="url(#filter0_d_603_30)">
<path d="M579.827 27.804V21.804H573.827H482.625H476.625V27.804V450.337V456.337H482.625H573.827H579.827V450.337V335.754L614.816 296.399L706.285 453.358L708.021 456.337H711.469H819.457H830.115L824.587 447.224L683.579 214.817L822.008 31.4186L829.265 21.804H817.219H705.315H702.191L700.399 24.3632L604.721 161.048L604.689 161.094L604.657 161.141L579.827 198.071V27.804Z" fill="white"/>
<path d="M579.827 27.804V21.804H573.827H482.625H476.625V27.804V450.337V456.337H482.625H573.827H579.827V450.337V335.754L614.816 296.399L706.285 453.358L708.021 456.337H711.469H819.457H830.115L824.587 447.224L683.579 214.817L822.008 31.4186L829.265 21.804H817.219H705.315H702.191L700.399 24.3632L604.721 161.048L604.689 161.094L604.657 161.141L579.827 198.071V27.804Z" fill="#08463B"/>
<path d="M579.827 27.804V21.804H573.827H482.625H476.625V27.804V450.337V456.337H482.625H573.827H579.827V450.337V335.754L614.816 296.399L706.285 453.358L708.021 456.337H711.469H819.457H830.115L824.587 447.224L683.579 214.817L822.008 31.4186L829.265 21.804H817.219H705.315H702.191L700.399 24.3632L604.721 161.048L604.689 161.094L604.657 161.141L579.827 198.071V27.804Z" stroke="white" stroke-width="12"/>
<path d="M589.827 17.804V11.804H583.827H472.625H466.625V17.804V460.337V466.337H472.625H583.827H589.827V460.337V339.557L613.123 313.354L700.539 463.358L702.275 466.337H705.723H837.221H847.879L842.351 457.224L695.646 215.428L842.085 21.4186L849.342 11.804H837.296H700.108H696.984L695.193 14.3632L596.475 155.39L596.443 155.436L596.411 155.483L589.827 165.275V17.804ZM567.827 333.473V444.337H488.625V33.804H567.827V217.748V237.425L578.806 221.096L614.584 167.883L708.439 33.804H805.173L671.549 210.836L669.098 214.084L671.209 217.563L808.799 444.337H714.917L621.016 283.205L616.848 276.053L611.348 282.239L569.343 329.486L567.827 331.191V333.473Z" fill="#08463B" stroke="white" stroke-width="12"/>
<path d="M243.312 321.746L243.323 321.776L243.334 321.807C245.102 326.641 246.047 332.308 246.047 338.899C246.047 346.4 244.252 353.078 240.722 359.07C237.333 364.822 232.001 369.582 224.329 373.221C217.008 376.589 206.964 378.461 193.856 378.461C182.494 378.461 172.351 377.338 163.386 375.15C154.632 373.013 147.359 369.506 141.424 364.727C135.757 360.014 131.289 353.811 128.083 345.944C124.903 337.947 123.202 327.92 123.202 315.683V309.683H117.202H26H20V315.683C20 340.843 24.9119 362.943 34.976 381.775L34.994 381.809L35.0124 381.842C45.1363 400.22 58.6061 415.417 75.3959 427.366L75.4092 427.375L75.4226 427.385C92.2292 439.208 110.944 448.005 131.524 453.791L131.55 453.798L131.577 453.805C152.041 459.361 172.805 462.141 193.856 462.141C216.88 462.141 237.87 459.477 256.773 454.074C275.669 448.674 292.045 440.721 305.786 430.132L305.797 430.123C319.741 419.326 330.421 406.222 337.743 390.839C345.281 375.393 348.969 357.839 348.969 338.319C348.969 320.044 345.872 303.463 339.545 288.684C333.424 273.951 324.261 260.798 312.14 249.238C300.09 237.747 285.329 227.565 267.944 218.647C250.822 209.767 231.215 201.719 209.155 194.482L209.107 194.467L209.06 194.452C196.732 190.635 185.854 186.648 176.405 182.501C167 178.373 159.176 174.119 152.868 169.767C146.855 165.3 142.41 160.721 139.355 156.082C136.616 151.464 135.232 146.377 135.232 140.692C135.232 133.314 137.149 126.598 141.004 120.415C144.953 114.373 150.796 109.472 158.848 105.818L158.875 105.806L158.902 105.793C167.03 102.008 177.39 99.9698 190.219 99.9698C203.325 99.9698 213.725 102.361 221.737 106.771L221.759 106.784L221.782 106.796C230.097 111.281 236.085 117.376 239.972 125.106L240.007 125.174L240.043 125.242C244.171 132.95 246.326 142.009 246.326 152.59V158.59H252.326H342.969H348.969V152.59C348.969 125.647 342.364 101.756 328.986 81.1384C315.659 60.4078 297.065 44.4122 273.398 33.1374C249.876 21.6493 222.75 16 192.178 16C169.308 16 148.21 18.8653 128.929 24.662C109.681 30.2557 92.7933 38.4853 78.3525 49.412C63.8766 60.1714 52.553 73.226 44.4716 88.5607C36.3274 104.015 32.3095 121.241 32.3095 140.112C32.3095 159.476 36.1054 176.713 43.9016 191.643L43.9161 191.671L43.9309 191.698C51.7858 206.365 62.4755 219.165 75.9324 230.089C89.1953 240.856 104.236 250.288 121.026 258.402L121.063 258.42L121.101 258.438C137.909 266.274 155.552 273.32 174.027 279.577L174.06 279.589L174.094 279.6C189.973 284.771 202.614 289.786 212.117 294.623L212.159 294.644L212.201 294.665C221.819 299.37 228.934 303.925 233.779 308.258C238.571 312.543 241.652 317.049 243.312 321.746Z" fill="white"/>
<path d="M243.312 321.746L243.323 321.776L243.334 321.807C245.102 326.641 246.047 332.308 246.047 338.899C246.047 346.4 244.252 353.078 240.722 359.07C237.333 364.822 232.001 369.582 224.329 373.221C217.008 376.589 206.964 378.461 193.856 378.461C182.494 378.461 172.351 377.338 163.386 375.15C154.632 373.013 147.359 369.506 141.424 364.727C135.757 360.014 131.289 353.811 128.083 345.944C124.903 337.947 123.202 327.92 123.202 315.683V309.683H117.202H26H20V315.683C20 340.843 24.9119 362.943 34.976 381.775L34.994 381.809L35.0124 381.842C45.1363 400.22 58.6061 415.417 75.3959 427.366L75.4092 427.375L75.4226 427.385C92.2292 439.208 110.944 448.005 131.524 453.791L131.55 453.798L131.577 453.805C152.041 459.361 172.805 462.141 193.856 462.141C216.88 462.141 237.87 459.477 256.773 454.074C275.669 448.674 292.045 440.721 305.786 430.132L305.797 430.123C319.741 419.326 330.421 406.222 337.743 390.839C345.281 375.393 348.969 357.839 348.969 338.319C348.969 320.044 345.872 303.463 339.545 288.684C333.424 273.951 324.261 260.798 312.14 249.238C300.09 237.747 285.329 227.565 267.944 218.647C250.822 209.767 231.215 201.719 209.155 194.482L209.107 194.467L209.06 194.452C196.732 190.635 185.854 186.648 176.405 182.501C167 178.373 159.176 174.119 152.868 169.767C146.855 165.3 142.41 160.721 139.355 156.082C136.616 151.464 135.232 146.377 135.232 140.692C135.232 133.314 137.149 126.598 141.004 120.415C144.953 114.373 150.796 109.472 158.848 105.818L158.875 105.806L158.902 105.793C167.03 102.008 177.39 99.9698 190.219 99.9698C203.325 99.9698 213.725 102.361 221.737 106.771L221.759 106.784L221.782 106.796C230.097 111.281 236.085 117.376 239.972 125.106L240.007 125.174L240.043 125.242C244.171 132.95 246.326 142.009 246.326 152.59V158.59H252.326H342.969H348.969V152.59C348.969 125.647 342.364 101.756 328.986 81.1384C315.659 60.4078 297.065 44.4122 273.398 33.1374C249.876 21.6493 222.75 16 192.178 16C169.308 16 148.21 18.8653 128.929 24.662C109.681 30.2557 92.7933 38.4853 78.3525 49.412C63.8766 60.1714 52.553 73.226 44.4716 88.5607C36.3274 104.015 32.3095 121.241 32.3095 140.112C32.3095 159.476 36.1054 176.713 43.9016 191.643L43.9161 191.671L43.9309 191.698C51.7858 206.365 62.4755 219.165 75.9324 230.089C89.1953 240.856 104.236 250.288 121.026 258.402L121.063 258.42L121.101 258.438C137.909 266.274 155.552 273.32 174.027 279.577L174.06 279.589L174.094 279.6C189.973 284.771 202.614 289.786 212.117 294.623L212.159 294.644L212.201 294.665C221.819 299.37 228.934 303.925 233.779 308.258C238.571 312.543 241.652 317.049 243.312 321.746Z" fill="#08463B"/>
<path d="M243.312 321.746L243.323 321.776L243.334 321.807C245.102 326.641 246.047 332.308 246.047 338.899C246.047 346.4 244.252 353.078 240.722 359.07C237.333 364.822 232.001 369.582 224.329 373.221C217.008 376.589 206.964 378.461 193.856 378.461C182.494 378.461 172.351 377.338 163.386 375.15C154.632 373.013 147.359 369.506 141.424 364.727C135.757 360.014 131.289 353.811 128.083 345.944C124.903 337.947 123.202 327.92 123.202 315.683V309.683H117.202H26H20V315.683C20 340.843 24.9119 362.943 34.976 381.775L34.994 381.809L35.0124 381.842C45.1363 400.22 58.6061 415.417 75.3959 427.366L75.4092 427.375L75.4226 427.385C92.2292 439.208 110.944 448.005 131.524 453.791L131.55 453.798L131.577 453.805C152.041 459.361 172.805 462.141 193.856 462.141C216.88 462.141 237.87 459.477 256.773 454.074C275.669 448.674 292.045 440.721 305.786 430.132L305.797 430.123C319.741 419.326 330.421 406.222 337.743 390.839C345.281 375.393 348.969 357.839 348.969 338.319C348.969 320.044 345.872 303.463 339.545 288.684C333.424 273.951 324.261 260.798 312.14 249.238C300.09 237.747 285.329 227.565 267.944 218.647C250.822 209.767 231.215 201.719 209.155 194.482L209.107 194.467L209.06 194.452C196.732 190.635 185.854 186.648 176.405 182.501C167 178.373 159.176 174.119 152.868 169.767C146.855 165.3 142.41 160.721 139.355 156.082C136.616 151.464 135.232 146.377 135.232 140.692C135.232 133.314 137.149 126.598 141.004 120.415C144.953 114.373 150.796 109.472 158.848 105.818L158.875 105.806L158.902 105.793C167.03 102.008 177.39 99.9698 190.219 99.9698C203.325 99.9698 213.725 102.361 221.737 106.771L221.759 106.784L221.782 106.796C230.097 111.281 236.085 117.376 239.972 125.106L240.007 125.174L240.043 125.242C244.171 132.95 246.326 142.009 246.326 152.59V158.59H252.326H342.969H348.969V152.59C348.969 125.647 342.364 101.756 328.986 81.1384C315.659 60.4078 297.065 44.4122 273.398 33.1374C249.876 21.6493 222.75 16 192.178 16C169.308 16 148.21 18.8653 128.929 24.662C109.681 30.2557 92.7933 38.4853 78.3525 49.412C63.8766 60.1714 52.553 73.226 44.4716 88.5607C36.3274 104.015 32.3095 121.241 32.3095 140.112C32.3095 159.476 36.1054 176.713 43.9016 191.643L43.9161 191.671L43.9309 191.698C51.7858 206.365 62.4755 219.165 75.9324 230.089C89.1953 240.856 104.236 250.288 121.026 258.402L121.063 258.42L121.101 258.438C137.909 266.274 155.552 273.32 174.027 279.577L174.06 279.589L174.094 279.6C189.973 284.771 202.614 289.786 212.117 294.623L212.159 294.644L212.201 294.665C221.819 299.37 228.934 303.925 233.779 308.258C238.571 312.543 241.652 317.049 243.312 321.746Z" stroke="white" stroke-width="12"/>
<mask id="path-4-outside-1_603_30" maskUnits="userSpaceOnUse" x="4" y="0" width="361" height="479" fill="black">
<rect fill="white" x="4" width="361" height="479"/>
<path fill-rule="evenodd" clip-rule="evenodd" d="M239.559 323.13L239.541 323.079C238.142 319.12 235.493 315.157 231.113 311.239C226.643 307.242 219.883 302.876 210.443 298.257L210.373 298.223L210.303 298.188C201.054 293.481 188.627 288.539 172.855 283.403L172.799 283.385L172.744 283.366C154.138 277.064 136.359 269.965 119.411 262.063L119.348 262.034L119.285 262.004C102.245 253.768 86.9369 244.175 73.4113 233.195C59.5624 221.952 48.5228 208.744 40.4048 193.587L40.3801 193.541L40.3559 193.494C32.2115 177.897 28.3095 160.004 28.3095 140.112C28.3095 120.655 32.4571 102.779 40.933 86.6958C49.3041 70.8114 61.027 57.3084 75.9525 46.2119C90.8195 34.9657 108.149 26.5376 127.795 20.826C147.495 14.9053 168.981 12 192.178 12C223.237 12 250.978 17.7395 275.135 29.5344C299.411 41.1026 318.589 57.5721 332.344 78.9663C346.188 100.303 352.969 124.967 352.969 152.59V162.59H242.326V152.59C242.326 142.565 240.289 134.173 236.517 127.131L236.456 127.018L236.399 126.903C232.903 119.954 227.525 114.439 219.883 110.316L219.845 110.296L219.808 110.276C212.547 106.279 202.861 103.97 190.219 103.97C177.789 103.97 168.045 105.948 160.59 109.419L160.546 109.44L160.501 109.46C153.051 112.841 147.849 117.268 144.375 122.567C140.935 128.1 139.232 134.07 139.232 140.692C139.232 145.652 140.42 150.004 142.748 153.961C145.481 158.086 149.534 162.299 155.197 166.514C161.236 170.674 168.805 174.797 178.012 178.838C187.295 182.912 198.028 186.848 210.243 190.631L210.323 190.656L210.402 190.682C232.621 197.97 252.431 206.096 269.778 215.092C287.437 224.152 302.527 234.543 314.9 246.344C327.395 258.26 336.885 271.863 343.231 287.132C349.796 302.477 352.969 319.598 352.969 338.319C352.969 358.34 349.186 376.504 341.347 392.574C333.745 408.54 322.659 422.125 308.246 433.286L308.228 433.3C294.029 444.241 277.181 452.402 257.872 457.92C238.552 463.442 217.185 466.141 193.856 466.141C172.449 466.141 151.332 463.313 130.529 457.666L130.485 457.654L130.442 457.642C109.445 451.739 90.3148 442.751 73.1211 430.656L73.0988 430.641L73.0766 430.625C55.7867 418.32 41.9163 402.665 31.5089 383.772L31.4782 383.716L31.4482 383.66C21.0158 364.139 16 341.365 16 315.683V305.683H127.202V315.683C127.202 327.564 128.855 337.054 131.794 344.451C134.773 351.757 138.862 357.388 143.958 361.631C149.372 365.986 156.086 369.25 164.335 371.264C172.934 373.363 182.752 374.461 193.856 374.461C206.624 374.461 216.029 372.631 222.637 369.596C229.702 366.241 234.363 361.984 237.276 357.04C240.424 351.696 242.047 345.725 242.047 338.899C242.047 332.687 241.156 327.497 239.577 323.18L239.559 323.13ZM226.868 378.657C218.475 382.526 207.471 384.461 193.856 384.461C182.106 384.461 171.476 383.3 161.964 380.979C152.452 378.657 144.339 374.788 137.624 369.371C131.097 363.953 126.061 356.892 122.517 348.186C118.974 339.286 117.202 328.452 117.202 315.683H26C26 319.081 26.0924 322.414 26.2771 325.683C27.418 345.874 32.0815 363.629 40.2678 378.947C49.9662 396.553 62.8351 411.063 78.8748 422.477C95.1009 433.892 113.192 442.404 133.148 448.015C153.105 453.432 173.341 456.141 193.856 456.141C216.424 456.141 236.846 453.529 255.124 448.305C273.402 443.082 289.068 435.44 302.124 425.379C315.366 415.126 325.437 402.744 332.338 388.234C339.425 373.724 342.969 357.085 342.969 338.319C342.969 320.714 339.985 304.946 334.016 291.016C328.235 277.087 319.562 264.608 307.999 253.58C296.435 242.553 282.167 232.686 265.195 223.98C248.41 215.274 229.106 207.342 207.285 200.183C194.789 196.314 183.692 192.251 173.993 187.995C164.295 183.739 156.089 179.289 149.374 174.646C142.847 169.809 137.811 164.682 134.267 159.265C130.91 153.654 129.232 147.464 129.232 140.692C129.232 132.18 131.47 124.344 135.946 117.186C140.609 110.028 147.416 104.417 156.368 100.354C165.507 96.098 176.791 93.9698 190.219 93.9698C204.021 93.9698 215.491 96.4849 224.63 101.515C233.955 106.545 240.856 113.51 245.332 122.41C249.995 131.116 252.326 141.176 252.326 152.59H342.969C342.969 149.203 342.86 145.869 342.644 142.59C341.203 120.779 334.97 101.38 323.945 84.3932C311.263 64.6595 293.544 49.3756 270.791 38.5415C248.223 27.5138 222.019 22 192.178 22C169.797 22 149.281 24.8053 130.63 30.4158C111.98 35.8329 95.7536 43.7651 81.9521 54.2123C68.1506 64.4661 57.4264 76.848 49.7797 91.358C42.1329 105.868 38.3095 122.119 38.3095 140.112C38.3095 158.685 41.9464 174.936 49.2201 188.866C56.6804 202.795 66.8451 214.984 79.714 225.431C92.583 235.878 107.224 245.068 123.636 253C140.236 260.739 157.674 267.703 175.952 273.894C191.991 279.118 204.954 284.245 214.838 289.275C224.723 294.112 232.37 298.948 237.779 303.785C243.188 308.622 246.918 313.942 248.969 319.746C251.021 325.357 252.047 331.741 252.047 338.899C252.047 347.412 249.995 355.151 245.892 362.116C241.789 369.08 235.447 374.594 226.868 378.657Z"/>
</mask>
<path fill-rule="evenodd" clip-rule="evenodd" d="M239.559 323.13L239.541 323.079C238.142 319.12 235.493 315.157 231.113 311.239C226.643 307.242 219.883 302.876 210.443 298.257L210.373 298.223L210.303 298.188C201.054 293.481 188.627 288.539 172.855 283.403L172.799 283.385L172.744 283.366C154.138 277.064 136.359 269.965 119.411 262.063L119.348 262.034L119.285 262.004C102.245 253.768 86.9369 244.175 73.4113 233.195C59.5624 221.952 48.5228 208.744 40.4048 193.587L40.3801 193.541L40.3559 193.494C32.2115 177.897 28.3095 160.004 28.3095 140.112C28.3095 120.655 32.4571 102.779 40.933 86.6958C49.3041 70.8114 61.027 57.3084 75.9525 46.2119C90.8195 34.9657 108.149 26.5376 127.795 20.826C147.495 14.9053 168.981 12 192.178 12C223.237 12 250.978 17.7395 275.135 29.5344C299.411 41.1026 318.589 57.5721 332.344 78.9663C346.188 100.303 352.969 124.967 352.969 152.59V162.59H242.326V152.59C242.326 142.565 240.289 134.173 236.517 127.131L236.456 127.018L236.399 126.903C232.903 119.954 227.525 114.439 219.883 110.316L219.845 110.296L219.808 110.276C212.547 106.279 202.861 103.97 190.219 103.97C177.789 103.97 168.045 105.948 160.59 109.419L160.546 109.44L160.501 109.46C153.051 112.841 147.849 117.268 144.375 122.567C140.935 128.1 139.232 134.07 139.232 140.692C139.232 145.652 140.42 150.004 142.748 153.961C145.481 158.086 149.534 162.299 155.197 166.514C161.236 170.674 168.805 174.797 178.012 178.838C187.295 182.912 198.028 186.848 210.243 190.631L210.323 190.656L210.402 190.682C232.621 197.97 252.431 206.096 269.778 215.092C287.437 224.152 302.527 234.543 314.9 246.344C327.395 258.26 336.885 271.863 343.231 287.132C349.796 302.477 352.969 319.598 352.969 338.319C352.969 358.34 349.186 376.504 341.347 392.574C333.745 408.54 322.659 422.125 308.246 433.286L308.228 433.3C294.029 444.241 277.181 452.402 257.872 457.92C238.552 463.442 217.185 466.141 193.856 466.141C172.449 466.141 151.332 463.313 130.529 457.666L130.485 457.654L130.442 457.642C109.445 451.739 90.3148 442.751 73.1211 430.656L73.0988 430.641L73.0766 430.625C55.7867 418.32 41.9163 402.665 31.5089 383.772L31.4782 383.716L31.4482 383.66C21.0158 364.139 16 341.365 16 315.683V305.683H127.202V315.683C127.202 327.564 128.855 337.054 131.794 344.451C134.773 351.757 138.862 357.388 143.958 361.631C149.372 365.986 156.086 369.25 164.335 371.264C172.934 373.363 182.752 374.461 193.856 374.461C206.624 374.461 216.029 372.631 222.637 369.596C229.702 366.241 234.363 361.984 237.276 357.04C240.424 351.696 242.047 345.725 242.047 338.899C242.047 332.687 241.156 327.497 239.577 323.18L239.559 323.13ZM226.868 378.657C218.475 382.526 207.471 384.461 193.856 384.461C182.106 384.461 171.476 383.3 161.964 380.979C152.452 378.657 144.339 374.788 137.624 369.371C131.097 363.953 126.061 356.892 122.517 348.186C118.974 339.286 117.202 328.452 117.202 315.683H26C26 319.081 26.0924 322.414 26.2771 325.683C27.418 345.874 32.0815 363.629 40.2678 378.947C49.9662 396.553 62.8351 411.063 78.8748 422.477C95.1009 433.892 113.192 442.404 133.148 448.015C153.105 453.432 173.341 456.141 193.856 456.141C216.424 456.141 236.846 453.529 255.124 448.305C273.402 443.082 289.068 435.44 302.124 425.379C315.366 415.126 325.437 402.744 332.338 388.234C339.425 373.724 342.969 357.085 342.969 338.319C342.969 320.714 339.985 304.946 334.016 291.016C328.235 277.087 319.562 264.608 307.999 253.58C296.435 242.553 282.167 232.686 265.195 223.98C248.41 215.274 229.106 207.342 207.285 200.183C194.789 196.314 183.692 192.251 173.993 187.995C164.295 183.739 156.089 179.289 149.374 174.646C142.847 169.809 137.811 164.682 134.267 159.265C130.91 153.654 129.232 147.464 129.232 140.692C129.232 132.18 131.47 124.344 135.946 117.186C140.609 110.028 147.416 104.417 156.368 100.354C165.507 96.098 176.791 93.9698 190.219 93.9698C204.021 93.9698 215.491 96.4849 224.63 101.515C233.955 106.545 240.856 113.51 245.332 122.41C249.995 131.116 252.326 141.176 252.326 152.59H342.969C342.969 149.203 342.86 145.869 342.644 142.59C341.203 120.779 334.97 101.38 323.945 84.3932C311.263 64.6595 293.544 49.3756 270.791 38.5415C248.223 27.5138 222.019 22 192.178 22C169.797 22 149.281 24.8053 130.63 30.4158C111.98 35.8329 95.7536 43.7651 81.9521 54.2123C68.1506 64.4661 57.4264 76.848 49.7797 91.358C42.1329 105.868 38.3095 122.119 38.3095 140.112C38.3095 158.685 41.9464 174.936 49.2201 188.866C56.6804 202.795 66.8451 214.984 79.714 225.431C92.583 235.878 107.224 245.068 123.636 253C140.236 260.739 157.674 267.703 175.952 273.894C191.991 279.118 204.954 284.245 214.838 289.275C224.723 294.112 232.37 298.948 237.779 303.785C243.188 308.622 246.918 313.942 248.969 319.746C251.021 325.357 252.047 331.741 252.047 338.899C252.047 347.412 249.995 355.151 245.892 362.116C241.789 369.08 235.447 374.594 226.868 378.657Z" fill="#08463B"/>
<path fill-rule="evenodd" clip-rule="evenodd" d="M239.559 323.13L239.541 323.079C238.142 319.12 235.493 315.157 231.113 311.239C226.643 307.242 219.883 302.876 210.443 298.257L210.373 298.223L210.303 298.188C201.054 293.481 188.627 288.539 172.855 283.403L172.799 283.385L172.744 283.366C154.138 277.064 136.359 269.965 119.411 262.063L119.348 262.034L119.285 262.004C102.245 253.768 86.9369 244.175 73.4113 233.195C59.5624 221.952 48.5228 208.744 40.4048 193.587L40.3801 193.541L40.3559 193.494C32.2115 177.897 28.3095 160.004 28.3095 140.112C28.3095 120.655 32.4571 102.779 40.933 86.6958C49.3041 70.8114 61.027 57.3084 75.9525 46.2119C90.8195 34.9657 108.149 26.5376 127.795 20.826C147.495 14.9053 168.981 12 192.178 12C223.237 12 250.978 17.7395 275.135 29.5344C299.411 41.1026 318.589 57.5721 332.344 78.9663C346.188 100.303 352.969 124.967 352.969 152.59V162.59H242.326V152.59C242.326 142.565 240.289 134.173 236.517 127.131L236.456 127.018L236.399 126.903C232.903 119.954 227.525 114.439 219.883 110.316L219.845 110.296L219.808 110.276C212.547 106.279 202.861 103.97 190.219 103.97C177.789 103.97 168.045 105.948 160.59 109.419L160.546 109.44L160.501 109.46C153.051 112.841 147.849 117.268 144.375 122.567C140.935 128.1 139.232 134.07 139.232 140.692C139.232 145.652 140.42 150.004 142.748 153.961C145.481 158.086 149.534 162.299 155.197 166.514C161.236 170.674 168.805 174.797 178.012 178.838C187.295 182.912 198.028 186.848 210.243 190.631L210.323 190.656L210.402 190.682C232.621 197.97 252.431 206.096 269.778 215.092C287.437 224.152 302.527 234.543 314.9 246.344C327.395 258.26 336.885 271.863 343.231 287.132C349.796 302.477 352.969 319.598 352.969 338.319C352.969 358.34 349.186 376.504 341.347 392.574C333.745 408.54 322.659 422.125 308.246 433.286L308.228 433.3C294.029 444.241 277.181 452.402 257.872 457.92C238.552 463.442 217.185 466.141 193.856 466.141C172.449 466.141 151.332 463.313 130.529 457.666L130.485 457.654L130.442 457.642C109.445 451.739 90.3148 442.751 73.1211 430.656L73.0988 430.641L73.0766 430.625C55.7867 418.32 41.9163 402.665 31.5089 383.772L31.4782 383.716L31.4482 383.66C21.0158 364.139 16 341.365 16 315.683V305.683H127.202V315.683C127.202 327.564 128.855 337.054 131.794 344.451C134.773 351.757 138.862 357.388 143.958 361.631C149.372 365.986 156.086 369.25 164.335 371.264C172.934 373.363 182.752 374.461 193.856 374.461C206.624 374.461 216.029 372.631 222.637 369.596C229.702 366.241 234.363 361.984 237.276 357.04C240.424 351.696 242.047 345.725 242.047 338.899C242.047 332.687 241.156 327.497 239.577 323.18L239.559 323.13ZM226.868 378.657C218.475 382.526 207.471 384.461 193.856 384.461C182.106 384.461 171.476 383.3 161.964 380.979C152.452 378.657 144.339 374.788 137.624 369.371C131.097 363.953 126.061 356.892 122.517 348.186C118.974 339.286 117.202 328.452 117.202 315.683H26C26 319.081 26.0924 322.414 26.2771 325.683C27.418 345.874 32.0815 363.629 40.2678 378.947C49.9662 396.553 62.8351 411.063 78.8748 422.477C95.1009 433.892 113.192 442.404 133.148 448.015C153.105 453.432 173.341 456.141 193.856 456.141C216.424 456.141 236.846 453.529 255.124 448.305C273.402 443.082 289.068 435.44 302.124 425.379C315.366 415.126 325.437 402.744 332.338 388.234C339.425 373.724 342.969 357.085 342.969 338.319C342.969 320.714 339.985 304.946 334.016 291.016C328.235 277.087 319.562 264.608 307.999 253.58C296.435 242.553 282.167 232.686 265.195 223.98C248.41 215.274 229.106 207.342 207.285 200.183C194.789 196.314 183.692 192.251 173.993 187.995C164.295 183.739 156.089 179.289 149.374 174.646C142.847 169.809 137.811 164.682 134.267 159.265C130.91 153.654 129.232 147.464 129.232 140.692C129.232 132.18 131.47 124.344 135.946 117.186C140.609 110.028 147.416 104.417 156.368 100.354C165.507 96.098 176.791 93.9698 190.219 93.9698C204.021 93.9698 215.491 96.4849 224.63 101.515C233.955 106.545 240.856 113.51 245.332 122.41C249.995 131.116 252.326 141.176 252.326 152.59H342.969C342.969 149.203 342.86 145.869 342.644 142.59C341.203 120.779 334.97 101.38 323.945 84.3932C311.263 64.6595 293.544 49.3756 270.791 38.5415C248.223 27.5138 222.019 22 192.178 22C169.797 22 149.281 24.8053 130.63 30.4158C111.98 35.8329 95.7536 43.7651 81.9521 54.2123C68.1506 64.4661 57.4264 76.848 49.7797 91.358C42.1329 105.868 38.3095 122.119 38.3095 140.112C38.3095 158.685 41.9464 174.936 49.2201 188.866C56.6804 202.795 66.8451 214.984 79.714 225.431C92.583 235.878 107.224 245.068 123.636 253C140.236 260.739 157.674 267.703 175.952 273.894C191.991 279.118 204.954 284.245 214.838 289.275C224.723 294.112 232.37 298.948 237.779 303.785C243.188 308.622 246.918 313.942 248.969 319.746C251.021 325.357 252.047 331.741 252.047 338.899C252.047 347.412 249.995 355.151 245.892 362.116C241.789 369.08 235.447 374.594 226.868 378.657Z" stroke="white" stroke-width="24" mask="url(#path-4-outside-1_603_30)"/>
</g>
<defs>
<filter id="filter0_d_603_30" x="0" y="0" width="865.388" height="486.141" filterUnits="userSpaceOnUse" color-interpolation-filters="sRGB">
<feFlood flood-opacity="0" result="BackgroundImageFix"/>
<feColorMatrix in="SourceAlpha" type="matrix" values="0 0 0 0 0 0 0 0 0 0 0 0 0 0 0 0 0 0 127 0" result="hardAlpha"/>
<feOffset dy="4"/>
<feGaussianBlur stdDeviation="2"/>
<feComposite in2="hardAlpha" operator="out"/>
<feColorMatrix type="matrix" values="0 0 0 0 0 0 0 0 0 0 0 0 0 0 0 0 0 0 0.25 0"/>
<feBlend mode="normal" in2="BackgroundImageFix" result="effect1_dropShadow_603_30"/>
<feBlend mode="normal" in="SourceGraphic" in2="effect1_dropShadow_603_30" result="shape"/>
</filter>
</defs>
</svg>
